<?xml version="1.0" encoding="UTF-8"?>
<!DOCTYPE svg PUBLIC "-//W3C//DTD SVG 1.1//EN" "http://www.w3.org/Graphics/SVG/1.1/DTD/svg11.dtd">
<!-- Creator: CorelDRAW X7 -->
<svg xmlns="http://www.w3.org/2000/svg" xml:space="preserve" width="7.11109in" height="7.11519in" version="1.1" shape-rendering="geometricPrecision" text-rendering="geometricPrecision" image-rendering="optimizeQuality" fill-rule="evenodd" clip-rule="evenodd"
viewBox="0 0 1329 1330"
 xmlns:xlink="http://www.w3.org/1999/xlink">
 <g id="Layer_x0020_1">
  <metadata id="CorelCorpID_0Corel-Layer"/>
  <path fill="#9F938F" d="M735 507l120 1 0 157 -122 1 0 398 -167 -1 0 -397 -92 -1 -1 -157 93 -2c10,-258 72,-240 289,-240l0 158c-89,0 -129,-20 -120,83zm-150 -500c-340,49 -630,338 -579,742 42,334 355,628 741,574 332,-45 630,-347 575,-741 -44,-324 -342,-632 -737,-575z"/>
 </g>
</svg>
