<?xml version="1.0" encoding="UTF-8"?>
<!DOCTYPE svg PUBLIC "-//W3C//DTD SVG 1.1//EN" "http://www.w3.org/Graphics/SVG/1.1/DTD/svg11.dtd">
<!-- Creator: CorelDRAW X7 -->
<svg xmlns="http://www.w3.org/2000/svg" xml:space="preserve" width="7.11106in" height="7.14655in" version="1.1" shape-rendering="geometricPrecision" text-rendering="geometricPrecision" image-rendering="optimizeQuality" fill-rule="evenodd" clip-rule="evenodd"
viewBox="0 0 10933 10988"
 xmlns:xlink="http://www.w3.org/1999/xlink">
 <g id="Layer_x0020_1">
  <metadata id="CorelCorpID_0Corel-Layer"/>
  <g id="_2099714301136">
   <path fill="#9F938F" d="M4049 1932c2334,-183 4892,-431 4994,2090 100,2483 497,4922 -2154,5044 -2344,109 -4904,484 -5036,-2075 -45,-864 -105,-2801 63,-3574 237,-1089 955,-1392 2133,-1485zm1061 -1905c-7588,794 -6201,11429 714,10945 2886,-202 5337,-2692 5092,-5887 -212,-2772 -2703,-5382 -5806,-5058z"/>
   <path fill="#9F938F" d="M5119 3681c2361,-548 3077,3220 692,3638 -2365,415 -3219,-3052 -692,-3638zm3401 3084c40,-1008 75,-2016 -12,-3022 -88,-1028 -786,-1234 -1784,-1307 -2069,-151 -4281,-457 -4363,1696 -83,2146 -519,4372 1782,4426 2261,53 4286,560 4377,-1793z"/>
   <path fill="#9F938F" d="M5222 4174c-1707,366 -1380,2895 477,2634 1645,-231 1290,-3013 -477,-2634z"/>
  </g>
 </g>
</svg>
