<?xml version="1.0" encoding="UTF-8"?>
<!DOCTYPE svg PUBLIC "-//W3C//DTD SVG 1.1//EN" "http://www.w3.org/Graphics/SVG/1.1/DTD/svg11.dtd">
<!-- Creator: CorelDRAW X7 -->
<svg xmlns="http://www.w3.org/2000/svg" xml:space="preserve" width="7.11108in" height="7.14652in" version="1.1" shape-rendering="geometricPrecision" text-rendering="geometricPrecision" image-rendering="optimizeQuality" fill-rule="evenodd" clip-rule="evenodd"
viewBox="0 0 5447 5474"
 xmlns:xlink="http://www.w3.org/1999/xlink">
 <g id="Layer_x0020_1">
  <metadata id="CorelCorpID_0Corel-Layer"/>
  <path fill="#9F938F" d="M1648 2246l444 0 0 1567 -443 1 -1 -1568zm1161 828l-9 740 -426 -3 -6 -1556c530,-46 346,20 489,155 218,-287 734,-254 881,89 83,194 96,1067 52,1314l-421 0c-55,-265 39,-835 -45,-1040 -102,-248 -515,-264 -515,301zm-1061 -1364c285,-182 489,243 241,385 -257,146 -514,-210 -241,-385zm647 -1677c-3760,620 -2751,5854 659,5415 1381,-178 2572,-1428 2371,-3052 -166,-1340 -1477,-2619 -3030,-2363z"/>
 </g>
</svg>
