<?xml version="1.0" encoding="UTF-8"?>
<!DOCTYPE svg PUBLIC "-//W3C//DTD SVG 1.1//EN" "http://www.w3.org/Graphics/SVG/1.1/DTD/svg11.dtd">
<!-- Creator: CorelDRAW X7 -->
<svg xmlns="http://www.w3.org/2000/svg" xml:space="preserve" width="7.11107in" height="7.14653in" version="1.1" shape-rendering="geometricPrecision" text-rendering="geometricPrecision" image-rendering="optimizeQuality" fill-rule="evenodd" clip-rule="evenodd"
viewBox="0 0 2735 2749"
 xmlns:xlink="http://www.w3.org/1999/xlink">
 <g id="Layer_x0020_1">
  <metadata id="CorelCorpID_0Corel-Layer"/>
  <path fill="#9F938F" d="M1334 1108c-68,-493 378,-617 618,-396 100,92 152,-17 246,-61l-124 231 195 -55c-48,91 -168,125 -184,241 -21,145 -7,214 -54,352 -258,764 -1184,877 -1563,547 200,-1 359,-35 483,-144 -130,-85 -264,-55 -326,-272l147 -10c-133,-94 -289,-122 -290,-371l153 35c-74,-151 -227,-225 -96,-499 145,90 285,368 795,402zm-135 -1094c-704,103 -1297,713 -1185,1549 91,690 737,1288 1543,1171 698,-101 1262,-728 1168,-1539 -77,-661 -724,-1298 -1526,-1181z"/>
 </g>
</svg>
