<?xml version="1.0" encoding="UTF-8"?>
<!DOCTYPE svg PUBLIC "-//W3C//DTD SVG 1.1//EN" "http://www.w3.org/Graphics/SVG/1.1/DTD/svg11.dtd">
<!-- Creator: CorelDRAW X7 -->
<svg xmlns="http://www.w3.org/2000/svg" xml:space="preserve" width="7.11109in" height="7.14655in" version="1.1" shape-rendering="geometricPrecision" text-rendering="geometricPrecision" image-rendering="optimizeQuality" fill-rule="evenodd" clip-rule="evenodd"
viewBox="0 0 2730 2743"
 xmlns:xlink="http://www.w3.org/1999/xlink">
 <g id="Layer_x0020_1">
  <metadata id="CorelCorpID_0Corel-Layer"/>
  <g id="_2099710686080">
   <path fill="#9F938F" d="M1078 632c243,-18 580,-8 827,10 302,22 408,112 406,432 -1,171 23,712 -26,827 -97,229 -347,197 -631,207 -294,11 -548,3 -838,-10 -322,-14 -404,-112 -404,-437 1,-168 -24,-712 26,-825 100,-231 362,-182 640,-204zm200 -625c-1906,201 -1542,2866 180,2731 724,-56 1318,-658 1269,-1467 -42,-702 -701,-1343 -1449,-1264z"/>
   <path fill="#9F938F" d="M1111 1618l495 -244c-70,-48 -418,-225 -495,-246l0 490z"/>
  </g>
 </g>
</svg>
