<?xml version="1.0" encoding="UTF-8"?>
<!DOCTYPE svg PUBLIC "-//W3C//DTD SVG 1.1//EN" "http://www.w3.org/Graphics/SVG/1.1/DTD/svg11.dtd">
<!-- Creator: CorelDRAW X7 -->
<svg xmlns="http://www.w3.org/2000/svg" xml:space="preserve" width="16.0206in" height="14.1235in" version="1.1" shape-rendering="geometricPrecision" text-rendering="geometricPrecision" image-rendering="optimizeQuality" fill-rule="evenodd" clip-rule="evenodd"
viewBox="0 0 16033 14135"
 xmlns:xlink="http://www.w3.org/1999/xlink">
 <g id="Layer_x0020_1">
  <metadata id="CorelCorpID_0Corel-Layer"/>
  <g id="_2099205310448">
   <rect fill="none" x="4" width="16013" height="14011"/>
   <g transform="matrix(1.01534 0 0 1 -2510.15 -5379.7)">
    <text x="8010" y="7006"  fill="#9F938F" font-weight="normal" font-size="363.647px" font-family="Arial">P</text>
    <text x="8292" y="7006"  fill="#9F938F" font-weight="normal" font-size="363.647px" font-family="Arial">E</text>
    <text x="8569" y="7006"  fill="#9F938F" font-weight="normal" font-size="363.647px" font-family="Arial">R</text>
    <text x="8867" y="7006"  fill="#9F938F" font-weight="normal" font-size="363.647px" font-family="Arial">F</text>
    <text x="9128" y="7006"  fill="#9F938F" font-weight="normal" font-size="363.647px" font-family="Arial">E</text>
    <text x="9405" y="7006"  fill="#9F938F" font-weight="normal" font-size="363.647px" font-family="Arial">C</text>
    <text x="9706" y="7006"  fill="#9F938F" font-weight="normal" font-size="363.647px" font-family="Arial">T</text>
    <text x="9964" y="7006"  fill="#9F938F" font-weight="normal" font-size="363.647px" font-family="Arial">L</text>
    <text x="10203" y="7006"  fill="#9F938F" font-weight="normal" font-size="363.647px" font-family="Arial">Y</text>
    <text x="10508" y="7006"  fill="#9F938F" font-weight="normal" font-size="363.647px" font-family="Arial"> </text>
    <text x="10648" y="7006"  fill="#9F938F" font-weight="normal" font-size="363.647px" font-family="Arial">S</text>
    <text x="10925" y="7006"  fill="#9F938F" font-weight="normal" font-size="363.647px" font-family="Arial">I</text>
    <text x="11065" y="7006"  fill="#9F938F" font-weight="normal" font-size="363.647px" font-family="Arial">T</text>
    <text x="11322" y="7006"  fill="#9F938F" font-weight="normal" font-size="363.647px" font-family="Arial">U</text>
    <text x="11623" y="7006"  fill="#9F938F" font-weight="normal" font-size="363.647px" font-family="Arial">A</text>
    <text x="11903" y="7006"  fill="#9F938F" font-weight="normal" font-size="363.647px" font-family="Arial">T</text>
    <text x="12160" y="7006"  fill="#9F938F" font-weight="normal" font-size="363.647px" font-family="Arial">E</text>
    <text x="12442" y="7006"  fill="#9F938F" font-weight="normal" font-size="363.647px" font-family="Arial">D</text>
   </g>
   <g>
    <g>
     <g transform="matrix(1.01534 0 0 1 5082.04 -3783.81)">
      <text x="8010" y="7006"  fill="#848688" font-weight="normal" font-size="158.189px" font-family="Garamond">15-min</text>
      <text x="8446" y="7006"  fill="#848688" font-weight="normal" font-size="158.189px" font-family="Garamond">ute driv</text>
      <text x="8916" y="7006"  fill="#848688" font-weight="normal" font-size="158.189px" font-family="Garamond">e</text>
     </g>
     <path fill="#BDBFC1" fill-rule="nonzero" d="M13514 2325l43 32c2,2 6,3 9,2l62 -10c0,0 0,0 1,0l87 -1c4,0 7,-2 7,-6 0,-4 -3,-6 -7,-6l0 0 -48 0 -67 -111 30 0c1,0 1,0 1,0l116 111c-3,1 -5,3 -5,6 0,4 3,6 7,6l0 0 50 0 0 0c4,0 8,1 12,3l32 12c4,2 5,6 5,8 0,1 -1,5 -5,7l-32 13c-4,1 -8,2 -12,2l-171 0 0 0c-1,0 -1,0 -1,0l-62 -10c-3,-1 -7,0 -9,2l-43 32 -13 0 26 -40c2,-3 2,-8 0,-12l-27 -40 14 0zm1 46l-29 45c-2,3 -2,6 -1,9 2,3 5,5 8,5l0 0 21 0c3,0 5,-1 7,-2l43 -33 61 11c1,0 1,0 1,0 1,0 2,0 3,0l24 0 -67 111c-1,2 -1,6 0,9 2,2 5,4 8,4l0 0 38 0c3,0 6,-1 9,-4l33 -32c3,-2 3,-6 0,-9 -2,-2 -6,-2 -9,0l-33 32c0,0 0,0 -1,0l-30 0 67 -111 80 0 -61 58c-2,2 -2,6 0,9 1,1 3,2 5,2 2,0 3,-1 4,-2l71 -67 33 0c6,0 11,-1 16,-3l33 -13c8,-4 13,-11 13,-19 0,-9 -5,-16 -13,-20l-33 -12c-5,-3 -10,-4 -16,-4l0 0 -34 1 -125 -120c-3,-3 -6,-4 -9,-4l-38 0 0 0c-3,0 -6,2 -8,4 -1,3 -1,7 0,9l66 111 -23 0c-1,0 -2,0 -3,0 -1,0 -1,0 -1,0l-61 11 -43 -33c-2,-1 -4,-2 -7,-2l-21 0c-3,0 -6,2 -8,5 -2,3 -1,7 0,9l30 45z"/>
     <path fill="#BDBFC1" fill-rule="nonzero" d="M13654 2362c4,0 8,3 9,8 0,4 -3,8 -8,9 -4,0 -8,-3 -9,-8 0,-4 3,-8 8,-9z"/>
     <path fill="#BDBFC1" fill-rule="nonzero" d="M13678 2368c1,-5 6,-7 10,-6 5,2 7,6 6,11 -2,4 -6,7 -11,5 -4,-1 -7,-6 -5,-10z"/>
     <path fill="#BDBFC1" fill-rule="nonzero" d="M13710 2364c4,-3 9,-3 12,0 3,4 3,9 0,12 -3,3 -8,3 -12,0 -3,-3 -3,-8 0,-12z"/>
     <path fill="#BDBFC1" fill-rule="nonzero" d="M13747 2379c5,0 9,-4 9,-9 0,-4 -4,-8 -9,-8 -4,0 -8,4 -8,8 0,5 4,9 8,9z"/>
     <path fill="#BDBFC1" fill-rule="nonzero" d="M13774 2606l28 0 0 23 -28 0 0 -23zm-134 0l28 0 0 23 -28 0 0 -23zm74 23l-33 0 0 -23 33 0 0 23zm14 -23l32 0 0 23 -32 0 0 -23zm-261 -68l67 0 0 28 -67 0 0 -28zm31 -73c2,0 3,0 5,0l31 13 0 6 -67 0 0 -6 31 -13zm36 60l-67 0 0 -28 67 0 0 28zm318 41l-305 0 0 -28 4 0c3,0 6,-3 6,-6 0,-4 -3,-7 -6,-7l-4 0 0 -28 4 0c3,0 6,-3 6,-6 0,-4 -3,-7 -6,-7l-4 0 0 -7c0,-5 -3,-9 -7,-10l-32 -14c-5,-2 -10,-2 -15,0l-32 14c-4,1 -7,5 -7,10l0 7 -3 0c-4,0 -7,3 -7,7 0,3 3,6 7,6l3 0 0 28 -3 0c-4,0 -7,3 -7,7 0,3 3,6 7,6l3 0 0 28 -20 0c-9,0 -16,7 -16,15l0 46c0,8 7,15 16,15l22 0c3,0 6,-3 6,-6 0,-4 -3,-7 -6,-7l-22 0c-1,0 -2,-1 -2,-2l0 -46c0,-1 1,-2 2,-2l418 0c1,0 2,1 2,2l0 46c0,1 -1,2 -2,2l-36 0 0 -25c0,-6 -5,-10 -11,-10l-167 0c-6,0 -11,4 -11,10l0 25 -137 0c-4,0 -7,3 -7,7 0,3 3,6 7,6l362 0c8,0 15,-7 15,-15l0 -46c0,-8 -7,-15 -15,-15z"/>
     <g transform="matrix(1.01534 0 0 1 4608.06 -4020.8)">
      <text x="8010" y="7006"  fill="#9F938F" font-weight="normal" font-size="137.365px" font-family="Arial">P</text>
      <text x="8125" y="7006"  fill="#9F938F" font-weight="normal" font-size="137.365px" font-family="Arial">E</text>
      <text x="8242" y="7006"  fill="#9F938F" font-weight="normal" font-size="137.365px" font-family="Arial">S</text>
      <text x="8357" y="7006"  fill="#9F938F" font-weight="normal" font-size="137.365px" font-family="Arial">H</text>
      <text x="8481" y="7006"  fill="#9F938F" font-weight="normal" font-size="137.365px" font-family="Arial">A</text>
      <text x="8596" y="7006"  fill="#9F938F" font-weight="normal" font-size="137.365px" font-family="Arial">W</text>
      <text x="8749" y="7006"  fill="#9F938F" font-weight="normal" font-size="137.365px" font-family="Arial">A</text>
      <text x="8866" y="7006"  fill="#9F938F" font-weight="normal" font-size="137.365px" font-family="Arial">R</text>
      <text x="8988" y="7006"  fill="#9F938F" font-weight="normal" font-size="137.365px" font-family="Arial"> </text>
      <text x="9050" y="7006"  fill="#9F938F" font-weight="normal" font-size="137.365px" font-family="Arial">A</text>
      <text x="9167" y="7006"  fill="#9F938F" font-weight="normal" font-size="137.365px" font-family="Arial">I</text>
      <text x="9228" y="7006"  fill="#9F938F" font-weight="normal" font-size="137.365px" font-family="Arial">R</text>
      <text x="9352" y="7006"  fill="#9F938F" font-weight="normal" font-size="137.365px" font-family="Arial">P</text>
      <text x="9467" y="7006"  fill="#9F938F" font-weight="normal" font-size="137.365px" font-family="Arial">O</text>
      <text x="9597" y="7006"  fill="#9F938F" font-weight="normal" font-size="137.365px" font-family="Arial">R</text>
      <text x="9722" y="7006"  fill="#9F938F" font-weight="normal" font-size="137.365px" font-family="Arial">T</text>
      <text x="9829" y="7006"  fill="#9F938F" font-weight="normal" font-size="137.365px" font-family="Arial"> </text>
     </g>
    </g>
    <g>
     <path fill="#BDBFC1" fill-rule="nonzero" d="M2842 2594l0 -42c0,-3 -3,-6 -6,-6l-148 0c-3,0 -6,3 -6,6l0 42 -41 0 0 -194 243 0 0 194 -42 0zm-28 -36l16 0 0 36 -16 0 0 -36zm-12 36l-80 0 0 -36 80 0 0 36zm-108 -36l16 0 0 36 -16 0 0 -36zm189 -170l-242 0 0 -12 242 0 0 12zm-159 -99l19 0c5,0 9,-4 9,-9l0 -19 20 0 0 19c0,5 4,9 10,9l19 0 0 20 -19 0c-6,0 -10,4 -10,10l0 18 -20 0 0 -18c0,-6 -4,-10 -9,-10l-19 0 0 -20zm227 305l-55 0 0 -244c0,-3 -3,-6 -6,-6 -4,0 -6,3 -6,6l0 14 -243 0 0 -59 70 0 0 7c0,5 4,9 10,9l19 0 0 19c0,5 4,9 9,9l26 0c5,0 9,-4 9,-9l0 -19 20 0c5,0 9,-4 9,-9l0 -7 71 0 0 19c0,4 2,6 6,6 3,0 6,-2 6,-6l0 -25c0,-4 -3,-6 -6,-6l-44 0 0 -65c0,-3 -3,-6 -6,-6l-105 0c-3,0 -6,3 -6,6 0,4 3,6 6,6l99 0 0 59 -21 0 0 -6c0,-6 -4,-10 -9,-10l-20 0 0 -18c0,-5 -4,-10 -9,-10l-26 0c-5,0 -9,5 -9,10l0 18 -19 0c-6,0 -10,4 -10,10l0 6 -21 0 0 -59 20 0c3,0 6,-2 6,-6 0,-3 -3,-6 -6,-6l-26 0c-3,0 -6,3 -6,6l0 65 -43 0c-4,0 -7,2 -7,6l0 295 -55 0c-10,0 -19,9 -19,19 0,10 9,19 19,19l59 0c3,0 6,-3 6,-6 0,-3 -3,-6 -6,-6l-59 0c-4,0 -7,-3 -7,-7 0,-4 3,-7 7,-7l378 0c4,0 7,3 7,7 0,4 -3,7 -7,7l-293 0c-3,0 -6,3 -6,6 0,3 3,6 6,6l293 0c10,0 19,-9 19,-19 0,-10 -9,-19 -19,-19z"/>
     <path fill="#BDBFC1" fill-rule="nonzero" d="M2702 2450l-31 0 0 -28 31 0 0 28zm6 -40l-43 0c-4,0 -6,3 -6,6l0 40c0,3 2,6 6,6l43 0c4,0 7,-3 7,-6l0 -40c0,-3 -3,-6 -7,-6z"/>
     <path fill="#BDBFC1" fill-rule="nonzero" d="M2853 2450l-31 0 0 -28 31 0 0 28zm7 -40l-44 0c-4,0 -6,3 -6,6l0 40c0,3 2,6 6,6l44 0c3,0 6,-3 6,-6l0 -40c0,-3 -3,-6 -6,-6z"/>
     <path fill="#BDBFC1" fill-rule="nonzero" d="M2778 2450l-32 0 0 -28 32 0 0 28zm6 -40l-44 0c-3,0 -6,3 -6,6l0 40c0,3 3,6 6,6l44 0c3,0 6,-3 6,-6l0 -40c0,-3 -3,-6 -6,-6z"/>
     <path fill="#BDBFC1" fill-rule="nonzero" d="M2702 2519l-31 0 0 -28 31 0 0 28zm6 -40l-43 0c-4,0 -6,3 -6,6l0 40c0,4 2,6 6,6l43 0c4,0 7,-2 7,-6l0 -40c0,-3 -3,-6 -7,-6z"/>
     <path fill="#BDBFC1" fill-rule="nonzero" d="M2853 2519l-31 0 0 -28 31 0 0 28zm7 -40l-44 0c-4,0 -6,3 -6,6l0 40c0,4 2,6 6,6l44 0c3,0 6,-2 6,-6l0 -40c0,-3 -3,-6 -6,-6z"/>
     <path fill="#BDBFC1" fill-rule="nonzero" d="M2778 2519l-32 0 0 -28 32 0 0 28zm6 -40l-44 0c-3,0 -6,3 -6,6l0 40c0,4 3,6 6,6l44 0c3,0 6,-2 6,-6l0 -40c0,-3 -3,-6 -6,-6z"/>
     <g transform="matrix(1.01534 0 0 1 -5798.79 -3783.81)">
      <text x="8010" y="7006"  fill="#848688" font-weight="normal" font-size="158.189px" font-family="Garamond">10-min</text>
      <text x="8446" y="7006"  fill="#848688" font-weight="normal" font-size="158.189px" font-family="Garamond">ute driv</text>
      <text x="8916" y="7006"  fill="#848688" font-weight="normal" font-size="158.189px" font-family="Garamond">e</text>
     </g>
     <g transform="matrix(1.01534 0 0 1 -6679.93 -4020.8)">
      <text x="8010" y="7006"  fill="#9F938F" font-weight="normal" font-size="137.365px" font-family="Arial">S</text>
      <text x="8125" y="7006"  fill="#9F938F" font-weight="normal" font-size="137.365px" font-family="Arial">H</text>
      <text x="8249" y="7006"  fill="#9F938F" font-weight="normal" font-size="137.365px" font-family="Arial">A</text>
      <text x="8364" y="7006"  fill="#9F938F" font-weight="normal" font-size="137.365px" font-family="Arial">U</text>
      <text x="8488" y="7006"  fill="#9F938F" font-weight="normal" font-size="137.365px" font-family="Arial">K</text>
      <text x="8603" y="7006"  fill="#9F938F" font-weight="normal" font-size="137.365px" font-family="Arial">A</text>
      <text x="8719" y="7006"  fill="#9F938F" font-weight="normal" font-size="137.365px" font-family="Arial">T</text>
      <text x="8826" y="7006"  fill="#9F938F" font-weight="normal" font-size="137.365px" font-family="Arial"> </text>
      <text x="8889" y="7006"  fill="#9F938F" font-weight="normal" font-size="137.365px" font-family="Arial">K</text>
      <text x="9004" y="7006"  fill="#9F938F" font-weight="normal" font-size="137.365px" font-family="Arial">H</text>
      <text x="9128" y="7006"  fill="#9F938F" font-weight="normal" font-size="137.365px" font-family="Arial">A</text>
      <text x="9243" y="7006"  fill="#9F938F" font-weight="normal" font-size="137.365px" font-family="Arial">N</text>
      <text x="9367" y="7006"  fill="#9F938F" font-weight="normal" font-size="137.365px" font-family="Arial">U</text>
      <text x="9490" y="7006"  fill="#9F938F" font-weight="normal" font-size="137.365px" font-family="Arial">M</text>
      <text x="9629" y="7006"  fill="#9F938F" font-weight="normal" font-size="137.365px" font-family="Arial"> </text>
      <text x="9690" y="7006"  fill="#9F938F" font-weight="normal" font-size="137.365px" font-family="Arial">H</text>
      <text x="9814" y="7006"  fill="#9F938F" font-weight="normal" font-size="137.365px" font-family="Arial">O</text>
      <text x="9944" y="7006"  fill="#9F938F" font-weight="normal" font-size="137.365px" font-family="Arial">S</text>
      <text x="10061" y="7006"  fill="#9F938F" font-weight="normal" font-size="137.365px" font-family="Arial">P</text>
      <text x="10176" y="7006"  fill="#9F938F" font-weight="normal" font-size="137.365px" font-family="Arial">I</text>
      <text x="10237" y="7006"  fill="#9F938F" font-weight="normal" font-size="137.365px" font-family="Arial">T</text>
      <text x="10345" y="7006"  fill="#9F938F" font-weight="normal" font-size="137.365px" font-family="Arial">A</text>
      <text x="10462" y="7006"  fill="#9F938F" font-weight="normal" font-size="137.365px" font-family="Arial">L</text>
      <text x="10562" y="7006"  fill="#9F938F" font-weight="normal" font-size="137.365px" font-family="Arial"> </text>
     </g>
    </g>
    <g>
     <path fill="#BDBFC1" fill-rule="nonzero" d="M6749 2283c6,0 11,-5 11,-12l0 -25c0,-6 -5,-11 -11,-11 -7,0 -12,5 -12,11l0 25c0,7 5,12 12,12z"/>
     <path fill="#BDBFC1" fill-rule="nonzero" d="M6494 2485c-7,0 -12,6 -12,12l0 25c0,7 5,12 12,12 6,0 12,-5 12,-12l0 -25c0,-6 -6,-12 -12,-12z"/>
     <path fill="#BDBFC1" fill-rule="nonzero" d="M6749 2358c6,0 11,-5 11,-11l0 -26c0,-6 -5,-11 -11,-11 -7,0 -12,5 -12,11l0 26c0,6 5,11 12,11z"/>
     <path fill="#BDBFC1" fill-rule="nonzero" d="M6494 2561c-7,0 -12,5 -12,11l0 25c0,7 5,12 12,12 6,0 12,-5 12,-12l0 -25c0,-6 -6,-11 -12,-11z"/>
     <path fill="#BDBFC1" fill-rule="nonzero" d="M6647 2410c-7,0 -12,5 -12,12 0,6 5,12 12,12l25 0c7,0 12,-6 12,-12 0,-7 -5,-12 -12,-12l-25 0z"/>
     <path fill="#BDBFC1" fill-rule="nonzero" d="M6570 2410c-6,0 -12,5 -12,12 0,6 6,12 12,12l26 0c6,0 12,-6 12,-12 0,-7 -6,-12 -12,-12l-26 0z"/>
     <path fill="#BDBFC1" fill-rule="nonzero" d="M6723 2434c21,0 37,-17 37,-37 0,-7 -5,-12 -11,-12 -7,0 -12,5 -12,12 0,7 -6,13 -14,13 -7,0 -12,5 -12,12 0,6 5,12 12,12z"/>
     <path fill="#BDBFC1" fill-rule="nonzero" d="M6519 2410c-20,0 -37,17 -37,37 0,6 5,12 12,12 6,0 12,-6 12,-12 0,-7 6,-13 13,-13l0 0c7,0 12,-6 12,-12 0,-7 -5,-12 -12,-12z"/>
     <path fill="#BDBFC1" fill-rule="nonzero" d="M6812 2222c-6,0 -12,5 -12,12l0 163c0,42 -34,76 -77,76l-165 0c-7,0 -12,5 -12,11l0 126c0,6 5,12 12,12 6,0 11,-6 11,-12l0 -114 154 0c56,0 101,-44 101,-99l0 -163c0,-7 -5,-12 -12,-12z"/>
     <path fill="#BDBFC1" fill-rule="nonzero" d="M6685 2371c6,0 12,-5 12,-12l0 -125c0,-7 -6,-12 -12,-12 -7,0 -12,5 -12,12l0 113 -154 0c-55,0 -101,45 -101,100l0 163c0,6 6,12 12,12 7,0 12,-6 12,-12l0 -163c0,-42 35,-76 77,-76l166 0z"/>
     <g transform="matrix(1.01534 0 0 1 -1901.97 -3783.81)">
      <text x="8010" y="7006"  fill="#848688" font-weight="normal" font-size="158.189px" font-family="Garamond">5-min</text>
      <text x="8372" y="7006"  fill="#848688" font-weight="normal" font-size="158.189px" font-family="Garamond">ute driv</text>
      <text x="8842" y="7006"  fill="#848688" font-weight="normal" font-size="158.189px" font-family="Garamond">e</text>
     </g>
     <g transform="matrix(1.01534 0 0 1 -2570.23 -4020.78)">
      <text x="8010" y="7006"  fill="#9F938F" font-weight="normal" font-size="137.365px" font-family="Arial">G</text>
      <text x="8141" y="7006"  fill="#9F938F" font-weight="normal" font-size="137.365px" font-family="Arial">T</text>
      <text x="8249" y="7006"  fill="#9F938F" font-weight="normal" font-size="137.365px" font-family="Arial"> </text>
      <text x="8311" y="7006"  fill="#9F938F" font-weight="normal" font-size="137.365px" font-family="Arial">R</text>
      <text x="8435" y="7006"  fill="#9F938F" font-weight="normal" font-size="137.365px" font-family="Arial">O</text>
      <text x="8565" y="7006"  fill="#9F938F" font-weight="normal" font-size="137.365px" font-family="Arial">A</text>
      <text x="8681" y="7006"  fill="#9F938F" font-weight="normal" font-size="137.365px" font-family="Arial">D</text>
      <text x="8804" y="7006"  fill="#9F938F" font-weight="normal" font-size="137.365px" font-family="Arial"> </text>
      <text x="8867" y="7006"  fill="#9F938F" font-weight="normal" font-size="137.365px" font-family="Arial">&amp;</text>
      <text x="8982" y="7006"  fill="#9F938F" font-weight="normal" font-size="137.365px" font-family="Arial"> </text>
      <text x="9045" y="7006"  fill="#9F938F" font-weight="normal" font-size="137.365px" font-family="Arial">R</text>
      <text x="9167" y="7006"  fill="#9F938F" font-weight="normal" font-size="137.365px" font-family="Arial">I</text>
      <text x="9229" y="7006"  fill="#9F938F" font-weight="normal" font-size="137.365px" font-family="Arial">N</text>
      <text x="9353" y="7006"  fill="#9F938F" font-weight="normal" font-size="137.365px" font-family="Arial">G</text>
      <text x="9483" y="7006"  fill="#9F938F" font-weight="normal" font-size="137.365px" font-family="Arial"> </text>
      <text x="9546" y="7006"  fill="#9F938F" font-weight="normal" font-size="137.365px" font-family="Arial">R</text>
      <text x="9668" y="7006"  fill="#9F938F" font-weight="normal" font-size="137.365px" font-family="Arial">O</text>
      <text x="9800" y="7006"  fill="#9F938F" font-weight="normal" font-size="137.365px" font-family="Arial">A</text>
      <text x="9915" y="7006"  fill="#9F938F" font-weight="normal" font-size="137.365px" font-family="Arial">D</text>
      <text x="10039" y="7006"  fill="#9F938F" font-weight="normal" font-size="137.365px" font-family="Arial"> </text>
     </g>
    </g>
    <g>
     <path fill="#BDBFC1" fill-rule="nonzero" d="M10138 2578c4,0 7,3 7,6 0,4 -3,7 -7,7 -4,0 -6,-3 -6,-7 0,-3 2,-6 6,-6zm0 25c11,0 20,-8 20,-19 0,-11 -9,-19 -20,-19 -11,0 -19,8 -19,19 0,11 8,19 19,19z"/>
     <path fill="#BDBFC1" fill-rule="nonzero" d="M10340 2591c-3,0 -6,-3 -6,-7 0,-3 3,-6 6,-6 4,0 7,3 7,6 0,4 -3,7 -7,7zm0 -26c-11,0 -19,8 -19,19 0,11 8,19 19,19 11,0 20,-8 20,-19 0,-11 -9,-19 -20,-19z"/>
     <path fill="#BDBFC1" fill-rule="nonzero" d="M10366 2539l-234 0 0 -58c0,0 0,-1 -1,-1l-49 -171c-3,-8 -10,-14 -19,-14l-3 0 0 -13 23 0c2,0 5,2 6,5l56 195 0 38c0,3 3,6 6,6l215 0c4,0 7,3 7,7 0,3 -3,6 -7,6zm7 45c0,18 -15,32 -33,32 -18,0 -32,-14 -32,-32 0,-18 14,-32 32,-32 18,0 33,14 33,32zm-202 0c0,18 -15,32 -33,32 -18,0 -33,-14 -33,-32 0,-18 15,-32 33,-32 18,0 33,14 33,32zm-163 -295c0,-4 3,-7 6,-7l33 0 0 13 -33 0c-3,0 -6,-3 -6,-6zm123 -7l14 0 0 7c0,3 3,6 6,6 4,0 7,-3 7,-6l0 -7 13 0 0 7c0,3 3,6 6,6 4,0 7,-3 7,-6l0 -7 13 0 6 64 -77 0 5 -64zm27 -19c0,-4 3,-6 6,-6 4,0 7,2 7,6l0 6 -13 0 0 -6zm32 -6c4,0 7,2 7,6l0 6 -13 0 0 -6c0,-4 3,-6 6,-6zm39 89l-13 0 -6 -64 13 0 6 64zm20 -38l0 6c0,4 3,7 6,7 4,0 7,-3 7,-7l0 -6 13 0 0 6c0,4 3,7 6,7 4,0 7,-3 7,-7l0 -6 14 0 4 38 -64 0 -3 -38 10 0zm13 -19c0,-4 3,-7 6,-7 4,0 7,3 7,7l0 6 -13 0 0 -6zm32 -7c4,0 7,3 7,7l0 6 -13 0 0 -6c0,-4 3,-7 6,-7zm38 64l-13 0 -4 -38 13 0 4 38zm27 39l-32 0 5 -26 33 0 -6 26zm-12 54l0 -3 -32 0 9 -38 32 0 -9 41zm-38 26l3 -16 32 0 -3 13 -32 3zm-137 -16l5 24 -21 2 -7 -26 23 0zm-11 -51l8 38 -24 0 -11 -38 27 0zm-9 -39l6 26 -28 0 -7 -26 29 0zm52 0l3 26 -36 0 -5 -26 38 0zm68 77l5 -38 33 0 -8 38 -30 0zm-1 13l28 0 -4 16 -26 2 2 -18zm-44 0l31 0 -3 19 2 0 -28 2 -2 -21zm-13 0l2 22 -26 1 -5 -23 29 0zm7 -51l42 0 -4 38 -34 0 -4 -38zm-9 38l-30 0 -8 -38 34 0 4 38zm107 -77l-6 26 -35 0 3 -26 38 0zm-51 0l-3 26 -45 0 -3 -26 51 0zm118 174c0,-11 -9,-20 -20,-20l-208 0 0 -26 189 -12c3,0 5,-2 6,-5l26 -116c1,-3 -1,-7 -5,-7 0,0 -1,-1 -1,-1l-28 0 -5 -45c0,-3 -3,-6 -6,-6l-20 0 0 -6c0,-11 -9,-20 -19,-20 -5,0 -10,2 -14,5 -8,-7 -20,-6 -27,2 -3,3 -5,8 -5,13l0 6 -11 0 -2 -20c0,-3 -3,-6 -7,-6l-19 0 0 -6c0,-11 -9,-19 -20,-19 -4,0 -9,2 -13,5 -8,-7 -20,-7 -27,1 -4,4 -5,8 -5,13l0 6 -20 0c-3,0 -6,3 -6,6l-5 53 -13 -45c-2,-8 -10,-14 -18,-14l-69 0c-11,0 -19,9 -19,20 0,10 8,19 19,19l49 0c3,0 5,2 6,5l50 169 0 61c-23,11 -33,38 -22,60 11,23 38,32 61,22 22,-11 32,-38 21,-60 -2,-5 -5,-9 -9,-13l138 0c-18,17 -18,46 0,64 17,17 46,18 64,0 18,-17 18,-46 1,-63 -1,-1 -1,-1 -2,-2 9,-2 15,-10 15,-18z"/>
     <g transform="matrix(1.01534 0 0 1 1629.38 -3783.81)">
      <text x="8010" y="7006"  fill="#848688" font-weight="normal" font-size="158.189px" font-family="Garamond">20-min</text>
      <text x="8446" y="7006"  fill="#848688" font-weight="normal" font-size="158.189px" font-family="Garamond">ute driv</text>
      <text x="8916" y="7006"  fill="#848688" font-weight="normal" font-size="158.189px" font-family="Garamond">e</text>
     </g>
     <g transform="matrix(1.01534 0 0 1 1006.4 -4020.78)">
      <text x="8010" y="7006"  fill="#9F938F" font-weight="normal" font-size="137.365px" font-family="Arial">Q</text>
      <text x="8141" y="7006"  fill="#9F938F" font-weight="normal" font-size="137.365px" font-family="Arial">I</text>
      <text x="8203" y="7006"  fill="#9F938F" font-weight="normal" font-size="137.365px" font-family="Arial">S</text>
      <text x="8318" y="7006"  fill="#9F938F" font-weight="normal" font-size="137.365px" font-family="Arial">S</text>
      <text x="8435" y="7006"  fill="#9F938F" font-weight="normal" font-size="137.365px" font-family="Arial">A</text>
      <text x="8550" y="7006"  fill="#9F938F" font-weight="normal" font-size="137.365px" font-family="Arial"> </text>
      <text x="8612" y="7006"  fill="#9F938F" font-weight="normal" font-size="137.365px" font-family="Arial">K</text>
      <text x="8728" y="7006"  fill="#9F938F" font-weight="normal" font-size="137.365px" font-family="Arial">H</text>
      <text x="8851" y="7006"  fill="#9F938F" font-weight="normal" font-size="137.365px" font-family="Arial">W</text>
      <text x="9004" y="7006"  fill="#9F938F" font-weight="normal" font-size="137.365px" font-family="Arial">A</text>
      <text x="9121" y="7006"  fill="#9F938F" font-weight="normal" font-size="137.365px" font-family="Arial">N</text>
      <text x="9243" y="7006"  fill="#9F938F" font-weight="normal" font-size="137.365px" font-family="Arial">I</text>
      <text x="9306" y="7006"  fill="#9F938F" font-weight="normal" font-size="137.365px" font-family="Arial"> </text>
      <text x="9367" y="7006"  fill="#9F938F" font-weight="normal" font-size="137.365px" font-family="Arial">B</text>
      <text x="9484" y="7006"  fill="#9F938F" font-weight="normal" font-size="137.365px" font-family="Arial">A</text>
      <text x="9599" y="7006"  fill="#9F938F" font-weight="normal" font-size="137.365px" font-family="Arial">Z</text>
      <text x="9707" y="7006"  fill="#9F938F" font-weight="normal" font-size="137.365px" font-family="Arial">A</text>
      <text x="9822" y="7006"  fill="#9F938F" font-weight="normal" font-size="137.365px" font-family="Arial">A</text>
      <text x="9939" y="7006"  fill="#9F938F" font-weight="normal" font-size="137.365px" font-family="Arial">R</text>
      <text x="10061" y="7006"  fill="#9F938F" font-weight="normal" font-size="137.365px" font-family="Arial"> </text>
     </g>
    </g>
    <g>
     <path fill="#BDBFC1" fill-rule="nonzero" d="M6664 4068l-30 0 0 -16 30 0 0 16zm10 -33l-49 0c-5,0 -10,4 -10,8l0 34c0,4 5,8 10,8l49 0c5,0 9,-4 9,-8l0 -34c0,-4 -4,-8 -9,-8z"/>
     <path fill="#BDBFC1" fill-rule="nonzero" d="M6472 4068l-31 0 0 -16 31 0 0 16zm9 -33l-49 0c-5,0 -9,4 -9,8l0 34c0,4 4,8 9,8l49 0c5,0 9,-4 9,-8l0 -34c0,-4 -4,-8 -9,-8z"/>
     <path fill="#BDBFC1" fill-rule="nonzero" d="M6589 4066l-72 0c-6,0 -10,4 -10,9 0,5 4,9 10,9l72 0c5,0 9,-4 9,-9 0,-5 -4,-9 -9,-9z"/>
     <path fill="#BDBFC1" fill-rule="nonzero" d="M6589 4041l-72 0c-6,0 -10,4 -10,9 0,5 4,9 10,9l72 0c5,0 9,-4 9,-9 0,-5 -4,-9 -9,-9z"/>
     <path fill="#BDBFC1" fill-rule="nonzero" d="M6740 4014c0,2 -3,5 -5,4l-22 0 0 -37 22 0c2,0 5,2 5,5l0 28zm-45 -32l-170 -1c-5,-25 -30,-41 -55,-36 -19,3 -33,18 -37,36l-22 0 0 -89 284 1 0 89zm-244 -1c6,-15 22,-23 38,-18 8,3 15,10 18,18l-56 0zm244 114c0,10 -9,19 -19,19l-246 0c-11,0 -19,-9 -19,-19l0 -96 284 1 0 95zm-19 54c0,2 -2,4 -5,4l-31 0c-2,1 -5,-2 -5,-4l0 -17 41 0c0,0 -1,0 0,0l0 17zm-206 0c0,2 -2,4 -5,4l-30 0c-3,0 -6,-2 -6,-4l0 -17c1,0 1,0 1,0l40 0 0 17zm-59 -275l0 -9c0,-5 2,-10 6,-14 3,-3 8,-5 13,-5l0 0 245 1c11,0 20,8 19,19l0 9 -283 -1zm-18 144l-22 0c-3,1 -5,-2 -5,-4l0 -28c0,-3 2,-5 5,-5l22 0 0 37zm342 -55l-22 0 0 -97c0,-21 -17,-37 -37,-37l-246 -1c-20,0 -37,16 -37,36l0 99 -22 0c-13,0 -23,10 -23,23l0 28c0,12 10,22 23,22l22 0 0 59c0,13 7,25 18,32l0 22c0,12 11,22 24,22l30 0c13,0 23,-10 23,-22l0 -17 129 0 0 17c0,12 11,22 23,22l31 0c13,0 24,-10 24,-22l0 -22c11,-7 18,-19 18,-32l0 -59 22 0c12,0 23,-10 23,-22l0 -28c0,-13 -11,-23 -23,-23z"/>
     <g transform="matrix(1.01534 0 0 1 -2037.24 -2234.12)">
      <text x="8010" y="7006"  fill="#848688" font-weight="normal" font-size="158.189px" font-family="Garamond">5-min</text>
      <text x="8372" y="7006"  fill="#848688" font-weight="normal" font-size="158.189px" font-family="Garamond">ute driv</text>
      <text x="8842" y="7006"  fill="#848688" font-weight="normal" font-size="158.189px" font-family="Garamond">e</text>
     </g>
     <g transform="matrix(1.01534 0 0 1 -2238.65 -2471.09)">
      <text x="8010" y="7006"  fill="#9F938F" font-weight="normal" font-size="137.365px" font-family="Arial">P</text>
      <text x="8125" y="7006"  fill="#9F938F" font-weight="normal" font-size="137.365px" font-family="Arial">E</text>
      <text x="8242" y="7006"  fill="#9F938F" font-weight="normal" font-size="137.365px" font-family="Arial">S</text>
      <text x="8357" y="7006"  fill="#9F938F" font-weight="normal" font-size="137.365px" font-family="Arial">H</text>
      <text x="8481" y="7006"  fill="#9F938F" font-weight="normal" font-size="137.365px" font-family="Arial">A</text>
      <text x="8596" y="7006"  fill="#9F938F" font-weight="normal" font-size="137.365px" font-family="Arial">W</text>
      <text x="8749" y="7006"  fill="#9F938F" font-weight="normal" font-size="137.365px" font-family="Arial">A</text>
      <text x="8866" y="7006"  fill="#9F938F" font-weight="normal" font-size="137.365px" font-family="Arial">R</text>
      <text x="8988" y="7006"  fill="#9F938F" font-weight="normal" font-size="137.365px" font-family="Arial"> </text>
      <text x="9051" y="7006"  fill="#9F938F" font-weight="normal" font-size="137.365px" font-family="Arial">B</text>
      <text x="9166" y="7006"  fill="#9F938F" font-weight="normal" font-size="137.365px" font-family="Arial">R</text>
      <text x="9289" y="7006"  fill="#9F938F" font-weight="normal" font-size="137.365px" font-family="Arial">T</text>
     </g>
    </g>
    <g>
     <path fill="#BDBFC1" fill-rule="nonzero" d="M9468 4000l-43 0c-32,0 -59,-26 -59,-58 0,-32 27,-59 59,-59 27,0 52,13 67,34l11 17c5,7 8,15 8,24 0,23 -20,42 -43,42zm-227 -138c-4,-4 -2,-8 -1,-9 0,-1 3,-5 8,-3l128 33c-8,6 -14,14 -19,23 -43,0 -85,-15 -116,-44zm42 -95c-1,-5 2,-8 3,-8 2,-1 6,-3 9,1l110 108c-2,1 -5,2 -7,3l-40 -11c-36,-21 -63,-54 -75,-93zm-23 409l0 0c-28,0 -51,-23 -51,-51 0,-28 23,-50 53,-50 25,0 46,20 48,45 1,7 0,14 -2,21 -1,3 -1,5 1,8 2,2 4,3 7,3l0 0c15,0 28,10 32,24l-88 0zm-113 0c-17,0 -32,-15 -32,-32 0,-15 11,-28 26,-31 7,18 19,35 33,48 -5,9 -16,15 -27,15zm371 -252l-12 -17c-17,-25 -46,-40 -78,-41l-120 -119c-8,-8 -21,-10 -31,-4 -10,6 -14,18 -11,29 9,29 25,55 47,76l-60 -16c-12,-3 -23,2 -29,12 -6,11 -4,23 5,31 33,30 76,47 121,48 -1,6 -2,12 -2,19 0,0 0,1 0,1l-88 0c-19,0 -38,4 -55,12 -4,2 -6,8 -4,12 1,3 4,5 8,5 1,0 3,0 4,-1 14,-7 30,-10 47,-10l90 0c9,33 39,57 75,57l41 0c-3,28 -15,54 -33,76l0 -9c0,-5 -4,-9 -9,-9 -5,0 -9,4 -9,9l0 59c0,4 4,8 9,8 15,0 28,10 32,24l-53 0 -21 -83c-1,-5 -6,-8 -11,-7 -5,2 -8,6 -6,11l10 41c-9,3 -17,6 -27,8 -5,-5 -13,-8 -20,-10 0,-6 1,-11 0,-17 -3,-35 -32,-62 -66,-62 -19,0 -37,7 -50,20 -14,13 -21,30 -21,48 0,12 3,23 8,32 -29,-19 -48,-52 -48,-89 0,-16 3,-31 10,-45 2,-5 0,-10 -4,-12 -5,-2 -10,0 -12,4 -8,17 -12,35 -12,53 0,10 1,19 3,28 -22,5 -39,25 -39,48 0,27 23,49 50,49 17,0 32,-8 42,-21 20,13 44,21 71,21 0,0 0,0 0,0l98 0c5,0 9,-4 9,-8 0,-9 -2,-17 -6,-24 6,-1 12,-4 18,-6l9 32c1,4 4,6 8,6l70 0c5,0 9,-4 9,-8 0,-25 -18,-45 -42,-49l0 -16c30,-28 48,-64 51,-104 26,-7 45,-31 45,-58 0,-12 -4,-24 -11,-34z"/>
     <path fill="#BDBFC1" fill-rule="nonzero" d="M9443 3925c-3,0 -5,1 -7,3 -2,1 -2,3 -2,6 0,2 0,4 2,6 2,2 4,3 7,3 2,0 4,-1 6,-3 2,-2 3,-4 3,-6 0,-3 -1,-5 -3,-6 -2,-2 -4,-3 -6,-3z"/>
     <path fill="#BDBFC1" fill-rule="nonzero" d="M9176 3995c-2,0 -5,-1 -6,-2 -2,-2 -3,-4 -3,-7 0,-2 1,-4 3,-6 1,-1 4,-2 6,-2 2,0 5,1 6,2 2,2 3,4 3,6 0,3 -1,5 -3,7 -1,1 -4,2 -6,2z"/>
     <g transform="matrix(1.01534 0 0 1 685.179 -2234.12)">
      <text x="8010" y="7006"  fill="#848688" font-weight="normal" font-size="158.189px" font-family="Garamond">15-min</text>
      <text x="8446" y="7006"  fill="#848688" font-weight="normal" font-size="158.189px" font-family="Garamond">ute driv</text>
      <text x="8916" y="7006"  fill="#848688" font-weight="normal" font-size="158.189px" font-family="Garamond">e</text>
     </g>
     <g transform="matrix(1.01534 0 0 1 984.267 -2471.09)">
      <text x="8010" y="7006"  fill="#9F938F" font-weight="normal" font-size="137.365px" font-family="Arial">Z</text>
      <text x="8118" y="7006"  fill="#9F938F" font-weight="normal" font-size="137.365px" font-family="Arial">O</text>
      <text x="8249" y="7006"  fill="#9F938F" font-weight="normal" font-size="137.365px" font-family="Arial">O</text>
     </g>
    </g>
    <g>
     <path fill="#BDBFC1" fill-rule="nonzero" d="M3703 3983c0,-1 0,-1 0,-2 0,0 -1,-1 -1,-1 0,-1 -1,-1 -1,-2 0,0 -1,0 -1,-1 -1,0 -1,0 -2,0 0,-1 -1,-1 -2,-1 -1,0 -2,0 -3,0 -1,0 -1,0 -2,1 0,0 -1,0 -1,0 -1,1 -1,1 -2,1 0,1 -1,1 -1,2 0,0 0,1 -1,1 0,1 0,1 0,2 0,1 0,1 0,2 0,0 0,1 0,1 0,1 0,2 0,2 1,1 1,1 1,2 0,0 1,1 1,1 1,0 1,1 2,1 0,0 1,1 1,1 1,0 1,0 2,0 1,0 1,1 2,1 0,0 1,-1 1,-1 1,0 2,0 2,0 1,0 1,-1 2,-1 0,0 1,-1 1,-1 0,0 1,-1 1,-1 0,-1 1,-1 1,-2 0,0 0,-1 0,-2 1,0 1,-1 1,-1 0,-1 0,-1 -1,-2z"/>
     <path fill="#BDBFC1" fill-rule="nonzero" d="M3785 4117l-20 0 0 -67 20 0 0 67zm9 -85l-38 0c-5,0 -9,4 -9,9l0 85c0,5 4,9 9,9l38 0c5,0 9,-4 9,-9l0 -85c0,-5 -4,-9 -9,-9z"/>
     <path fill="#BDBFC1" fill-rule="nonzero" d="M3463 4117l-20 0 0 -67 20 0 0 67zm9 -85l-38 0c-5,0 -9,4 -9,9l0 85c0,5 4,9 9,9l38 0c5,0 9,-4 9,-9l0 -85c0,-5 -4,-9 -9,-9z"/>
     <path fill="#BDBFC1" fill-rule="nonzero" d="M3816 4180l-82 0 0 -173 82 0 0 173zm-89 -279l-226 0 0 -45 22 0 0 14c0,5 4,9 9,9l28 0c5,0 9,-4 9,-9l0 -14 22 0 0 14c0,5 4,9 9,9l28 0c5,0 9,-4 9,-9l0 -14 22 0 0 14c0,5 4,9 9,9l28 0c5,0 9,-4 9,-9l0 -14 22 0 0 45zm-68 18l57 0 0 25 -57 0 0 -25zm-72 0l54 0 0 25 -54 0 0 -25zm-75 0l57 0 0 25 -57 0 0 -25zm204 261l-34 0 0 -84c0,-37 -31,-67 -68,-67 -37,0 -68,30 -68,67l0 84 -34 0 0 -186 147 0c5,0 9,-4 9,-9 0,-5 -4,-9 -9,-9l-147 0 0 -14 204 0 0 218zm-52 0l-41 0 0 -133c23,5 41,25 41,49l0 84zm-59 0l-41 0 0 -84c0,-24 18,-44 41,-49l0 133zm-111 0l-83 0 0 -173 83 0 0 173zm-41 -242l34 51 -68 0 34 -51zm322 0l34 51 -68 0 34 -51zm-138 -175l61 0 -10 13c-2,3 -2,7 0,10l10 14 -61 0 0 -37zm197 235l0 0c0,0 0,-1 0,-1l0 0c0,0 0,0 0,0 0,-1 0,-3 -1,-4l-50 -77c-2,-2 -5,-4 -8,-4 -3,0 -6,2 -7,4l-34 52 0 -49 2 0c5,0 9,-4 9,-9l0 -63c0,-5 -4,-9 -9,-9l-40 0c-4,0 -9,4 -9,9l0 14 -10 0 0 -14c0,-5 -4,-9 -9,-9l-31 0 0 -21 78 0c3,0 6,-2 8,-4 2,-3 1,-7 -1,-10l-16 -22 16 -22c2,-3 3,-6 1,-9 -2,-3 -5,-5 -8,-5l-87 0c-5,0 -9,4 -9,9l0 107 -10 0 0 -14c0,-5 -4,-9 -9,-9l-40 0c-5,0 -9,4 -9,9l0 14 -10 0 0 -14c0,-5 -5,-9 -9,-9l-40 0c-5,0 -9,4 -9,9l0 63c0,5 4,9 9,9l2 0 0 49 -34 -52c-1,-2 -4,-4 -7,-4 -3,0 -6,2 -8,4l-50 77c-1,1 -1,3 -1,4 0,0 0,0 0,0l0 0c0,0 0,1 0,1l0 0c0,0 0,0 0,0l0 191c0,5 4,9 9,9l422 0c5,0 9,-4 9,-9l0 -191c0,0 0,0 0,0z"/>
     <g transform="matrix(1.01534 0 0 1 -4946.78 -2234.12)">
      <text x="8010" y="7006"  fill="#848688" font-weight="normal" font-size="158.189px" font-family="Garamond">12-min</text>
      <text x="8446" y="7006"  fill="#848688" font-weight="normal" font-size="158.189px" font-family="Garamond">ute driv</text>
      <text x="8916" y="7006"  fill="#848688" font-weight="normal" font-size="158.189px" font-family="Garamond">e</text>
     </g>
     <g transform="matrix(1.01534 0 0 1 -5299.98 -2471.09)">
      <text x="8010" y="7006"  fill="#9F938F" font-weight="normal" font-size="137.365px" font-family="Arial">Q</text>
      <text x="8141" y="7006"  fill="#9F938F" font-weight="normal" font-size="137.365px" font-family="Arial">I</text>
      <text x="8203" y="7006"  fill="#9F938F" font-weight="normal" font-size="137.365px" font-family="Arial">L</text>
      <text x="8303" y="7006"  fill="#9F938F" font-weight="normal" font-size="137.365px" font-family="Arial">A</text>
      <text x="8419" y="7006"  fill="#9F938F" font-weight="normal" font-size="137.365px" font-family="Arial"> </text>
      <text x="8482" y="7006"  fill="#9F938F" font-weight="normal" font-size="137.365px" font-family="Arial">B</text>
      <text x="8597" y="7006"  fill="#9F938F" font-weight="normal" font-size="137.365px" font-family="Arial">A</text>
      <text x="8713" y="7006"  fill="#9F938F" font-weight="normal" font-size="137.365px" font-family="Arial">L</text>
      <text x="8813" y="7006"  fill="#9F938F" font-weight="normal" font-size="137.365px" font-family="Arial">A</text>
      <text x="8928" y="7006"  fill="#9F938F" font-weight="normal" font-size="137.365px" font-family="Arial"> </text>
      <text x="8991" y="7006"  fill="#9F938F" font-weight="normal" font-size="137.365px" font-family="Arial">H</text>
      <text x="9114" y="7006"  fill="#9F938F" font-weight="normal" font-size="137.365px" font-family="Arial">I</text>
      <text x="9175" y="7006"  fill="#9F938F" font-weight="normal" font-size="137.365px" font-family="Arial">S</text>
      <text x="9292" y="7006"  fill="#9F938F" font-weight="normal" font-size="137.365px" font-family="Arial">A</text>
      <text x="9407" y="7006"  fill="#9F938F" font-weight="normal" font-size="137.365px" font-family="Arial">R</text>
      <text x="9531" y="7006"  fill="#9F938F" font-weight="normal" font-size="137.365px" font-family="Arial"> </text>
     </g>
    </g>
    <g>
     <path fill="#BDBFC1" fill-rule="nonzero" d="M12494 4172l-115 0 0 -159 115 0 0 159zm-158 0l0 -88c0,-29 -24,-53 -54,-53 -30,0 -54,24 -54,53l0 88 -25 0 0 -194 158 0 0 194 -25 0zm-90 0l0 -88c0,-20 16,-36 36,-36 20,0 36,16 36,36l0 88 -72 0zm-176 -159l115 0 0 159 -115 0 0 -159zm265 -53l-106 0c4,-25 27,-44 53,-44 27,0 49,19 53,44zm-179 35l0 -124 86 0c5,0 9,-4 9,-9 0,-4 -4,-8 -9,-8l-69 0c4,-56 52,-100 109,-100 57,0 105,44 109,100l-69 0c-5,0 -8,4 -8,8 0,5 3,9 8,9l86 0 0 124 -29 0 0 -17c0,-10 -8,-18 -18,-18l-8 0c-2,-16 -9,-31 -21,-42 -13,-13 -31,-20 -50,-20 -19,0 -37,7 -50,20 -12,11 -19,26 -21,42l-8 0c-10,0 -18,8 -18,18l0 17 -29 0zm338 0l-68 0 0 -124c0,-9 -7,-17 -17,-17 -2,-31 -15,-59 -37,-81 -24,-23 -56,-36 -90,-36 -34,0 -65,13 -89,36 -23,22 -36,50 -38,81 -9,0 -17,8 -17,17l0 124 -68 0c-10,0 -18,8 -18,18l0 168c0,5 4,9 9,9l442 0c5,0 9,-4 9,-9l0 -168c0,-10 -8,-18 -18,-18z"/>
     <path fill="#BDBFC1" fill-rule="nonzero" d="M12138 4137l-21 0 0 -78c0,-6 5,-11 11,-11 5,0 10,5 10,11l0 78zm-10 -106c-16,0 -29,12 -29,28l0 87c0,5 4,9 9,9l39 0c5,0 9,-4 9,-9l0 -87c0,-16 -13,-28 -28,-28z"/>
     <path fill="#BDBFC1" fill-rule="nonzero" d="M12426 4059c0,-6 5,-11 10,-11 6,0 11,5 11,11l0 78 -21 0 0 -78zm-9 96l39 0c5,0 9,-4 9,-9l0 -87c0,-16 -13,-28 -29,-28 -15,0 -28,12 -28,28l0 87c0,5 4,9 9,9z"/>
     <path fill="#BDBFC1" fill-rule="nonzero" d="M12282 3871c5,0 9,-4 9,-9 0,-4 -4,-8 -9,-8l0 0c-5,0 -9,4 -9,8 0,5 4,9 9,9z"/>
     <g transform="matrix(1.01534 0 0 1 3692.03 -2234.12)">
      <text x="8010" y="7006"  fill="#848688" font-weight="normal" font-size="158.189px" font-family="Garamond">5-min</text>
      <text x="8372" y="7006"  fill="#848688" font-weight="normal" font-size="158.189px" font-family="Garamond">ute driv</text>
      <text x="8842" y="7006"  fill="#848688" font-weight="normal" font-size="158.189px" font-family="Garamond">e</text>
     </g>
     <g transform="matrix(1.01534 0 0 1 3212.46 -2471.09)">
      <text x="8010" y="7006"  fill="#9F938F" font-weight="normal" font-size="137.365px" font-family="Arial">M</text>
      <text x="8148" y="7006"  fill="#9F938F" font-weight="normal" font-size="137.365px" font-family="Arial">A</text>
      <text x="8264" y="7006"  fill="#9F938F" font-weight="normal" font-size="137.365px" font-family="Arial">S</text>
      <text x="8379" y="7006"  fill="#9F938F" font-weight="normal" font-size="137.365px" font-family="Arial">J</text>
      <text x="8473" y="7006"  fill="#9F938F" font-weight="normal" font-size="137.365px" font-family="Arial">I</text>
      <text x="8534" y="7006"  fill="#9F938F" font-weight="normal" font-size="137.365px" font-family="Arial">D</text>
      <text x="8658" y="7006"  fill="#9F938F" font-weight="normal" font-size="137.365px" font-family="Arial"> </text>
      <text x="8720" y="7006"  fill="#9F938F" font-weight="normal" font-size="137.365px" font-family="Arial">M</text>
      <text x="8859" y="7006"  fill="#9F938F" font-weight="normal" font-size="137.365px" font-family="Arial">O</text>
      <text x="8989" y="7006"  fill="#9F938F" font-weight="normal" font-size="137.365px" font-family="Arial">M</text>
      <text x="9128" y="7006"  fill="#9F938F" font-weight="normal" font-size="137.365px" font-family="Arial">I</text>
      <text x="9190" y="7006"  fill="#9F938F" font-weight="normal" font-size="137.365px" font-family="Arial">N</text>
      <text x="9314" y="7006"  fill="#9F938F" font-weight="normal" font-size="137.365px" font-family="Arial"> </text>
      <text x="9375" y="7006"  fill="#9F938F" font-weight="normal" font-size="137.365px" font-family="Arial">K</text>
      <text x="9492" y="7006"  fill="#9F938F" font-weight="normal" font-size="137.365px" font-family="Arial">H</text>
      <text x="9614" y="7006"  fill="#9F938F" font-weight="normal" font-size="137.365px" font-family="Arial">A</text>
      <text x="9730" y="7006"  fill="#9F938F" font-weight="normal" font-size="137.365px" font-family="Arial">N</text>
     </g>
    </g>
   </g>
   <g transform="matrix(1.01534 0 0 1 -4131.58 -5946.74)">
    <text x="8010" y="7006"  fill="#A9ABAE" font-weight="normal" font-size="181.152px" font-family="Arial">L</text>
    <text x="8142" y="7006"  fill="#A9ABAE" font-weight="normal" font-size="181.152px" font-family="Arial">O</text>
    <text x="8315" y="7006"  fill="#A9ABAE" font-weight="normal" font-size="181.152px" font-family="Arial">C</text>
    <text x="8477" y="7006"  fill="#A9ABAE" font-weight="normal" font-size="181.152px" font-family="Arial">A</text>
    <text x="8630" y="7006"  fill="#A9ABAE" font-weight="normal" font-size="181.152px" font-family="Arial">T</text>
    <text x="8773" y="7006"  fill="#A9ABAE" font-weight="normal" font-size="181.152px" font-family="Arial">I</text>
    <text x="8854" y="7006"  fill="#A9ABAE" font-weight="normal" font-size="181.152px" font-family="Arial">O</text>
    <text x="9028" y="7006"  fill="#A9ABAE" font-weight="normal" font-size="181.152px" font-family="Arial">N</text>
   </g>
   <g>
    <polygon fill="#E9E6E3" fill-opacity="0.800000" stroke="#BDBFC1" stroke-width="7.88027" stroke-opacity="0.800000" points="4,5444 16017,5444 16017,14003 4,14003 "/>
    <g>
     <polyline fill="none" stroke="#FEFEFE" stroke-width="33.3611" points="1228,12008 1157,12915 1313,12833 1585,12583 1613,12183 "/>
     <line fill="none" stroke="#FEFEFE" stroke-width="33.3611" x1="2056" y1="12230" x2="1890" y2= "12094" />
     <g>
      <polyline fill="none" stroke="#FEFEFE" stroke-width="33.3611" points="4,11931 1875,12102 2063,12004 2126,10936 2132,10839 "/>
      <polyline fill="none" stroke="#FEFEFE" stroke-width="33.3611" points="942,10943 826,13097 358,13100 445,10867 "/>
      <path fill="none" stroke="#FEFEFE" stroke-width="33.3611" d="M3013 11135l147 361 439 184 -55 273 -191 -85 -606 -272 -1086 1334 -266 726 -177 314 -257 -145 -34 77 78 68 528 0 191 -349 575 -991 134 70 135 71 -85 160 -161 -5 130 -244 196 -36 630 324c0,0 -460,959 -460,979 0,9 -167,14 -357,17 -46,1 -94,1 -142,2 -209,2 -405,2 -405,2l227 -385 492 -663 130 -244 160 88 448 -916 38 19 124 -245 -170 -80 -156 304 -253 -126 -425 867 -454 -225 -82 106 936 502 -195 360 -223 272 -167 339 -222 -19 168 -323 270 -374 270 143 -156 259 -191 314"/>
     </g>
     <path fill="none" stroke="#FEFEFE" stroke-width="33.3611" d="M5223 10618l-207 1220 -8 114 -138 205c0,0 52,264 46,323 -5,60 16,286 29,318 12,31 -76,277 -76,277l184 391 -68 526"/>
     <line fill="none" stroke="#FEFEFE" stroke-width="33.3611" x1="3736" y1="13479" x2="3580" y2= "13846" />
     <line fill="none" stroke="#FEFEFE" stroke-width="33.3611" x1="6333" y1="13591" x2="6043" y2= "13808" />
     <path fill="none" stroke="#FEFEFE" stroke-width="33.3611" d="M4842 12178l203 34 619 342c0,0 133,55 210,40"/>
     <path fill="none" stroke="#FEFEFE" stroke-width="33.3611" d="M6924 13319l-386 -265c0,0 -213,-123 -238,-154 -24,-31 -426,-306 -426,-306"/>
     <path fill="none" stroke="#FEFEFE" stroke-width="33.3611" d="M6537 11050c0,0 157,276 82,758"/>
     <path fill="none" stroke="#FEFEFE" stroke-width="33.3611" d="M6421 13010l64 -110c0,0 -59,-225 -46,-263 12,-39 180,-829 180,-829"/>
     <polyline fill="none" stroke="#FEFEFE" stroke-width="33.3611" points="7760,13989 7986,13699 8130,13670 8293,13916 8293,13992 "/>
     <path fill="none" stroke="#FEFEFE" stroke-width="33.3611" d="M8234 13872l283 -353 10 -177c0,0 -176,35 -351,-343"/>
     <path fill="none" stroke="#FEFEFE" stroke-width="33.3611" d="M7764 12723c0,0 122,30 200,169 78,140 119,103 119,103l93 4"/>
     <path fill="none" stroke="#FEFEFE" stroke-width="33.3611" d="M8122 11675c0,0 -29,111 55,182 83,72 0,260 0,260 0,0 -103,255 -36,395 68,139 35,487 35,487"/>
     <path fill="none" stroke="#FEFEFE" stroke-width="33.3611" d="M8535 13350c-8,0 109,3 133,-30 24,-33 176,-230 176,-230l48 -344 215 -651 187 17 199 565 34 961 -62 25c0,0 -447,272 -416,326"/>
     <path fill="none" stroke="#FEFEFE" stroke-width="33.3611" d="M9037 13984c0,0 -215,-56 -228,-126"/>
     <path fill="none" stroke="#FEFEFE" stroke-width="33.3611" d="M9515 13450c5,0 -287,63 -287,63l-419 345"/>
     <path fill="none" stroke="#FEFEFE" stroke-width="33.3611" d="M8665 13998c0,0 20,-66 196,-82"/>
     <path fill="none" stroke="#FEFEFE" stroke-width="33.3611" d="M8665 13333l-12 232c0,0 460,-476 857,-407"/>
     <path fill="none" stroke="#FEFEFE" stroke-width="33.3611" d="M8855 13074l127 2 192 -117c0,0 453,-65 582,-48"/>
     <path fill="none" stroke="#FEFEFE" stroke-width="33.3611" d="M10190 12873l-189 93 -266 -57c0,0 71,240 110,264 39,25 10,395 10,395 0,0 8,384 8,393 0,9 257,9 257,9l305 -63c0,0 74,-580 140,-627"/>
     <path fill="none" stroke="#FEFEFE" stroke-width="33.3611" d="M10648 13276c10,-6 -83,4 -83,4l-320 -328 -60 -77"/>
     <line fill="none" stroke="#FEFEFE" stroke-width="33.3611" x1="9114" y1="12828" x2="9172" y2= "12953" />
     <path fill="none" stroke="#FEFEFE" stroke-width="33.3611" d="M10237 12920c-11,8 163,-82 163,-82"/>
     <path fill="none" stroke="#FEFEFE" stroke-width="33.3611" d="M10401 12787l229 2 174 223c0,0 -150,203 -162,211"/>
     <path fill="none" stroke="#FEFEFE" stroke-width="33.3611" d="M10618 12815l70 -84 321 33c0,0 78,-171 53,-221 -25,-51 -429,-360 -429,-360l59 -111 -2108 -213"/>
     <polyline fill="none" stroke="#FEFEFE" stroke-width="33.3611" points="12972,13129 12256,13770 11852,13981 13263,13401 13312,13981 "/>
     <path fill="none" stroke="#FEFEFE" stroke-width="33.3611" d="M16017 9073l-842 607 -805 2147c0,0 -471,998 932,1249"/>
     <path fill="none" stroke="#FEFEFE" stroke-width="33.3611" d="M16017 11562l-446 1047c0,0 -233,579 -326,635 -92,56 -524,737 -524,737l581 0 92 -187 277 -1032c0,0 93,-202 219,-202 127,0 127,-49 127,-49"/>
     <polyline fill="none" stroke="#FEFEFE" stroke-width="33.3611" points="16017,13795 15967,13771 15582,13101 "/>
     <polyline fill="none" stroke="#FEFEFE" stroke-width="33.3611" points="15160,12419 15585,12573 15755,12635 "/>
     <polyline fill="none" stroke="#FEFEFE" stroke-width="33.3611" points="16017,12279 15880,12464 15587,12573 "/>
     <line fill="none" stroke="#FEFEFE" stroke-width="33.3611" x1="14370" y1="11827" x2="15675" y2= "12365" />
     <path fill="none" stroke="#FEFEFE" stroke-width="33.3611" d="M15458 11930c0,0 479,108 559,0"/>
     <line fill="none" stroke="#FEFEFE" stroke-width="33.3611" x1="14531" y1="11396" x2="15855" y2= "11942" />
     <path fill="none" stroke="#FEFEFE" stroke-width="33.3611" d="M14714 10954c-15,-5 1303,536 1303,536"/>
     <polyline fill="none" stroke="#FEFEFE" stroke-width="33.3611" points="15618,10886 15465,11200 15281,11267 "/>
     <polyline fill="none" stroke="#FEFEFE" stroke-width="33.3611" points="567,8635 1177,8810 1878,8712 2020,8963 "/>
     <line fill="none" stroke="#FEFEFE" stroke-width="33.3611" x1="588" y1="7448" x2="808" y2= "7756" />
     <path fill="none" stroke="#FEFEFE" stroke-width="33.3611" d="M7665 6782l-10 1605 74 259 489 3 36 -1229 -702 7c0,0 -199,-41 -220,192 -21,234 -39,458 -39,458"/>
     <path fill="none" stroke="#FEFEFE" stroke-width="33.3611" d="M6978 8091l49 -615c0,0 47,-279 383,-432"/>
     <line fill="none" stroke="#FEFEFE" stroke-width="33.3611" x1="7350" y1="7537" x2="6808" y2= "7242" />
     <polyline fill="none" stroke="#FEFEFE" stroke-width="33.3611" points="6856,5466 6636,5934 6654,6136 "/>
     <polyline fill="none" stroke="#FEFEFE" stroke-width="33.3611" points="8769,6899 9351,6930 9570,6661 9864,6630 10633,6141 "/>
     <path fill="none" stroke="#FEFEFE" stroke-width="33.3611" d="M8741 7611l305 7 -36 509 -276 0 -14 461 276 7 199 -188 269 -130 170 -223 574 -366 149 -276 181 -129c0,0 -178,-192 -248,-339 -71,-146 -214,-448 -214,-448 0,0 -123,-226 -77,-452"/>
     <path fill="none" stroke="#FEFEFE" stroke-width="33.3611" d="M9095 10156l34 -836c0,0 571,-745 996,-804"/>
     <polyline fill="none" stroke="#FEFEFE" stroke-width="33.3611" points="9691,9847 9802,9022 10136,8481 10423,8222 10682,7559 10608,7482 10771,7379 10755,7265 11209,6400 "/>
     <path fill="none" stroke="#FEFEFE" stroke-width="33.3611" d="M10189 6115c0,0 137,438 189,509 51,72 357,334 444,513"/>
     <path fill="none" stroke="#FEFEFE" stroke-width="33.3611" d="M10393 6294l134 266c0,0 348,416 361,422"/>
     <polyline fill="none" stroke="#FEFEFE" stroke-width="33.3611" points="10702,6156 11084,6637 11059,6684 11342,6985 "/>
     <path fill="none" stroke="#FEFEFE" stroke-width="33.3611" d="M12044 6472c0,0 -88,95 -164,80"/>
     <polyline fill="none" stroke="#FEFEFE" stroke-width="33.3611" points="11225,6149 11229,6401 11355,6439 "/>
     <path fill="none" stroke="#FEFEFE" stroke-width="33.3611" d="M11379 8791c0,0 -95,-232 -150,-262 -54,-30 -38,-768 -62,-882 -24,-114 -65,-463 -103,-521"/>
     <path fill="none" stroke="#FEFEFE" stroke-width="33.3611" d="M12414 8142c0,0 -250,-177 -267,-191 -17,-13 -1554,-186 -1550,-185"/>
     <polyline fill="none" stroke="#FEFEFE" stroke-width="33.3611" points="13033,7755 12792,7656 12618,7656 11188,7168 11064,7126 "/>
     <path fill="none" stroke="#FEFEFE" stroke-width="33.3611" d="M11890 6553c0,0 -208,187 -214,216 -6,28 -334,216 -334,216 0,0 -142,156 -147,170"/>
     <polyline fill="none" stroke="#FEFEFE" stroke-width="33.3611" points="12634,7656 12650,7570 12573,7510 12806,7204 12783,6920 12938,6779 12851,5654 12910,5455 "/>
     <path fill="none" stroke="#FEFEFE" stroke-width="33.3611" d="M12792 7656l543 -273 397 -6 625 -238c0,0 11,-107 188,-149 178,-42 105,-186 105,-186l580 -759c0,0 158,-321 182,-426 24,-104 143,-153 143,-153"/>
     <path fill="none" stroke="#FEFEFE" stroke-width="33.3611" d="M15037 5455l-215 126 -30 324 143 129c0,0 26,259 57,289"/>
     <polyline fill="none" stroke="#FEFEFE" stroke-width="33.3611" points="14494,5686 14672,5902 14518,6072 14544,6320 "/>
     <line fill="none" stroke="#FEFEFE" stroke-width="33.3611" x1="13995" y1="6242" x2="13733" y2= "6463" />
     <path fill="none" stroke="#FEFEFE" stroke-width="33.3611" d="M14141 7714l149 -200 185 -136 81 -15 330 -433c0,0 299,98 329,123 31,26 341,-14 341,-14 0,0 403,103 436,121"/>
     <polyline fill="none" stroke="#FEFEFE" stroke-width="33.3611" points="14368,7106 14329,7318 14371,7360 14320,7472 "/>
     <g>
      <line fill="none" stroke="#FEFEFE" stroke-width="33.3611" x1="8275" y1="7033" x2="7410" y2= "7044" />
      <path fill="none" stroke="#FEFEFE" stroke-width="33.3611" d="M7665 6782c0,0 -542,24 -801,481"/>
      <polyline fill="none" stroke="#FEFEFE" stroke-width="33.3611" points="7097,5466 7047,5540 7051,5941 6895,6188 6916,7009 6643,7522 6654,8450 5776,8496 5754,9278 5012,9292 "/>
      <path fill="none" stroke="#FEFEFE" stroke-width="33.3611" d="M7795 5455c0,0 -135,655 -78,798 56,143 -39,248 173,248 213,0 390,7 390,7l-26 912"/>
      <path fill="none" stroke="#FEFEFE" stroke-width="33.3611" d="M9861 7933l-104 -165c0,0 57,-87 17,-162 -40,-74 -381,-507 -381,-507l-42 -169"/>
      <polyline fill="none" stroke="#FEFEFE" stroke-width="33.3611" points="8810,6538 9175,6537 9511,6268 9604,6270 9522,6115 "/>
     </g>
     <path fill="none" stroke="#FEFEFE" stroke-width="33.3611" d="M11274 11716c0,0 50,180 17,252"/>
     <line fill="none" stroke="#FEFEFE" stroke-width="33.3611" x1="9855" y1="13568" x2="9496" y2= "13651" />
     <path fill="none" stroke="#FEFEFE" stroke-width="33.3611" d="M10688 13798c0,0 -197,185 -197,189 0,5 -74,-7 -74,-1 0,6 9,-89 9,-89"/>
     <g>
      <path fill="none" stroke="#FEFEFE" stroke-width="33.3611" d="M9278 10537c0,0 -19,-329 -92,-364"/>
      <g>
       <polyline fill="none" stroke="#FEFEFE" stroke-width="33.3611" points="10740,9191 10742,10152 10839,10156 10847,10544 "/>
       <g>
        <path fill="none" stroke="#FEFEFE" stroke-width="33.3611" d="M4 10217l3717 196c0,0 2505,-550 3663,-344 58,10 113,22 165,37 1063,300 1640,56 1640,56l3844 -2407c0,0 1241,158 1493,166 252,8 798,277 840,277l651 0"/>
        <polyline fill="none" stroke="#FEFEFE" stroke-width="33.3611" points="8655,10536 10834,10540 10857,10624 12611,10935 12550,11422 13027,12249 13137,12312 13146,11600 "/>
        <path fill="none" stroke="#FEFEFE" stroke-width="33.3611" d="M9267 10547c0,-6 -58,165 -106,310 -36,105 -66,197 -66,197"/>
        <path fill="none" stroke="#FEFEFE" stroke-width="33.3611" d="M9326 10076c0,0 1429,4 1422,4 -6,0 -7,-237 -7,-237l-524 2 -1 524 0 170"/>
        <g>
         <path fill="none" stroke="#FEFEFE" stroke-width="33.3611" d="M8609 11622l1800 160c0,0 468,-139 432,-1207"/>
         <polyline fill="none" stroke="#FEFEFE" stroke-width="33.3611" points="8633,10776 11329,11736 12410,12193 "/>
         <path fill="none" stroke="#FEFEFE" stroke-width="33.3611" d="M9244 11678c0,0 -243,-141 -159,-384 84,-242 -69,-367 -67,-373"/>
         <polyline fill="none" stroke="#FEFEFE" stroke-width="33.3611" points="10469,10539 10475,11031 9267,10547 10799,11166 "/>
         <path fill="none" stroke="#FEFEFE" stroke-width="33.3611" d="M9161 10857l2104 776c0,0 103,89 97,102 -6,13 -88,-19 -88,-19l44 -1010"/>
         <g>
          <path fill="none" stroke="#FEFEFE" stroke-width="33.3611" d="M13234 12822l-1460 -21 -680 104 106 -139 709 -77c0,0 206,-84 312,-335 91,-215 234,-159 273,-139 7,4 10,6 10,6l546 245 -9 96 192 190 1 70z"/>
          <path fill="none" stroke="#FEFEFE" stroke-width="33.3611" d="M11062 12543l241 -362c0,0 -100,-89 -12,-213"/>
          <path fill="none" stroke="#FEFEFE" stroke-width="33.3611" d="M10679 12075c0,-4 354,39 354,39l43 -1190 -97 -66 70 -129 -24 -75"/>
          <path fill="none" stroke="#FEFEFE" stroke-width="33.3611" d="M11225 12729l83 -436 257 -331c0,0 -5,-108 -1,-117"/>
         </g>
         <polyline fill="none" stroke="#FEFEFE" stroke-width="33.3611" points="9261,10381 10844,10374 10840,10187 9211,10200 "/>
        </g>
        <line fill="none" stroke="#FEFEFE" stroke-width="33.3611" x1="10113" y1="9590" x2="10217" y2= "9845" />
       </g>
      </g>
     </g>
     <line fill="none" stroke="#FEFEFE" stroke-width="33.3611" x1="10741" y1="9635" x2="10129" y2= "9630" />
     <line fill="none" stroke="#FEFEFE" stroke-width="33.3611" x1="10354" y1="9432" x2="10098" y2= "8541" />
     <polyline fill="none" stroke="#FEFEFE" stroke-width="33.3611" points="9129,9320 8989,9302 8996,8595 "/>
     <path fill="none" stroke="#FEFEFE" stroke-width="33.3611" d="M15998 8802l-345 286 -61 150c0,0 406,144 415,144 10,0 -585,-201 -585,-201"/>
     <polyline fill="none" stroke="#FEFEFE" stroke-width="33.3611" points="7655,8387 7382,8387 7383,9686 7384,10069 "/>
     <polygon fill="none" stroke="#FEFEFE" stroke-width="33.3611" points="6635,9285 6635,9677 7383,9686 7383,9285 "/>
     <path fill="none" stroke="#FEFEFE" stroke-width="33.3611" d="M4761 8944c0,0 -100,171 -234,227 -133,57 -382,214 -382,214l-452 464 140 308 -8 234"/>
     <line fill="none" stroke="#FEFEFE" stroke-width="33.3611" x1="3013" y1="11135" x2="3355" y2= "10394" />
    </g>
    <polyline fill="none" stroke="#FEFEFE" stroke-width="10.004" points="445,10867 932,10957 957,10963 1108,10996 1934,10998 2126,10936 "/>
    <polygon fill="#F8F5F1" points="13274,8740 14917,8740 14917,9429 13274,9429 "/>
    <rect fill="#F8F5F1" x="1193" y="12925" width="1379" height="716"/>
    <rect fill="#F8F5F1" x="8720" y="5444" width="1279" height="597"/>
    <rect fill="#F8F5F1" x="589" y="10142" width="1728" height="668"/>
    <g>
     <g transform="matrix(1.01534 0 0 1 -7080.25 3419.03)">
      <text x="8010" y="7006"  fill="#9F938F" font-weight="300" font-size="91.1511px" font-family="Nunito Light">10 MINS DRIVE TO</text>
     </g>
     <g transform="matrix(1.01534 0 0 1 -7342.85 3585.22)">
      <text x="8010" y="7006"  fill="#9F938F" font-weight="300" font-size="91.1511px" font-family="Nunito Light">SHAUKAT KHANUM HOSPITAL</text>
     </g>
    </g>
    <g transform="matrix(1.01534 0 0 1 -5248.8 3251.79)">
     <text x="8010" y="7006"  fill="#9F938F" font-weight="300" font-size="133.858px" font-family="Nunito Light">GT ROAD</text>
    </g>
    <g>
     <g transform="matrix(1.01534 0 0 1 -6651.96 6235.54)">
      <text x="8010" y="7006"  fill="#9F938F" font-weight="300" font-size="91.1511px" font-family="Nunito Light">10 MINS DRIVE TO</text>
     </g>
     <g transform="matrix(1.01534 0 0 1 -6568.7 6383.3)">
      <text x="8010" y="7006"  fill="#9F938F" font-weight="300" font-size="91.1511px" font-family="Nunito Light">RMI HOSPITAL</text>
     </g>
    </g>
    <g>
     <rect fill="#F8F5F1" x="5276" y="8638" width="1252" height="490"/>
     <g>
      <g transform="matrix(1.01534 0 0 1 -2601.59 1830.89)">
       <text x="8010" y="7006"  fill="#9F938F" font-weight="300" font-size="91.1511px" font-family="Nunito Light">5 MINS DRIVE TO</text>
      </g>
      <g transform="matrix(1.01534 0 0 1 -2517.05 1987.79)">
       <text x="8010" y="7006"  fill="#9F938F" font-weight="300" font-size="91.1511px" font-family="Nunito Light">CANAL TOWN</text>
      </g>
     </g>
    </g>
    <rect fill="#F8F5F1" x="7539" y="8713" width="1199" height="488"/>
    <g>
     <g transform="matrix(1.01534 0 0 1 -372.969 1909.45)">
      <text x="8010" y="7006"  fill="#9F938F" font-weight="300" font-size="91.1511px" font-family="Nunito Light">5 MINS DRIVE TO</text>
     </g>
     <g transform="matrix(1.01534 0 0 1 -340.637 2056.64)">
      <text x="8010" y="7006"  fill="#9F938F" font-weight="300" font-size="91.1511px" font-family="Nunito Light">PESHAWAE BRT</text>
     </g>
    </g>
    <g>
     <g transform="matrix(1.01534 0 0 1 868.695 -1267.75)">
      <text x="8010" y="7006"  fill="#9F938F" font-weight="300" font-size="91.1511px" font-family="Nunito Light">15 MINS DRIVE</text>
     </g>
     <g transform="matrix(1.01534 0 0 1 954.351 -1119.98)">
      <text x="8010" y="7006"  fill="#9F938F" font-weight="300" font-size="91.1511px" font-family="Nunito Light">TO THE ZOO</text>
     </g>
    </g>
    <g transform="matrix(0.345391 0.940362 -0.954784 0.340174 7002.05 -4166.28)">
     <text x="8010" y="7006"  fill="#9F938F" stroke="#9F938F" stroke-width="3.00238" font-weight="300" font-size="133.858px" font-family="Nunito Light">CANAL ROAD</text>
    </g>
    <g transform="matrix(0.809338 0.60383 -0.61309 0.797113 1956.28 -2107.25)">
     <text x="8010" y="7006"  fill="#9F938F" stroke="#9F938F" stroke-width="3.00238" font-weight="300" font-size="133.858px" font-family="Nunito Light">CANAL ROAD</text>
    </g>
    <g transform="matrix(1.01525 0.0130505 -0.0132506 0.999915 -1923.23 3853.48)">
     <text x="8010" y="7006"  fill="#9F938F" stroke="#9F938F" stroke-width="3.00238" font-weight="300" font-size="133.858px" font-family="Nunito Light">CANAL ROAD</text>
    </g>
    <g transform="matrix(1.01525 0.0130505 -0.0132506 0.999915 3197.48 4127.52)">
     <text x="8010" y="7006"  fill="#9F938F" stroke="#9F938F" stroke-width="3.00238" font-weight="300" font-size="217.555px" font-family="Nunito Light">UNIVERSITY</text>
    </g>
    <g transform="matrix(1.01525 0.0130505 -0.0132506 0.999915 3495.77 4507.28)">
     <text x="8010" y="7006"  fill="#9F938F" stroke="#9F938F" stroke-width="3.00238" font-weight="300" font-size="217.555px" font-family="Nunito Light">TOWN</text>
    </g>
    <g>
     <g transform="matrix(1.01534 0 0 1 5561.91 1937.61)">
      <text x="8010" y="7006"  fill="#9F938F" font-weight="300" font-size="91.1511px" font-family="Nunito Light">15 MINS DRIVE TO</text>
     </g>
     <g transform="matrix(1.01534 0 0 1 5657.34 2111.29)">
      <text x="8010" y="7006"  fill="#9F938F" font-weight="300" font-size="91.1511px" font-family="Nunito Light">BACHA KHAN</text>
     </g>
     <g transform="matrix(1.01534 0 0 1 5389.98 2284.96)">
      <text x="8010" y="7006"  fill="#9F938F" font-weight="300" font-size="91.1511px" font-family="Nunito Light">INTERNATIONAL AIRPORT</text>
     </g>
    </g>
    <g transform="matrix(0.872349 -0.511687 0.519534 0.859172 397.638 7348)">
     <text x="8010" y="7006"  fill="#9F938F" font-weight="300" font-size="133.858px" font-family="Nunito Light">MOTORWAY EXPRESS</text>
    </g>
    <g transform="matrix(0.0567379 -0.998437 1.01375 0.0558809 -7302.34 21386.3)">
     <text x="8010" y="7006"  fill="#9F938F" font-weight="300" font-size="133.858px" font-family="Nunito Light">PESHAWAR RING ROAD</text>
    </g>
    <path fill="none" stroke="#BA8458" stroke-width="16.6786" d="M5774 11023c4,2 152,35 194,47 178,53 1169,-91 1548,113 302,162 675,623 994,756 267,111 430,133 854,181 8,1 17,2 27,3 186,24 626,104 722,187 59,51 389,756 464,851 365,461 102,458 642,842 9,7 19,2 29,8"/>
    <path fill="none" stroke="#BA8458" stroke-width="16.6786" d="M2856 5444c36,264 363,705 431,1097 0,3 106,227 128,342 18,94 130,235 151,431 2,20 70,182 93,208 -8,37 196,692 266,749 5,4 794,634 883,713 310,276 152,354 277,763 52,320 127,381 211,660 71,235 233,521 478,616"/>
    <polygon fill="#FEFEFE" points="14030,7875 14036,7780 13054,6889 11824,6401 11623,6407 10924,6020 10675,6202 10189,5747 10189,5558 10680,6037 10929,5867 11649,6275 11865,6272 13111,6774 14165,7733 14171,7894 "/>
    <path fill="#BA8458" stroke="#FEFEFE" stroke-width="16.6786" d="M9570 12156c148,22 392,82 531,142 68,89 122,182 163,279 40,96 -57,140 -143,186 -86,45 -155,79 -155,79 0,0 -178,39 -240,32 -61,-6 -126,-30 -153,-112 -98,-289 -171,-385 -3,-606z"/>
   </g>
  </g>
 </g>
</svg>
