<?xml version="1.0" encoding="UTF-8"?>
<!DOCTYPE svg PUBLIC "-//W3C//DTD SVG 1.1//EN" "http://www.w3.org/Graphics/SVG/1.1/DTD/svg11.dtd">
<!-- Creator: CorelDRAW X7 -->
<svg xmlns="http://www.w3.org/2000/svg" xml:space="preserve" width="3.38747in" height="3.387in" version="1.1" shape-rendering="geometricPrecision" text-rendering="geometricPrecision" image-rendering="optimizeQuality" fill-rule="evenodd" clip-rule="evenodd"
viewBox="0 0 2510 2510"
 xmlns:xlink="http://www.w3.org/1999/xlink">
 <g id="Layer_x0020_1">
  <metadata id="CorelCorpID_0Corel-Layer"/>
  <g id="_2428467691648">
   <polygon fill="#FEFEFE" points="0,0 2510,0 2510,2510 0,2510 "/>
   <path fill="none" stroke="#606062" stroke-width="30.8781" d="M770 485l971 0c83,0 152,59 169,137l-655 400 -655 -400c17,-78 87,-137 170,-137zm1144 254l0 521c0,95 -78,173 -173,173l-971 0c-96,0 -174,-78 -174,-173l0 -519c202,130 507,336 657,394l661 -396z"/>
  </g>
  <text x="804" y="2085"  fill="#606062" stroke="#606062" stroke-width="20.5874" font-weight="300" font-size="262.568px" font-family="Avenir Light">E</text>
  <text x="987" y="2085"  fill="#606062" stroke="#606062" stroke-width="20.5874" font-weight="300" font-size="262.568px" font-family="Avenir Light">M</text>
  <text x="1248" y="2085"  fill="#606062" stroke="#606062" stroke-width="20.5874" font-weight="300" font-size="262.568px" font-family="Avenir Light">A</text>
  <text x="1455" y="2085"  fill="#606062" stroke="#606062" stroke-width="20.5874" font-weight="300" font-size="262.568px" font-family="Avenir Light">I</text>
  <text x="1551" y="2085"  fill="#606062" stroke="#606062" stroke-width="20.5874" font-weight="300" font-size="262.568px" font-family="Avenir Light">L</text>
 </g>
</svg>
