<?xml version="1.0" encoding="UTF-8"?>
<!DOCTYPE svg PUBLIC "-//W3C//DTD SVG 1.1//EN" "http://www.w3.org/Graphics/SVG/1.1/DTD/svg11.dtd">
<!-- Creator: CorelDRAW X7 -->
<svg xmlns="http://www.w3.org/2000/svg" xml:space="preserve" width="50in" height="50in" version="1.1" shape-rendering="geometricPrecision" text-rendering="geometricPrecision" image-rendering="optimizeQuality" fill-rule="evenodd" clip-rule="evenodd"
viewBox="0 0 50000 50000"
 xmlns:xlink="http://www.w3.org/1999/xlink">
 <g id="Layer_x0020_1">
  <metadata id="CorelCorpID_0Corel-Layer"/>
  <g id="_2425948739776">
   <polygon fill="#FEFEFE" points="23184,23019 26572,23019 26572,26406 23184,26406 "/>
   <path fill="#606062" fill-rule="nonzero" d="M24326 25581c31,-31 74,-49 124,-49 24,0 46,4 66,13l0 0c19,9 36,22 50,40l8 11 -10 9 -23 19 -12 10 -9 -13c-7,-11 -17,-20 -29,-26 -12,-6 -26,-9 -41,-9 -35,0 -63,12 -83,33 -21,21 -33,52 -33,88 0,35 12,66 33,87 20,21 48,33 83,33 15,0 31,-4 46,-11 13,-7 25,-17 32,-30l9 -12 12 9 23 17 11 9 -8 11c-16,22 -35,37 -57,47 -21,10 -44,14 -68,14 -50,0 -93,-18 -123,-49 -31,-31 -49,-75 -49,-125 0,-51 18,-95 48,-126zm12 29c-20,25 -32,58 -32,97 0,35 10,66 27,90 -17,-25 -26,-56 -26,-90 0,-38 11,-71 31,-97zm157 237c4,-2 8,-3 12,-5 13,-6 26,-16 37,-28l-1 -1c-10,11 -21,20 -35,27 -4,3 -9,5 -13,7zm5 -278c1,0 2,1 4,2 11,5 21,13 30,23l1 -2c-9,-9 -19,-16 -31,-21l0 0c-1,-1 -2,-2 -4,-2zm143 277l1 0 0 -132 0 -12 0 -1 0 -13 0 -120 -1 0 0 278zm14 27l-28 0 -14 0 0 -14 0 -305 0 -14 14 0 28 0 14 0 0 14 0 121 144 0 0 -121 0 -14 13 0 29 0 14 0 0 14 0 305 0 14 -14 0 -29 0 -13 0 0 -14 0 -131 -144 0 0 131 0 14 -14 0zm185 -172l0 1 0 12 0 132 1 0 0 -278 -1 0 0 120 0 13zm146 91l-31 73 -4 8 -9 0 -30 0 -21 0 9 -19 133 -306 4 -8 9 0 29 0 9 0 4 8 128 306 8 19 -20 0 -32 0 -10 0 -3 -8 -30 -73 -143 0zm162 -26l3 7 30 73 2 0 -64 -151 22 52 8 19 -1 0zm-41 -28l-48 -117 -50 117 98 0zm208 -144l-91 0 -14 0 0 -14 0 -26 0 -14 14 0 238 0 13 0 0 14 0 26 0 14 -13 0 -91 0 0 265 0 14 -14 0 -28 0 -14 0 0 -14 0 -265zm28 -26l0 12 0 266 0 0 0 -266 0 -12 0 0z"/>
   <path fill="#606062" d="M24450 25546c-92,0 -158,67 -158,161 0,92 64,160 158,160 45,0 84,-15 113,-55l-23 -18c-18,29 -55,47 -90,47 -79,0 -130,-58 -130,-134 0,-78 52,-135 130,-135 34,0 65,16 82,41l23 -19c-26,-34 -63,-48 -105,-48zm179 313l28 0 0 -145 171 0 0 145 29 0 0 -305 -29 0 0 134 -171 0 0 -134 -28 0 0 305zm315 0l35 -81 161 0 34 81 32 0 -129 -305 -29 0 -134 305 30 0zm117 -274l69 167 -140 0 71 -167zm165 -5l105 0 0 279 28 0 0 -279 105 0 0 -26 -238 0 0 26z"/>
   <path fill="#606062" fill-rule="nonzero" d="M25252 24009l0 21 -42 0 0 -21 0 -94 0 -21 42 0 0 21 0 94zm-586 633l-5 1 -1 -7 -10 -10 -6 -6 0 -9 0 -472c0,-20 0,-45 -1,-76 -1,-129 -3,-361 4,-397 0,-3 1,-5 1,-8 0,-10 0,-19 11,-41l0 0c8,-16 19,-27 31,-36 13,-8 27,-13 43,-16l2 0 1 0c48,0 252,1 460,1 195,1 394,2 510,2l2 0 3 0c11,3 24,12 36,23 12,11 23,24 27,34l0 2 1 2 7 53 1 2 0 1c0,27 0,63 0,109 2,183 6,511 -3,556 0,0 0,1 -1,3 0,10 -2,29 -5,42 -4,12 -13,24 -22,34 -13,13 -30,24 -38,26l-1 1 -2 0 -59 8 -2 0 -1 0 -777 0 -3 1c-5,1 -8,3 -12,5l-102 124 0 0c-1,2 -3,4 -5,6 -13,17 -22,30 -62,38l-13 13 -9 -9zm20 -46c19,-5 24,-12 31,-21 2,-2 3,-4 6,-7l0 0 104 -128 3 -3 3 -2c10,-5 15,-7 23,-10 3,0 5,-1 6,-2l4 -1 3 0 780 0 54 -7c4,-2 11,-8 19,-15 6,-6 10,-12 12,-17 2,-8 3,-24 4,-33 0,-3 0,-5 1,-7l0 -2 0 -1c8,-25 5,-361 3,-546 -1,-53 -1,-95 -1,-107l-7 -50c-2,-3 -8,-9 -15,-15 -6,-6 -12,-11 -17,-13 -66,0 -289,0 -506,-1 -181,-1 -357,-1 -458,-1 -10,1 -18,4 -25,9 -6,4 -12,11 -17,20l0 0c-7,13 -7,18 -7,24 0,3 0,8 -1,13l0 2 -1 1c-6,20 -3,257 -2,387 0,39 1,70 1,76l0 457zm391 556l-8 -1c-29,3 -45,-16 -80,-60l-6 -7 0 0 -88 -105c-2,0 -5,-1 -8,-2 -4,-1 -9,-2 -13,-3l-768 0 -1 0 -2 0c-7,-1 -14,-2 -21,-3 -30,-3 -60,-6 -84,-35 -18,-22 -19,-33 -20,-50 -1,-3 -1,-7 -2,-11l0 0c-9,-46 -6,-390 -4,-581 1,-49 1,-87 1,-114l0 -1 1 -2 0 -6 0 0c5,-31 8,-52 38,-76 19,-16 35,-17 50,-18 2,-1 5,-1 7,-1 34,-7 237,-5 350,-4 27,0 48,1 67,1l21 0 0 41 -21 0c-5,0 -32,0 -67,0 -114,-2 -322,-4 -340,2l-1 0 -2 1c-3,0 -7,1 -10,1 -9,1 -18,2 -28,10 -17,13 -19,28 -22,49l0 0 -1 4c0,13 -1,57 -1,114 -2,193 -6,545 2,570l1 2 0 1c1,5 1,10 2,14 1,9 1,15 12,28 13,16 33,18 55,20 7,1 14,1 21,2l770 0 3 0 3 2c4,1 8,2 13,3 5,1 11,2 18,4l5 2 4 5 92 109 0 1 6 7c22,27 33,41 44,43l2 1 1 0c8,-52 4,-201 1,-329 -2,-95 -4,-180 -1,-209l2 -21 41 5 -2 20c-3,27 -1,110 2,204 3,133 6,287 -2,339 -2,8 -4,15 -6,20l1 5 -5 1c-5,7 -12,10 -22,8zm410 -1153l0 21 -42 0 0 -21 0 -74 0 -21 42 0 0 21 0 74zm-467 0l0 21 -42 0 0 -21 0 -74 0 -21 42 0 0 21 0 74z"/>
  </g>
  <g id="_2425948737632">
   <polygon fill="#FEFEFE" points="23184,19232 26572,19232 26572,22619 23184,22619 "/>
   <path fill="#606062" fill-rule="nonzero" d="M24389 21792c31,-31 74,-49 124,-49 23,0 46,4 66,13l0 0c19,9 36,22 50,40l8 11 -10 8 -23 20 -12 9 -9 -12c-7,-11 -17,-20 -29,-26 -12,-6 -26,-10 -41,-10 -35,0 -63,13 -83,34 -21,21 -33,52 -33,87 0,35 12,66 33,88 19,21 48,33 83,33 15,0 31,-4 45,-12 14,-7 26,-17 33,-29l8 -13 12 9 24 18 10 8 -8 11c-16,22 -35,38 -56,48 -21,9 -44,14 -68,14 -51,0 -93,-19 -124,-49 -30,-32 -48,-76 -48,-126 0,-51 18,-94 48,-125zm12 29c-21,25 -32,58 -32,96 0,35 10,66 27,91 -17,-25 -27,-56 -27,-91 0,-37 12,-71 32,-96zm157 236c4,-1 8,-3 11,-5 14,-6 26,-15 38,-28l-1 0c-10,11 -22,20 -35,27 -4,2 -9,4 -13,6zm5 -278c1,1 2,2 3,2 12,6 22,14 31,23l1 -1c-9,-9 -19,-17 -31,-22l0 0c-1,0 -3,-1 -4,-2zm163 224l-31 72 -4 9 -9 0 -30 0 -21 0 8 -20 134 -305 3 -8 9 0 30 0 9 0 4 8 128 306 8 19 -21 0 -32 0 -9 0 -3 -9 -30 -72 -143 0zm162 -26l3 7 30 72 2 0 -64 -151 22 53 8 19 -1 0zm-41 -28l-48 -118 -50 118 98 0zm168 -171l0 0 0 278 0 0 0 -12 0 -266zm-14 -27l28 0 14 0 0 13 0 266 129 0 14 0 0 14 0 26 0 14 -14 0 -171 0 -14 0 0 -14 0 -306 0 -13 14 0zm243 27l0 0 0 278 0 0 0 -12 0 -266zm-14 -27l28 0 14 0 0 13 0 266 129 0 14 0 0 14 0 26 0 14 -14 0 -171 0 -14 0 0 -14 0 -306 0 -13 14 0z"/>
   <path fill="#606062" d="M24513 21757c-93,0 -158,66 -158,160 0,92 64,161 158,161 45,0 84,-16 113,-56l-23 -18c-18,29 -55,48 -90,48 -79,0 -130,-58 -130,-135 0,-77 52,-134 130,-134 34,0 65,15 82,41l23 -19c-27,-35 -63,-48 -105,-48zm169 313l34 -81 162 0 33 81 32 0 -128 -306 -30 0 -133 306 30 0zm117 -275l69 168 -140 0 71 -168zm230 -31l-28 0 0 306 171 0 0 -26 -143 0 0 -280zm229 0l-28 0 0 306 171 0 0 -26 -143 0 0 -280z"/>
   <path fill="#606062" fill-rule="nonzero" d="M24195 19983c-37,45 -53,101 -53,164 0,123 63,274 164,425 103,153 244,305 398,430 211,171 445,292 638,292 44,-8 121,-43 183,-94 28,-24 53,-50 69,-79 16,-27 23,-56 18,-86 -3,-22 -13,-45 -33,-69 -30,-31 -45,-45 -59,-60 -14,-15 -28,-30 -59,-61 -121,-99 -153,-59 -199,0 -25,32 -54,70 -100,98l-2 1 -2 1c-60,21 -139,-12 -218,-67 -118,-83 -239,-214 -291,-278l-1 -1 0 -1c-11,-16 -23,-31 -35,-47 -66,-87 -141,-186 -50,-277l2 -1 1 -2c4,-2 8,-5 12,-8 30,-22 68,-56 92,-94 21,-34 31,-70 11,-100 -1,-1 -1,-2 -2,-2 -18,-26 -59,-68 -104,-112 -53,-51 -111,-103 -145,-131 -91,-19 -176,87 -235,159l0 0 0 0 0 0zm-95 164c0,-73 19,-137 62,-190l0 0 1 0 0 0c66,-82 163,-202 281,-172l4 1 4 3c35,27 96,82 152,136 46,45 89,90 109,117 1,2 2,3 3,4 31,47 19,99 -11,146 -28,42 -70,81 -102,105 -4,3 -8,5 -11,8 -64,65 -1,148 54,221 13,17 26,34 36,49 51,62 168,189 282,268 68,48 133,78 178,64 38,-25 65,-58 88,-88 61,-78 104,-133 259,-5l0 1 1 0c32,32 46,47 60,62 15,15 29,30 59,60l1 1 0 1c25,30 39,60 44,90 6,39 -4,77 -24,112 -19,34 -47,64 -79,91 -68,57 -155,95 -205,103l-2 1 -1 0c-203,0 -447,-125 -665,-302 -158,-127 -301,-283 -406,-439 -106,-157 -172,-316 -172,-448z"/>
   <path fill="#606062" fill-rule="nonzero" d="M24195 19983c-37,45 -53,101 -53,164 0,123 63,274 164,425 103,153 244,305 398,430 211,171 445,292 638,292 44,-8 121,-43 183,-94 28,-24 53,-50 69,-79 16,-27 23,-56 18,-86 -3,-22 -13,-45 -33,-69 -30,-31 -45,-45 -59,-60 -14,-15 -28,-30 -59,-61 -121,-99 -153,-59 -199,0 -25,32 -54,70 -100,98l-2 1 -2 1c-60,21 -139,-12 -218,-67 -118,-83 -239,-214 -291,-278l-1 -1 0 -1c-11,-16 -23,-31 -35,-47 -66,-87 -141,-186 -50,-277l2 -1 1 -2c4,-2 8,-5 12,-8 30,-22 68,-56 92,-94 21,-34 31,-70 11,-100 -1,-1 -1,-2 -2,-2 -18,-26 -59,-68 -104,-112 -53,-51 -111,-103 -145,-131 -91,-19 -176,87 -235,159l0 0 0 0 0 0zm-95 164c0,-73 19,-137 62,-190l0 0 1 0 0 0c66,-82 163,-202 281,-172l4 1 4 3c35,27 96,82 152,136 46,45 89,90 109,117 1,2 2,3 3,4 31,47 19,99 -11,146 -28,42 -70,81 -102,105 -4,3 -8,5 -11,8 -64,65 -1,148 54,221 13,17 26,34 36,49 51,62 168,189 282,268 68,48 133,78 178,64 38,-25 65,-58 88,-88 61,-78 104,-133 259,-5l0 1 1 0c32,32 46,47 60,62 15,15 29,30 59,60l1 1 0 1c25,30 39,60 44,90 6,39 -4,77 -24,112 -19,34 -47,64 -79,91 -68,57 -155,95 -205,103l-2 1 -1 0c-203,0 -447,-125 -665,-302 -158,-127 -301,-283 -406,-439 -106,-157 -172,-316 -172,-448z"/>
  </g>
  <g id="_2425948735232">
   <polygon fill="#FEFEFE" points="23184,15445 26572,15445 26572,18832 23184,18832 "/>
   <path fill="#606062" fill-rule="nonzero" d="M23795 18275l14 0 2 -7 -10 0 0 0 -9 0 3 7zm24 28l-35 0 -10 0 -3 -10 -89 -306 -5 -17 18 0 30 0 10 0 3 10 63 225 64 -225 3 -10 11 0 36 0 10 0 3 10 65 225 63 -225 3 -10 10 0 29 0 19 0 -5 17 -89 305 -4 6 0 1 -4 4 -6 0 -34 0 -11 0 -3 -10 -64 -227 -65 227 -2 10 -11 0zm68 -300l9 0 1 0 9 0 -2 -6 -15 0 -2 6zm96 265l2 7 14 0 2 -7 -8 0 -1 0 -9 0zm86 -234l11 -37 0 0 -11 37zm-344 2l-11 -39 0 0 11 39zm445 239l0 0 0 -131 0 -12 0 -2 0 -12 0 -121 0 0 0 278zm14 28l-28 0 -14 0 0 -14 0 -306 0 -13 14 0 28 0 14 0 0 13 0 121 143 0 0 -121 0 -13 14 0 29 0 13 0 0 13 0 306 0 14 -13 0 -29 0 -14 0 0 -14 0 -131 -143 0 0 131 0 14 -14 0zm185 -173l0 2 0 12 0 131 1 0 0 -278 -1 0 0 121 0 12zm145 92l-31 72 -3 9 -9 0 -30 0 -21 0 8 -19 134 -306 3 -8 9 0 30 0 9 0 3 8 129 306 8 19 -21 0 -32 0 -9 0 -4 -9 -29 -72 -144 0zm163 -26l3 7 30 72 1 0 -63 -150 22 52 7 19 0 0zm-41 -28l-49 -118 -50 118 99 0zm207 -145l-90 0 -14 0 0 -14 0 -26 0 -13 14 0 237 0 14 0 0 13 0 26 0 14 -14 0 -90 0 0 266 0 14 -14 0 -29 0 -14 0 0 -14 0 -266zm28 -26l0 12 0 266 1 0 0 -266 0 -12 -1 0zm187 -8c20,-17 48,-27 80,-27 18,0 36,3 51,10 16,7 31,18 43,34l9 11 -12 8 -24 18 -12 8 -8 -11c-6,-8 -13,-15 -20,-19l0 0c-8,-4 -17,-6 -28,-6 -17,0 -31,5 -41,13 -9,8 -14,18 -14,31 0,12 3,21 10,28 9,9 23,15 44,22l0 0c28,8 53,16 71,30 20,15 33,37 33,72 0,29 -12,54 -32,72 -19,17 -46,28 -77,28 -22,0 -43,-4 -62,-12 -19,-8 -35,-22 -49,-40l-8 -12 12 -8 27 -18 12 -8 8 12c6,11 14,19 24,24 9,5 21,8 34,8 16,0 30,-5 40,-13 9,-8 14,-20 14,-33 0,-29 -23,-36 -73,-53l-7 -2c-25,-8 -44,-20 -57,-36 -14,-16 -20,-36 -20,-61 0,-29 12,-53 32,-70zm7 33c-7,10 -11,23 -11,37 0,19 4,33 13,44 8,9 20,17 36,23 -13,-5 -23,-12 -30,-19 -13,-13 -19,-28 -19,-48 0,-14 4,-27 11,-37zm75 117c48,16 71,29 71,72 0,22 -9,40 -24,53 1,0 2,-1 3,-2 14,-12 22,-30 22,-51 0,-25 -8,-40 -21,-50 -13,-10 -31,-16 -51,-22zm-55 136c-1,0 -3,-1 -4,-2 -10,-5 -18,-12 -26,-21l-3 2c8,8 18,15 29,19 1,1 2,2 4,2zm93 -278c8,4 15,10 21,16l1 -1c-6,-6 -14,-11 -22,-15zm160 225l-31 72 -4 9 -9 0 -30 0 -21 0 8 -19 134 -306 3 -8 10 0 29 0 9 0 4 8 128 306 8 19 -21 0 -31 0 -10 0 -3 -9 -30 -72 -143 0zm162 -26l3 7 30 72 2 0 -64 -150 22 52 8 19 -1 0zm-41 -28l-48 -118 -50 118 98 0zm168 107l0 -131 0 -12 0 -2 0 -12 0 -109 0 -12 0 0 0 278 0 0zm28 -117l0 131 0 14 -14 0 -28 0 -14 0 0 -14 0 -306 0 -13 14 0 87 0c34,0 62,8 82,24 20,16 31,40 31,70 0,29 -11,52 -29,68 -19,17 -45,26 -75,26l-54 0zm114 -50c10,-11 16,-26 16,-44 0,-21 -7,-37 -21,-48 -1,-1 -2,-2 -3,-3 0,0 1,1 1,1 14,12 23,29 23,50 0,18 -6,33 -16,44zm-63 -85l-51 0 0 81 52 0c16,0 29,-4 38,-11 7,-6 12,-16 12,-29 0,-13 -5,-22 -13,-29 -9,-8 -23,-12 -38,-12zm182 252l0 -131 0 -12 0 -2 0 -12 0 -109 0 -12 0 0 0 278 0 0zm28 -117l0 131 0 14 -14 0 -28 0 -14 0 0 -14 0 -306 0 -13 14 0 87 0c34,0 62,8 82,24 20,16 31,40 31,70 0,29 -11,52 -29,68 -19,17 -45,26 -75,26l-54 0zm114 -50c10,-11 16,-26 16,-44 0,-21 -7,-37 -21,-48 -1,-1 -2,-2 -3,-3 0,0 1,1 1,1 14,12 23,29 23,50 0,18 -6,33 -16,44zm-63 -85l-51 0 0 81 52 0c16,0 29,-4 38,-11 7,-6 12,-16 12,-29 0,-13 -5,-22 -13,-29 -9,-8 -23,-12 -38,-12z"/>
   <path fill="#606062" d="M23784 18289l35 0 77 -272 1 0 78 272 34 0 0 0 89 -306 -29 0 -76 271 -1 0 -77 -271 -36 0 -78 271 0 0 -76 -271 -30 0 89 306zm372 0l28 0 0 -145 171 0 0 145 29 0 0 -306 -29 0 0 135 -171 0 0 -135 -28 0 0 306zm315 0l34 -81 162 0 33 81 32 0 -128 -306 -30 0 -133 306 30 0zm117 -274l69 167 -141 0 72 -167zm165 -6l104 0 0 280 29 0 0 -280 104 0 0 -26 -237 0 0 26zm385 -33c-56,0 -98,33 -98,83 0,44 22,69 68,84 61,20 89,28 89,68 0,35 -29,60 -68,60 -30,0 -55,-13 -70,-38l-27 18c23,33 58,46 99,46 55,0 95,-36 95,-86 0,-60 -41,-73 -94,-89 -47,-14 -64,-31 -64,-63 0,-35 29,-57 69,-57 26,0 45,10 59,30l25 -18c-21,-28 -50,-38 -83,-38zm156 313l34 -81 162 0 34 81 31 0 -128 -306 -29 0 -134 306 30 0zm117 -274l69 167 -140 0 71 -167zm230 274l0 -145 68 0c51,0 90,-29 90,-80 0,-52 -38,-81 -99,-81l-87 0 0 306 28 0zm0 -280l65 0c35,0 65,19 65,55 0,36 -27,54 -64,54l-66 0 0 -109zm261 280l0 -145 68 0c51,0 90,-29 90,-80 0,-52 -38,-81 -99,-81l-87 0 0 306 28 0zm0 -280l65 0c35,0 65,19 65,55 0,36 -27,54 -64,54l-66 0 0 -109z"/>
   <path fill="#606062" fill-rule="nonzero" d="M24591 16547c-14,17 -20,39 -20,63 0,52 27,114 69,178 44,65 104,130 170,184 89,72 187,123 268,123 18,-3 48,-17 72,-38 12,-9 21,-20 28,-31 5,-9 8,-19 6,-29l0 0c-1,-8 -5,-16 -11,-24 -13,-13 -20,-19 -26,-26 -6,-6 -12,-13 -25,-25 -42,-35 -53,-22 -68,-2 -12,15 -25,32 -47,45l-2 1 -2 1c-30,11 -68,-5 -105,-30 -52,-37 -106,-95 -129,-123l0 -1 -1 0c-5,-8 -9,-14 -14,-21 -32,-41 -68,-88 -21,-135l2 -1 1 -1c2,-2 4,-3 5,-4 12,-8 27,-22 37,-37l0 0c7,-11 10,-22 5,-31l0 0 -1 0c-7,-11 -25,-29 -44,-47 -21,-21 -44,-42 -59,-54 -32,-4 -65,37 -88,65l0 0zm-62 63c0,-34 10,-64 30,-89l0 0c31,-38 76,-93 134,-79l4 1 4 3c15,12 42,37 66,60 21,20 40,40 49,52 0,1 1,2 1,2l0 0c17,25 11,52 -4,76l0 0c-13,20 -32,38 -47,49 -2,1 -3,2 -4,3 -20,21 4,52 25,79 6,8 11,16 16,22 21,27 71,80 119,113 26,18 50,30 65,27 14,-10 25,-23 34,-35 31,-39 52,-67 129,-4l1 1 0 1c14,14 20,20 27,27 6,6 12,12 25,25l0 1 1 1c12,15 19,30 21,44l0 0c3,20 -1,39 -11,57 -9,16 -22,30 -37,42 -31,26 -71,44 -95,48l-2 0 -1 0c-91,0 -199,-55 -295,-133 -69,-56 -132,-124 -178,-193 -47,-70 -77,-141 -77,-201z"/>
   <path fill="#606062" fill-rule="nonzero" d="M24878 16054c-194,0 -369,79 -496,205 -127,127 -206,303 -206,496 0,78 13,153 36,222 24,73 60,140 104,199l7 9 -4 11 -110 315 367 -116 8 -2 7 3c44,20 91,35 140,46 47,10 96,15 147,15 193,0 369,-79 496,-206 127,-126 205,-302 205,-496 0,-193 -78,-369 -205,-496 -127,-126 -303,-205 -496,-205zm-526 176c135,-134 321,-218 526,-218 205,0 391,84 525,218 135,135 218,320 218,525 0,206 -83,391 -218,526 -134,134 -320,218 -525,218 -53,0 -105,-6 -156,-17 -48,-10 -96,-25 -140,-45l-400 127 -40 12 14 -39 121 -345c-45,-61 -80,-129 -104,-202 -25,-74 -38,-153 -38,-235 0,-205 83,-390 217,-525z"/>
  </g>
  <g id="_2425948798784">
   <polygon fill="#FEFEFE" points="23184,30712 26572,30712 26572,34099 23184,34099 "/>
   <path fill="#606062" fill-rule="nonzero" d="M24222 31346l1311 0c60,0 116,21 160,56 44,36 76,87 89,145l3 14 -12 8 -884 540 -11 6 -11 -6 -884 -540 -13 -8 3 -14c13,-58 46,-109 90,-145 44,-35 99,-56 159,-56zm1311 42l-1311 0c-50,0 -96,17 -133,47 -34,27 -59,64 -71,106l860 525 860 -525c-13,-42 -38,-79 -72,-106 -36,-30 -82,-47 -133,-47zm255 320l0 704c0,70 -28,134 -75,180 -46,46 -110,75 -180,75l-1311 0c-70,0 -134,-29 -180,-75 -46,-46 -75,-110 -75,-180l0 -700 0 -38 32 21c40,25 89,57 140,90 253,164 564,366 733,435l885 -529 31 -19 0 36zm-41 704l0 -667 -862 516 -9 5 -9 -4c-172,-66 -491,-274 -751,-442 -36,-24 -71,-46 -107,-69l0 661c0,59 24,112 63,151 38,38 92,62 150,62l1311 0c59,0 112,-24 151,-62 39,-39 63,-92 63,-151z"/>
   <path fill="#606062" fill-rule="nonzero" d="M24256 33539l1 0 0 -12 0 -119 0 -12 0 -2 0 -12 0 -109 0 -12 -1 0 0 278zm180 28l-194 0 -14 0 0 -14 0 -306 0 -14 14 0 187 0 14 0 0 14 0 26 0 14 -14 0 -145 0 0 81 135 0 14 0 0 14 0 26 0 14 -14 0 -135 0 0 91 152 0 14 0 0 14 0 26 0 14 -14 0zm86 -28l1 0 0 -256 0 -14 14 0 1 0 8 0 -4 -8 -20 0 0 278zm15 28l-29 0 -14 0 0 -14 0 -306 0 -14 14 0 43 0 9 0 4 9 98 227 99 -227 4 -9 9 0 40 0 14 0 0 14 0 306 0 14 -14 0 -28 0 -14 0 0 -14 0 -205 -91 210 -4 9 -9 0 -12 0 -9 0 -4 -9 -92 -211 0 206 0 14 -14 0zm242 -298l6 0 1 0 14 0 0 14 0 256 0 0 0 -278 -17 0 -4 8zm163 216l-31 73 -4 9 -9 0 -29 0 -22 0 9 -20 133 -305 4 -9 9 0 29 0 9 0 4 9 129 305 8 20 -21 0 -32 0 -9 0 -4 -9 -30 -73 -143 0zm163 -25l2 6 30 73 2 0 -63 -151 21 52 8 20 0 0zm-41 -28l-49 -118 -50 118 99 0zm168 -171l-1 0 0 278 1 0 0 -278zm-15 -28l29 0 14 0 0 14 0 306 0 14 -14 0 -29 0 -14 0 0 -14 0 -306 0 -14 14 0zm140 28l0 0 0 278 0 0 0 -12 0 -266zm-14 -28l28 0 14 0 0 14 0 266 129 0 13 0 0 14 0 26 0 14 -13 0 -171 0 -14 0 0 -14 0 -306 0 -14 14 0z"/>
   <path fill="#606062" d="M24242 33553l194 0 0 -26 -166 0 0 -119 149 0 0 -26 -149 0 0 -109 159 0 0 -26 -187 0 0 306zm266 0l29 0 0 -270 1 0 118 270 12 0 117 -270 1 0 0 270 28 0 0 -306 -40 0 -112 256 -111 -256 -43 0 0 306zm390 0l35 -81 162 0 33 81 32 0 -129 -306 -29 0 -133 306 29 0zm117 -275l69 168 -140 0 71 -168zm231 -31l-29 0 0 306 29 0 0 -306zm125 0l-28 0 0 306 171 0 0 -26 -143 0 0 -280z"/>
  </g>
  <g id="_2425948792000">
   <polygon fill="#FEFEFE" points="23184,26725 26572,26725 26572,30112 23184,30112 "/>
   <path fill="#606062" fill-rule="nonzero" d="M24442 27831c-3,12 -5,21 -5,29 1,6 3,14 8,23 24,1 68,1 123,2 220,4 617,11 666,-4 5,-10 5,-26 5,-37l0 -1 -2 -4c0,0 0,0 -1,-1 -4,-7 -7,-12 -15,-12l-769 0c-4,0 -5,1 -7,3l-3 2zm-39 30c-1,-14 2,-26 7,-45l0 0c2,-3 4,-7 7,-9 2,-1 4,-3 6,-4 8,-7 13,-10 29,-10l769 0c28,0 35,10 45,29l1 0c1,2 2,5 4,6 2,3 3,6 3,10 0,6 0,5 0,5 0,18 0,42 -14,61 -1,2 -4,4 -6,5 -39,21 -457,14 -687,10 -60,-1 -107,-2 -133,-2l0 0c-6,0 -12,-3 -15,-9 -11,-19 -16,-33 -16,-47z"/>
   <path fill="#606062" fill-rule="nonzero" d="M24441 27613c-5,15 -4,17 -3,23 1,5 2,12 3,24l1 1c2,3 2,5 3,5l782 0c2,-1 5,-4 7,-8 3,-5 5,-11 5,-20 0,-7 -2,-16 -6,-26 -1,0 -3,-1 -4,-1 -4,-1 -7,-2 -11,-2l-763 0c-4,0 -6,1 -8,2 -2,0 -4,1 -6,2zm-37 29c-3,-14 -3,-17 6,-48 2,-8 9,-13 17,-13 3,0 5,-1 6,-1 6,-3 11,-5 22,-5l763 0c8,0 14,2 21,4 2,1 5,2 8,2 6,0 12,4 14,10 9,18 13,34 13,47 0,15 -4,27 -10,37 -6,10 -14,17 -21,21 -5,2 -10,4 -15,4l-783 0c-18,0 -23,-8 -32,-19 -1,-2 -2,-3 -3,-5l0 0c-2,-3 -4,-6 -4,-10 0,-12 -1,-19 -2,-24z"/>
   <path fill="#606062" fill-rule="nonzero" d="M24437 28058l0 3 0 0 0 0c0,3 0,5 0,7 -1,2 -1,3 -2,7l-1 4c2,8 4,14 7,21 32,5 189,7 351,7 165,0 332,-2 370,-6l0 -17c0,-13 0,-27 0,-38l-706 0c-5,2 -8,3 -10,4 -3,0 -3,1 -9,8zm-35 1c1,-2 1,-5 1,-8 0,-3 1,-7 3,-10 15,-18 18,-19 28,-23 2,-1 4,-1 9,-4 2,-1 5,-2 9,-2l727 0 0 0c9,0 17,7 17,16 1,14 1,35 0,56 0,6 0,12 0,30l0 0c0,5 -3,11 -8,14 -13,8 -207,13 -396,13 -165,0 -328,-4 -366,-10 -2,-1 -4,-1 -6,-2 -1,0 -1,0 -1,0l0 0c-4,-2 -7,-6 -8,-10 -4,-11 -7,-21 -10,-32l-1 -2c-1,-2 -1,-5 0,-8 0,-3 1,-6 1,-9 1,-2 1,-3 1,-4 0,-1 0,-2 0,-5l0 0z"/>
   <path fill="#606062" fill-rule="nonzero" d="M24437 28270c0,7 0,14 1,20 1,17 4,31 7,36l702 0c1,-14 1,-32 1,-48l0 -8c-60,-9 -415,-4 -600,-2 -47,1 -84,1 -100,1 -4,2 -8,2 -11,1zm-34 23c-2,-27 0,-58 7,-79 2,-7 9,-13 17,-13 18,0 22,17 26,32l1 3c22,0 54,-1 94,-1 190,-3 555,-7 618,7 9,0 16,7 16,16 0,10 0,15 0,19 1,24 1,48 -4,69 -1,8 -8,14 -17,14l-723 0 0 0c-3,0 -6,-1 -9,-2 -14,-8 -23,-35 -26,-65z"/>
   <path fill="#606062" fill-rule="nonzero" d="M25312 28280c-3,21 -7,59 -9,95 -1,23 -1,45 -1,59 25,-15 63,-50 90,-75 10,-9 19,-17 25,-22 0,-1 1,-1 2,-2l1 -1c4,-2 5,-2 5,-3 0,0 0,0 0,0 -14,-9 -40,-22 -66,-33 -18,-8 -35,-14 -47,-18zm-43 94c2,-49 8,-102 12,-117 2,-8 10,-14 19,-13 15,1 44,11 73,23 33,14 67,32 80,41 4,4 7,9 7,14l0 3c-1,10 -1,15 -4,21 -3,7 -7,10 -16,16l-1 0c-6,6 -14,13 -23,21 -38,35 -94,86 -125,92l0 0c-8,2 -16,-3 -19,-10 -5,-13 -5,-51 -3,-91z"/>
   <path fill="#606062" fill-rule="nonzero" d="M25640 27590c-14,25 -85,166 -155,308 -60,122 -119,243 -137,287 21,11 57,30 88,44 18,7 34,14 44,17 15,-23 33,-62 50,-101 15,-33 30,-66 44,-89 0,-4 -2,-12 -4,-20 -3,-13 -6,-27 -4,-41 0,-1 0,-2 0,-3l0 0c25,-73 60,-140 95,-208 26,-49 52,-98 73,-149l0 0 -90 -45c-1,0 -2,0 -4,0zm-186 293c68,-138 140,-278 161,-314 1,-1 1,-2 2,-4 1,-2 2,-3 4,-5l0 0 1 0c3,-3 9,-4 14,-3 0,0 1,0 2,0 5,0 11,0 15,1l0 0c2,0 3,0 4,1l101 50c6,2 11,8 11,16l0 13 0 0c0,2 0,4 -1,6 -22,54 -49,105 -76,156 -34,65 -69,131 -92,201 -1,7 2,18 4,27 3,13 6,26 3,38 0,1 -1,3 -2,5 -13,21 -28,54 -43,88 -20,45 -41,92 -60,115l0 0c-4,4 -9,7 -14,7 -14,-1 -39,-10 -66,-22 -40,-18 -86,-42 -104,-52 -7,-4 -11,-12 -8,-20 9,-27 75,-165 144,-304zm186 -325c3,2 -2,-1 -2,-1l0 0c1,1 1,1 2,1z"/>
   <path fill="#606062" fill-rule="nonzero" d="M25825 27621c-7,-10 -7,-17 -8,-26l0 -1c-14,-4 -32,-11 -52,-20 -43,-19 -95,-46 -110,-55 -7,-4 -10,-12 -8,-19l0 0c11,-33 24,-56 39,-85 4,-7 6,-11 7,-14 1,-1 2,-2 2,-2l0 0c42,-52 184,50 186,51 2,2 4,4 5,6 13,20 4,39 -8,61 -7,13 -14,28 -17,44 6,3 10,7 14,11 5,7 8,15 8,22 0,8 -3,16 -9,23 -4,4 -9,9 -17,13 -15,43 -87,187 -134,280 -17,35 -31,62 -36,74 -1,0 -1,1 -1,1l-1 1c-3,6 -6,12 -9,18 -4,8 -14,12 -22,9 -9,-4 -13,-14 -10,-22 3,-8 7,-14 11,-21l0 0 0 0c7,-14 20,-41 37,-75 48,-95 122,-243 133,-274zm-46 -78c20,9 37,16 47,19 2,-24 12,-43 21,-60 6,-12 11,-22 10,-27 -19,-14 -113,-78 -134,-56 -5,10 -5,10 -6,12 -12,23 -23,42 -32,66 22,12 60,31 94,46z"/>
   <path fill="#606062" fill-rule="nonzero" d="M25492 28468c0,-9 8,-16 17,-16 10,0 17,7 17,16l0 246c0,9 -8,17 -17,17l-1346 0c-9,0 -17,-8 -17,-17l-3 -1383c0,-1 0,-2 0,-3l0 0c2,-13 3,-26 3,-38 1,-44 2,-76 61,-85 1,-1 1,-1 2,-1l0 0 1065 0c2,0 4,1 6,2l31 10c3,1 5,3 7,5l157 152c5,4 6,5 7,5 25,20 42,33 48,70 0,1 0,1 0,2l0 0 0 144c0,3 -1,7 -3,10 -4,5 -8,14 -13,23 -23,43 -58,107 -91,110 -9,1 -18,-6 -19,-15 -1,-9 6,-18 16,-18 14,-2 44,-56 63,-92 5,-9 9,-17 12,-23l0 -138c-4,-22 -16,-32 -35,-47l-8 -6 0 0c0,0 0,0 -1,-1l-155 -150 -25 -9 -1061 0c-28,5 -29,26 -29,53 -1,13 -1,26 -4,41l3 1365 1311 0 1 -229z"/>
   <path fill="#606062" fill-rule="nonzero" d="M25845 27592c-7,7 -18,7 -25,0 -7,-7 -7,-17 0,-24l11 -10c6,-7 17,-7 24,0 7,6 7,17 0,24l-10 10z"/>
   <path fill="#606062" fill-rule="nonzero" d="M23947 29467l1 0 0 -12 0 -119 0 -12 0 -2 0 -12 0 -108 0 -12 -1 0 0 277zm180 28l-194 0 -13 0 0 -14 0 -305 0 -14 13 0 187 0 14 0 0 14 0 26 0 13 -14 0 -144 0 0 81 134 0 14 0 0 14 0 26 0 14 -14 0 -134 0 0 91 151 0 14 0 0 14 0 26 0 14 -14 0zm90 -28l0 -253 0 -14 14 0 1 0 7 0 -7 -10 -15 0 0 277 0 0zm28 -210l0 224 0 14 -14 0 -28 0 -14 0 0 -14 0 -305 0 -14 14 0 36 0 8 0 4 6 161 232 0 -224 0 -14 14 0 29 0 14 0 0 14 0 305 0 14 -14 0 -37 0 -7 0 -4 -6 -162 -232zm173 200l7 10 16 0 0 -277 -1 0 0 253 0 14 -14 0 -1 0 -7 0zm148 -255c29,-30 71,-48 121,-48 49,0 91,18 121,48 30,31 48,73 48,123 0,28 -9,61 -25,88 -6,11 -13,20 -21,28l51 0 14 0 0 14 0 26 0 14 -14 0 -169 0c-49,0 -92,-18 -124,-49 -31,-31 -50,-73 -50,-121 0,-50 17,-93 48,-123zm-6 55c-9,20 -14,43 -14,68 0,27 7,53 21,75 -13,-22 -20,-47 -20,-75 0,-25 4,-48 13,-68zm155 210l37 0 0 -11c-12,5 -24,9 -37,11zm110 -114c2,-9 3,-19 3,-28 0,-24 -5,-46 -13,-65 8,19 12,41 12,65 0,9 -1,19 -2,28zm-220 -114c-20,21 -31,51 -31,86 0,33 13,62 34,83 21,21 50,33 84,33 32,0 58,-12 77,-32 19,-21 30,-51 30,-84 0,-35 -11,-65 -31,-86 -19,-20 -47,-31 -82,-31 -34,0 -61,11 -81,31zm328 125c0,36 9,64 26,83 5,6 11,11 18,15 -7,-4 -13,-10 -19,-17 -16,-20 -24,-49 -24,-86l0 -169 -1 0 0 174zm5 102c-22,-24 -32,-59 -32,-102l0 -188 0 -14 13 0 29 0 14 0 0 14 0 183c0,30 6,54 18,69 11,14 28,21 51,21 23,0 40,-7 51,-22 12,-16 18,-40 18,-72l0 -179 0 -14 14 0 28 0 14 0 0 14 0 186c0,44 -11,79 -32,103 -22,25 -53,38 -93,38 -41,0 -72,-13 -93,-37zm146 -4c7,-4 14,-9 19,-15 17,-19 25,-48 25,-85l0 -172 0 0 0 165c0,38 -8,68 -24,89 -6,7 -12,14 -20,18zm164 -272l-1 0 0 277 1 0 0 -277zm-14 -28l28 0 14 0 0 14 0 305 0 14 -14 0 -28 0 -14 0 0 -14 0 -305 0 -14 14 0zm140 305l0 -131 0 -12 0 -2 0 -12 0 -108 0 -12 -1 0 0 277 1 0zm27 -117l0 131 0 14 -13 0 -29 0 -14 0 0 -14 0 -305 0 -14 14 0 83 0c38,0 67,8 87,23l0 0c22,16 33,40 33,71 0,26 -8,47 -24,63 -11,12 -26,20 -46,25l79 130 12 21 -24 0 -32 0 -8 0 -4 -7 -82 -138 -32 0zm104 -40c5,-3 10,-6 14,-10 10,-11 15,-26 15,-44 0,-22 -7,-38 -21,-49l0 0c-2,-1 -4,-3 -6,-4 1,1 2,1 2,2 16,12 25,30 25,51 0,21 -9,38 -25,51 -1,1 -2,2 -4,3zm-104 -95l0 81 49 0c19,0 33,-4 42,-11 9,-7 14,-17 14,-29 0,-12 -5,-22 -14,-29 -9,-7 -23,-12 -43,-12l-48 0zm241 252l1 0 0 -12 0 -119 0 -12 0 -2 0 -12 0 -108 0 -12 -1 0 0 277zm180 28l-194 0 -14 0 0 -14 0 -305 0 -14 14 0 187 0 14 0 0 14 0 26 0 13 -14 0 -144 0 0 81 134 0 14 0 0 14 0 26 0 14 -14 0 -134 0 0 91 151 0 14 0 0 14 0 26 0 14 -14 0z"/>
   <path fill="#606062" d="M23933 29481l194 0 0 -26 -165 0 0 -119 148 0 0 -26 -148 0 0 -108 158 0 0 -26 -187 0 0 305zm298 0l0 -267 1 0 186 267 37 0 0 -305 -29 0 0 267 -1 0 -186 -267 -36 0 0 305 28 0zm456 -313c-92,0 -155,66 -155,157 0,88 70,156 160,156l169 0 0 -26 -96 0 0 -1c49,-17 77,-79 77,-129 0,-91 -63,-157 -155,-157zm-127 157c0,-76 49,-131 126,-131 78,0 127,54 127,131 0,72 -47,130 -121,130 -74,0 -132,-56 -132,-130zm359 39c0,77 38,125 112,125 74,0 111,-48 111,-127l0 -186 -28 0 0 179c0,69 -28,108 -83,108 -55,0 -83,-38 -83,-104l0 -183 -29 0 0 188zm343 -188l-28 0 0 305 28 0 0 -305zm126 305l0 -145 53 0 86 145 32 0 -89 -146c54,-8 78,-36 78,-79 0,-52 -36,-80 -106,-80l-83 0 0 305 29 0zm0 -171l0 -108 61 0c46,0 71,22 71,54 0,33 -26,54 -70,54l-62 0zm240 171l194 0 0 -26 -165 0 0 -119 148 0 0 -26 -148 0 0 -108 158 0 0 -26 -187 0 0 305z"/>
  </g>
  <g id="_2425948792480">
   <polygon fill="#FEFEFE" points="23184,34572 26572,34572 26572,37959 23184,37959 "/>
   <g>
    <path fill="#606062" fill-rule="nonzero" d="M23861 37387c4,-2 7,-5 10,-7 14,-12 22,-29 22,-52 0,-12 -2,-22 -7,-31 4,9 6,20 6,32 0,22 -8,41 -25,54 -2,1 -4,3 -6,4zm28 14c-20,17 -49,26 -83,26l-99 0 -14 0 0 -14 0 -305 0 -14 14 0 90 0c35,0 62,7 81,23 20,16 29,39 29,71 0,20 -6,37 -18,51 -3,4 -7,7 -11,11 8,4 14,9 20,16 15,16 23,38 23,62 0,31 -12,56 -32,73zm-64 -148l0 0 0 -1 0 -2c-3,1 -6,2 -9,2 3,0 6,1 9,1zm51 -44c2,-6 4,-13 4,-21 0,-23 -7,-40 -20,-50 -3,-3 -7,-5 -11,-7 3,1 6,4 9,6 14,12 21,29 21,51 0,8 -1,15 -3,21zm-154 -88l-1 0 0 278 1 0 0 -12 0 -121 0 -12 0 -2 0 -12 0 -107 0 -12zm28 158l0 94 53 0c21,0 37,-4 47,-12 10,-8 15,-19 15,-32 0,-16 -6,-28 -15,-36 -11,-9 -26,-14 -44,-14l-56 0zm0 -132l0 79 46 0c18,0 33,-4 42,-11 9,-6 13,-15 13,-27 0,-13 -4,-24 -11,-30 -9,-7 -22,-11 -40,-11l-50 0zm257 252l0 -131 0 -12 0 -2 0 -12 0 -109 0 -12 -1 0 0 278 1 0zm28 -117l0 131 0 14 -14 0 -29 0 -14 0 0 -14 0 -305 0 -14 14 0 83 0c38,0 67,8 88,23l0 0c21,16 32,40 32,71 0,26 -7,47 -23,63 -12,12 -27,20 -47,25l79 130 13 21 -25 0 -32 0 -8 0 -4 -7 -82 -138 -31 0zm103 -40c6,-3 10,-7 14,-10 11,-11 15,-26 15,-44 0,-22 -7,-38 -21,-49l0 0c-2,-1 -4,-3 -6,-4 1,1 2,1 3,2 16,12 24,30 24,51 0,21 -9,38 -24,51 -2,1 -3,2 -5,3zm-103 -95l0 81 48 0c19,0 33,-4 43,-11 8,-7 13,-17 13,-29 0,-12 -5,-22 -13,-29 -10,-7 -24,-12 -43,-12l-48 0zm241 -12c31,-31 73,-49 124,-49 51,0 93,18 123,49 31,31 49,75 49,125 0,50 -18,94 -49,126 -30,30 -73,49 -123,49 -51,0 -93,-19 -124,-49 -30,-32 -48,-76 -48,-126 0,-50 18,-94 48,-125zm6 36c-17,24 -26,55 -26,89 0,35 10,66 27,91 -17,-25 -27,-56 -27,-91 0,-34 9,-64 26,-89zm234 180c18,-25 28,-56 28,-91 0,-35 -10,-67 -28,-91 17,25 27,56 27,91 0,35 -10,66 -27,91zm-200 -178c-20,21 -32,52 -32,87 0,36 12,66 33,88 20,21 48,33 83,33 34,0 63,-12 83,-33 20,-22 32,-52 32,-88 0,-35 -11,-66 -32,-88 -20,-20 -49,-32 -84,-32 -34,0 -63,12 -83,33zm200 178c-4,5 -8,11 -13,15l13 -15zm133 -216c31,-31 74,-49 124,-49 24,0 46,4 66,13l0 0c19,9 36,22 50,40l8 11 -10 8 -23 20 -12 10 -9 -13c-7,-11 -17,-20 -29,-26 -12,-6 -26,-9 -41,-9 -35,0 -63,12 -83,33 -21,21 -33,52 -33,87 0,36 12,66 33,88 20,21 48,33 83,33 15,0 31,-4 46,-11 13,-8 25,-18 32,-30l8 -13 12 10 24 17 11 8 -8 11c-17,23 -35,38 -57,48 -21,10 -44,14 -68,14 -51,0 -93,-19 -123,-49 -31,-32 -49,-76 -49,-126 0,-50 18,-94 48,-125zm12 29c-20,25 -32,58 -32,96 0,35 10,66 27,91 -17,-25 -26,-56 -26,-91 0,-37 11,-71 31,-96zm157 236c4,-1 8,-3 12,-4 13,-7 26,-16 37,-28l-1 -1c-10,11 -21,20 -35,27 -4,2 -9,4 -13,6zm5 -277c1,0 2,1 3,1 12,6 22,14 31,23l1 -1c-9,-9 -19,-16 -31,-22l0 0c-1,0 -2,-1 -4,-1zm143 276l1 0 0 -131 0 -12 0 -2 0 -12 0 -121 -1 0 0 278zm14 28l-28 0 -14 0 0 -14 0 -305 0 -14 14 0 28 0 14 0 0 14 0 120 143 0 0 -120 0 -14 14 0 29 0 14 0 0 14 0 305 0 14 -14 0 -29 0 -14 0 0 -14 0 -131 -143 0 0 131 0 14 -14 0zm185 -173l0 2 0 12 0 131 1 0 0 -278 -1 0 0 121 0 12zm120 42c0,36 9,64 26,83 5,6 11,11 18,15 -7,-4 -13,-10 -19,-17 -16,-20 -24,-50 -24,-86l0 -170 -1 0 0 175zm5 102c-22,-25 -33,-59 -33,-102l0 -188 0 -14 14 0 29 0 14 0 0 14 0 183c0,30 6,53 18,69 11,14 28,21 51,21 23,0 39,-7 50,-22 13,-16 19,-40 19,-72l0 -179 0 -14 13 0 29 0 14 0 0 14 0 186c0,44 -11,79 -32,103 -22,25 -53,38 -93,38 -41,0 -72,-13 -93,-37zm146 -4c7,-4 13,-9 19,-15 17,-19 25,-48 25,-85l0 -173 -1 0 0 166c0,38 -8,68 -24,89 -5,7 -12,13 -19,18zm164 5l0 -131 0 -12 0 -2 0 -12 0 -109 0 -12 -1 0 0 278 1 0zm28 -117l0 131 0 14 -14 0 -29 0 -13 0 0 -14 0 -305 0 -14 13 0 83 0c38,0 67,8 88,23l0 0c21,16 32,40 32,71 0,26 -7,47 -23,63 -12,12 -27,20 -47,25l79 130 13 21 -25 0 -32 0 -8 0 -4 -7 -82 -138 -31 0zm104 -40c5,-3 9,-7 13,-10 11,-11 16,-26 16,-44 0,-22 -8,-38 -22,-49l0 0c-2,-1 -4,-3 -6,-4 1,1 2,1 3,2 16,12 24,30 24,51 0,21 -9,38 -24,51 -2,1 -3,2 -4,3zm-104 -95l0 81 48 0c19,0 33,-4 43,-11 8,-7 13,-17 13,-29 0,-12 -4,-22 -13,-29 -10,-7 -24,-12 -43,-12l-48 0zm241 252l0 0 0 -12 0 -119 0 -12 0 -2 0 -12 0 -109 0 -12 0 0 0 278zm179 28l-193 0 -14 0 0 -14 0 -305 0 -14 14 0 187 0 13 0 0 14 0 25 0 14 -13 0 -145 0 0 81 135 0 13 0 0 14 0 26 0 14 -13 0 -135 0 0 91 151 0 14 0 0 14 0 26 0 14 -14 0z"/>
   </g>
   <path fill="#606062" d="M23806 37413c60,0 101,-29 101,-85 0,-41 -26,-73 -68,-75l0 -1c35,-7 55,-32 55,-64 0,-55 -33,-80 -97,-80l-90 0 0 305 99 0zm-70 -26l0 -121 70 0c41,0 72,21 72,63 0,36 -27,58 -75,58l-67 0zm0 -147l0 -107 64 0c43,0 65,19 65,55 0,33 -27,52 -69,52l-60 0zm285 173l0 -145 53 0 86 145 32 0 -89 -147c55,-7 78,-35 78,-78 0,-52 -35,-80 -106,-80l-83 0 0 305 29 0zm0 -171l0 -109 62 0c46,0 70,22 70,55 0,33 -26,54 -70,54l-62 0zm379 -142c-94,0 -158,68 -158,160 0,92 64,161 158,161 93,0 158,-69 158,-161 0,-91 -63,-160 -158,-160zm-130 160c0,-76 51,-134 129,-134 80,0 130,58 130,134 0,77 -51,135 -129,135 -78,0 -130,-58 -130,-135zm503 -160c-92,0 -158,66 -158,160 0,92 64,161 158,161 45,0 84,-16 113,-56l-23 -17c-18,28 -55,47 -90,47 -79,0 -130,-58 -130,-135 0,-77 52,-134 130,-134 34,0 65,15 82,41l23 -19c-27,-34 -63,-48 -105,-48zm179 313l28 0 0 -145 171 0 0 145 29 0 0 -305 -29 0 0 134 -171 0 0 -134 -28 0 0 305zm319 -117c0,77 38,125 112,125 73,0 111,-48 111,-127l0 -186 -29 0 0 179c0,69 -27,108 -82,108 -56,0 -83,-38 -83,-104l0 -183 -29 0 0 188zm343 117l0 -145 53 0 86 145 32 0 -89 -147c55,-7 78,-35 78,-78 0,-52 -35,-80 -106,-80l-83 0 0 305 29 0zm0 -171l0 -109 62 0c46,0 70,22 70,55 0,33 -26,54 -70,54l-62 0zm241 171l193 0 0 -26 -165 0 0 -119 149 0 0 -26 -149 0 0 -109 159 0 0 -25 -187 0 0 305z"/>
   <path fill="#606062" fill-rule="nonzero" d="M24853 35021c0,-15 11,-27 25,-27 14,0 25,12 25,27l0 1516 565 -630c9,-10 25,-11 35,0 10,11 10,28 0,39l-606 676c-5,6 -12,9 -19,9 -8,0 -15,-3 -19,-9l-607 -676c-9,-11 -9,-28 1,-39 10,-11 25,-10 35,0l565 630 0 -1516z"/>
  </g>
  <g>
   <polygon fill="#FEFEFE" points="15434,34572 18822,34572 18822,37959 15434,37959 "/>
   <g>
    <path fill="none" stroke="#606062" stroke-width="27.7795" d="M16056 37413c60,0 101,-29 101,-85 0,-41 -26,-73 -68,-75l0 -1c35,-7 55,-32 55,-64 0,-55 -33,-80 -97,-80l-90 0 0 305 99 0zm-70 -26l0 -121 70 0c41,0 72,21 72,63 0,36 -27,58 -75,58l-67 0zm0 -147l0 -107 64 0c43,0 65,19 65,55 0,33 -27,52 -69,52l-60 0zm285 173l0 -145 53 0 86 145 32 0 -89 -147c55,-7 78,-35 78,-78 0,-52 -35,-80 -106,-80l-83 0 0 305 29 0zm0 -171l0 -109 62 0c46,0 70,22 70,55 0,33 -26,54 -70,54l-62 0zm379 -142c-94,0 -158,68 -158,160 0,92 64,161 158,161 93,0 158,-69 158,-161 0,-91 -63,-160 -158,-160zm-130 160c0,-76 51,-134 129,-134 80,0 130,58 130,134 0,77 -51,135 -129,135 -78,0 -130,-58 -130,-135zm503 -160c-92,0 -158,66 -158,160 0,92 64,161 158,161 45,0 84,-16 113,-56l-23 -17c-18,28 -55,47 -90,47 -79,0 -130,-58 -130,-135 0,-77 52,-134 130,-134 34,0 65,15 82,41l23 -19c-27,-34 -63,-48 -105,-48zm179 313l28 0 0 -145 171 0 0 145 29 0 0 -305 -29 0 0 134 -171 0 0 -134 -28 0 0 305zm319 -117c0,77 38,125 112,125 73,0 111,-48 111,-127l0 -186 -29 0 0 179c0,69 -27,108 -82,108 -56,0 -83,-38 -83,-104l0 -183 -29 0 0 188zm343 117l0 -145 53 0 86 145 32 0 -89 -147c55,-7 78,-35 78,-78 0,-52 -35,-80 -106,-80l-83 0 0 305 29 0zm0 -171l0 -109 62 0c46,0 70,22 70,55 0,33 -26,54 -70,54l-62 0zm241 171l193 0 0 -26 -165 0 0 -119 149 0 0 -26 -149 0 0 -109 159 0 0 -25 -187 0 0 305z"/>
    <path id="1" fill="#606062" d="M16056 37413c60,0 101,-29 101,-85 0,-41 -26,-73 -68,-75l0 -1c35,-7 55,-32 55,-64 0,-55 -33,-80 -97,-80l-90 0 0 305 99 0zm-70 -26l0 -121 70 0c41,0 72,21 72,63 0,36 -27,58 -75,58l-67 0zm0 -147l0 -107 64 0c43,0 65,19 65,55 0,33 -27,52 -69,52l-60 0zm285 173l0 -145 53 0 86 145 32 0 -89 -147c55,-7 78,-35 78,-78 0,-52 -35,-80 -106,-80l-83 0 0 305 29 0zm0 -171l0 -109 62 0c46,0 70,22 70,55 0,33 -26,54 -70,54l-62 0zm379 -142c-94,0 -158,68 -158,160 0,92 64,161 158,161 93,0 158,-69 158,-161 0,-91 -63,-160 -158,-160zm-130 160c0,-76 51,-134 129,-134 80,0 130,58 130,134 0,77 -51,135 -129,135 -78,0 -130,-58 -130,-135zm503 -160c-92,0 -158,66 -158,160 0,92 64,161 158,161 45,0 84,-16 113,-56l-23 -17c-18,28 -55,47 -90,47 -79,0 -130,-58 -130,-135 0,-77 52,-134 130,-134 34,0 65,15 82,41l23 -19c-27,-34 -63,-48 -105,-48zm179 313l28 0 0 -145 171 0 0 145 29 0 0 -305 -29 0 0 134 -171 0 0 -134 -28 0 0 305zm319 -117c0,77 38,125 112,125 73,0 111,-48 111,-127l0 -186 -29 0 0 179c0,69 -27,108 -82,108 -56,0 -83,-38 -83,-104l0 -183 -29 0 0 188zm343 117l0 -145 53 0 86 145 32 0 -89 -147c55,-7 78,-35 78,-78 0,-52 -35,-80 -106,-80l-83 0 0 305 29 0zm0 -171l0 -109 62 0c46,0 70,22 70,55 0,33 -26,54 -70,54l-62 0zm241 171l193 0 0 -26 -165 0 0 -119 149 0 0 -26 -149 0 0 -109 159 0 0 -25 -187 0 0 305z"/>
   </g>
   <path fill="#606062" fill-rule="nonzero" d="M17107 35240c0,-12 9,-22 21,-22 11,0 21,10 21,22l0 1161 446 -481c8,-9 21,-9 29,-1 9,9 9,23 1,32l-481 518c-4,5 -10,8 -16,8 -7,0 -12,-3 -16,-8l-481 -518c-8,-9 -8,-23 0,-32 8,-8 22,-8 30,1l446 481 0 -1161z"/>
   <path fill="#606062" fill-rule="nonzero" d="M17128 34951c247,0 470,100 632,262 162,162 263,387 263,634 0,248 -101,472 -263,635 -162,162 -385,262 -632,262 -247,0 -471,-100 -633,-262 -162,-163 -262,-387 -262,-635 0,-247 100,-472 262,-634 162,-162 386,-262 633,-262zm604 294c-155,-154 -368,-249 -604,-249 -236,0 -450,95 -604,249 -154,155 -249,367 -249,602 0,235 95,448 249,602 154,155 368,250 604,250 236,0 449,-95 604,-250 154,-154 249,-367 249,-602 0,-235 -95,-447 -249,-602z"/>
  </g>
  <path fill="#606062" fill-rule="nonzero" d="M11871 36315c8,8 8,20 0,28 -8,8 -21,8 -29,0l-520 -482 0 0 -1 0 0 0 0 0 0 0 0 -1 -1 0 0 0 0 0 0 0 0 0 -1 -1 0 0 0 -1 0 0 -1 0 0 -1 0 0 0 0 0 -1 -1 0 0 -1 0 0 0 0 0 0 0 0 0 -1 0 0 0 0 -1 -1 0 0 0 0 0 0 0 -1 0 0 0 0 0 0 0 -1 0 0 0 0 0 0 0 -1 0 0 0 0 0 -1 -1 0 0 -1 0 0 0 -1 0 0 0 -1 1 0 0 -1 0 -1 0 0 0 0 0 0 0 0 0 -1 0 0 0 0 0 0 0 -1 0 0 0 0 0 0 0 0 1 -1 0 0 0 -1 0 0 0 0 0 0 0 -1 0 0 0 0 1 -1 0 0 0 0 0 0 0 -1 1 -1 0 0 0 0 0 0 1 -1 0 0 0 0 0 0 0 0 1 -1 0 0 0 0 0 0 0 0 1 -1 0 0 520 -482c8,-7 21,-7 29,1 8,7 8,20 0,28l-505 467 505 468z"/>
 </g>
</svg>
