<?xml version="1.0" encoding="UTF-8"?>
<!DOCTYPE svg PUBLIC "-//W3C//DTD SVG 1.1//EN" "http://www.w3.org/Graphics/SVG/1.1/DTD/svg11.dtd">
<!-- Creator: CorelDRAW X7 -->
<svg xmlns="http://www.w3.org/2000/svg" xml:space="preserve" width="1.87357in" height="1.87357in" version="1.1" shape-rendering="geometricPrecision" text-rendering="geometricPrecision" image-rendering="optimizeQuality" fill-rule="evenodd" clip-rule="evenodd"
viewBox="0 0 2048 2048"
 xmlns:xlink="http://www.w3.org/1999/xlink">
 <g id="Layer_x0020_1">
  <metadata id="CorelCorpID_0Corel-Layer"/>
  <g id="_2105793009872">
   <circle fill="#F9F6F4" cx="1024" cy="1024" r="1024"/>
   <path fill="#606062" d="M1438 1023c-21,26 -49,50 -73,74 -26,26 -54,53 -76,77l-5 5c0,0 -1,1 -1,1l-68 68c-75,75 -153,149 -226,226 -5,6 -3,3 -8,8 -46,48 -95,100 -143,143l-15 -18c0,-1 -1,-2 -1,-2 -1,-1 -1,-1 -2,-2l-35 -35c2,-4 4,-5 7,-9l364 -364c6,-7 10,-11 16,-17l68 -67c5,-6 10,-10 17,-17 19,-19 49,-54 69,-68l-37 -40c-2,-2 -2,-2 -4,-5l-64 -63c0,-1 -1,-1 -1,-2l-3 -2c-1,-1 -3,-3 -4,-4 0,0 -1,-1 -1,-1l-16 -17c-1,0 -2,-1 -2,-1 -1,-1 -1,-1 -2,-2l-3 -3c0,0 -1,-1 -1,-2 -1,0 -1,-1 -2,-1 0,-1 -1,-1 -1,-2 -1,0 -1,-1 -2,-2 -5,-5 -2,-3 -8,-8l-60 -59c0,-1 -1,-1 -1,-2l-4 -3c0,-1 -2,-3 -3,-3l-19 -20c-1,0 -1,-1 -2,-1l-64 -65c0,-1 -1,-1 -2,-2 0,0 -1,-1 -1,-1 -1,-1 -2,-1 -2,-2l-121 -121c-4,-4 -4,-6 -9,-10l-16 -16c-9,-9 -10,-10 -18,-18l-67 -65c0,0 -1,-1 -2,-2l56 -57c0,-1 1,0 1,1l166 166c7,6 13,12 20,19 36,40 75,74 113,113l223 224c23,22 57,55 75,76z"/>
  </g>
 </g>
</svg>
