<?xml version="1.0" encoding="UTF-8"?>
<!DOCTYPE svg PUBLIC "-//W3C//DTD SVG 1.1//EN" "http://www.w3.org/Graphics/SVG/1.1/DTD/svg11.dtd">
<!-- Creator: CorelDRAW X7 -->
<svg xmlns="http://www.w3.org/2000/svg" xml:space="preserve" width="3.38747in" height="3.387in" version="1.1" shape-rendering="geometricPrecision" text-rendering="geometricPrecision" image-rendering="optimizeQuality" fill-rule="evenodd" clip-rule="evenodd"
viewBox="0 0 3159 3159"
 xmlns:xlink="http://www.w3.org/1999/xlink">
 <g id="Layer_x0020_1">
  <metadata id="CorelCorpID_0Corel-Layer"/>
  <g id="_2504595829760">
   <polygon fill="#FEFEFE" points="0,0 3159,0 3159,3159 0,3159 "/>
   <path fill="#606062" fill-rule="nonzero" d="M1124 2388c29,-29 69,-46 115,-46 22,0 43,4 62,12l0 0c17,9 33,21 47,38l7 10 -9 8 -22 18 -11 9 -8 -12c-7,-10 -16,-18 -27,-24 -12,-6 -25,-9 -39,-9 -32,0 -59,12 -77,31 -20,20 -31,49 -31,82 0,33 11,61 31,82 18,19 45,30 77,30 15,0 30,-3 43,-10 12,-7 23,-16 30,-28l8 -12 11 9 22 16 10 8 -7 10c-15,21 -33,35 -53,44 -20,10 -41,14 -64,14 -47,0 -87,-18 -115,-46 -28,-29 -45,-70 -45,-117 0,-48 17,-88 45,-117zm11 27c-19,23 -30,54 -30,90 0,32 9,61 26,84 -17,-23 -25,-52 -25,-84 0,-35 10,-66 29,-90zm146 220c4,-1 8,-2 11,-4 13,-6 24,-14 35,-26l-1 -1c-9,11 -20,19 -32,26 -4,2 -8,4 -13,5zm5 -259c1,1 2,1 3,2 11,5 21,13 29,21l1 -1c-9,-8 -18,-15 -29,-20l0 0c-1,-1 -3,-1 -4,-2zm152 209l-29 67 -3 8 -9 0 -28 0 -20 0 8 -18 125 -285 3 -8 9 0 27 0 9 0 3 8 120 285 7 18 -19 0 -30 0 -8 0 -4 -8 -27 -67 -134 0zm152 -25l2 7 28 67 2 0 -60 -140 20 49 8 17 0 0zm-39 -25l-45 -110 -47 110 92 0zm157 -160l-1 0 0 259 1 0 0 -11 0 -248zm-14 -26l27 0 13 0 0 13 0 248 120 0 13 0 0 13 0 24 0 13 -13 0 -160 0 -13 0 0 -13 0 -285 0 -13 13 0zm228 26l-1 0 0 259 1 0 0 -11 0 -248zm-14 -26l27 0 13 0 0 13 0 248 120 0 12 0 0 13 0 24 0 13 -12 0 -160 0 -13 0 0 -13 0 -285 0 -13 13 0z"/>
   <path fill="#606062" d="M1239 2355c-86,0 -147,62 -147,150 0,86 60,150 147,150 42,0 79,-15 106,-52l-22 -17c-16,27 -51,44 -84,44 -73,0 -120,-54 -120,-125 0,-73 48,-126 120,-126 32,0 61,15 77,39l22 -18c-25,-32 -60,-45 -99,-45zm158 292l32 -75 151 0 31 75 30 0 -120 -285 -27 0 -125 285 28 0zm109 -256l65 157 -131 0 66 -157zm215 -29l-27 0 0 285 160 0 0 -24 -133 0 0 -261zm214 0l-27 0 0 285 160 0 0 -24 -133 0 0 -261z"/>
   <path fill="#606062" fill-rule="nonzero" d="M943 701c-34,42 -50,94 -50,152 0,116 59,256 154,397 95,142 227,284 371,401 196,160 415,272 594,273 42,-8 114,-40 171,-88 27,-22 50,-47 65,-74 14,-25 21,-52 17,-80 -3,-21 -13,-42 -31,-64 -29,-29 -42,-43 -55,-56 -13,-14 -27,-28 -55,-57 -113,-93 -143,-55 -185,0 -24,30 -52,65 -94,91l-2 1 -2 1c-56,20 -130,-11 -203,-63 -110,-76 -223,-199 -272,-259l-1 -1 0 0c-10,-15 -21,-30 -32,-45 -62,-80 -132,-173 -47,-258l2 -1 1 -1c4,-3 8,-5 11,-8 28,-20 63,-52 86,-88 20,-31 29,-65 10,-93 0,-1 -1,-2 -1,-2 -18,-24 -56,-64 -98,-104 -49,-48 -103,-97 -135,-122 -85,-18 -164,80 -219,148l0 0 0 0 0 0zm-89 152c0,-67 18,-127 58,-176l0 0 1 -1 0 0c62,-76 152,-187 262,-160l4 1 4 3c32,25 89,77 141,127 43,42 83,83 102,109 1,1 2,3 3,4 29,43 17,92 -11,135 -25,40 -64,76 -95,98 -4,3 -7,6 -10,8 -60,61 -1,138 50,206 13,16 25,32 34,46 47,58 157,176 263,250 63,44 124,72 166,59 36,-23 60,-54 82,-81 57,-73 97,-124 241,-5l1 1 1 0c29,30 43,44 56,58 13,14 27,28 55,56l0 0 1 1c23,28 36,56 40,84 6,37 -3,72 -21,105 -18,31 -44,60 -74,85 -64,52 -145,89 -192,96l-2 0 -1 0c-189,0 -417,-115 -620,-281 -147,-119 -281,-264 -378,-409 -99,-147 -161,-295 -161,-419z"/>
   <path fill="#606062" fill-rule="nonzero" d="M943 701c-34,42 -50,94 -50,152 0,116 59,256 154,397 95,142 227,284 371,401 196,160 415,272 594,273 42,-8 114,-40 171,-88 27,-22 50,-47 65,-74 14,-25 21,-52 17,-80 -3,-21 -13,-42 -31,-64 -29,-29 -42,-43 -55,-56 -13,-14 -27,-28 -55,-57 -113,-93 -143,-55 -185,0 -24,30 -52,65 -94,91l-2 1 -2 1c-56,20 -130,-11 -203,-63 -110,-76 -223,-199 -272,-259l-1 -1 0 0c-10,-15 -21,-30 -32,-45 -62,-80 -132,-173 -47,-258l2 -1 1 -1c4,-3 8,-5 11,-8 28,-20 63,-52 86,-88 20,-31 29,-65 10,-93 0,-1 -1,-2 -1,-2 -18,-24 -56,-64 -98,-104 -49,-48 -103,-97 -135,-122 -85,-18 -164,80 -219,148l0 0 0 0 0 0zm-89 152c0,-67 18,-127 58,-176l0 0 1 -1 0 0c62,-76 152,-187 262,-160l4 1 4 3c32,25 89,77 141,127 43,42 83,83 102,109 1,1 2,3 3,4 29,43 17,92 -11,135 -25,40 -64,76 -95,98 -4,3 -7,6 -10,8 -60,61 -1,138 50,206 13,16 25,32 34,46 47,58 157,176 263,250 63,44 124,72 166,59 36,-23 60,-54 82,-81 57,-73 97,-124 241,-5l1 1 1 0c29,30 43,44 56,58 13,14 27,28 55,56l0 0 1 1c23,28 36,56 40,84 6,37 -3,72 -21,105 -18,31 -44,60 -74,85 -64,52 -145,89 -192,96l-2 0 -1 0c-189,0 -417,-115 -620,-281 -147,-119 -281,-264 -378,-409 -99,-147 -161,-295 -161,-419z"/>
  </g>
 </g>
</svg>
