<?xml version="1.0" encoding="UTF-8"?>
<!DOCTYPE svg PUBLIC "-//W3C//DTD SVG 1.1//EN" "http://www.w3.org/Graphics/SVG/1.1/DTD/svg11.dtd">
<!-- Creator: CorelDRAW X7 -->
<svg xmlns="http://www.w3.org/2000/svg" xml:space="preserve" width="3.38747in" height="3.387in" version="1.1" shape-rendering="geometricPrecision" text-rendering="geometricPrecision" image-rendering="optimizeQuality" fill-rule="evenodd" clip-rule="evenodd"
viewBox="0 0 600 600"
 xmlns:xlink="http://www.w3.org/1999/xlink">
 <g id="Layer_x0020_1">
  <metadata id="CorelCorpID_0Corel-Layer"/>
  <g id="_2446248902080">
   <polygon fill="#FEFEFE" points="0,0 600,0 600,600 0,600 "/>
   <g>
    <path fill="none" stroke="#606062" stroke-width="4.9186" d="M110 503c11,0 18,-5 18,-15 0,-7 -5,-13 -12,-13l0 -1c6,-1 10,-5 10,-11 0,-10 -6,-14 -17,-14l-16 0 0 54 17 0zm-12 -5l0 -21 12 0c7,0 13,4 13,11 0,6 -5,10 -13,10l-12 0zm0 -26l0 -19 11 0c8,0 12,4 12,10 0,6 -5,9 -13,9l-10 0zm50 31l0 -26 10 0 15 26 5 0 -15 -26c9,-1 14,-6 14,-14 0,-9 -7,-14 -19,-14l-15 0 0 54 5 0zm0 -30l0 -20 11 0c8,0 13,4 13,10 0,6 -5,10 -13,10l-11 0zm67 -25c-16,0 -28,12 -28,28 0,16 12,28 28,28 17,0 28,-12 28,-28 0,-16 -11,-28 -28,-28zm-23 28c0,-14 9,-24 23,-24 14,0 23,10 23,24 0,14 -9,24 -23,24 -14,0 -23,-10 -23,-24zm89 -28c-16,0 -28,11 -28,28 0,16 12,28 28,28 8,0 15,-2 20,-10l-4 -3c-3,5 -9,9 -16,9 -14,0 -23,-11 -23,-24 0,-14 10,-24 23,-24 6,0 12,3 15,7l4 -3c-5,-6 -11,-8 -19,-8zm32 55l5 0 0 -26 30 0 0 26 5 0 0 -54 -5 0 0 24 -30 0 0 -24 -5 0 0 54zm57 -21c0,14 6,22 19,22 13,0 20,-8 20,-22l0 -33 -5 0 0 32c0,12 -5,19 -15,19 -10,0 -14,-7 -14,-19l0 -32 -5 0 0 33zm60 21l0 -26 10 0 15 26 6 0 -16 -26c9,-1 14,-6 14,-14 0,-9 -7,-14 -19,-14l-15 0 0 54 5 0zm0 -30l0 -20 11 0c8,0 13,4 13,10 0,6 -5,10 -13,10l-11 0zm43 30l34 0 0 -5 -29 0 0 -21 26 0 0 -4 -26 0 0 -20 28 0 0 -4 -33 0 0 54z"/>
    <path id="1" fill="#606062" d="M110 503c11,0 18,-5 18,-15 0,-7 -5,-13 -12,-13l0 -1c6,-1 10,-5 10,-11 0,-10 -6,-14 -17,-14l-16 0 0 54 17 0zm-12 -5l0 -21 12 0c7,0 13,4 13,11 0,6 -5,10 -13,10l-12 0zm0 -26l0 -19 11 0c8,0 12,4 12,10 0,6 -5,9 -13,9l-10 0zm50 31l0 -26 10 0 15 26 5 0 -15 -26c9,-1 14,-6 14,-14 0,-9 -7,-14 -19,-14l-15 0 0 54 5 0zm0 -30l0 -20 11 0c8,0 13,4 13,10 0,6 -5,10 -13,10l-11 0zm67 -25c-16,0 -28,12 -28,28 0,16 12,28 28,28 17,0 28,-12 28,-28 0,-16 -11,-28 -28,-28zm-23 28c0,-14 9,-24 23,-24 14,0 23,10 23,24 0,14 -9,24 -23,24 -14,0 -23,-10 -23,-24zm89 -28c-16,0 -28,11 -28,28 0,16 12,28 28,28 8,0 15,-2 20,-10l-4 -3c-3,5 -9,9 -16,9 -14,0 -23,-11 -23,-24 0,-14 10,-24 23,-24 6,0 12,3 15,7l4 -3c-5,-6 -11,-8 -19,-8zm32 55l5 0 0 -26 30 0 0 26 5 0 0 -54 -5 0 0 24 -30 0 0 -24 -5 0 0 54zm57 -21c0,14 6,22 19,22 13,0 20,-8 20,-22l0 -33 -5 0 0 32c0,12 -5,19 -15,19 -10,0 -14,-7 -14,-19l0 -32 -5 0 0 33zm60 21l0 -26 10 0 15 26 6 0 -16 -26c9,-1 14,-6 14,-14 0,-9 -7,-14 -19,-14l-15 0 0 54 5 0zm0 -30l0 -20 11 0c8,0 13,4 13,10 0,6 -5,10 -13,10l-11 0zm43 30l34 0 0 -5 -29 0 0 -21 26 0 0 -4 -26 0 0 -20 28 0 0 -4 -33 0 0 54z"/>
   </g>
   <path fill="#606062" fill-rule="nonzero" d="M296 118c0,-2 2,-4 4,-4 2,0 4,2 4,4l0 206 79 -85c1,-2 3,-2 5,-1 1,2 1,4 0,6l-85 92c-1,1 -2,1 -3,1 -1,0 -2,0 -3,-1l-85 -92c-1,-2 -1,-4 0,-6 1,-1 4,-1 5,1l79 85 0 -206z"/>
   <path fill="#606062" fill-rule="nonzero" d="M300 67c44,0 83,18 112,46 29,29 46,69 46,113 0,44 -17,83 -46,112 -29,29 -68,46 -112,46 -44,0 -83,-17 -112,-46 -29,-29 -47,-68 -47,-112 0,-44 18,-84 47,-113 29,-28 68,-46 112,-46zm107 52c-28,-27 -65,-44 -107,-44 -42,0 -80,17 -107,44 -27,27 -44,65 -44,107 0,41 17,79 44,106 27,28 65,45 107,45 42,0 79,-17 107,-45 27,-27 44,-65 44,-106 0,-42 -17,-80 -44,-107z"/>
  </g>
 </g>
</svg>
