<?xml version="1.0" encoding="UTF-8"?>
<!DOCTYPE svg PUBLIC "-//W3C//DTD SVG 1.1//EN" "http://www.w3.org/Graphics/SVG/1.1/DTD/svg11.dtd">
<!-- Creator: CorelDRAW X7 -->
<svg xmlns="http://www.w3.org/2000/svg" xml:space="preserve" width="3.38747in" height="3.387in" version="1.1" shape-rendering="geometricPrecision" text-rendering="geometricPrecision" image-rendering="optimizeQuality" fill-rule="evenodd" clip-rule="evenodd"
viewBox="0 0 3159 3159"
 xmlns:xlink="http://www.w3.org/1999/xlink">
 <g id="Layer_x0020_1">
  <metadata id="CorelCorpID_0Corel-Layer"/>
  <g id="_2504588685696">
   <polygon fill="#FEFEFE" points="0,0 3159,0 3159,3159 0,3159 "/>
   <path fill="#606062" fill-rule="nonzero" d="M1066 2390c28,-29 68,-46 115,-46 22,0 42,4 61,13l0 0c18,8 34,20 47,37l8 10 -10 8 -22 18 -11 9 -8 -12c-6,-10 -16,-18 -27,-24 -11,-5 -24,-9 -38,-9 -32,0 -59,12 -78,31 -19,20 -30,49 -30,82 0,33 11,62 30,82 19,19 45,31 78,31 14,0 29,-4 42,-11 13,-7 24,-16 31,-27l7 -12 12 8 21 17 10 7 -7 11c-15,20 -33,34 -52,44 -20,9 -42,13 -64,13 -47,0 -87,-17 -115,-46 -29,-29 -46,-70 -46,-117 0,-47 17,-88 46,-117zm10 27c-19,23 -30,54 -30,90 0,33 10,62 26,84 -16,-23 -25,-52 -25,-84 0,-35 11,-66 29,-90zm147 221c3,-2 7,-3 11,-5 12,-6 24,-14 34,-26l-1 0c-8,10 -19,18 -32,25 -4,2 -8,4 -12,6zm5 -259c1,0 2,1 3,1 10,6 20,13 28,22l1 -1c-8,-9 -18,-16 -28,-21l-1 0c-1,0 -2,-1 -3,-1zm133 258l0 0 0 -123 0 -11 0 -2 0 -11 0 -112 0 0 0 259zm13 26l-26 0 -13 0 0 -13 0 -285 0 -13 13 0 26 0 13 0 0 13 0 112 134 0 0 -112 0 -13 13 0 26 0 13 0 0 13 0 285 0 13 -13 0 -26 0 -13 0 0 -13 0 -123 -134 0 0 123 0 13 -13 0zm173 -162l0 2 0 11 0 123 0 0 0 -259 0 0 0 112 0 11zm135 86l-29 68 -3 8 -9 0 -27 0 -20 0 8 -19 124 -285 4 -7 8 0 27 0 9 0 3 8 120 285 8 18 -20 0 -29 0 -9 0 -3 -9 -28 -67 -134 0zm152 -24l3 6 27 68 2 0 -59 -141 20 49 7 18 0 0zm-38 -26l-46 -110 -46 110 92 0zm193 -135l-84 0 -13 0 0 -13 0 -24 0 -13 13 0 221 0 13 0 0 13 0 24 0 13 -13 0 -84 0 0 248 0 13 -13 0 -27 0 -13 0 0 -13 0 -248zm26 -24l0 11 0 248 1 0 0 -248 0 -11 -1 0z"/>
   <path fill="#606062" d="M1181 2357c-86,0 -148,62 -148,150 0,86 60,150 148,150 42,0 78,-15 106,-52l-22 -17c-17,27 -52,45 -84,45 -74,0 -121,-55 -121,-126 0,-72 48,-126 121,-126 32,0 60,15 76,39l22 -18c-25,-32 -59,-45 -98,-45zm167 293l26 0 0 -136 160 0 0 136 26 0 0 -285 -26 0 0 125 -160 0 0 -125 -26 0 0 285zm293 0l33 -76 151 0 31 76 29 0 -120 -285 -27 0 -124 285 27 0zm110 -256l64 156 -131 0 67 -156zm154 -5l97 0 0 261 27 0 0 -261 97 0 0 -24 -221 0 0 24z"/>
   <path fill="#606062" fill-rule="nonzero" d="M1929 924l0 19 -39 0 0 -19 0 -88 0 -19 39 0 0 19 0 88zm-546 590l-5 1 -2 -7 -9 -9 -5 -5 0 -8 0 -441c0,-19 -1,-42 -1,-71 -1,-120 -3,-337 4,-370 0,-3 0,-5 0,-7 0,-10 1,-19 11,-39l0 0c7,-14 17,-25 29,-33 12,-8 25,-13 40,-15l2 0 1 0c45,0 234,0 429,1 181,0 367,1 475,1l2 0 3 1c10,2 23,11 33,21 12,10 22,22 25,31l1 2 0 2 7 50 1 2 0 1c0,24 0,58 0,101 2,170 5,477 -3,518 0,1 0,2 0,4 -1,9 -2,26 -6,39 -3,11 -11,22 -20,31 -12,13 -28,23 -35,25l-2 0 -1 1 -55 7 -2 0 -1 0 -725 0 -3 1c-4,1 -7,2 -11,4l-95 116 0 0c-1,2 -3,4 -4,6 -12,16 -21,28 -58,36l-12 12 -8 -9zm18 -43c18,-5 23,-11 29,-19 1,-2 3,-4 5,-7l0 0 98 -119 2 -3 3 -2c9,-5 14,-7 21,-9 3,-1 5,-1 6,-2l3 -1 3 0 728 0 50 -7c4,-1 11,-7 18,-14 5,-5 10,-11 11,-15 2,-8 3,-23 4,-31 0,-3 0,-5 1,-7l0 -1 0 -2c8,-23 4,-336 3,-508 -1,-50 -1,-90 -1,-101l-7 -46c-2,-3 -7,-9 -13,-15 -6,-5 -12,-9 -16,-11 -62,0 -270,-1 -472,-1 -169,-1 -334,-2 -428,-2 -9,2 -16,5 -23,9 -6,4 -11,10 -16,19l0 0c-6,12 -6,17 -6,22 0,3 0,7 -1,13l-1 1 0 1c-6,18 -3,239 -2,361 0,37 1,66 1,71l0 426zm365 519l-8 -1c-27,2 -41,-15 -75,-56l-5 -7 0 0 -82 -97c-2,-1 -5,-2 -7,-2 -5,-1 -9,-2 -13,-3l-716 0 -1 0 -2 0c-6,-1 -13,-2 -19,-3 -29,-3 -56,-5 -79,-33 -16,-20 -17,-31 -19,-46 0,-3 -1,-6 -1,-11l0 0c-9,-42 -6,-363 -4,-541 1,-46 1,-82 1,-107l0 -1 0 -2 1 -5 0 0c5,-29 8,-49 35,-71 18,-15 32,-16 46,-17 3,-1 5,-1 8,-1 31,-7 220,-5 326,-3 25,0 45,0 63,0l19 0 0 39 -19 0c-5,0 -30,0 -63,-1 -107,-1 -300,-3 -317,2l-1 1 -2 0c-3,1 -7,1 -10,1 -8,1 -17,2 -26,9 -15,13 -17,27 -20,47l0 0 -1 3c0,13 -1,53 -1,106 -2,180 -5,509 2,532l1 2 0 1c1,5 1,9 2,13 1,8 1,14 11,26 12,15 31,17 51,19 7,0 13,1 20,2l718 0 2 0 4 1c3,1 7,2 12,3 5,1 10,2 16,4l5 2 4 4 86 102 0 1 5 6c21,26 31,39 41,41l2 0 1 0c7,-48 4,-186 1,-306 -2,-89 -4,-168 -1,-195l2 -19 38 4 -2 19c-2,25 0,102 2,190 3,124 6,267 -2,316 -1,8 -3,14 -5,19l1 4 -5 1c-5,7 -11,10 -20,8zm382 -1075l0 19 -39 0 0 -19 0 -69 0 -20 39 0 0 20 0 69zm-436 0l0 19 -39 0 0 -19 0 -69 0 -20 39 0 0 20 0 69z"/>
  </g>
 </g>
</svg>
