<?xml version="1.0" encoding="UTF-8"?>
<!DOCTYPE svg PUBLIC "-//W3C//DTD SVG 1.1//EN" "http://www.w3.org/Graphics/SVG/1.1/DTD/svg11.dtd">
<!-- Creator: CorelDRAW X7 -->
<svg xmlns="http://www.w3.org/2000/svg" xml:space="preserve" width="3.38747in" height="3.387in" version="1.1" shape-rendering="geometricPrecision" text-rendering="geometricPrecision" image-rendering="optimizeQuality" fill-rule="evenodd" clip-rule="evenodd"
viewBox="0 0 3159 3159"
 xmlns:xlink="http://www.w3.org/1999/xlink">
 <g id="Layer_x0020_1">
  <metadata id="CorelCorpID_0Corel-Layer"/>
  <g id="_2504593388896">
   <polygon fill="#FEFEFE" points="0,0 3159,0 3159,3159 0,3159 "/>
   <path fill="#606062" fill-rule="nonzero" d="M968 592l1223 0c56,0 108,19 149,52 41,34 71,81 83,134l3 14 -12 7 -824 504 -10 6 -10 -6 -825 -504 -12 -7 3 -14c12,-53 42,-100 84,-134 41,-33 92,-52 148,-52zm1223 38l-1223 0c-46,0 -90,17 -124,44 -31,26 -55,60 -67,100l803 489 802 -489c-12,-40 -35,-74 -67,-100 -34,-27 -77,-44 -124,-44zm238 299l0 657c0,65 -27,125 -70,168 -43,43 -103,70 -168,70l-1223 0c-65,0 -124,-27 -168,-70 -43,-43 -69,-103 -69,-168l0 -653 0 -35 30 19c36,23 82,53 130,84 236,153 526,341 684,405l825 -493 29 -18 0 34zm-39 657l0 -622 -804 481 -8 4 -9 -3c-159,-62 -457,-255 -700,-413 -33,-21 -66,-43 -100,-64l0 617c0,54 23,104 59,140 36,36 86,59 140,59l1223 0c55,0 104,-23 141,-59 36,-36 58,-86 58,-140z"/>
   <path fill="#606062" fill-rule="nonzero" d="M1000 2637l0 0 0 -12 0 -111 0 -11 0 -2 0 -11 0 -101 0 -11 0 0 0 259zm167 26l-180 0 -13 0 0 -13 0 -285 0 -13 13 0 174 0 13 0 0 13 0 24 0 13 -13 0 -135 0 0 75 126 0 13 0 0 13 0 24 0 13 -13 0 -126 0 0 85 141 0 13 0 0 13 0 25 0 13 -13 0zm81 -26l1 0 0 -239 0 -13 13 0 0 0 8 0 -4 -7 -18 0 0 259zm14 26l-27 0 -13 0 0 -13 0 -285 0 -13 13 0 40 0 8 0 4 7 92 212 92 -212 3 -7 9 0 37 0 13 0 0 13 0 285 0 13 -13 0 -26 0 -13 0 0 -13 0 -191 -85 196 -3 8 -9 0 -11 0 -9 0 -3 -8 -86 -197 0 192 0 13 -13 0zm226 -278l5 0 1 0 13 0 0 13 0 239 0 0 0 -259 -16 0 -3 7zm152 202l-29 68 -4 8 -8 0 -28 0 -20 0 8 -19 125 -285 3 -7 8 0 28 0 8 0 4 8 120 285 7 18 -19 0 -30 0 -9 0 -3 -9 -28 -67 -133 0zm151 -24l3 6 28 68 1 0 -59 -141 20 49 8 18 -1 0zm-38 -26l-45 -110 -47 110 92 0zm157 -159l-1 0 0 259 1 0 0 -259zm-14 -26l27 0 13 0 0 13 0 285 0 13 -13 0 -27 0 -13 0 0 -13 0 -285 0 -13 13 0zm131 26l-1 0 0 259 1 0 0 -12 0 -247zm-14 -26l27 0 13 0 0 13 0 247 120 0 13 0 0 13 0 25 0 13 -13 0 -160 0 -13 0 0 -13 0 -285 0 -13 13 0z"/>
   <path fill="#606062" d="M987 2650l180 0 0 -25 -154 0 0 -111 139 0 0 -24 -139 0 0 -101 148 0 0 -24 -174 0 0 285zm248 0l27 0 0 -252 0 0 111 252 11 0 109 -252 1 0 0 252 26 0 0 -285 -37 0 -104 239 -104 -239 -40 0 0 285zm364 0l32 -76 151 0 31 76 30 0 -120 -285 -28 0 -124 285 28 0zm109 -256l64 156 -130 0 66 -156zm215 -29l-27 0 0 285 27 0 0 -285zm117 0l-27 0 0 285 160 0 0 -25 -133 0 0 -260z"/>
  </g>
 </g>
</svg>
