<?xml version="1.0" encoding="UTF-8"?>
<!DOCTYPE svg PUBLIC "-//W3C//DTD SVG 1.1//EN" "http://www.w3.org/Graphics/SVG/1.1/DTD/svg11.dtd">
<!-- Creator: CorelDRAW X7 -->
<svg xmlns="http://www.w3.org/2000/svg" xml:space="preserve" width="3.38747in" height="3.387in" version="1.1" shape-rendering="geometricPrecision" text-rendering="geometricPrecision" image-rendering="optimizeQuality" fill-rule="evenodd" clip-rule="evenodd"
viewBox="0 0 3159 3159"
 xmlns:xlink="http://www.w3.org/1999/xlink">
 <g id="Layer_x0020_1">
  <metadata id="CorelCorpID_0Corel-Layer"/>
  <g id="_2504588685056">
   <polygon fill="#FEFEFE" points="0,0 3159,0 3159,3159 0,3159 "/>
   <path fill="#606062" fill-rule="nonzero" d="M1174 1031c-4,12 -5,20 -5,27 0,6 2,13 7,22 22,1 63,1 114,2 206,4 576,10 622,-4 5,-9 5,-24 5,-34l0 -2 -2 -3c0,0 -1,0 -1,-1 -4,-7 -7,-11 -14,-11l-718 0c-3,0 -4,1 -6,3l-2 1zm-37 29c-1,-13 2,-25 7,-42l0 0c1,-3 3,-7 6,-9 2,-1 4,-2 5,-4 8,-6 12,-9 27,-9l718 0c26,0 32,9 42,27l1 1c1,1 2,3 3,5 2,3 3,6 3,9 0,5 0,5 0,5 0,16 0,39 -13,56 -1,3 -3,4 -5,6 -37,19 -427,12 -641,8 -56,0 -100,-1 -124,-1l0 0c-6,0 -11,-3 -14,-8 -10,-18 -15,-31 -15,-44z"/>
   <path fill="#606062" fill-rule="nonzero" d="M1172 828c-4,14 -4,16 -3,22 1,5 2,11 3,22l1 1c2,3 2,5 3,5l730 0c2,-2 4,-4 6,-8 3,-4 5,-10 5,-18 0,-7 -2,-15 -6,-24 -1,-1 -3,-1 -4,-2 -3,-1 -7,-2 -10,-2l-711 0c-4,0 -6,1 -8,2 -2,1 -4,1 -6,2zm-34 27c-3,-13 -3,-15 6,-45 1,-7 8,-12 15,-12 3,0 5,0 6,-1 5,-2 10,-4 21,-4l711 0c8,0 13,2 19,3 3,1 6,2 8,2 6,1 11,4 14,9 8,17 11,32 11,45 0,14 -4,25 -9,34 -5,9 -13,16 -20,20 -5,2 -9,3 -13,3l-731 0c-16,0 -22,-7 -29,-18 -1,-1 -2,-2 -4,-4l0 0c-2,-3 -3,-6 -3,-9 -1,-12 -2,-18 -2,-23z"/>
   <path fill="#606062" fill-rule="nonzero" d="M1169 1243l0 3 0 0 0 0c0,3 -1,5 -1,7 0,1 0,3 -1,6l-1 4c2,7 4,13 6,20 30,4 177,6 327,6 154,0 310,-2 346,-6l0 -16c0,-12 0,-25 0,-35l-659 0c-4,2 -7,3 -9,4 -2,0 -3,1 -8,7zm-33 1c0,-2 1,-4 1,-7 0,-3 1,-7 3,-9 14,-18 17,-19 26,-22 2,-1 4,-1 8,-3 2,-2 5,-3 8,-3l679 0 0 0c8,0 15,7 16,15 0,13 0,33 0,53 0,5 0,10 0,27l0 0c0,5 -3,10 -8,13 -12,8 -193,12 -370,12 -153,0 -305,-3 -341,-9 -2,0 -4,-1 -5,-2 -1,0 -1,0 -1,0l0 0c-4,-2 -6,-5 -8,-9 -4,-10 -6,-20 -9,-30l-1 -1c-1,-3 -1,-6 0,-8 0,-3 1,-6 1,-9 1,-1 1,-2 1,-3 0,-1 0,-2 0,-5l0 0z"/>
   <path fill="#606062" fill-rule="nonzero" d="M1169 1441c0,6 0,13 1,19 1,15 3,28 6,34l655 0c1,-14 1,-30 1,-46l-1 -7c-55,-8 -386,-4 -559,-2 -44,1 -79,1 -93,1 -4,2 -7,2 -10,1zm-32 21c-2,-25 0,-54 7,-73 2,-7 8,-12 15,-12 17,0 21,15 25,30l0 2c21,0 50,0 88,-1 177,-2 518,-7 577,6 8,1 15,8 15,16 0,9 0,13 0,18 0,22 1,45 -4,64 -1,7 -8,13 -16,13l-675 0 0 0c-3,0 -5,-1 -8,-2 -13,-8 -21,-33 -24,-61z"/>
   <path fill="#606062" fill-rule="nonzero" d="M1985 1451c-3,19 -6,54 -8,88 -1,21 -2,41 -2,55 24,-14 59,-46 84,-70 10,-8 18,-16 24,-21 0,0 1,-1 1,-1l1 -1c4,-2 5,-2 5,-3 0,0 0,0 0,0 -13,-9 -37,-21 -62,-31 -16,-7 -32,-13 -43,-16zm-40 87c2,-45 7,-95 11,-109 2,-8 9,-13 17,-13 15,1 42,11 68,22 31,13 63,30 75,39 4,3 7,7 7,13l-1 2c0,10 0,14 -3,20 -3,6 -7,9 -15,14l0 1c-7,5 -14,12 -22,20 -36,32 -87,80 -117,85l0 0c-7,2 -15,-2 -18,-9 -4,-12 -4,-48 -2,-85z"/>
   <path fill="#606062" fill-rule="nonzero" d="M2291 807c-13,23 -80,155 -145,287 -56,114 -111,227 -128,267 20,11 53,28 82,41 17,8 32,14 42,16 14,-21 30,-57 46,-93 14,-32 28,-62 41,-84 0,-4 -2,-11 -4,-19 -3,-12 -6,-25 -3,-38 0,-1 0,-2 0,-2l0 0c23,-69 56,-131 89,-194 24,-46 48,-92 68,-139l0 0 -84 -42c-1,0 -3,0 -4,0zm-174 273c64,-129 130,-259 151,-293 0,-1 0,-2 1,-3 1,-2 3,-4 4,-5l0 0 0 0c4,-3 9,-4 14,-3 0,0 1,0 2,0 4,0 10,0 14,0l0 0c1,1 3,1 4,2l94 46c6,3 10,8 10,15l0 13 0 0c0,2 0,4 -1,6 -21,50 -46,97 -70,144 -33,62 -65,123 -87,188 0,7 2,16 4,25 3,13 6,24 3,35 -1,2 -1,4 -2,5 -12,20 -26,51 -40,82 -19,43 -39,86 -56,108l0 0c-3,4 -8,6 -13,6 -13,0 -37,-9 -62,-20 -37,-17 -80,-39 -97,-49 -6,-4 -9,-11 -7,-19 8,-24 70,-153 134,-283zm174 -303c3,2 -2,-1 -2,-1l0 0c0,1 1,1 2,1z"/>
   <path fill="#606062" fill-rule="nonzero" d="M2463 836c-6,-10 -7,-16 -7,-24l0 -1c-13,-4 -30,-11 -49,-19 -40,-18 -88,-43 -102,-51 -7,-4 -10,-12 -8,-19l0 0c11,-30 22,-52 37,-78 3,-7 5,-11 7,-13 0,-1 1,-2 1,-3l0 0c39,-48 172,47 174,49 2,1 3,3 4,4 12,20 3,37 -8,58 -6,12 -13,25 -15,40 5,4 9,7 13,11 5,7 8,14 8,21 -1,7 -3,14 -9,21 -4,4 -9,8 -16,12 -14,40 -81,174 -124,261 -17,33 -30,58 -35,69 0,1 -1,1 -1,2l0 0c-3,6 -6,11 -9,17 -3,8 -13,11 -21,8 -8,-3 -12,-13 -8,-21 3,-6 6,-13 9,-19l1 0 0 0c6,-13 18,-38 34,-70 45,-88 114,-226 124,-255zm-43 -73c19,8 35,15 44,18 2,-23 12,-41 20,-56 5,-11 10,-20 9,-26 -18,-12 -105,-72 -125,-52 -5,9 -5,10 -6,11 -11,21 -21,40 -29,62 20,11 56,29 87,43z"/>
   <path fill="#606062" fill-rule="nonzero" d="M2153 1626c0,-9 7,-16 16,-16 9,0 16,7 16,16l-1 229c0,9 -7,16 -16,16l-1255 0c-9,0 -16,-7 -16,-16l-3 -1290c0,-1 0,-2 0,-3l0 0c2,-12 3,-24 3,-35 1,-41 2,-71 57,-80 1,0 1,0 2,0l0 0 993 0c2,0 4,0 6,1l29 10c2,1 5,3 7,5l146 141c5,4 6,5 6,5 24,19 39,31 45,65 0,1 0,2 0,2l0 0 0 134c0,4 -1,7 -3,9 -3,6 -7,14 -12,23 -21,39 -54,99 -85,102 -9,1 -16,-6 -17,-14 -1,-9 5,-17 14,-17 14,-2 41,-52 59,-86 5,-8 8,-15 12,-21l0 -129c-4,-21 -16,-30 -33,-43l-7 -6 0 0c-1,0 -1,-1 -1,-1l-145 -140 -24 -9 -989 0c-26,5 -27,24 -28,50 0,12 0,24 -2,38l2 1274 1223 -1 1 -213z"/>
   <path fill="#606062" fill-rule="nonzero" d="M2482 809c-7,6 -17,6 -23,0 -7,-6 -7,-16 0,-23l9 -9c7,-6 17,-6 23,0 7,6 7,16 0,22l-9 10z"/>
   <path fill="#606062" fill-rule="nonzero" d="M712 2558l1 0 0 -11 0 -112 0 -11 0 -2 0 -11 0 -101 0 -11 -1 0 0 259zm168 26l-181 0 -13 0 0 -13 0 -285 0 -13 13 0 174 0 13 0 0 13 0 24 0 13 -13 0 -134 0 0 75 125 0 13 0 0 13 0 24 0 13 -13 0 -125 0 0 86 141 0 13 0 0 13 0 24 0 13 -13 0zm84 -26l0 -237 0 -13 13 0 0 0 7 0 -6 -9 -15 0 0 259 1 0zm26 -197l0 210 0 13 -13 0 -27 0 -13 0 0 -13 0 -285 0 -13 13 0 34 0 7 0 4 5 151 217 0 -209 0 -13 13 0 26 0 13 0 0 13 0 285 0 13 -13 0 -34 0 -7 0 -4 -6 -150 -217zm161 187l7 10 14 0 0 -259 0 0 0 236 0 13 -13 0 -1 0 -7 0zm138 -238c27,-28 66,-45 113,-45 46,0 85,17 113,45 28,29 44,69 44,115 0,27 -8,57 -23,82 -5,10 -12,19 -20,27l48 0 13 0 0 13 0 24 0 13 -13 0 -158 0c-45,0 -86,-18 -115,-46 -29,-29 -47,-69 -47,-113 0,-46 16,-86 45,-115zm-5 52c-9,18 -14,39 -14,63 0,26 7,50 20,70 -12,-20 -19,-44 -19,-70 0,-23 4,-45 13,-63zm144 196l34 0 0 -11c-10,5 -22,9 -34,11zm102 -106c2,-10 3,-19 3,-27 0,-22 -4,-43 -12,-61 8,18 12,39 12,61 0,9 -1,18 -3,27zm-204 -107c-19,19 -29,47 -29,80 0,31 12,58 31,77 20,20 47,32 78,32 30,0 55,-12 72,-30 18,-20 29,-48 29,-79 0,-33 -11,-61 -29,-80 -18,-19 -45,-29 -77,-29 -32,0 -57,11 -75,29zm306 117c0,33 8,59 23,77 5,6 11,10 17,14 -6,-4 -12,-10 -17,-16 -15,-19 -23,-46 -23,-80l0 -158 0 0 0 163zm4 94c-20,-22 -30,-55 -30,-94l0 -176 0 -13 13 0 26 0 13 0 0 13 0 171c0,28 6,50 17,64 10,13 26,20 47,20 22,0 38,-7 48,-21 11,-14 17,-37 17,-67l0 -167 0 -13 13 0 26 0 13 0 0 13 0 174c0,40 -10,73 -30,96 -20,22 -49,35 -87,35 -37,0 -66,-12 -86,-35zm136 -3c7,-4 13,-9 18,-14 15,-18 23,-45 23,-79l0 -161 0 0 0 154c0,35 -8,64 -23,83 -5,7 -11,13 -18,17zm153 -254l0 0 0 259 0 0 0 -259zm-13 -26l26 0 13 0 0 13 0 285 0 13 -13 0 -26 0 -13 0 0 -13 0 -285 0 -13 13 0zm130 285l0 -123 0 -11 0 -2 0 -11 0 -101 0 -11 0 0 0 259 0 0zm26 -110l0 123 0 13 -13 0 -26 0 -13 0 0 -13 0 -285 0 -13 13 0 77 0c35,0 63,7 81,21l1 0c20,16 30,38 30,67 0,24 -7,44 -22,59 -11,10 -25,18 -43,23l73 121 12 20 -23 0 -30 0 -8 0 -3 -7 -77 -129 -29 0zm97 -37c5,-3 9,-6 13,-10 9,-9 14,-23 14,-40 0,-21 -7,-36 -20,-46l0 0c-2,-1 -3,-2 -5,-4 0,1 1,1 2,2 15,12 22,28 22,48 0,19 -7,35 -22,47 -1,1 -3,2 -4,3zm-97 -88l0 75 46 0c17,0 30,-4 39,-10 8,-7 12,-16 12,-27 0,-12 -4,-21 -12,-28 -9,-6 -22,-10 -40,-10l-45 0zm225 235l0 0 0 -11 0 -112 0 -11 0 -2 0 -11 0 -101 0 -11 0 0 0 259zm168 26l-181 0 -13 0 0 -13 0 -285 0 -13 13 0 174 0 13 0 0 13 0 24 0 13 -13 0 -135 0 0 75 126 0 13 0 0 13 0 24 0 13 -13 0 -126 0 0 86 142 0 12 0 0 13 0 24 0 13 -12 0z"/>
   <path fill="#606062" d="M699 2571l181 0 0 -24 -154 0 0 -112 138 0 0 -24 -138 0 0 -101 147 0 0 -24 -174 0 0 285zm278 0l0 -250 0 0 174 250 34 0 0 -285 -26 0 0 249 -1 0 -174 -249 -34 0 0 285 27 0zm425 -293c-86,0 -145,62 -145,147 0,82 65,146 149,146l158 0 0 -24 -89 0 0 -1c45,-16 71,-75 71,-121 0,-85 -59,-147 -144,-147zm-118 147c0,-71 45,-122 117,-122 73,0 119,50 119,122 0,67 -45,122 -114,122 -69,0 -122,-53 -122,-122zm335 37c0,71 35,116 103,116 69,0 104,-45 104,-118l0 -174 -26 0 0 167c0,65 -26,101 -78,101 -51,0 -77,-36 -77,-97l0 -171 -26 0 0 176zm319 -176l-26 0 0 285 26 0 0 -285zm117 285l0 -136 50 0 80 136 30 0 -83 -137c51,-7 73,-33 73,-73 0,-49 -33,-75 -99,-75l-77 0 0 285 26 0zm0 -160l0 -101 58 0c43,0 65,20 65,51 0,30 -23,50 -64,50l-59 0zm225 160l181 0 0 -24 -155 0 0 -112 139 0 0 -24 -139 0 0 -101 148 0 0 -24 -174 0 0 285z"/>
  </g>
 </g>
</svg>
