<?xml version="1.0" encoding="UTF-8"?>
<!DOCTYPE svg PUBLIC "-//W3C//DTD SVG 1.1//EN" "http://www.w3.org/Graphics/SVG/1.1/DTD/svg11.dtd">
<!-- Creator: CorelDRAW X7 -->
<svg xmlns="http://www.w3.org/2000/svg" xml:space="preserve" width="1.87357in" height="1.87357in" version="1.1" shape-rendering="geometricPrecision" text-rendering="geometricPrecision" image-rendering="optimizeQuality" fill-rule="evenodd" clip-rule="evenodd"
viewBox="0 0 2048 2048"
 xmlns:xlink="http://www.w3.org/1999/xlink">
 <g id="Layer_x0020_1">
  <metadata id="CorelCorpID_0Corel-Layer"/>
  <g id="_2105792986672">
   <circle fill="#F9F6F4" cx="1024" cy="1024" r="1024"/>
   <path fill="#606062" d="M610 1023c22,26 49,50 73,74 26,26 54,53 76,77l5 5c0,0 1,1 1,1l68 68c75,75 153,149 226,226 5,6 3,3 8,8 46,48 95,100 144,143l14 -18c0,-1 1,-2 1,-2 1,-1 1,-1 2,-2l36 -35c-3,-4 -4,-5 -8,-9l-364 -364c-6,-7 -10,-11 -16,-17l-67 -67c-6,-6 -10,-10 -18,-17 -18,-19 -49,-54 -69,-68l37 -40c2,-2 2,-2 5,-5l63 -63c0,-1 1,-1 1,-2l4 -2c0,-1 2,-3 3,-4 0,0 1,-1 1,-1l17 -17c0,0 1,-1 1,-1 1,-1 1,-1 2,-2l3 -3c0,0 1,-1 1,-2 1,0 2,-1 2,-1 0,-1 1,-1 1,-2 1,0 1,-1 2,-2 5,-5 2,-3 8,-8l60 -59c0,-1 1,-1 2,-2l3 -3c1,-1 3,-3 3,-3l19 -20c1,0 1,-1 2,-1l64 -65c1,-1 1,-1 2,-2 0,0 1,-1 2,-1 0,-1 1,-1 1,-2l121 -121c4,-4 5,-6 9,-10l16 -16c9,-9 10,-10 18,-18l67 -65c0,0 1,-1 2,-2l-56 -57c1,-1 0,0 -1,1l-166 166c-7,6 -13,12 -20,19 -36,40 -74,74 -112,113l-224 224c-23,22 -57,55 -75,76z"/>
  </g>
 </g>
</svg>
