<?xml version="1.0" encoding="UTF-8"?>
<!DOCTYPE svg PUBLIC "-//W3C//DTD SVG 1.1//EN" "http://www.w3.org/Graphics/SVG/1.1/DTD/svg11.dtd">
<!-- Creator: CorelDRAW X7 -->
<svg xmlns="http://www.w3.org/2000/svg" xml:space="preserve" width="3.38747in" height="3.387in" version="1.1" shape-rendering="geometricPrecision" text-rendering="geometricPrecision" image-rendering="optimizeQuality" fill-rule="evenodd" clip-rule="evenodd"
viewBox="0 0 3387 3387"
 xmlns:xlink="http://www.w3.org/1999/xlink">
 <g id="Layer_x0020_1">
  <metadata id="CorelCorpID_0Corel-Layer"/>
  <g id="_2222907261824">
   <polygon fill="#FEFEFE" points="0,0 3387,0 3387,3387 0,3387 "/>
   <text x="1207" y="2811"  fill="#606062" stroke="#606062" stroke-width="27.7796" font-weight="300" font-size="354.296px" font-family="Avenir Light">C</text>
   <text x="1494" y="2811"  fill="#606062" stroke="#606062" stroke-width="27.7796" font-weight="300" font-size="354.296px" font-family="Avenir Light">A</text>
   <text x="1773" y="2811"  fill="#606062" stroke="#606062" stroke-width="27.7796" font-weight="300" font-size="354.296px" font-family="Avenir Light">L</text>
   <text x="1987" y="2811"  fill="#606062" stroke="#606062" stroke-width="27.7796" font-weight="300" font-size="354.296px" font-family="Avenir Light">L</text>
   <path fill="none" stroke="#606062" stroke-width="41.6654" stroke-linecap="square" d="M994 739c-293,361 604,1344 1165,1344 107,-17 397,-187 251,-363 -61,-61 -56,-59 -119,-122 -201,-166 -188,11 -324,96 -135,47 -402,-236 -486,-339 -60,-89 -182,-203 -87,-298 61,-41 179,-152 118,-234 -43,-58 -195,-200 -257,-250 -105,-26 -198,88 -261,166z"/>
   <path fill="none" stroke="#606062" stroke-width="41.6654" stroke-linecap="square" d="M994 739c-293,361 604,1344 1165,1344 107,-17 397,-187 251,-363 -61,-61 -56,-59 -119,-122 -201,-166 -188,11 -324,96 -135,47 -402,-236 -486,-339 -60,-89 -182,-203 -87,-298 61,-41 179,-152 118,-234 -43,-58 -195,-200 -257,-250 -105,-26 -198,88 -261,166z"/>
  </g>
 </g>
</svg>
