<?xml version="1.0" encoding="UTF-8"?>
<!DOCTYPE svg PUBLIC "-//W3C//DTD SVG 1.1//EN" "http://www.w3.org/Graphics/SVG/1.1/DTD/svg11.dtd">
<!-- Creator: CorelDRAW X7 -->
<svg xmlns="http://www.w3.org/2000/svg" xml:space="preserve" width="3.38747in" height="2.87971in" version="1.1" shape-rendering="geometricPrecision" text-rendering="geometricPrecision" image-rendering="optimizeQuality" fill-rule="evenodd" clip-rule="evenodd"
viewBox="0 0 3387 2880"
 xmlns:xlink="http://www.w3.org/1999/xlink">
 <g id="Layer_x0020_1">
  <metadata id="CorelCorpID_0Corel-Layer"/>
  <g id="_2222907266080">
   <polygon fill="#FEFEFE" points="0,0 3387,0 3387,2880 0,2880 "/>
   <polygon fill="none" points="0,2109 3387,2109 3387,2880 0,2880 "/>
   <text x="1177" y="2614"  fill="#606062" stroke="#606062" stroke-width="13.8898" font-weight="300" font-size="340.032px" font-family="Avenir Light">C</text>
   <text x="1452" y="2614"  fill="#606062" stroke="#606062" stroke-width="13.8898" font-weight="300" font-size="340.032px" font-family="Avenir Light">H</text>
   <text x="1733" y="2614"  fill="#606062" stroke="#606062" stroke-width="13.8898" font-weight="300" font-size="340.032px" font-family="Avenir Light">A</text>
   <text x="2002" y="2614"  fill="#606062" stroke="#606062" stroke-width="13.8898" font-weight="300" font-size="340.032px" font-family="Avenir Light">T</text>
   <path fill="none" stroke="#606062" stroke-width="34.7205" stroke-linecap="square" d="M2033 865l0 -91m-531 676c41,-8 45,-20 58,-37l101 -122c9,-6 14,-7 24,-10l749 0 57 -7c9,-3 38,-25 43,-45 4,-14 5,-38 6,-41 10,-34 2,-552 2,-634l-7 -52c-5,-12 -32,-37 -47,-41 -165,0 -783,-3 -930,-3 -25,4 -44,15 -56,39 -12,24 -8,27 -10,42 -9,27 -3,390 -3,451 0,151 0,302 0,453l10 9m389 490c27,4 0,-464 8,-536m-10 532c-27,8 -38,-8 -76,-55l-88 -105c-10,-3 -20,-4 -29,-7l-740 0c-32,-6 -65,-2 -88,-30 -17,-21 -14,-29 -17,-49 -11,-34 -2,-578 -2,-663 4,-28 5,-47 29,-66 18,-15 32,-13 46,-15 26,-8 342,-2 397,-2m940 -91l0 -71m-448 71l0 -71"/>
  </g>
 </g>
</svg>
