<?xml version="1.0" encoding="UTF-8"?>
<!DOCTYPE svg PUBLIC "-//W3C//DTD SVG 1.1//EN" "http://www.w3.org/Graphics/SVG/1.1/DTD/svg11.dtd">
<!-- Creator: CorelDRAW X7 -->
<svg xmlns="http://www.w3.org/2000/svg" xml:space="preserve" width="3.38747in" height="3.387in" version="1.1" shape-rendering="geometricPrecision" text-rendering="geometricPrecision" image-rendering="optimizeQuality" fill-rule="evenodd" clip-rule="evenodd"
viewBox="0 0 3387 3387"
 xmlns:xlink="http://www.w3.org/1999/xlink">
 <g id="Layer_x0020_1">
  <metadata id="CorelCorpID_0Corel-Layer"/>
  <g id="_2222900853488">
   <polygon fill="#FEFEFE" points="0,0 3387,0 3387,3387 0,3387 "/>
   <text x="1156" y="2813"  fill="#606062" stroke="#606062" stroke-width="27.7796" font-weight="300" font-size="354.296px" font-family="Avenir Light">C</text>
   <text x="1442" y="2813"  fill="#606062" stroke="#606062" stroke-width="27.7796" font-weight="300" font-size="354.296px" font-family="Avenir Light">H</text>
   <text x="1735" y="2813"  fill="#606062" stroke="#606062" stroke-width="27.7796" font-weight="300" font-size="354.296px" font-family="Avenir Light">A</text>
   <text x="2014" y="2813"  fill="#606062" stroke="#606062" stroke-width="27.7796" font-weight="300" font-size="354.296px" font-family="Avenir Light">T</text>
   <path fill="none" stroke="#606062" stroke-width="41.6654" stroke-linecap="square" d="M2047 991l0 -95m-553 704c43,-8 47,-21 61,-38l104 -127c10,-6 16,-7 26,-11l780 0 59 -7c10,-3 40,-26 46,-46 4,-15 5,-40 5,-44 11,-35 3,-575 3,-660l-8 -54c-5,-13 -33,-39 -48,-43 -173,0 -816,-3 -970,-3 -26,4 -46,16 -58,41 -13,24 -8,28 -11,43 -9,29 -2,406 -2,470 0,157 0,314 0,472l10 10m406 510c27,5 0,-483 7,-558m-9 554c-29,8 -41,-9 -80,-57l-92 -110c-10,-3 -20,-4 -30,-7l-771 0c-34,-6 -68,-2 -92,-31 -18,-22 -14,-30 -17,-51 -12,-36 -3,-602 -3,-691 5,-30 6,-49 31,-69 18,-15 33,-13 48,-16 27,-8 356,-2 413,-2m980 -94l0 -74m-467 74l0 -74"/>
  </g>
 </g>
</svg>
