<?xml version="1.0" encoding="UTF-8"?>
<!DOCTYPE svg PUBLIC "-//W3C//DTD SVG 1.1//EN" "http://www.w3.org/Graphics/SVG/1.1/DTD/svg11.dtd">
<!-- Creator: CorelDRAW X7 -->
<svg xmlns="http://www.w3.org/2000/svg" xml:space="preserve" width="2.35246in" height="2.35246in" version="1.1" shape-rendering="geometricPrecision" text-rendering="geometricPrecision" image-rendering="optimizeQuality" fill-rule="evenodd" clip-rule="evenodd"
viewBox="0 0 2349 2349"
 xmlns:xlink="http://www.w3.org/1999/xlink">
 <g id="Layer_x0020_1">
  <metadata id="CorelCorpID_0Corel-Layer"/>
  <g id="_2224777710960">
   <polygon fill="#FEFEFE" points="0,0 2349,0 2349,2349 0,2349 "/>
   <g>
    <g>
     <path fill="#606062" d="M800 1822c-5,4 -10,8 -15,13 -19,19 -31,47 -31,80 0,33 12,61 31,81 4,4 8,8 13,11 -5,-3 -8,-7 -12,-10 -20,-21 -31,-49 -31,-82 0,-32 11,-60 31,-81 4,-4 9,-8 14,-12zm87 203c7,-1 14,-3 20,-6 11,-5 20,-12 29,-22l-1 -1c-7,9 -16,16 -26,21 -7,4 -15,6 -22,8zm4 -218c5,1 9,3 14,5 9,5 17,11 23,18l2 -1c-8,-8 -16,-13 -24,-17l0 0c-5,-2 -10,-4 -15,-5zm110 214l1 0 0 -100 0 -9 0 -1 0 -9 0 -93 -1 0 0 212zm151 -110l0 1 0 9 0 100 1 0 0 -212 -1 0 0 93 0 9zm61 110l10 -23 -10 23 0 0zm163 -60l3 5 22 55 2 0 -81 -193 49 118 6 15 -1 0zm138 -152l0 10 0 202 1 0 0 -202 0 -10 -1 0z"/>
     <path fill="#606062" fill-rule="nonzero" d="M800 1822c-5,4 -10,8 -15,13 -19,19 -31,47 -31,80 0,33 12,61 31,81 4,4 8,8 13,11 -5,-3 -8,-7 -12,-10 -20,-21 -31,-49 -31,-82 0,-32 11,-60 31,-81 4,-4 9,-8 14,-12zm-30 -2c24,-23 56,-37 94,-37 18,0 35,3 50,10l0 0c15,7 27,17 38,30l6 8 -7 7 -18 14 -9 8 -6 -10c-6,-8 -13,-15 -22,-20 -10,-4 -20,-7 -32,-7 -26,0 -48,10 -63,26 -16,16 -25,39 -25,66 0,27 9,51 25,67 15,16 37,26 63,26 12,0 24,-3 35,-9 10,-6 19,-13 25,-23l6 -9 9 7 18 13 8 6 -6 8c-12,17 -27,29 -43,36 -16,8 -33,11 -52,11 -38,0 -71,-14 -93,-37 -24,-24 -37,-57 -37,-96 0,-38 13,-71 36,-95zm117 205c7,-1 14,-3 20,-6 11,-5 20,-12 29,-22l-1 -1c-7,9 -16,16 -26,21 -7,4 -15,6 -22,8zm4 -218c5,1 9,3 14,5 9,5 17,11 23,18l2 -1c-8,-8 -16,-13 -24,-17l0 0c-5,-2 -10,-4 -15,-5zm110 214l1 0 0 -100 0 -9 0 -1 0 -9 0 -93 -1 0 0 212zm11 21l-22 0 -10 0 0 -10 0 -233 0 -10 10 0 22 0 10 0 0 10 0 92 110 0 0 -92 0 -10 10 0 22 0 10 0 0 10 0 233 0 10 -10 0 -22 0 -10 0 0 -10 0 -100 -110 0 0 100 0 10 -10 0zm140 -131l0 1 0 9 0 100 1 0 0 -212 -1 0 0 93 0 9zm61 110l10 -23 -10 23 0 0zm40 -41l-24 56 -2 6 -7 0 -23 0 -15 0 6 -14 101 -233 3 -6 7 0 22 0 7 0 2 6 98 233 6 14 -15 0 -24 0 -7 0 -3 -6 -23 -56 -109 0zm123 -19l3 5 22 55 2 0 -81 -193 49 118 6 15 -1 0zm-30 -21l-37 -91 -39 91 76 0zm148 -111l-70 0 -10 0 0 -10 0 -20 0 -10 10 0 181 0 10 0 0 10 0 20 0 10 -10 0 -69 0 0 203 0 10 -10 0 -22 0 -10 0 0 -10 0 -203zm20 -20l0 10 0 202 1 0 0 -202 0 -10 -1 0z"/>
    </g>
    <path fill="#606062" fill-rule="nonzero" d="M1032 1111l113 -137 654 0c12,0 23,-5 31,-13l0 0c8,-8 13,-19 13,-31l0 -538c0,-12 -5,-23 -13,-31 -8,-8 -19,-13 -31,-13l-723 0c-12,0 -23,5 -31,13 -8,8 -13,19 -13,31l0 719zm237 -556c16,0 25,12 29,33 1,9 2,21 2,34 0,13 -1,26 -2,35 -4,20 -13,32 -29,32 -15,0 -25,-12 -28,-32 -1,-9 -2,-22 -2,-35 0,-13 1,-25 2,-34 3,-21 13,-33 28,-33zm366 0c15,0 25,12 28,33l0 0c2,9 3,21 3,34 0,13 -1,25 -3,35l0 0c-3,20 -13,32 -28,32 -15,0 -25,-12 -28,-32 -2,-9 -3,-22 -3,-35 0,-13 1,-25 3,-34 3,-21 13,-33 28,-33zm-183 0c16,0 25,12 29,33 1,9 2,21 2,34 0,13 -1,26 -2,35 -4,20 -13,32 -29,32 -15,0 -25,-12 -28,-32 -1,-9 -2,-22 -2,-35 0,-13 1,-25 2,-34 3,-21 13,-33 28,-33zm-130 1037l-140 -172 -632 0c-25,0 -48,-10 -64,-26l-1 0c-16,-17 -26,-40 -26,-65l0 -537c0,-25 10,-48 26,-65l1 0c16,-16 39,-27 64,-27l347 0 0 48 -347 0c-12,0 -23,5 -31,13l0 0c-8,8 -13,19 -13,31l0 537c0,12 5,23 13,31 8,8 19,13 31,13l643 0 18 9 106 129 0 -436 47 0 0 502 -42 15zm-155 -571l-140 171 -42 -15 0 -785c0,-25 10,-48 27,-64 16,-17 39,-27 64,-27l723 0c25,0 48,10 65,27 16,16 26,39 26,64l0 538c0,25 -10,48 -26,64l0 0c-17,17 -40,27 -65,27l-632 0z"/>
   </g>
  </g>
 </g>
</svg>
