<?xml version="1.0" encoding="UTF-8"?>
<!DOCTYPE svg PUBLIC "-//W3C//DTD SVG 1.1//EN" "http://www.w3.org/Graphics/SVG/1.1/DTD/svg11.dtd">
<!-- Creator: CorelDRAW X7 -->
<svg xmlns="http://www.w3.org/2000/svg" xml:space="preserve" width="3.38747in" height="2.87971in" version="1.1" shape-rendering="geometricPrecision" text-rendering="geometricPrecision" image-rendering="optimizeQuality" fill-rule="evenodd" clip-rule="evenodd"
viewBox="0 0 3387 2880"
 xmlns:xlink="http://www.w3.org/1999/xlink">
 <g id="Layer_x0020_1">
  <metadata id="CorelCorpID_0Corel-Layer"/>
  <g id="_2224698852416">
   <polygon fill="#FEFEFE" points="0,0 3387,0 3387,2880 0,2880 "/>
   <polygon fill="none" points="0,2109 3387,2109 3387,2880 0,2880 "/>
   <text x="842" y="2615"  fill="#606062" stroke="#606062" stroke-width="13.8897" font-weight="300" font-size="340.031px" font-family="Avenir Light">E</text>
   <text x="1079" y="2615"  fill="#606062" stroke="#606062" stroke-width="13.8897" font-weight="300" font-size="340.031px" font-family="Avenir Light">N</text>
   <text x="1379" y="2615"  fill="#606062" stroke="#606062" stroke-width="13.8897" font-weight="300" font-size="340.031px" font-family="Avenir Light">Q</text>
   <text x="1698" y="2615"  fill="#606062" stroke="#606062" stroke-width="13.8897" font-weight="300" font-size="340.031px" font-family="Avenir Light">U</text>
   <text x="1966" y="2615"  fill="#606062" stroke="#606062" stroke-width="13.8897" font-weight="300" font-size="340.031px" font-family="Avenir Light">I</text>
   <text x="2090" y="2615"  fill="#606062" stroke="#606062" stroke-width="13.8897" font-weight="300" font-size="340.031px" font-family="Avenir Light">R</text>
   <text x="2327" y="2615"  fill="#606062" stroke="#606062" stroke-width="13.8897" font-weight="300" font-size="340.031px" font-family="Avenir Light">E</text>
   <path fill="none" stroke="#606062" stroke-width="34.7204" stroke-linecap="square" d="M1667 1368c-163,-127 -650,-595 -731,-671 -15,-9 -28,-24 -41,-37m772 708c163,-127 650,-595 730,-671 15,-9 29,-24 42,-37m-31 -39c54,0 70,32 70,69l0 1067c-3,17 -7,19 -26,22l-785 0m0 -1158l741 0m-1482 0c-55,0 -70,32 -70,69l0 1067c2,17 7,19 26,22l785 0m0 -1158l-741 0"/>
  </g>
 </g>
</svg>
