<?xml version="1.0" encoding="UTF-8"?>
<!DOCTYPE svg PUBLIC "-//W3C//DTD SVG 1.1//EN" "http://www.w3.org/Graphics/SVG/1.1/DTD/svg11.dtd">
<!-- Creator: CorelDRAW X7 -->
<svg xmlns="http://www.w3.org/2000/svg" xml:space="preserve" width="3.38747in" height="2.87971in" version="1.1" shape-rendering="geometricPrecision" text-rendering="geometricPrecision" image-rendering="optimizeQuality" fill-rule="evenodd" clip-rule="evenodd"
viewBox="0 0 3387 2880"
 xmlns:xlink="http://www.w3.org/1999/xlink">
 <g id="Layer_x0020_1">
  <metadata id="CorelCorpID_0Corel-Layer"/>
  <g id="_2224696495232">
   <polygon fill="#FEFEFE" points="0,0 3387,0 3387,2880 0,2880 "/>
   <polygon fill="none" points="0,2109 3387,2109 3387,2880 0,2880 "/>
   <text x="1227" y="2614"  fill="#606062" stroke="#606062" stroke-width="13.8898" font-weight="300" font-size="340.032px" font-family="Avenir Light">C</text>
   <text x="1502" y="2614"  fill="#606062" stroke="#606062" stroke-width="13.8898" font-weight="300" font-size="340.032px" font-family="Avenir Light">A</text>
   <text x="1770" y="2614"  fill="#606062" stroke="#606062" stroke-width="13.8898" font-weight="300" font-size="340.032px" font-family="Avenir Light">L</text>
   <text x="1976" y="2614"  fill="#606062" stroke="#606062" stroke-width="13.8898" font-weight="300" font-size="340.032px" font-family="Avenir Light">L</text>
   <path fill="none" stroke="#606062" stroke-width="27.7796" stroke-linecap="square" d="M1023 625c-282,347 579,1291 1117,1291 103,-17 382,-180 242,-349 -60,-59 -55,-57 -115,-117 -193,-159 -181,11 -311,92 -130,45 -386,-227 -467,-325 -57,-86 -174,-195 -83,-286 59,-40 172,-146 113,-225 -41,-56 -187,-192 -246,-239 -101,-26 -190,84 -250,158z"/>
   <path fill="none" stroke="#606062" stroke-width="34.7205" stroke-linecap="square" d="M1023 625c-282,347 579,1291 1117,1291 103,-17 382,-180 242,-349 -60,-59 -55,-57 -115,-117 -193,-159 -181,11 -311,92 -130,45 -386,-227 -467,-325 -57,-86 -174,-195 -83,-286 59,-40 172,-146 113,-225 -41,-56 -187,-192 -246,-239 -101,-26 -190,84 -250,158z"/>
  </g>
 </g>
</svg>
