<?xml version="1.0" encoding="UTF-8"?>
<!DOCTYPE svg PUBLIC "-//W3C//DTD SVG 1.1//EN" "http://www.w3.org/Graphics/SVG/1.1/DTD/svg11.dtd">
<!-- Creator: CorelDRAW X7 -->
<svg xmlns="http://www.w3.org/2000/svg" xml:space="preserve" width="2.35246in" height="2.35246in" version="1.1" shape-rendering="geometricPrecision" text-rendering="geometricPrecision" image-rendering="optimizeQuality" fill-rule="evenodd" clip-rule="evenodd"
viewBox="0 0 2349 2349"
 xmlns:xlink="http://www.w3.org/1999/xlink">
 <g id="Layer_x0020_1">
  <metadata id="CorelCorpID_0Corel-Layer"/>
  <g id="_2222840452064">
   <polygon fill="#FEFEFE" points="0,0 2349,0 2349,2349 0,2349 "/>
   <g>
    <path fill="#606062" d="M809 1732c-6,4 -12,9 -17,14 -22,22 -35,54 -35,91 0,36 13,68 35,90 4,5 9,9 14,12 -5,-3 -9,-7 -13,-12 -22,-22 -34,-54 -34,-90 0,-37 12,-69 34,-91 5,-5 10,-10 16,-14zm97 228c8,-2 16,-4 23,-8 12,-5 22,-13 32,-24l-1 -1c-8,9 -19,17 -30,23 -7,4 -16,7 -24,10zm5 -245c5,1 10,4 15,6 10,5 19,12 26,20l2 -2c-8,-8 -17,-14 -27,-19l0 1c-5,-3 -11,-5 -16,-6zm95 240l11 -26 -12 26 1 0zm183 -68l2 6 26 62 2 0 -91 -216 54 132 7 16 0 0zm97 -169l-1 0 0 237 1 0 0 -10 0 -227zm184 0l-1 0 0 237 1 0 0 -10 0 -227z"/>
    <path fill="#606062" fill-rule="nonzero" d="M809 1732c-6,4 -12,9 -17,14 -22,22 -35,54 -35,91 0,36 13,68 35,90 4,5 9,9 14,12 -5,-3 -9,-7 -13,-12 -22,-22 -34,-54 -34,-90 0,-37 12,-69 34,-91 5,-5 10,-10 16,-14zm-34 -2c26,-26 63,-42 105,-42 21,0 39,4 56,12l1 0c16,7 30,18 42,34l7 8 -8 7 -20 17 -10 8 -7 -10c-6,-10 -15,-17 -25,-23 -11,-5 -23,-8 -36,-8 -29,0 -54,11 -71,29 -17,18 -27,44 -27,75 0,30 10,56 27,75 17,17 42,28 71,28 14,0 27,-4 39,-10 12,-6 22,-15 29,-25l6 -11 10 8 20 15 9 7 -7 9c-13,19 -29,32 -47,40 -18,8 -38,12 -59,12 -42,0 -79,-16 -104,-42 -27,-26 -42,-64 -42,-106 0,-44 16,-81 41,-107zm131 230c8,-2 16,-4 23,-8 12,-5 22,-13 32,-24l-1 -1c-8,9 -19,17 -30,23 -7,4 -16,7 -24,10zm5 -245c5,1 10,4 15,6 10,5 19,12 26,20l2 -2c-8,-8 -17,-14 -27,-18l0 0c-5,-3 -11,-5 -16,-6zm95 240l11 -26 -12 26 1 0zm44 -46l-26 62 -3 7 -8 0 -25 0 -18 0 7 -16 114 -260 3 -7 8 0 25 0 7 0 3 7 110 260 6 16 -17 0 -27 0 -8 0 -3 -7 -25 -62 -123 0zm139 -22l2 6 26 62 2 0 -91 -216 54 132 7 16 0 0zm-34 -23l-42 -101 -43 101 85 0zm131 -146l-1 0 0 237 1 0 0 -10 0 -227zm-12 -23l24 0 11 0 0 11 0 227 110 0 12 0 0 12 0 22 0 11 -12 0 -145 0 -12 0 0 -11 0 -261 0 -11 12 0zm196 23l-1 0 0 237 1 0 0 -10 0 -227zm-13 -23l25 0 11 0 0 11 0 227 110 0 12 0 0 12 0 22 0 11 -12 0 -146 0 -11 0 0 -11 0 -261 0 -11 11 0z"/>
    <path fill="#606062" d="M1068 634c10,-53 -27,-84 -48,-105 -26,-26 -52,-51 -78,-78 -19,-19 -58,-62 -82,-73 -52,-23 -87,6 -112,30 -27,26 -51,52 -78,77 -24,21 -48,54 -53,103 -13,123 70,301 141,402l66 90c30,38 42,48 73,83 21,24 48,46 58,58l152 119c105,72 330,191 461,131 35,-16 60,-50 83,-72 23,-23 58,-50 73,-82 21,-45 3,-81 -26,-111 -24,-24 -133,-136 -158,-154 -37,-28 -81,-22 -113,5 -27,23 -53,52 -78,77 -24,25 -24,33 -45,23 -16,-9 -34,-17 -50,-27 -17,-10 -32,-20 -47,-31l-65 -52c-4,-4 -7,-7 -11,-10 -32,-28 -32,-31 -58,-58l-79 -96c-5,-8 -10,-15 -16,-23 -9,-17 -17,-31 -27,-50 -18,-37 -9,-29 49,-88 19,-18 60,-52 68,-88zm-79 550l148 116c89,61 302,176 410,126 26,-12 49,-43 69,-62 18,-18 53,-46 64,-69 10,-22 -2,-38 -18,-54 -25,-26 -51,-52 -77,-78 -15,-16 -31,-31 -47,-46 -8,-8 -18,-19 -28,-26 -16,-13 -35,-9 -50,4 -27,22 -51,49 -75,74 -17,17 -28,34 -52,40 -18,4 -35,0 -51,-8 -18,-9 -37,-18 -54,-28 -18,-11 -35,-22 -52,-35l-67 -53 -1 -1c-3,-3 -6,-7 -9,-10 -24,-20 -41,-38 -62,-61l-1 -1 -82 -100 -2 -3c-5,-8 -11,-16 -17,-25 -10,-17 -20,-34 -28,-52 -38,-75 11,-97 58,-145 13,-13 50,-45 54,-63 5,-26 -17,-43 -34,-60 -26,-26 -53,-52 -78,-78 -14,-14 -52,-55 -67,-62 -25,-11 -40,3 -57,20 -27,25 -52,52 -80,78 -21,19 -34,42 -37,71 -11,111 70,279 132,367l65 89c23,29 47,54 71,81 17,19 38,36 55,54z"/>
    <path fill="#606062" fill-rule="nonzero" d="M1062 632c9,-45 -20,-74 -41,-94l-31 -30c-17,-18 -34,-35 -52,-53l-6 -7c-21,-21 -54,-56 -75,-65 -24,-10 -44,-9 -61,-2 -18,7 -32,19 -44,31 -10,10 -21,20 -31,31 -16,16 -31,31 -48,46 -11,11 -22,24 -32,40 -9,16 -16,36 -18,59 -6,54 7,119 30,183 28,81 71,160 110,216l66 89c20,26 31,38 46,54 7,8 15,17 26,29 12,13 26,27 38,38 8,8 15,14 20,19l152 120c61,42 164,100 265,129 69,19 137,25 189,1 27,-12 47,-34 66,-54 5,-6 11,-12 16,-17 5,-6 11,-11 17,-17 20,-18 44,-40 55,-64 10,-21 11,-39 6,-56 -6,-18 -17,-33 -32,-48l-10 -11c-36,-36 -124,-126 -146,-143 -17,-12 -35,-18 -53,-17 -19,1 -37,9 -53,22 -23,20 -47,45 -69,67l-9 10c-4,5 -8,9 -11,12 -16,17 -20,22 -40,12l-12 -6c-13,-7 -27,-13 -39,-21 -9,-5 -17,-10 -24,-15 -8,-5 -16,-11 -24,-17 -16,-16 -46,-35 -65,-52 -2,-1 -4,-3 -5,-5 -2,-1 -3,-3 -5,-5 -24,-20 -31,-27 -42,-40 -5,-5 -10,-11 -17,-18 -24,-28 -59,-68 -80,-97 -2,-3 -4,-7 -7,-10 -3,-4 -5,-8 -8,-14l-6 -9c-8,-13 -14,-25 -22,-40 -16,-32 -13,-35 17,-63 9,-8 20,-18 33,-32 3,-3 7,-6 11,-10 20,-19 49,-47 55,-76zm-33 -102c23,22 54,53 44,105 -6,32 -37,61 -58,81 -4,4 -7,7 -10,10 -14,14 -25,24 -34,32 -25,23 -27,25 -15,50 8,15 14,26 22,39l5 10c3,4 6,8 9,12 2,4 5,7 7,11l78 95c8,8 13,13 17,18 11,12 18,19 41,40 2,2 4,4 6,6 1,1 3,2 4,4l65 51c7,6 15,11 23,16 8,6 16,11 24,15 12,8 25,14 38,21l12 5c13,7 15,4 27,-9 3,-3 6,-7 11,-12l9 -10c22,-23 46,-47 70,-67 17,-15 38,-24 60,-25 20,-1 41,5 60,19 22,17 111,108 147,144l11 11c15,16 28,33 34,52 6,20 5,41 -6,65 -13,26 -37,48 -58,68 -6,6 -12,11 -17,16 -5,5 -11,11 -16,17 -19,20 -40,43 -69,56 -55,26 -126,20 -198,0 -102,-29 -206,-88 -268,-131l-153 -120 0 -1c-4,-4 -11,-11 -20,-19 -12,-11 -26,-24 -39,-39 -9,-11 -18,-20 -25,-28 -15,-16 -27,-29 -47,-55 -22,-27 -46,-61 -67,-90 -39,-56 -82,-136 -111,-218 -23,-65 -37,-132 -31,-188 3,-25 10,-46 20,-64 10,-17 23,-31 35,-42 16,-15 31,-31 47,-46 10,-10 20,-20 31,-31 13,-13 28,-26 48,-34 19,-8 42,-9 70,3 23,10 57,46 78,67l6 7c18,18 35,35 52,53l31 30zm-36 650l147 116c53,36 149,91 241,119 62,19 121,25 164,6 18,-8 35,-27 51,-44 5,-6 11,-12 16,-17 5,-5 10,-10 16,-16 17,-16 39,-35 46,-51 5,-10 5,-18 2,-25 -4,-8 -10,-15 -18,-23l-20 -21c-19,-19 -38,-38 -57,-57l-23 -23c-8,-8 -16,-16 -24,-23l-5 -5c-7,-7 -15,-15 -22,-20 -7,-5 -14,-8 -21,-7 -8,1 -16,4 -23,10 -22,19 -43,41 -63,62l-11 12c-4,3 -6,6 -9,9 -13,14 -24,27 -46,32 -10,3 -19,3 -28,1 -9,-1 -18,-5 -27,-9l-11 -6c-15,-7 -29,-14 -43,-22 -9,-6 -18,-11 -26,-17 -9,-6 -18,-12 -26,-18 -18,-19 -49,-37 -69,-55 -1,-2 -3,-3 -5,-5 -1,-1 -3,-3 -4,-4 -20,-18 -35,-34 -53,-52 -30,-31 -76,-83 -95,-115 -2,-3 -5,-7 -7,-11 -3,-4 -7,-9 -9,-14l-5 -7c-8,-15 -17,-30 -25,-45 -33,-67 -3,-93 36,-129 8,-7 16,-15 24,-23 2,-2 6,-5 10,-9 15,-15 40,-38 42,-51 4,-20 -11,-35 -25,-48l-7 -7 -26 -25c-17,-18 -35,-35 -53,-53l-6 -7c-16,-17 -46,-48 -59,-54 -10,-5 -19,-4 -26,-1 -8,4 -16,12 -24,20 -11,10 -21,20 -32,31 -16,16 -31,32 -48,47 -10,9 -18,19 -24,30 -6,12 -10,24 -11,38 -5,47 8,106 29,164 27,76 67,150 102,199l65 89c15,19 32,37 48,56 7,7 14,15 22,24 9,10 19,19 29,29 9,8 18,16 26,25zm140 125l-147 -116 -1 -1c-8,-8 -17,-17 -26,-25 -10,-9 -20,-19 -29,-29 -7,-8 -15,-16 -22,-24 -17,-19 -33,-37 -49,-57 -17,-21 -53,-68 -66,-89 -34,-50 -76,-126 -103,-202 -22,-60 -35,-120 -29,-170 1,-15 5,-29 12,-41 6,-12 15,-23 26,-34 17,-15 32,-30 48,-46 10,-11 21,-21 32,-32 9,-8 17,-16 27,-21 10,-5 22,-6 36,0l0 0c15,7 46,40 62,57l7 7c17,18 35,35 53,53l31 31c17,16 35,33 29,59 -3,17 -29,41 -45,57 -4,4 -7,7 -10,9 -8,8 -16,16 -24,23 -36,33 -62,57 -33,116 7,15 16,29 24,44l4 7c3,5 6,10 9,14 3,3 5,7 8,11l1 3 82 99 11 11c17,18 32,34 52,51 1,2 3,3 5,5 1,2 2,3 4,4l1 2 67 52c8,7 16,13 25,18 8,6 17,11 26,17 14,8 28,15 42,22l12 6c7,4 15,6 23,8 7,1 15,1 23,-1 19,-4 29,-16 41,-29 3,-3 6,-6 8,-9l12 -12c20,-21 41,-43 64,-62 9,-8 19,-13 29,-13 10,-1 20,2 29,9 8,5 16,13 23,21l5 4c8,8 16,16 24,24l23 23c19,19 38,38 57,57l20 21c9,8 16,17 20,27 4,10 5,21 -1,34 -9,18 -31,38 -49,55 -6,5 -12,10 -16,15 -5,5 -10,10 -16,16 -16,18 -35,38 -55,47 -45,21 -107,14 -172,-5 -93,-29 -190,-84 -244,-121l0 0z"/>
   </g>
  </g>
 </g>
</svg>
