<?xml version="1.0" encoding="UTF-8"?>
<!DOCTYPE svg PUBLIC "-//W3C//DTD SVG 1.1//EN" "http://www.w3.org/Graphics/SVG/1.1/DTD/svg11.dtd">
<!-- Creator: CorelDRAW X7 -->
<svg xmlns="http://www.w3.org/2000/svg" xml:space="preserve" width="1.96209in" height="1.96209in" version="1.1" shape-rendering="geometricPrecision" text-rendering="geometricPrecision" image-rendering="optimizeQuality" fill-rule="evenodd" clip-rule="evenodd"
viewBox="0 0 1257 1257"
 xmlns:xlink="http://www.w3.org/1999/xlink">
 <g id="Layer_x0020_1">
  <metadata id="CorelCorpID_0Corel-Layer"/>
  <g id="_2245246389216">
   <polygon fill="#FEFEFE" points="0,0 1257,0 1257,1257 0,1257 "/>
   <g>
    <path fill="#606062" d="M499 861c-35,0 -60,25 -60,60 0,35 24,60 60,60 17,0 32,-5 43,-21l-9 -6c-7,11 -21,18 -34,18 -30,0 -49,-22 -49,-51 0,-29 20,-51 49,-51 13,0 24,6 31,16l9 -7c-11,-13 -24,-18 -40,-18zm59 117l12 -30 61 0 13 30 12 0 -48 -114 -12 0 -50 114 12 0zm44 -103l25 63 -52 0 27 -63zm81 -11l-11 0 0 114 65 0 0 -9 -54 0 0 -105zm81 0l-10 0 0 114 64 0 0 -9 -54 0 0 -105z"/>
    <path fill="#606062" fill-rule="nonzero" d="M467 875c-2,2 -5,4 -7,6 -10,10 -15,24 -15,40 0,16 5,30 15,40 2,2 4,4 6,5 -2,-1 -4,-3 -6,-5 -9,-10 -15,-24 -15,-40 0,-16 6,-30 15,-40 2,-2 5,-4 7,-6zm-14 -1c11,-12 27,-18 46,-18 9,0 17,1 25,5l0 0c7,3 13,8 18,15l4 3 -4 4 -9 7 -4 3 -3 -4c-3,-4 -7,-8 -12,-10 -4,-2 -9,-4 -15,-4 -13,0 -24,5 -32,13 -7,8 -12,20 -12,33 0,13 5,25 13,33 7,8 18,13 31,13 6,0 12,-2 17,-5 5,-2 10,-6 13,-11l2 -5 5 4 9 6 4 3 -3 4c-6,9 -13,15 -21,18 -8,4 -17,5 -26,5 -19,0 -35,-6 -46,-18 -12,-12 -19,-28 -19,-47 0,-19 7,-35 19,-47zm57 101c4,0 7,-1 10,-3 5,-2 10,-6 14,-11l0 0c-4,4 -8,8 -13,10 -4,2 -7,3 -11,4zm2 -108c3,1 5,2 7,3 4,2 8,5 12,9l0 -1c-3,-4 -7,-6 -12,-8l0 0c-2,-1 -4,-2 -7,-3zm42 106l5 -11 -5 11 0 0zm20 -20l-12 27 -1 4 -3 0 -12 0 -7 0 3 -8 50 -114 1 -4 3 0 12 0 3 0 1 4 49 115 3 7 -8 0 -12 0 -4 0 -1 -4 -11 -27 -54 0zm61 -10l1 3 11 27 1 0 -40 -95 24 58 3 7 0 0zm-15 -10l-19 -45 -19 45 38 0zm58 -64l0 0 0 104 0 0 0 -4 0 -100zm-6 -11l11 0 5 0 0 6 0 100 49 0 5 0 0 5 0 9 0 6 -5 0 -65 0 -5 0 0 -6 0 -114 0 -6 5 0zm87 11l0 0 0 104 0 0 0 -4 0 -100zm-5 -11l10 0 5 0 0 6 0 100 49 0 5 0 0 5 0 9 0 6 -5 0 -64 0 -5 0 0 -6 0 -114 0 -6 5 0z"/>
    <path fill="#606062" d="M581 390c5,-23 -11,-37 -20,-46 -12,-12 -23,-23 -35,-35 -8,-8 -26,-27 -36,-32 -23,-10 -39,3 -50,13 -11,12 -22,23 -34,34 -10,10 -21,24 -24,46 -5,54 32,133 63,177l29 40c13,17 18,21 32,36 9,11 21,21 26,26l67 53c46,32 146,84 203,58 16,-8 27,-22 37,-32 10,-10 26,-22 32,-37 10,-19 2,-35 -11,-48 -11,-11 -59,-60 -70,-69 -16,-12 -36,-9 -50,3 -12,10 -23,23 -34,34 -11,11 -11,14 -20,10 -7,-4 -15,-7 -22,-12 -8,-4 -14,-9 -21,-14l-29 -23c-2,-1 -3,-3 -4,-4 -15,-12 -15,-14 -26,-26l-35 -42c-2,-4 -5,-6 -7,-10 -4,-8 -8,-14 -12,-22 -8,-16 -4,-13 22,-39 8,-8 26,-23 29,-39zm-34 243l65 51c40,27 133,78 181,56 11,-5 22,-19 31,-28 8,-8 23,-20 28,-30 4,-10 -1,-17 -8,-24 -11,-12 -23,-23 -34,-34 -7,-7 -14,-14 -21,-21 -3,-3 -8,-8 -12,-11 -7,-6 -16,-4 -22,2 -12,10 -23,21 -34,32 -7,8 -12,15 -22,18 -8,2 -16,0 -23,-4 -8,-4 -16,-7 -24,-12 -8,-5 -15,-10 -22,-15l-30 -24 -1 0c-1,-2 -2,-3 -4,-4 -10,-10 -18,-18 -27,-28l-1 0 -36 -44 -1 -1c-2,-4 -5,-8 -7,-11 -4,-8 -9,-15 -13,-23 -16,-34 5,-43 26,-64 6,-6 22,-20 24,-28 2,-12 -8,-19 -15,-27 -12,-11 -23,-23 -35,-34 -5,-6 -22,-25 -29,-28 -11,-5 -18,2 -25,9 -12,11 -23,23 -35,34 -10,9 -15,19 -17,32 -5,49 31,123 59,162l28 39c10,13 21,24 31,36 8,9 17,16 25,24z"/>
    <path fill="#606062" fill-rule="nonzero" d="M579 389c4,-20 -9,-32 -18,-41l-14 -14c-7,-7 -15,-15 -23,-23l-3 -3c-8,-9 -23,-25 -32,-29 -11,-4 -20,-4 -27,-1 -8,3 -15,9 -20,14 -4,4 -9,9 -14,14 -6,7 -13,13 -21,20 -4,5 -10,11 -14,18 -4,7 -7,16 -8,26 -2,24 3,52 13,81 13,35 32,70 49,95l29 39c9,12 14,17 20,24 4,4 7,7 12,13 5,6 12,12 17,17 3,3 7,6 9,8l67 53c27,18 72,44 116,57 31,9 61,11 84,0 12,-5 21,-15 29,-23 3,-3 5,-6 7,-8 3,-2 5,-5 8,-7 9,-9 19,-18 24,-29 5,-9 5,-17 3,-25 -3,-7 -8,-14 -14,-21l-5 -4c-16,-16 -55,-56 -64,-64 -8,-5 -16,-7 -23,-7 -9,0 -17,4 -24,10 -10,9 -21,19 -30,29l-5 5c-1,2 -3,3 -4,5 -7,8 -9,10 -18,5l-5 -3c-6,-2 -12,-5 -18,-9 -3,-2 -7,-4 -10,-6 -4,-3 -7,-5 -11,-8 -7,-7 -20,-15 -29,-23 0,0 -1,-1 -2,-2 0,-1 -1,-1 -2,-2 -10,-9 -13,-12 -19,-18 -2,-2 -4,-5 -7,-8 -11,-12 -26,-30 -35,-43 -1,-1 -2,-3 -3,-4 -1,-2 -3,-4 -4,-6l-3 -4c-3,-6 -6,-11 -9,-18 -7,-14 -6,-15 7,-28 4,-3 9,-8 15,-14 1,-1 3,-3 5,-4 9,-9 21,-21 24,-34zm-14 -45c9,10 23,24 19,46 -3,15 -16,28 -26,36 -1,2 -3,3 -4,5 -6,6 -11,10 -15,14 -11,10 -12,11 -7,22 4,6 7,12 10,17l2 4c1,2 3,4 4,6 1,1 2,3 3,5l35 42c3,3 5,6 7,8 5,5 8,8 18,17 1,1 2,2 3,3 1,0 1,1 2,2l28 22c4,3 7,5 10,7 4,3 7,5 11,7 5,3 11,6 17,9l5 3c6,2 7,1 12,-5 1,-1 3,-3 5,-5l4 -4c10,-10 20,-21 31,-30 7,-7 17,-11 26,-11 9,0 18,2 27,8 10,8 49,48 65,64l4 5c7,7 13,14 15,23 3,9 3,18 -2,29 -6,11 -16,21 -26,29 -2,3 -5,5 -7,8 -3,2 -5,4 -7,7 -9,9 -18,19 -31,25 -24,11 -55,9 -87,0 -45,-13 -91,-39 -118,-58l-68 -53 0 0c-2,-2 -5,-5 -9,-9 -5,-5 -11,-11 -17,-17 -4,-5 -8,-9 -11,-12 -7,-7 -12,-13 -21,-25 -10,-12 -20,-27 -29,-39 -18,-25 -37,-61 -49,-97 -11,-29 -17,-58 -14,-83 1,-11 5,-20 9,-28 4,-8 10,-14 15,-19 7,-6 14,-13 21,-20 4,-4 9,-9 14,-14 5,-5 12,-11 21,-14 8,-4 19,-5 31,1 10,4 25,20 34,30l3 3c8,8 15,15 23,23l14 13zm-16 287l65 51c23,16 65,40 106,53 27,8 53,11 72,3 8,-4 16,-13 23,-20 2,-3 4,-5 7,-8 2,-2 4,-4 7,-6 8,-7 17,-16 20,-23 2,-4 2,-8 1,-11 -2,-4 -4,-7 -8,-10l-9 -10c-8,-8 -16,-16 -25,-25l-10 -10c-3,-3 -7,-7 -10,-10l-3 -2c-3,-3 -6,-7 -9,-9 -4,-2 -7,-3 -10,-3 -3,0 -7,2 -10,4 -10,9 -19,18 -28,28l-5 5c-1,1 -2,3 -4,4 -5,6 -10,12 -20,14 -4,1 -8,1 -12,1 -4,-1 -8,-2 -12,-4l-5 -3c-7,-3 -13,-6 -19,-10 -4,-2 -8,-5 -12,-7 -4,-3 -7,-6 -11,-8 -8,-8 -22,-16 -30,-25 -1,0 -2,-1 -2,-2 -1,0 -2,-1 -2,-2 -9,-7 -16,-14 -24,-22 -13,-14 -33,-37 -42,-51 -1,-2 -2,-3 -3,-5 -1,-2 -3,-4 -4,-6l-2 -3c-4,-7 -7,-13 -11,-20 -14,-30 -1,-41 16,-57 3,-3 7,-7 10,-10 2,-1 3,-3 5,-4 7,-7 17,-17 18,-23 2,-9 -5,-15 -11,-21l-3 -3 -11 -11c-8,-8 -16,-16 -23,-24l-3 -3c-7,-7 -21,-21 -26,-24 -5,-2 -9,-1 -12,0 -3,2 -7,5 -11,9 -4,4 -9,9 -13,14 -7,7 -14,14 -22,20 -4,4 -8,9 -10,14 -3,5 -5,10 -5,16 -2,21 3,47 13,73 11,33 29,66 45,88l28 39c7,9 14,17 22,25 3,3 6,6 9,10 4,5 9,9 13,13 4,4 8,7 12,11zm61 55l-65 -51 0 0c-3,-4 -7,-8 -11,-11 -5,-5 -9,-9 -13,-13 -3,-4 -7,-7 -10,-11 -7,-8 -15,-16 -22,-25 -7,-9 -23,-30 -29,-39 -15,-22 -33,-56 -45,-89 -10,-27 -15,-53 -13,-75 0,-7 2,-13 5,-19 3,-5 7,-10 12,-14 7,-7 14,-14 21,-21 5,-5 9,-9 14,-14 4,-4 8,-7 12,-9 5,-2 10,-3 16,0l0 0c6,3 20,17 27,25l3 3c8,8 16,16 24,23l14 14c7,7 15,15 12,26 -1,7 -12,18 -20,25 -1,2 -3,3 -4,4 -4,4 -7,7 -11,10 -15,15 -27,26 -14,51 3,7 7,14 10,20l2 3c2,2 3,4 4,6 1,2 2,3 4,5l0 1 36 44 5 5c8,8 14,15 23,23 1,0 1,1 2,2 1,1 1,1 2,2l1 0 29 24c4,2 7,5 11,7 4,3 8,5 12,8 6,3 12,6 18,9l5 3c4,2 7,3 10,4 4,0 7,0 11,-1 8,-2 13,-7 18,-12 1,-2 2,-3 4,-5l5 -5c9,-9 18,-19 28,-27 4,-4 8,-6 13,-6 4,0 8,1 13,4 3,2 7,6 10,9l2 2c4,4 7,7 11,11l10 10c8,8 16,17 25,25l9 9c4,4 7,8 9,12 1,5 2,9 -1,15 -4,8 -14,17 -22,24 -2,3 -5,5 -7,7 -2,2 -4,5 -7,7 -7,8 -15,17 -24,21 -20,9 -47,6 -76,-2 -41,-13 -84,-38 -107,-54l-1 0z"/>
   </g>
  </g>
 </g>
</svg>
