<?xml version="1.0" encoding="UTF-8"?>
<!DOCTYPE svg PUBLIC "-//W3C//DTD SVG 1.1//EN" "http://www.w3.org/Graphics/SVG/1.1/DTD/svg11.dtd">
<!-- Creator: CorelDRAW X7 -->
<svg xmlns="http://www.w3.org/2000/svg" xml:space="preserve" width="1.96209in" height="1.96209in" version="1.1" shape-rendering="geometricPrecision" text-rendering="geometricPrecision" image-rendering="optimizeQuality" fill-rule="evenodd" clip-rule="evenodd"
viewBox="0 0 1257 1257"
 xmlns:xlink="http://www.w3.org/1999/xlink">
 <g id="Layer_x0020_1">
  <metadata id="CorelCorpID_0Corel-Layer"/>
  <g id="_2245370847680">
   <polygon fill="#FEFEFE" points="0,0 1257,0 1257,1257 0,1257 "/>
   <g>
    <path fill="#606062" d="M351 685l0 -366c2,0 1,-1 1,1 1,-1 1,-1 1,0 1,0 1,0 0,0 1,0 1,0 1,1 1,0 0,-1 0,0 1,0 1,0 1,1 0,-1 0,-1 0,0 1,0 1,0 0,1 1,-1 1,-1 1,0 1,0 0,0 0,0 1,0 1,0 1,1 1,0 0,-1 0,0 1,0 1,0 1,1 0,-1 0,-1 0,0 1,0 1,0 0,1 1,-1 1,-1 1,0 1,0 1,0 0,0 1,0 1,0 1,1 0,0 0,-1 0,0 1,0 1,0 0,1 1,-1 1,-1 1,0 1,0 1,0 0,1 1,-1 1,-1 1,0 1,0 0,0 0,0 1,0 1,0 1,1 1,0 0,-1 0,0 1,0 1,0 1,1 0,-1 0,-1 0,0 2,0 6,5 6,6 1,0 1,0 1,1 1,-1 0,-1 0,0 1,0 1,0 1,0 0,0 0,0 0,1 1,0 1,-1 0,0 1,0 1,0 1,1 1,-1 1,-1 0,0 1,0 1,0 1,1 1,-1 0,-1 0,0 1,0 1,0 0,1 1,-1 1,-1 1,0 1,0 1,-1 0,0 1,0 1,0 1,1 1,-1 1,-1 0,0 1,0 1,0 1,1 1,-1 1,-1 0,0 1,0 1,0 1,0 1,0 0,0 0,1l0 0c1,0 1,0 1,1 1,-1 1,-1 0,0 1,0 1,0 1,1 1,-1 1,-1 0,0 1,0 1,0 1,0 1,0 0,0 0,1 1,0 1,-1 0,0 1,0 1,0 1,1l0 0c1,0 1,0 1,1 1,-1 1,-1 0,0 1,0 1,0 1,0 1,0 0,0 0,1 1,0 1,-1 0,0 1,0 1,0 1,1l0 0c1,0 1,0 1,1 1,-1 1,-1 0,0 1,0 1,-1 1,0 2,1 5,5 7,7 2,2 4,4 7,6l33 33c1,1 6,6 7,7 0,0 0,0 0,1 1,-1 1,-1 0,0 1,0 1,0 1,1 1,-1 1,-1 0,0 1,0 1,-1 1,0 0,0 0,0 0,1 1,-1 1,-1 1,0 0,0 0,0 0,1 1,-1 1,-1 0,0 1,0 1,-1 1,0 1,0 1,0 0,1 1,0 1,-1 1,0 1,0 0,0 0,1 1,-1 1,-1 1,0 0,0 0,0 0,1 1,-1 1,-1 0,0 1,0 1,0 1,0 1,0 1,0 0,1 1,-1 1,-1 1,0 1,0 0,0 0,1 1,-1 1,-1 1,0 0,0 0,0 0,0 1,0 1,0 0,1 1,0 1,-1 1,0 1,0 1,0 0,1 1,0 1,-1 1,0 1,0 0,0 0,1 1,-1 1,-1 1,0 0,0 0,0 0,1 1,-1 1,-1 0,0 1,0 1,-1 1,0 2,1 7,7 9,9l21 21c2,1 4,3 5,4 0,0 0,0 0,1 1,-1 1,-1 0,0 1,0 1,0 1,1 1,-1 1,-1 0,0 1,0 1,-1 1,0 1,0 0,0 0,1 1,-1 1,-1 0,0 1,0 1,0 1,1 1,-1 1,-1 0,0 1,0 1,0 1,0 1,0 1,0 0,1 1,0 1,-1 1,0 1,0 0,0 0,1 1,-1 1,-1 1,0 0,0 0,0 0,1 1,-1 1,-1 0,0 1,0 1,0 1,1 1,-1 1,-1 0,0 1,0 1,-1 1,0 1,0 0,0 0,1 1,-1 1,-1 0,0 1,0 1,0 1,1 1,-1 1,-1 0,0 1,0 1,0 1,0 1,0 1,0 0,1 2,0 5,4 7,5 2,3 3,4 6,6 4,4 8,8 12,12 8,8 16,16 24,24 8,8 16,15 24,23 4,4 8,8 12,12l11 12c1,0 1,0 1,1 1,-1 1,-1 0,0 1,0 1,0 1,0 1,1 3,3 4,4l8 8c1,1 1,1 2,2l2 2c1,0 0,-1 0,0 1,0 1,0 1,1 0,-1 0,-1 0,0 1,0 1,0 0,1 1,0 0,-1 1,0l2 2c6,6 4,3 8,6l0 0c2,0 4,1 6,0 2,0 3,0 5,-1 0,-1 0,0 0,-1 2,-1 0,0 1,0 0,0 0,-1 1,-1 0,-1 0,-1 1,0 -1,-1 -1,-1 0,-1 0,-1 0,0 0,0 0,-1 0,-1 1,-1 0,0 0,0 0,0 0,-1 0,-1 1,-1 0,0 -1,0 0,0 0,-1 0,-1 1,0 -1,-1 -1,-1 0,-1 0,-1 0,-1 0,0 0,-1 0,-1 1,-1 0,-1 -1,0 0,0 0,-1 0,-1 1,0 -1,-1 -1,-1 0,-1 0,-1 0,-1 1,0l0 -1c0,-1 0,0 1,0 -1,-1 -1,-1 0,-1 0,0 0,0 0,0 0,-1 0,-1 1,-1 0,0 -1,0 0,0 0,-1 0,-1 1,0 -1,-1 -1,-1 0,-1 0,-1 0,-1 0,0 0,-1 0,-1 1,-1 0,-1 -1,0 0,0 0,-1 0,-1 1,0 -1,-1 -1,-1 0,-1 1,-1 1,-1 2,-2 1,-1 1,-1 2,-2 3,-3 8,-8 11,-11 4,-2 13,-13 15,-14 0,-1 0,-1 0,-1 0,0 0,0 1,0 0,-1 -1,-1 0,0 0,-1 0,-1 1,-1 -1,-1 -1,-1 0,0 0,-1 0,-1 1,-1 -1,-1 -1,0 0,0 0,-1 0,-1 0,-1 0,0 0,0 1,0 0,-1 -1,-1 0,0 0,-1 0,-1 1,-1 -1,-1 -1,-1 0,0l1 -1c-1,-1 -1,0 0,0 0,-1 0,-1 0,-1 0,0 0,0 1,0 0,-1 -1,-1 0,0 0,-1 0,-1 1,-1 -1,-1 -1,-1 0,0 0,-1 0,-1 1,-1 -1,-1 -1,0 0,0 0,-1 0,-1 0,-1 0,0 0,0 1,0 0,-1 -1,-1 0,0 0,-1 0,-1 1,-1 -1,-1 -1,-1 0,0 0,-1 0,-1 1,-1 -1,-1 -1,0 0,0 0,-1 0,-1 0,-1 0,0 0,0 1,0 0,-1 -1,-1 0,0 0,-1 0,-1 1,-1 -1,-1 -1,-1 0,0 0,-1 0,-1 1,-1 -1,0 -1,0 0,0 0,-1 0,-1 1,0 -1,-1 -1,-1 0,-1 0,-1 0,-1 0,0 0,-1 0,-1 1,-1 0,-1 -1,0 0,0 0,-1 0,-1 1,-1 -1,-1 -1,0 0,0 0,-1 0,-1 1,0 -1,-1 -1,-1 0,-1 0,-1 0,-1 0,0 0,-1 0,-1 1,-1 0,-1 -1,0 0,0 0,-1 0,-1 1,-1 -1,0 -1,0 0,0 0,-1 0,-1 1,0 -1,-1 -1,-1 0,-1 0,-1 -1,-1 0,0 0,-1 0,-1 1,-1 -1,-1 -1,-1 0,0 0,-1 0,-1 1,-1 -1,-1 -1,0 0,0 0,-1 0,-1 1,0 -1,-1 -1,-1 0,-1 0,-1 0,-1 0,0 0,-1 0,-1 1,-1 0,-1 -1,0 0,0 0,-1 0,-1 1,-1 -1,0 -1,0 0,0 0,-1 0,-1 1,0 -1,-1 -1,-1 0,-1 0,-1 -1,-1 0,0 0,-1 0,-1 1,-1 0,-1 0,0 1,0l-1 0c0,-1 0,-1 1,-1 0,-1 0,0 0,0 0,-1 0,-1 1,-1 0,0 -1,0 0,0 0,-1 0,-1 1,0 -1,-1 -1,-1 0,-1 0,-1 0,-1 1,0 -1,-1 -1,-1 0,-1 0,-1 0,0 0,0 0,-1 0,-1 1,-1 0,0 -1,0 0,0 0,-1 0,-1 1,0 -1,-1 -1,-1 0,-1 0,-1 0,-1 1,0 -1,-1 -1,-1 0,-1 0,-1 0,0 0,0 0,-1 0,-1 1,-1 0,0 -1,0 0,0 0,-1 0,-1 1,0 -1,-1 -1,-1 0,-1 0,-1 0,-1 1,0 -1,-1 -1,-1 0,-1 0,-1 0,0 0,0 0,-1 0,-1 1,-1 0,0 -1,0 0,0 0,-1 0,-1 1,0 -1,-1 -1,-1 0,-1 0,-1 0,-1 1,0 -1,-1 -1,-1 0,-1 0,-1 0,0 0,0 0,-1 0,-1 1,-1 0,0 -1,0 0,0 0,-1 0,-1 1,0 -1,-1 -1,-1 0,-1 0,-1 0,-1 1,0 -1,-1 -1,-1 0,-1 0,-1 0,0 0,0 0,-1 0,-1 1,0 0,-1 -1,-1 0,-1 0,-1 0,-1 1,0 0,-1 -1,-1 0,-1 0,-1 0,0 1,0 -1,-1 -1,-1 0,-1 0,-1 0,0 1,0 -1,-1 -1,-1 0,0 0,-1 -1,-1 0,-1 0,-1 0,-1 1,0 -1,-1 -1,-1 0,-1 0,-1 0,0 1,0 -1,-1 -1,-1 0,-1 0,0 0,0 1,0 -1,-1 -1,-1 0,0 0,-1 -1,-1 0,-1 0,-1 0,-1 1,0 0,-1 -1,-1 0,-1 0,-1 0,0 1,0 -1,-1 -1,-1 0,-1 0,-1 0,0 1,0 -1,-1 -1,-1 0,0 0,-1 -1,-1 0,-1 0,-1 0,-1 1,0 -1,-1 -1,-1 0,-1 0,-1 0,-1 1,0 -1,-1 -1,-1 0,-1 0,-1 0,0 0,0 0,-1 0,-1 1,0 0,-1 0,-1 0,-1 0,-1 0,0 1,0 1,-1 3,-3 4,-4 2,-3 8,-9 11,-11 3,-3 12,-13 15,-14 0,-2 8,-9 10,-12l4 -3c4,-3 13,-13 15,-15 0,0 0,0 1,0 -1,-1 -1,-1 0,-1 0,0 0,0 1,0 -1,-1 -1,-1 0,0 0,-1 0,-1 0,-1 0,-1 0,0 1,0 0,-1 -1,-1 0,-1 0,0 0,0 1,0 -1,-1 -1,-1 0,-1 0,0 0,0 0,0 0,-1 0,-1 1,0 0,-1 0,-1 0,-1 0,-1 0,0 1,0 0,-1 -1,-1 0,-1 0,0 0,0 1,0 -1,-1 -1,-1 0,0 0,-1 0,-1 0,-1 0,-1 0,-1 1,0 0,-1 0,-1 0,-1 0,-1 0,0 1,0 0,-1 -1,-1 0,-1 0,0 0,0 1,0 -1,-1 -1,-1 0,-1 0,0 0,0 0,0 0,-1 0,-1 1,0 0,-1 0,-1 0,-1 0,-1 0,0 1,0 0,-1 -1,-1 0,-1 0,0 0,0 1,0 -1,-1 -1,-1 0,0 0,-1 0,-1 0,-1 0,-1 0,-1 1,0 0,-1 0,-1 0,-1 0,-1 0,0 1,0 0,-1 0,-1 0,-1 0,0 0,0 1,0 -1,-1 -1,-1 0,0 0,-1 0,-1 1,-1 -1,-1 -1,0 0,0 0,-1 0,-1 0,-1 0,0 0,0 1,0 0,-1 -1,-1 0,-1 0,0 0,0 1,0 -1,-1 -1,-1 0,0 0,-1 0,-1 1,-1 -1,-1 -1,-1 0,0 0,-1 0,-1 0,-1 0,-1 0,0 1,0 0,-1 0,-1 0,-1 0,0 0,0 1,0 -1,-1 -1,-1 0,0 0,-1 0,-1 1,-1 -1,-1 -1,0 0,0 0,-1 0,-1 0,-1 0,0 0,0 1,0 0,-1 -1,-1 0,-1 0,0 0,0 1,0 -1,-1 -1,-1 0,0 0,-1 0,-1 1,-1 -1,-1 -1,-1 0,0 0,-1 0,-1 0,-1 0,-1 0,0 1,0 0,-1 -1,-1 0,-1 0,0 0,0 1,0 -1,-1 -1,-1 0,0 0,-1 0,-1 1,-1l1 -1c3,-3 12,-13 14,-14 0,-1 0,-1 1,-1 -1,-1 -1,0 0,0 0,-1 0,-1 1,-1 -1,0 -1,0 0,0 0,-1 0,-1 1,0 -1,-1 -1,-1 0,-1 0,-1 0,-1 0,0 0,-1 0,-1 1,-1 0,-1 -1,0 0,0 0,-1 0,-1 1,-1 -1,0 -1,0 0,0 0,-1 0,-1 1,0 -1,-1 -1,-1 0,-1 0,-1 0,-1 0,0 0,-1 0,-1 1,-1 -1,-1 -1,0 0,0 0,-1 0,-1 1,-1 -1,0 -1,0 0,0 0,-1 0,-1 1,0 -1,-1 -1,-1 0,-1 0,-1 0,-1 0,0 0,-1 0,-1 1,-1 0,-1 -1,0 0,0 0,-1 0,-1 1,-1 -1,0 -1,0 0,0 0,-1 0,-1 1,0 -1,-1 -1,-1 0,-1 0,-1 -1,-1 0,0 0,-1 0,-1 1,-1 -1,-1 -1,0 0,0 0,-1 0,-1 1,-1 -1,0 -1,0 0,0 1,-1 2,-2 3,-3 1,-1 2,-2 3,-3l32 -31c2,-2 4,-4 6,-6 2,-2 5,-6 7,-5 0,6 0,16 0,23l0 298c0,8 0,16 0,24l0 20c0,2 0,1 -1,2 -1,1 -14,0 -17,0 -6,0 -11,0 -17,0 -35,0 -70,1 -104,0 -47,0 -93,1 -140,0 -23,0 -46,0 -69,0 -64,0 -128,0 -192,0 -2,0 -15,1 -16,-1zm279 -135c-3,-1 -8,-8 -11,-11 0,0 -1,0 -1,0 0,0 0,0 0,0l-4 -5c0,0 0,0 0,0l-1 -1c0,0 -1,0 -1,0l-5 -5c0,0 0,-1 0,-1 0,0 0,0 0,0l-4 -4c0,0 0,0 0,0 0,0 0,0 -1,0l-1 -2c0,0 0,0 0,0l-3 -3c0,0 0,0 0,0l-1 -1c0,0 0,0 -1,0l-3 -4c-6,-5 -25,-24 -32,-30l-3 -4c0,0 0,0 0,0l-8 -8c0,0 -1,0 -1,0l-7 -7c0,-1 0,-1 -1,-1 -1,-2 -2,-3 -4,-4l-3 -4c0,0 0,0 0,0l-1 -1c0,0 0,0 -1,0l-1 -2c0,0 -1,0 -1,0 0,0 0,0 0,0l-9 -9c0,0 0,0 0,0l-8 -8c-1,-1 -2,-2 -4,-4l-8 -8c0,0 0,0 0,0l-4 -4c-1,-1 -2,-2 -4,-4l-88 -87c-6,-5 -11,-10 -16,-16 -3,-2 -16,-14 -16,-16l515 0 -2 2c0,0 0,0 0,0l-1 2c-1,0 -1,0 -1,0l-8 8c0,0 0,0 0,0l0 1c0,0 -1,0 -1,0l0 0c0,1 0,1 0,1 -1,0 -1,0 -1,1l-17 16c0,0 0,0 0,0l-21 21c0,0 0,0 0,0 0,0 0,0 0,0l-46 45c-1,0 -1,1 -1,1l-43 43c0,0 0,0 -1,0l-7 8c-1,0 -1,0 -1,0l0 0c0,0 -1,1 -1,1l-3 3c0,0 0,0 0,0l-26 26c0,0 0,0 0,0l-2 1c0,0 0,0 0,0l0 1c0,0 0,0 0,0 -1,0 -1,0 -1,0l-1 2c0,0 0,0 0,0l-3 3c0,0 0,0 0,0l-8 8c-1,0 -1,0 -1,0 0,0 0,0 0,0l-10 10c0,0 0,1 -1,1l-8 8c0,0 0,0 0,0l-9 10c-3,2 -6,5 -9,8 0,1 -1,1 -2,2 0,0 0,0 0,0 0,0 0,0 -1,0 0,0 0,1 0,1l-2 2c0,0 0,0 0,0l-2 2c0,0 0,0 0,0 -2,2 -15,15 -17,16zm303 152c1,-6 0,-24 0,-32l0 -362c0,-7 1,-28 -1,-32 -5,-9 -14,-7 -26,-7 -109,0 -220,0 -329,0 -76,-1 -154,0 -230,0 -5,0 -11,-1 -15,1 -10,5 -8,15 -8,26l0 378c0,6 -1,28 2,32 4,9 13,7 25,7l568 0c2,0 4,0 6,-1 4,-1 7,-5 8,-10z"/>
    <path fill="#606062" d="M288 981l73 0 0 -10 -62 0 0 -45 56 0 0 -9 -56 0 0 -41 60 0 0 -10 -71 0 0 115zm107 0l0 -101 1 0 70 101 14 0 0 -115 -11 0 0 101 0 0 -70 -101 -14 0 0 115 10 0zm167 -118c-35,0 -58,25 -58,59 0,33 26,59 60,59l63 0 0 -10 -36 0 0 0c19,-7 29,-30 29,-49 0,-34 -24,-59 -58,-59zm-48 59c0,-28 19,-49 48,-49 29,0 47,20 47,49 0,27 -17,49 -45,49 -28,0 -50,-21 -50,-49zm130 15c0,29 14,47 42,47 28,0 42,-18 42,-48l0 -70 -11 0 0 67c0,26 -10,41 -31,41 -21,0 -31,-14 -31,-39l0 -69 -11 0 0 71zm124 -71l-10 0 0 115 10 0 0 -115zm42 115l0 -55 20 0 33 55 12 0 -34 -55c21,-3 30,-14 30,-30 0,-20 -14,-30 -40,-30l-31 0 0 115 10 0zm0 -64l0 -41 24 0c17,0 26,8 26,20 0,12 -9,21 -26,21l-24 0zm86 64l73 0 0 -10 -62 0 0 -45 56 0 0 -9 -56 0 0 -41 59 0 0 -10 -70 0 0 115z"/>
    <path fill="#606062" fill-rule="nonzero" d="M294 976l0 0 0 -5 0 -45 0 -4 0 -1 0 -4 0 -41 0 -5 0 0 0 105zm67 10l-73 0 -5 0 0 -5 0 -115 0 -5 5 0 71 0 5 0 0 5 0 10 0 5 -5 0 -55 0 0 31 51 0 5 0 0 5 0 9 0 5 -5 0 -51 0 0 35 57 0 5 0 0 5 0 10 0 5 -5 0zm29 -10l0 -96 0 -5 5 0 1 0 2 0 2 2 68 99 7 0 0 -105 -1 0 0 96 0 5 -5 0 0 0 -3 0 -2 -3 -68 -98 -6 0 0 105 0 0zm11 -80l0 85 0 5 -6 0 -10 0 -5 0 0 -5 0 -115 0 -5 5 0 14 0 2 0 2 2 61 88 0 -85 0 -5 5 0 11 0 5 0 0 5 0 115 0 5 -5 0 -14 0 -3 0 -1 -2 -61 -88zm115 -20c12,-11 27,-18 46,-18 18,0 34,7 45,18 12,11 18,27 18,46 0,11 -3,23 -9,33 -2,4 -5,8 -8,11l19 0 5 0 0 5 0 10 0 5 -5 0 -63 0c-19,0 -35,-7 -47,-19 -11,-11 -18,-27 -18,-45 0,-19 6,-35 17,-46zm6 8c-8,10 -13,23 -13,38 0,15 6,29 15,38 2,1 3,2 4,4 -1,-1 -2,-2 -3,-3 -10,-10 -16,-24 -16,-39 0,-15 5,-28 13,-38zm48 92l16 0 0 -5 0 0c-4,3 -10,4 -16,5zm42 -36c2,-6 3,-12 3,-18 0,-15 -5,-28 -13,-37 8,9 13,22 13,37 0,6 -1,12 -3,18zm-81 -50c-7,8 -12,19 -12,32 0,13 5,24 13,31 8,8 19,13 32,13 12,0 22,-5 29,-12 7,-8 11,-19 11,-32 0,-13 -4,-24 -11,-32 -8,-8 -18,-12 -31,-12 -13,0 -24,4 -31,12zm118 47c0,13 4,24 10,31 3,4 7,6 12,8 -5,-2 -9,-5 -12,-9 -6,-7 -9,-18 -9,-32l0 -64 -1 0 0 66zm3 38c-9,-9 -13,-22 -13,-38l0 -71 0 -5 5 0 11 0 5 0 0 5 0 69c0,11 2,20 7,26 4,5 11,8 19,8 9,0 15,-3 19,-8 5,-6 7,-16 7,-28l0 -67 0 -5 5 0 11 0 5 0 0 5 0 70c0,16 -4,30 -12,39 -8,9 -20,14 -35,14 -15,0 -26,-5 -34,-14zm50 1c4,-2 8,-4 11,-8 7,-7 10,-18 10,-32l0 -65 0 0 0 62c0,15 -3,26 -9,34 -4,4 -8,7 -12,9zm61 -105l0 0 0 105 0 0 0 -105zm-5 -10l10 0 5 0 0 5 0 115 0 5 -5 0 -10 0 -6 0 0 -5 0 -115 0 -5 6 0zm47 115l0 -50 0 -4 0 -1 0 -4 0 -41 0 -5 0 0 0 105 0 0zm11 -45l0 50 0 5 -6 0 -10 0 -5 0 0 -5 0 -115 0 -5 5 0 31 0c14,0 25,3 33,9 8,6 12,15 12,26 0,10 -3,18 -9,24 -4,4 -10,7 -17,9l29 49 5 8 -9 0 -12 0 -3 0 -2 -3 -30 -52 -12 0zm36 22l14 23 0 0 -14 -23zm0 -35c3,-1 6,-3 8,-5 4,-4 6,-10 6,-17 0,-8 -3,-14 -8,-18 -2,-2 -4,-3 -6,-3 2,0 3,1 4,2 6,5 9,11 9,19 0,8 -3,15 -9,19 -1,1 -3,2 -4,3zm-36 -37l0 31 18 0c7,0 12,-2 16,-5 3,-2 5,-6 5,-11 0,-4 -2,-8 -5,-11 -4,-3 -9,-4 -16,-4l-18 0zm85 95l1 0 0 -5 0 -45 0 -4 0 -1 0 -4 0 -41 0 -5 -1 0 0 105zm68 10l-73 0 -5 0 0 -5 0 -115 0 -5 5 0 70 0 5 0 0 5 0 10 0 5 -5 0 -54 0 0 31 51 0 5 0 0 5 0 9 0 5 -5 0 -51 0 0 35 57 0 5 0 0 5 0 10 0 5 -5 0z"/>
   </g>
  </g>
 </g>
</svg>
