<?xml version="1.0" encoding="UTF-8"?>
<!DOCTYPE svg PUBLIC "-//W3C//DTD SVG 1.1//EN" "http://www.w3.org/Graphics/SVG/1.1/DTD/svg11.dtd">
<!-- Creator: CorelDRAW X7 -->
<svg xmlns="http://www.w3.org/2000/svg" xml:space="preserve" width="2.35246in" height="2.35246in" version="1.1" shape-rendering="geometricPrecision" text-rendering="geometricPrecision" image-rendering="optimizeQuality" fill-rule="evenodd" clip-rule="evenodd"
viewBox="0 0 2349 2349"
 xmlns:xlink="http://www.w3.org/1999/xlink">
 <g id="Layer_x0020_1">
  <metadata id="CorelCorpID_0Corel-Layer"/>
  <g id="_2222840450848">
   <polygon fill="#FEFEFE" points="0,0 2349,0 2349,2349 0,2349 "/>
   <g>
    <path fill="#606062" d="M545 1303l1 -831c4,2 2,0 2,3 2,-1 2,-2 1,1 2,-1 2,-2 2,0 2,0 1,-1 1,1 2,0 1,-1 1,1 2,-1 1,-1 1,1 1,-1 1,-1 1,1 1,-1 1,-1 0,1 2,-1 2,-1 1,1 2,-1 2,-1 1,1 2,-1 2,-1 1,1 2,-1 2,-1 1,1 2,-1 2,-1 1,1 2,-1 2,-1 1,1 2,-1 2,-1 1,1 2,-1 2,-1 1,1 2,-1 2,-1 1,1 2,-1 2,-1 1,1 2,-1 2,-1 1,1 2,-1 2,-1 1,1 2,-1 2,-1 1,1 2,-1 2,-1 1,1 2,-1 2,-1 1,1 2,-1 2,-1 1,1 2,-1 2,-1 1,1 2,-1 1,-1 1,1 2,-1 2,-2 1,1 2,-1 1,-1 1,1 4,0 13,10 14,13 2,0 2,-1 1,1 2,0 2,-1 1,1 2,-1 2,-1 1,1 2,-1 2,-1 1,1 2,-1 2,-1 1,1 2,-1 2,-1 1,1 2,-1 2,-1 1,1 2,-1 2,-1 1,1 2,-1 2,-1 1,1 2,-1 1,-1 1,1 2,-1 1,-1 1,1 2,-1 1,-1 1,1 2,-1 2,-1 1,1 2,-1 2,-1 1,1 2,-1 2,-1 1,1 2,-1 2,-1 1,1 2,-1 2,-1 1,1 2,-1 2,-1 1,1l1 1c2,-1 1,-2 1,1 2,-1 1,-2 1,1 2,-1 1,-2 1,1 2,-1 1,-2 1,0 2,0 1,-1 1,1 2,0 1,-1 0,1 3,0 2,-1 1,1 3,0 2,-1 1,1l1 1c2,0 2,-1 1,1 2,-1 2,-1 1,1 2,-1 2,-1 1,1 2,-1 2,-1 1,1 2,-1 2,-1 1,1 2,-1 2,-1 1,1l1 1c2,-1 2,-1 1,1 2,-1 2,-1 1,1 2,-1 2,-1 1,1 4,1 13,11 16,15 6,5 11,9 16,14l76 75c3,3 13,12 14,15 2,0 2,-1 1,1 2,0 2,-1 1,2 2,-1 2,-2 1,1 2,-1 2,-2 1,1 2,-1 2,-2 1,1 2,-1 2,-2 1,0 2,-1 2,-1 1,1 2,-1 2,-1 1,1 2,-1 2,-1 1,1 2,-1 2,-1 1,1 2,-1 2,-1 1,1 2,-1 2,-1 1,1 2,-1 2,-1 1,1 2,-1 2,-1 1,1 2,-1 2,-1 1,1 2,-1 2,-1 1,1 2,-1 1,-1 1,1 2,-1 2,-1 1,1 2,-1 1,-1 1,1 2,-1 2,-1 1,1 2,-1 1,-1 1,1 2,-1 1,-1 1,1 2,-1 1,-1 1,1 2,-1 1,-2 1,1 2,-1 1,-1 1,1 2,-1 1,-2 1,0 2,0 1,0 0,2 2,-1 2,-2 2,0 2,0 1,-1 0,1 2,0 2,-1 1,1 3,0 2,-1 1,1 5,1 17,15 21,19l49 48c3,3 8,7 9,10 2,-1 2,-1 1,1 2,-1 2,-1 1,1 2,-1 2,-1 1,1 2,-1 2,-1 1,1 2,-1 1,-1 1,1 2,-1 2,-1 1,1 2,-1 1,-1 1,1 2,-1 2,-1 1,1 2,-1 1,-1 1,1 2,-1 1,-1 1,1 2,-1 1,-1 1,1 2,-1 1,-1 1,1 2,-1 1,-1 1,1 2,-1 1,-2 1,1 2,-1 1,-1 0,1 2,-1 2,-2 2,0 2,0 1,-1 0,2 2,-1 2,-2 1,0 2,0 2,-1 1,1 2,0 2,-1 1,1 2,0 2,-1 1,1 2,0 2,-1 1,1 2,0 2,-1 1,1 2,0 2,-1 1,1 2,-1 2,-1 1,1 4,1 12,10 15,13 4,4 8,8 14,13 9,9 17,18 27,27 18,18 36,35 54,54 18,18 36,35 55,53 9,9 18,18 27,27l26 27c2,-1 2,-1 1,1 2,-1 2,-1 1,1 2,-1 2,-1 1,1 4,1 7,5 10,8l18 17c2,2 2,3 4,5l4 5c2,-1 2,-1 1,1 2,-1 2,-2 1,0 2,0 2,0 1,1 2,0 2,-1 1,1 3,1 0,0 2,1l4 5c14,13 8,6 18,13l1 1c3,-1 8,1 13,1 3,-1 7,-3 10,-4 1,-1 1,0 2,-2 3,-2 -2,1 1,0 1,-1 0,-1 3,-2 -1,-2 -1,-2 1,-1 -1,-2 -1,-2 1,-1 -1,-2 -1,-2 1,-1 -1,-2 -1,-2 1,-1 -1,-2 -1,-2 1,-1 -1,-2 -1,-2 1,-1 -1,-2 -1,-2 1,-1 -1,-2 -1,-2 1,-1 -1,-2 -1,-1 1,-1 -1,-2 -1,-2 1,-1 -1,-2 -1,-1 1,-1 -1,-2 -1,-2 1,-1 -1,-2 -1,-1 1,-1 -1,-2 -1,-1 1,-1 -1,-1 -1,-1 1,-1l1 -1c-1,-1 -1,-1 1,0 -1,-3 -1,-2 1,-2 -1,-1 -1,-1 0,-1 0,-2 -1,-1 1,-1 0,-1 0,-1 1,-1 0,-2 -1,-1 1,-1 0,-1 -1,-1 1,0 0,-3 -1,-2 1,-1 0,-2 -1,-2 1,-1 -1,-3 -1,-2 1,-1 0,-2 -1,-2 1,-1 0,-2 -1,-2 2,-1 1,-3 1,-2 3,-5 2,-1 3,-2 5,-4 7,-7 18,-19 25,-25 8,-6 29,-30 34,-33 -1,-1 -1,-1 1,-1 -1,-1 -1,-1 1,0 -1,-2 -1,-2 1,-2 -1,-1 -1,-1 1,0 -1,-2 -1,-2 1,-1 -1,-2 -1,-2 1,-1 -1,-2 -1,-2 1,-1 -1,-2 -1,-2 0,-1 0,-2 0,-2 2,-1 -1,-2 -1,-2 0,-1 0,-2 0,-2 1,-1 0,-2 0,-2 1,-1l1 -1c0,-2 -1,-2 1,-1 0,-2 -1,-2 1,-1 0,-2 -1,-2 1,-1 0,-2 -1,-2 1,-1 0,-2 -1,-2 1,-1 0,-2 -1,-2 1,-1 0,-2 -1,-2 1,-1 0,-2 -1,-1 1,-1 0,-2 -1,-1 1,-1 0,-2 -1,-1 1,-1 -1,-2 -1,-1 1,-1 -1,-2 -1,-1 1,-1 -1,-2 -1,-1 1,-1 -1,-2 -1,-1 1,-1 -1,-2 -1,-1 1,-1 -1,-2 -1,-1 1,-1 -1,-2 -1,-1 1,-1 -1,-2 -1,-1 1,-1 -1,-1 -1,-1 1,-1 -1,-2 -1,-1 1,-1 -1,-2 -1,-1 1,0 -1,-2 -1,-2 1,-1 -1,-2 -1,-2 1,-1 -1,-2 -1,-2 1,-1 -1,-2 -1,-2 1,-1 -1,-2 -1,-2 1,-1 -1,-2 -1,-2 1,-1 -1,-2 -1,-2 1,-1 -1,-2 -1,-2 1,-1 -1,-2 -1,-2 1,-1 -1,-2 -1,-2 1,-1 -1,-2 -1,-1 1,-1 -1,-2 -1,-2 1,-1 -1,-2 -1,-1 1,-1 -1,-2 -2,-2 1,-1 -1,-2 -1,-1 1,-1 -1,-2 -2,-2 1,-1 -1,-2 -1,-1 0,-1 0,-2 -1,-2 1,-1 0,-2 0,-1 1,-1 0,-2 -1,-1 1,-1 0,-1 0,-1 1,-1 0,-2 -1,-1 1,-1 0,-1 -1,-1 1,-1 0,-2 -1,-1 1,-1 0,-1 -1,-1 1,-1 -1,-2 -1,-1 1,-1 0,-1 -1,-1 1,0 -1,-3 -1,-2 1,-1 0,-2 -1,-2 1,-1 -1,-2 -1,-2 1,-1 0,-2 -1,-2 1,-1 -1,-2 -1,-2 1,-1 0,-2 -1,-2 1,-1 -1,-2 -1,-1 2,-1l-1 0c0,-2 0,-2 2,-2 -1,-1 -1,-1 1,0 -1,-2 -1,-2 1,-1 -1,-2 -1,-2 1,-1 -1,-2 -1,-2 0,-1 0,-2 0,-2 1,-1 0,-2 0,-2 1,-1 0,-2 0,-2 1,-1 0,-2 0,-2 1,-1 0,-2 0,-2 1,-1 0,-2 -1,-2 1,-1 0,-2 -1,-2 1,-1 0,-2 -1,-2 1,-1 0,-2 -1,-2 1,-1 0,-2 -1,-2 1,-1 0,-2 -1,-2 1,-1 0,-2 -1,-2 1,-1 0,-2 -1,-2 1,-1 0,-2 -1,-2 1,-1 0,-2 -1,-1 1,-1 0,-2 -1,-1 1,-1 -1,-2 -1,-1 1,-1 -1,-2 -1,-1 1,-1 -1,-2 -1,-1 1,-1 -1,-2 -1,-1 1,-1 -1,-2 -1,-1 1,-1 -1,-2 -1,-1 1,-1 -1,-2 -1,-1 1,-1 -1,-2 -1,-1 1,-1 -1,-2 -1,-1 1,-1 -1,-1 -1,-1 1,-1 -1,-1 -1,-1 1,-1 -1,-1 -1,-1 1,0 -1,-2 -1,-2 1,-1 -1,-2 -1,-2 1,-1 -1,-2 -1,-2 1,-1 -1,-2 -1,-2 1,-1 -1,-2 -1,-2 1,-1 -1,-2 -1,-2 1,-1 -1,-2 -1,-2 1,-1 -1,-2 -1,-2 1,-1 -1,-2 -1,-2 1,-1 -1,-2 -1,-2 1,-1 -1,-2 -1,-2 1,-1 -1,-2 -1,-2 1,-1 -1,-2 -2,-2 1,-1 -1,-2 -2,-2 0,-1 0,-2 -1,-1 2,-1 -1,-2 -1,-2 1,-1 -1,-2 -1,-1 1,-1 -1,-2 -2,-1 0,-1 0,-2 -1,-1 1,-1 0,-2 -1,-2 1,-1 -1,-2 -1,-1 1,-1 0,-2 -1,-2 1,-1 -1,-2 -1,-1 1,-1 0,-2 -1,-1 1,-1 -1,-2 -1,-1 1,-1 0,-2 -1,-1 1,-1 -1,-2 -1,-1 1,0 -1,-3 -1,-2 1,-2 -1,-1 -1,-1 1,0 -1,-2 -1,-2 1,-1 -1,-2 -1,-2 1,-1 -1,-2 -1,-2 1,-1 -1,-2 -1,-2 1,-1 -1,-2 -1,-2 1,-1 -1,-2 -1,-2 1,-1 2,-3 6,-7 9,-9 6,-6 19,-20 25,-24 8,-6 28,-30 33,-33 2,-3 20,-20 25,-25l9 -8c8,-7 28,-30 33,-33 0,-2 0,-2 1,-1 0,-2 0,-2 1,-1 0,-2 -1,-2 1,-1 0,-2 -1,-2 1,-1 0,-2 -1,-2 1,-1 0,-2 -1,-2 1,-1 0,-2 -1,-2 1,-1 0,-2 -1,-2 1,-1 0,-2 -1,-2 1,-1 0,-2 -1,-2 1,-1 0,-2 -1,-2 1,-1 0,-2 -1,-2 1,-1 0,-2 -1,-2 1,-1 -1,-2 -1,-2 1,-1 -1,-2 -1,-1 1,-1 -1,-2 -1,-1 1,-1 -1,-2 -1,-1 1,-1 -1,-2 -1,-1 1,-1 -1,-2 -1,-1 1,-1 -1,-2 -1,-1 1,-1 -1,-2 -1,-1 1,-1 -1,-2 -1,-1 1,-1 -1,-2 -1,-1 1,-1 -1,-2 -1,-1 1,-1 -1,-2 -1,-1 1,-1 -1,-1 -1,-1 1,-1 -1,-1 -1,-1 1,-1 -1,-1 -1,-1 1,-1 -1,-1 -1,-1 1,-1 -1,-1 -1,-1 1,0 -1,-2 -1,-2 1,-1 -1,-2 -1,-2 0,-1 0,-2 0,-2 2,-1 -1,-2 -1,-2 1,-1 -1,-2 -1,-2 1,-1 -1,-2 -1,-2 1,-1 -1,-2 -1,-2 1,-1 -1,-2 -2,-2 1,-1 -1,-2 -1,-1 1,-1 -1,-2 -2,-2 1,-1 -1,-2 -1,-1 0,-1 0,-2 -1,-2 1,-1 0,-2 0,-1 1,-1 0,-2 -1,-2 1,-1 0,-2 0,-1 1,-1 0,-2 -1,-2 1,-1 0,-2 -1,-1 1,-1 0,-2 -1,-1 1,-1 0,-1 -1,-1 1,-1 -1,-2 -1,-1 1,-1 0,-1 -1,-1 1,-1 -1,-2 -1,-1 1,-1 0,-1 -1,-1 1,0 -1,-3 -1,-2 1,-2 0,-1 -1,-1 1,0 -1,-3 -1,-2 1,-1 -1,-2 -1,-2 1,-1 -1,-2 -1,-2 1,-1 -1,-2 -1,-2 1,-1 -1,-2 -1,-2 1,-1 -1,-2 -1,-2 1,-1 -1,-2 -1,-2 1,-1 -1,-2 -1,-2 1,-1 -1,-2 -1,-2 1,-1 -1,-2 -1,-2 1,-1 -1,-2 -1,-2 1,-1l2 -3c7,-7 29,-29 34,-32 -1,-2 -1,-2 0,-1 0,-2 -1,-2 2,-1 -1,-2 -2,-2 0,-1 0,-2 -1,-2 1,-1 0,-2 -1,-2 1,-1 0,-2 -1,-2 1,-1 0,-2 -1,-2 1,-1 0,-2 -1,-1 1,-1 0,-2 -1,-2 1,-1 -1,-2 -1,-1 1,-1 0,-2 -1,-2 1,-1 -1,-2 -1,-1 1,-1 0,-2 -1,-2 1,-1 -1,-2 -1,-1 1,-1 0,-2 -1,-1 1,-1 -1,-2 -1,-1 1,-1 -1,-2 -1,-1 1,-1 -1,-2 -1,-1 1,-1 -1,-2 -1,-1 1,-1 -1,-2 -1,-1 1,0 -1,-3 -1,-2 1,-1 -1,-2 -1,-2 1,-1 -1,-2 -1,-2 1,-1 -1,-2 -1,-2 1,-1 -1,-2 -1,-2 1,-1 -1,-2 -1,-2 1,-1 -1,-2 -1,-2 1,-1 -1,-2 -1,-2 1,-1 -1,-2 -1,-2 1,-1 -1,-2 -1,-2 1,-1 -1,-2 -1,-2 1,-1 -1,-2 -1,-2 1,-1 1,-3 5,-5 7,-7 2,-3 4,-5 7,-7l70 -70c5,-5 10,-10 15,-14 4,-4 12,-12 15,-12 1,15 0,37 0,52l0 677c0,17 0,35 0,52l0 46c0,4 1,3 -1,4 -3,3 -32,2 -38,2 -14,0 -27,0 -40,0 -78,0 -159,1 -236,0 -105,-2 -210,2 -315,0 -52,-1 -106,0 -158,0 -143,-1 -290,0 -434,0 -5,0 -35,2 -37,-2zm633 -307c-7,-3 -19,-18 -26,-25 -1,0 -1,0 -1,0 0,0 0,-1 0,-1l-10 -9c0,-1 0,-1 -1,-1l-2 -2c0,-1 0,-1 0,-1l-12 -12c0,0 0,0 -1,0 0,0 0,0 0,0l-9 -9c0,0 0,0 0,-1 -1,0 -1,0 -1,0l-4 -4c0,0 0,0 0,0l-6 -6c0,0 0,-1 -1,-1l-2 -2c0,0 0,0 -1,-1l-8 -8c-14,-12 -57,-55 -71,-69l-8 -9c0,0 0,0 0,0l-19 -18c0,0 0,0 0,-1l-16 -15c-1,-1 -2,-1 -2,-2 -4,-3 -6,-6 -10,-9l-8 -9c0,0 0,0 0,0l-2 -2c0,0 0,-1 -1,-1l-4 -3c0,0 0,-1 0,-1 0,0 -1,0 -1,0l-20 -21c0,0 0,0 0,0l-18 -17c-4,-3 -6,-6 -9,-9l-19 -19c0,0 0,0 -1,0l-7 -8c-4,-3 -6,-6 -10,-9l-200 -198c-12,-12 -24,-23 -37,-36 -5,-5 -34,-32 -35,-36l1166 0 -3 4c0,0 0,1 0,1l-4 3c0,0 0,0 0,1l-18 18c0,0 -1,0 -1,0l-1 2c0,0 -1,0 -1,0l-1 1c0,1 -1,1 -1,1 -1,1 -1,1 -2,2l-37 36c0,0 0,1 0,1l-48 47c0,0 0,1 -1,1 0,0 0,0 0,0l-104 103c0,0 -1,0 -1,0l-98 97c-1,0 -1,1 -1,1l-18 17c0,1 0,1 -1,1l-1 1c0,1 0,1 0,1l-8 8c0,0 -1,0 -1,0l-58 57c0,1 0,1 0,1l-4 3c0,0 0,1 0,1l-1 1c0,0 -1,0 -1,0 0,0 0,1 0,1l-3 3c0,0 0,0 -1,0l-6 7c-1,0 -1,0 -1,0l-18 18c0,0 0,0 -1,0 0,1 0,1 0,1l-22 22c-1,1 -1,1 -2,2l-19 18c0,1 0,1 0,1l-22 21c-6,6 -12,12 -18,19 -2,2 -3,2 -5,4 -1,0 -1,1 -1,1 -1,0 -1,0 -1,1 0,0 0,0 0,0l-5 5c0,0 -1,0 -1,0l-4 5c0,0 0,0 -1,0 -3,4 -32,35 -37,36zm685 346c3,-15 1,-56 1,-74l0 -821c0,-15 2,-62 -3,-72 -10,-20 -32,-16 -59,-16 -247,1 -497,2 -744,0 -173,-1 -349,0 -522,0 -12,0 -25,-1 -34,3 -22,10 -17,34 -17,58l0 858c0,14 -2,62 3,72 10,20 31,16 58,16l1286 0c5,0 9,0 14,-2 9,-4 15,-11 17,-22z"/>
    <path fill="#606062" d="M415 1961l2 0 0 -11 0 -101 0 -11 0 -1 0 -10 0 -93 0 -11 -2 0 0 238zm220 0l0 -217 0 -11 11 0 1 0 6 0 3 5 155 223 14 0 0 -238 -1 0 0 217 0 11 -12 0 0 0 -6 0 -4 -5 -155 -223 -14 0 0 238 2 0zm299 -208c-20,22 -31,52 -31,86 0,34 13,65 35,87 3,2 6,5 9,7 -3,-2 -5,-4 -8,-7 -22,-22 -35,-52 -35,-87 0,-34 11,-64 30,-86zm109 208l36 0 0 -11 0 0c-11,6 -23,9 -36,11zm93 -81c5,-14 8,-28 8,-41 0,-34 -11,-63 -31,-85 19,22 29,51 29,85 0,14 -2,28 -6,41zm85 -7c0,30 8,54 22,71 7,8 16,14 27,18 -10,-5 -19,-12 -27,-21 -13,-17 -20,-42 -20,-73l0 -145 -2 0 0 150zm119 89c11,-4 19,-11 27,-19 14,-16 21,-41 21,-72l0 -148 -1 0 0 141c0,33 -7,59 -20,76 -8,10 -17,17 -27,22zm139 -239l-1 0 0 238 1 0 0 -238zm96 238l0 -112 0 -11 0 -1 0 -10 0 -93 0 -11 -2 0 0 238 2 0zm105 -53l31 53 1 0 -32 -53zm-1 -78c8,-3 14,-7 19,-12 9,-9 14,-22 14,-38 0,-18 -7,-32 -19,-42 -4,-2 -8,-5 -12,-7 3,2 6,4 9,6 13,11 20,26 20,43 0,18 -7,33 -20,43 -3,3 -7,5 -11,7zm113 131l1 0 0 -11 0 -101 0 -11 0 -1 0 -10 0 -93 0 -11 -1 0 0 238z"/>
    <path fill="#606062" fill-rule="nonzero" d="M415 1961l2 0 0 -11 0 -101 0 -11 0 -1 0 -10 0 -93 0 -11 -2 0 0 238zm154 23l-165 0 -12 0 0 -12 0 -260 0 -12 12 0 159 0 12 0 0 12 0 22 0 11 -12 0 -123 0 0 70 115 0 11 0 0 12 0 22 0 11 -11 0 -115 0 0 79 129 0 11 0 0 11 0 22 0 12 -11 0zm66 -23l0 -217 0 -11 11 0 1 0 6 0 3 5 155 223 14 0 0 -238 -1 0 0 217 0 11 -12 0 0 0 -6 0 -4 -5 -155 -223 -14 0 0 238 2 0zm23 -181l0 192 0 12 -12 0 -24 0 -12 0 0 -12 0 -260 0 -12 12 0 31 0 6 0 4 5 138 199 0 -192 0 -12 11 0 25 0 11 0 0 12 0 260 0 12 -11 0 -32 0 -6 0 -3 -5 -138 -199zm262 -46c25,-25 61,-40 103,-40 42,0 78,15 103,41 26,25 41,62 41,104 0,24 -8,52 -21,75 -5,9 -12,18 -19,25l44 0 12 0 0 11 0 22 0 12 -12 0 -144 0c-41,0 -78,-16 -105,-42 -26,-26 -42,-62 -42,-103 0,-42 14,-79 40,-105zm14 19c-20,22 -31,52 -31,86 0,34 13,65 35,87 3,2 6,5 9,7 -3,-2 -5,-4 -8,-7 -22,-22 -35,-52 -35,-87 0,-34 11,-64 30,-86zm109 208l36 0 0 -11 0 0c-11,6 -23,9 -36,11zm93 -81c5,-14 8,-28 8,-41 0,-34 -11,-63 -31,-85 19,22 29,51 29,85 0,14 -2,28 -6,41zm-183 -114c-17,18 -26,43 -26,73 0,28 11,53 29,71 18,18 43,29 71,29 28,0 50,-11 66,-28 17,-18 26,-44 26,-72 0,-30 -9,-55 -26,-73 -17,-17 -41,-27 -70,-27 -29,0 -53,10 -70,27zm268 107c0,30 8,54 22,71 7,8 16,14 27,18 -10,-5 -19,-12 -27,-21 -13,-17 -20,-42 -20,-73l0 -145 -2 0 0 150zm5 86c-18,-21 -27,-50 -27,-86l0 -161 0 -12 11 0 24 0 12 0 0 12 0 156c0,26 5,46 15,59 10,12 24,18 44,18 20,0 34,-6 43,-19 11,-13 16,-34 16,-62l0 -152 0 -12 11 0 25 0 11 0 0 12 0 159c0,37 -9,67 -27,87 -18,21 -45,32 -79,32 -34,0 -61,-11 -79,-31zm114 3c11,-4 19,-11 27,-19 14,-16 21,-41 21,-72l0 -148 -1 0 0 141c0,33 -7,59 -20,76 -8,10 -17,17 -27,22zm139 -239l-1 0 0 238 1 0 0 -238zm-13 -23l25 0 11 0 0 12 0 260 0 12 -11 0 -25 0 -11 0 0 -12 0 -260 0 -12 11 0zm109 261l0 -112 0 -11 0 -1 0 -10 0 -93 0 -11 -2 0 0 238 2 0zm23 -101l0 112 0 12 -12 0 -24 0 -12 0 0 -12 0 -260 0 -12 12 0 70 0c33,0 58,7 75,20 18,14 28,34 28,60 0,22 -7,40 -21,54 -9,10 -22,17 -39,21l67 111 11 18 -21 0 -27 0 -7 0 -3 -6 -70 -118 -27 0zm82 48l31 53 1 0 -32 -53zm0 -78c7,-3 13,-7 18,-12 9,-9 14,-22 14,-38 0,-18 -7,-32 -19,-42 -3,-2 -8,-5 -12,-7 3,2 6,4 9,6 13,11 20,26 20,43 0,18 -7,33 -20,43 -3,3 -7,5 -10,7zm-82 -85l0 70 42 0c15,0 28,-3 36,-10 7,-6 11,-14 11,-25 0,-10 -4,-19 -11,-25 -8,-6 -21,-10 -37,-10l-41 0zm194 216l1 0 0 -11 0 -101 0 -11 0 -1 0 -10 0 -93 0 -11 -1 0 0 238zm153 23l-165 0 -11 0 0 -12 0 -260 0 -12 11 0 159 0 12 0 0 12 0 22 0 11 -12 0 -123 0 0 70 115 0 11 0 0 12 0 22 0 11 -11 0 -115 0 0 79 129 0 12 0 0 11 0 22 0 12 -12 0z"/>
   </g>
  </g>
 </g>
</svg>
