<?xml version="1.0" encoding="UTF-8"?>
<!DOCTYPE svg PUBLIC "-//W3C//DTD SVG 1.1//EN" "http://www.w3.org/Graphics/SVG/1.1/DTD/svg11.dtd">
<!-- Creator: CorelDRAW X7 -->
<svg xmlns="http://www.w3.org/2000/svg" xml:space="preserve" width="3.38747in" height="3.387in" version="1.1" shape-rendering="geometricPrecision" text-rendering="geometricPrecision" image-rendering="optimizeQuality" fill-rule="evenodd" clip-rule="evenodd"
viewBox="0 0 3387 3387"
 xmlns:xlink="http://www.w3.org/1999/xlink">
 <g id="Layer_x0020_1">
  <metadata id="CorelCorpID_0Corel-Layer"/>
  <g id="_2223049508480">
   <polygon fill="#FEFEFE" points="0,0 3387,0 3387,3387 0,3387 "/>
   <text x="816" y="2729"  fill="#606062" stroke="#606062" stroke-width="27.7795" font-weight="300" font-size="354.295px" font-family="Avenir Light">E</text>
   <text x="1063" y="2729"  fill="#606062" stroke="#606062" stroke-width="27.7795" font-weight="300" font-size="354.295px" font-family="Avenir Light">N</text>
   <text x="1376" y="2729"  fill="#606062" stroke="#606062" stroke-width="27.7795" font-weight="300" font-size="354.295px" font-family="Avenir Light">Q</text>
   <text x="1708" y="2729"  fill="#606062" stroke="#606062" stroke-width="27.7795" font-weight="300" font-size="354.295px" font-family="Avenir Light">U</text>
   <text x="1988" y="2729"  fill="#606062" stroke="#606062" stroke-width="27.7795" font-weight="300" font-size="354.295px" font-family="Avenir Light">I</text>
   <text x="2117" y="2729"  fill="#606062" stroke="#606062" stroke-width="27.7795" font-weight="300" font-size="354.295px" font-family="Avenir Light">R</text>
   <text x="2364" y="2729"  fill="#606062" stroke="#606062" stroke-width="27.7795" font-weight="300" font-size="354.295px" font-family="Avenir Light">E</text>
   <path fill="none" stroke="#606062" stroke-width="41.6653" stroke-linecap="square" d="M1676 1430c-170,-132 -677,-620 -761,-699 -16,-10 -30,-25 -44,-38m805 737c169,-132 677,-620 761,-699 15,-10 30,-25 43,-38m-32 -41c57,0 73,33 73,71l0 1113c-3,17 -8,20 -27,22l-818 0m0 -1206l772 0m-1544 0c-57,0 -74,33 -74,71l0 1113c4,17 8,20 28,22l818 0m0 -1206l-772 0"/>
  </g>
 </g>
</svg>
