<?xml version="1.0" encoding="UTF-8"?>
<!DOCTYPE svg PUBLIC "-//W3C//DTD SVG 1.1//EN" "http://www.w3.org/Graphics/SVG/1.1/DTD/svg11.dtd">
<!-- Creator: CorelDRAW X7 -->
<svg xmlns="http://www.w3.org/2000/svg" xml:space="preserve" width="3.38747in" height="3.387in" version="1.1" shape-rendering="geometricPrecision" text-rendering="geometricPrecision" image-rendering="optimizeQuality" fill-rule="evenodd" clip-rule="evenodd"
viewBox="0 0 3387 3387"
 xmlns:xlink="http://www.w3.org/1999/xlink">
 <g id="Layer_x0020_1">
  <metadata id="CorelCorpID_0Corel-Layer"/>
  <g id="_2429082561904">
   <polygon fill="#FEFEFE" points="0,0 3387,0 3387,3387 0,3387 "/>
   <text x="1061" y="2813"  fill="#606062" stroke="#606062" stroke-width="27.7796" font-weight="300" font-size="354.296px" font-family="Avenir Light">G</text>
   <text x="1373" y="2813"  fill="#606062" stroke="#606062" stroke-width="27.7796" font-weight="300" font-size="354.296px" font-family="Avenir Light">M</text>
   <text x="1725" y="2813"  fill="#606062" stroke="#606062" stroke-width="27.7796" font-weight="300" font-size="354.296px" font-family="Avenir Light">A</text>
   <text x="2005" y="2813"  fill="#606062" stroke="#606062" stroke-width="27.7796" font-weight="300" font-size="354.296px" font-family="Avenir Light">I</text>
   <text x="2134" y="2813"  fill="#606062" stroke="#606062" stroke-width="27.7796" font-weight="300" font-size="354.296px" font-family="Avenir Light">L</text>
   <g>
    <path fill="#606062" fill-rule="nonzero" d="M917 674l-13 -36 6 -1 1 0 1 0 1 0 1 0 0 0 1 0 1 0 0 0 0 0 1 0 0 0 0 0 0 0 -1 0 0 0 0 0 0 0 -1 0 0 0 0 0 0 0 0 0 0 0 0 0 1 0 0 0 1 0 0 -1 1 0 1 0 1 0 1 -1 13 37 -1 0 -1 0 0 0 -1 1 -1 0 0 0 -1 0 0 0 -1 0 0 1 -1 0 -1 0 0 0 -1 0 -1 1 -1 0 -1 0 -1 0 -1 0 -1 0 0 0 -1 0 -1 0 0 0 -1 0 0 0 -1 0 -1 0 0 0 -1 0 -1 0 -1 0 6 -1zm-6 1c-11,0 -21,-8 -21,-18 0,-11 9,-20 20,-20l1 38zm-76 30l-31 -26 4 -3 4 -2 3 -2 4 -2 3 -2 3 -2 4 -2 3 -1 3 -2 3 -1 2 -1 3 -2 3 -1 3 -1 2 -1 3 -1 3 -1 2 -1 3 -1 3 -1 2 0 3 -1 3 -1 3 -1 2 -1 3 0 3 -1 3 -1 3 -1 4 -1 3 -1 3 -1 4 -1 13 36 -4 1 -3 2 -4 1 -3 0 -4 1 -3 1 -3 1 -2 1 -3 1 -3 0 -2 1 -3 1 -2 1 -2 0 -2 1 -2 1 -2 0 -3 1 -2 1 -2 1 -2 1 -2 1 -2 1 -3 1 -2 1 -3 1 -2 2 -3 1 -3 2 -3 2 -3 2 -4 2 4 -3zm-4 3c-9,6 -22,3 -29,-6 -6,-8 -3,-20 6,-26l23 32zm-65 9l38 -38 31 26 -39 38 -34 -20 4 -6zm30 26c-7,8 -21,8 -29,1 -8,-7 -9,-19 -1,-27l30 26zm-33 76l-41 0 0 0 0 -4 0 -4 0 -3 1 -4 1 -4 1 -4 1 -3 1 -4 1 -3 1 -3 2 -4 1 -3 2 -3 1 -3 2 -3 1 -3 2 -3 1 -3 2 -2 2 -3 1 -3 2 -2 2 -3 1 -3 2 -2 1 -3 2 -2 1 -3 1 -2 2 -3 1 -2 1 -2 38 14 -1 4 -2 3 -1 3 -2 2 -1 3 -2 3 -2 3 -1 3 -2 2 -2 3 -1 3 -2 2 -1 3 -2 2 -1 3 -2 2 -1 3 -1 2 -1 3 -2 2 -1 3 -1 2 -1 2 0 3 -1 2 -1 2 0 3 -1 2 0 2 0 3 -1 2 0 2 0 0zm0 0c0,11 -9,19 -20,19 -12,0 -21,-8 -21,-19l41 0zm-41 1160l0 -1160 41 0 0 1160 0 0 -41 0zm41 0c0,11 -9,20 -20,20 -12,0 -21,-9 -21,-20l41 0zm97 101l-3 38 -2 0 -6 -1 -6 -1 -7 -2 -6 -2 -6 -3 -6 -2 -5 -3 -6 -3 -6 -3 -5 -4 -6 -4 -5 -4 -5 -4 -5 -4 -5 -4 -5 -5 -5 -5 -4 -5 -4 -5 -4 -5 -4 -5 -3 -6 -4 -5 -3 -6 -3 -5 -2 -6 -2 -6 -2 -6 -1 -6 -1 -6 -1 -6 0 -7 41 0 0 4 1 4 1 4 1 4 1 4 1 4 2 4 2 4 2 4 3 4 2 5 3 4 3 4 4 4 3 3 4 4 4 4 3 3 4 4 5 3 4 3 4 3 4 3 5 2 4 3 4 2 4 2 5 1 4 2 4 1 4 1 4 0 -2 0zm2 0c11,2 19,12 17,22 -2,11 -13,18 -24,16l7 -38zm36 41l-41 -3 3 -38 41 3 5 1 -8 37zm3 -38c12,0 20,10 19,20 0,11 -10,19 -22,18l3 -38zm77 3l-13 36 6 1 -2 0 -2 0 -2 1 -2 0 -2 0 -2 0 -2 0 -3 0 -2 0 -2 0 -3 0 -2 0 -3 0 -2 0 -3 0 -2 0 -3 0 -2 0 -3 0 -2 0 -3 0 -3 0 -2 0 -3 0 -2 0 -3 -1 -3 0 -2 -1 -3 0 -3 -1 -2 0 -3 -1 13 -36 1 0 2 0 1 1 2 0 1 0 2 0 2 1 1 0 2 0 2 0 2 0 2 0 2 0 2 0 2 0 2 0 3 0 2 0 2 0 2 0 3 0 2 0 2 0 3 0 2 0 2 0 3 0 2 -1 2 0 3 0 2 0 2 0 7 1zm-7 -1c12,0 21,9 21,19 0,11 -9,19 -21,19l0 -38zm118 3l7 38 -3 0 -3 0 -3 0 -3 0 -3 0 -4 0 -4 0 -3 0 -5 0 -4 1 -4 0 -4 0 -5 0 -4 0 -5 0 -5 0 -4 0 -5 0 -5 0 -4 0 -5 0 -4 0 -4 0 -5 0 -4 0 -4 -1 -4 0 -4 0 -3 -1 -4 0 -3 -1 -4 -1 -3 -1 13 -36 1 0 1 1 2 0 2 0 3 1 3 0 3 0 4 0 3 1 4 0 4 0 4 0 4 0 5 0 4 0 4 0 5 0 4 0 5 0 4 0 5 0 4 0 4 -1 4 0 4 0 4 0 4 0 4 0 3 0 4 0 3 0 3 0 -4 0zm4 0c11,0 20,8 20,19 0,10 -9,19 -20,19l0 -38zm133 -14l42 0 0 3 -2 6 -1 5 -2 5 -3 5 -3 5 -3 5 -5 3 -4 4 -5 3 -5 2 -6 1 -5 1 -5 1 -5 0 -5 1 -5 0 -6 0 -5 -1 -5 0 -6 0 -6 0 -6 -1 -6 0 -7 0 -7 0 -7 0 -7 0 -7 1 -8 0 -8 1 -8 1 -9 1 -7 -38 10 -1 9 -1 10 -1 8 -1 9 0 8 0 7 0 8 0 7 0 7 0 6 1 6 0 5 0 6 0 4 0 5 1 4 -1 3 0 3 0 3 0 1 -1 2 0 1 0 0 -1 1 0 0 0 1 -1 0 -1 1 -2 1 -2 1 -3 0 -3 0 3zm0 -3c2,-11 13,-18 24,-16 12,2 19,11 18,22l-42 -6zm4 -98l40 -12 1 6 0 4 -1 3 0 4 0 4 0 3 0 4 0 3 0 3 0 4 0 3 0 3 0 3 0 3 -1 3 0 3 0 3 0 3 0 3 0 3 0 3 0 4 -1 3 0 3 0 3 0 3 0 4 0 3 0 4 0 3 0 4 0 4 0 4 -42 0 0 -4 0 -4 0 -4 0 -4 0 -3 0 -4 0 -4 1 -3 0 -3 0 -4 0 -3 0 -3 0 -3 0 -3 0 -3 0 -3 1 -3 0 -3 0 -3 0 -3 0 -3 0 -3 0 -4 0 -3 1 -3 0 -3 0 -4 0 -3 0 -3 0 -4 0 -4 0 -3 1 6zm-1 -6c0,-11 9,-19 21,-19 11,0 21,8 21,19l-42 0zm23 -601l-5 38 22 -12 1 -2 -1 5 0 9 -1 10 0 14 0 15 -1 18 0 19 0 21 -1 22 0 23 0 25 0 25 0 26 0 26 0 26 0 26 0 27 0 26 0 25 0 24 0 24 0 22 1 21 0 20 0 17 1 16 0 14 1 11 0 9 1 5 0 0 -40 12 -2 -8 0 -7 -1 -9 0 -12 -1 -14 0 -16 -1 -18 0 -19 0 -21 -1 -23 0 -23 0 -25 0 -25 0 -26 0 -26 0 -27 0 -26 0 -27 0 -25 0 -26 0 -24 1 -23 0 -23 0 -21 1 -19 0 -18 0 -15 1 -14 0 -11 1 -9 0 -7 2 -7 22 -13zm-22 13c4,-10 16,-15 27,-11 11,3 16,14 12,24l-39 -13zm42 28l-25 -3 5 -38 25 3 10 4 -15 34zm5 -38c11,1 19,11 18,21 -1,10 -11,18 -23,17l5 -38zm206 133l-25 31 0 0 -6 -4 -6 -4 -6 -4 -6 -4 -6 -4 -6 -4 -6 -4 -6 -4 -7 -4 -6 -4 -6 -4 -7 -4 -6 -4 -6 -4 -7 -4 -6 -4 -6 -4 -7 -5 -6 -4 -6 -4 -7 -4 -6 -4 -6 -4 -6 -4 -6 -4 -6 -5 -6 -4 -6 -4 -6 -4 -6 -4 -6 -4 -5 -4 25 -30 6 4 5 4 6 4 6 4 6 4 5 4 6 4 6 4 6 4 7 4 6 4 6 4 6 4 6 4 7 4 6 5 6 4 7 4 6 4 6 4 7 4 6 4 6 4 7 4 6 4 6 4 6 4 7 4 6 4 6 4 6 4 6 4 0 0zm0 0c9,7 11,19 4,27 -7,9 -20,10 -29,4l25 -31zm183 127l0 38 -13 -4 -6 -4 -5 -5 -6 -4 -6 -4 -6 -4 -6 -4 -6 -4 -6 -4 -6 -4 -6 -4 -6 -4 -6 -4 -6 -4 -6 -4 -7 -4 -6 -5 -6 -4 -6 -4 -7 -4 -6 -4 -6 -4 -7 -4 -6 -4 -6 -4 -6 -4 -7 -4 -6 -4 -6 -4 -6 -4 -6 -4 -6 -4 -6 -4 25 -31 5 4 6 4 6 4 6 4 6 4 6 4 7 4 6 4 6 4 6 4 7 4 6 4 6 4 6 4 7 4 6 4 6 4 7 4 6 5 6 4 7 4 6 4 6 4 6 4 6 4 7 5 6 4 6 4 6 4 5 5 6 4 6 4 -13 -4zm13 4c9,7 10,19 3,27 -7,8 -20,9 -29,3l26 -30zm3 34l-16 0 0 -38 16 0 6 37 -6 1zm0 -38c12,0 21,8 21,19 0,11 -9,19 -21,19l0 -38zm405 -263l1 38 3 0 0 0 -5 2 -6 4 -9 4 -10 6 -11 7 -13 8 -13 9 -15 9 -15 10 -16 11 -16 11 -17 11 -17 12 -18 12 -17 12 -18 12 -17 11 -17 12 -17 12 -16 11 -15 10 -15 11 -14 9 -13 9 -13 8 -11 7 -9 7 -9 5 -7 4 -6 3 -8 3 -12 -36 0 0 4 -2 6 -4 8 -5 9 -6 11 -7 12 -8 13 -9 14 -9 15 -10 15 -11 16 -11 17 -11 17 -12 17 -12 18 -12 17 -12 18 -12 17 -12 17 -11 16 -11 16 -11 16 -10 15 -10 13 -8 13 -8 12 -8 11 -6 10 -5 8 -5 8 -3 9 -2 3 -1zm-3 1c11,-2 22,5 24,15 2,10 -5,20 -17,22l-7 -37zm41 18l-42 0 20 19 -1 0 0 0 0 0 -1 0 0 0 0 0 -1 0 0 0 0 0 -1 0 0 0 -1 0 0 0 0 0 -1 0 0 0 0 0 -1 0 0 0 -1 0 0 0 -1 0 0 0 -1 0 0 0 -1 0 0 0 -1 0 -1 0 0 0 -1 0 -1 0 -1 -38 1 0 1 0 0 0 1 0 0 0 1 0 1 0 0 0 1 0 0 0 1 0 1 0 0 0 1 0 0 0 1 0 0 0 1 0 0 0 1 0 0 0 1 0 0 0 1 0 1 0 0 0 1 0 0 0 1 0 0 0 1 0 1 0 19 19zm-19 -19c11,1 20,10 19,21 -1,10 -11,18 -22,17l3 -38zm-23 608l0 -589 42 0 0 589 0 0 -42 0zm42 0c0,11 -9,19 -21,19 -11,0 -21,-8 -21,-19l42 0zm5 112l-29 27 -6 -9 -1 -4 -1 -3 -1 -4 -1 -4 0 -4 -1 -4 -1 -4 -1 -4 0 -4 -1 -4 0 -5 -1 -4 0 -4 0 -4 -1 -4 0 -5 0 -4 0 -4 -1 -4 0 -5 0 -4 0 -4 0 -4 0 -4 0 -4 -1 -4 0 -4 0 -4 0 -4 0 -4 0 -4 0 -4 42 0 0 4 0 4 0 4 0 3 0 4 0 4 0 4 0 4 0 4 0 4 1 4 0 4 0 4 0 4 0 4 1 4 0 4 0 4 1 4 0 4 0 4 1 3 0 4 1 4 0 3 1 4 1 3 0 4 1 3 1 3 1 3 0 3 -5 -8zm5 8c3,11 -3,21 -14,24 -12,2 -23,-4 -26,-14l40 -10zm119 -8l-13 36 3 1 -1 0 -2 0 -3 0 -3 0 -3 0 -4 0 -4 0 -5 0 -4 0 -5 0 -5 0 -5 0 -6 1 -5 0 -5 0 -6 0 -5 0 -6 0 -5 0 -5 0 -6 0 -5 0 -5 0 -4 -1 -5 0 -4 0 -5 -1 -4 -1 -4 -1 -5 -1 -4 -2 -5 -4 29 -27 -2 -2 -1 0 0 0 1 0 2 0 3 1 3 0 4 0 4 1 4 0 4 0 5 0 5 0 5 0 5 0 5 0 5 0 6 0 5 -1 5 0 6 0 5 0 5 0 5 0 4 0 5 0 4 0 4 0 4 0 4 0 3 0 4 1 3 0zm-3 0c11,1 19,11 17,21 -2,11 -12,18 -24,16l7 -37zm115 2l6 38 -3 0 -3 0 -3 0 -3 0 -3 0 -4 0 -3 0 -4 0 -4 0 -4 1 -5 0 -4 0 -5 0 -4 0 -5 0 -4 0 -5 0 -5 0 -4 0 -5 0 -4 0 -5 0 -4 0 -4 0 -5 0 -4 -1 -4 0 -3 0 -4 -1 -4 0 -3 -1 -4 -1 -3 -1 13 -36 1 0 1 1 2 0 3 0 2 1 3 0 3 0 4 0 3 1 4 0 4 0 4 0 5 0 4 0 4 0 5 0 4 0 5 0 4 0 4 0 5 0 4 0 4 -1 5 0 4 0 4 0 3 0 4 0 4 0 3 0 3 0 3 0 -3 0zm3 0c11,0 21,8 21,19 0,10 -10,19 -21,19l0 -38zm98 -5l7 38 0 0 -2 0 -3 0 -3 0 -2 1 -3 0 -3 0 -3 0 -3 0 -3 0 -3 0 -3 0 -3 0 -3 0 -4 0 -3 0 -3 0 -4 1 -3 0 -4 0 -3 0 -4 0 -3 0 -4 0 -3 0 -4 0 -3 1 -4 0 -3 0 -3 1 -4 0 -3 0 -3 1 -6 -38 3 0 4 -1 4 0 4 -1 4 0 4 0 3 -1 4 0 4 0 4 0 4 0 3 0 4 0 4 -1 3 0 4 0 3 0 4 0 3 0 3 0 3 0 3 0 3 0 3 0 3 0 2 0 3 0 2 0 2 -1 2 0 1 0 2 0 -1 0zm1 0c11,-2 22,5 23,16 2,10 -6,20 -17,22l-6 -38zm39 -6l26 30 -4 2 -1 1 -2 0 -2 1 -2 0 -2 1 -1 1 -2 0 -2 0 -2 1 -2 0 -1 1 -2 0 -2 1 -2 0 -2 0 -2 1 -2 0 -1 0 -2 1 -2 0 -2 0 -2 0 -1 1 -2 0 -2 0 -1 0 -2 1 -1 0 -2 0 -1 0 -2 0 -1 1 -7 -38 2 0 1 0 2 -1 1 0 2 0 1 0 2 0 1 -1 2 0 1 0 2 0 2 -1 1 0 2 0 2 -1 1 0 2 0 1 0 2 -1 1 0 2 0 1 -1 2 0 1 0 1 -1 2 0 1 0 1 -1 1 0 0 0 1 0 0 -1 -4 3zm4 -3c11,-4 23,0 28,9 5,10 1,21 -10,26l-18 -35zm40 -25l27 29 -2 1 -1 1 -1 1 -2 1 -1 1 -2 1 -1 0 -1 1 -2 1 -1 1 -2 1 -1 1 -2 1 -1 1 -1 0 -2 1 -1 1 -2 1 -1 1 -2 1 -1 1 -1 1 -2 0 -1 1 -1 1 -2 1 -1 1 -1 1 -1 1 -1 0 -2 1 -1 1 -1 1 -26 -30 2 -1 1 -1 1 -1 2 -1 1 -1 2 -1 1 -1 1 -1 2 -1 1 -1 2 -1 1 -1 2 -1 1 -1 2 0 1 -1 2 -1 1 -1 2 -1 1 -1 2 -1 1 -1 2 -1 1 -1 2 0 1 -1 1 -1 2 -1 1 -1 1 -1 2 0 1 -1 -2 1zm2 -1c9,-6 22,-4 29,5 6,9 4,20 -6,26l-23 -31zm35 -66l41 5 0 0 0 3 -1 3 -1 3 0 3 -1 3 -1 3 -1 3 -1 3 -1 3 -1 3 -2 3 -1 3 -1 3 -2 3 -1 3 -2 3 -1 3 -2 3 -2 3 -2 3 -2 3 -2 3 -2 2 -2 3 -2 3 -2 3 -2 2 -3 3 -2 2 -3 2 -2 3 -3 2 -27 -29 1 -1 2 -2 2 -1 1 -2 2 -1 1 -2 2 -2 1 -2 2 -2 2 -2 1 -2 1 -2 2 -3 1 -2 2 -2 1 -2 1 -3 1 -2 1 -3 1 -2 1 -2 1 -3 1 -2 1 -3 1 -2 1 -2 1 -3 0 -2 1 -2 0 -2 1 -2 0 -2 0 0zm0 0c2,-11 12,-18 24,-16 11,1 19,11 17,21l-41 -5zm3 -1125l41 -4 0 2 0 14 0 19 0 23 0 27 0 31 1 34 0 37 0 39 0 42 0 44 0 45 0 47 0 48 0 49 0 49 0 49 0 49 0 48 0 47 0 46 0 45 0 43 0 40 0 38 0 36 -1 32 0 29 0 25 -1 21 0 16 -1 12 -1 8 -41 -5 0 -5 1 -11 0 -16 1 -21 0 -25 1 -28 0 -33 0 -35 0 -38 1 -40 0 -43 0 -45 0 -46 0 -47 0 -48 0 -49 0 -49 0 -49 0 -49 0 -48 -1 -47 0 -45 0 -44 0 -42 0 -39 0 -37 0 -34 0 -31 0 -27 0 -23 0 -19 0 -14 0 2zm0 -2c0,-11 9,-19 20,-19 12,0 21,8 21,19l-41 0zm36 -58l5 56 -41 4 -6 -56 41 -5 1 1zm-42 4c-1,-11 8,-20 19,-21 11,-1 22,7 23,17l-42 4zm-76 -101l23 -32 0 0 4 3 4 3 4 3 4 3 3 3 4 3 4 4 4 4 3 4 4 4 4 4 3 4 4 4 3 4 3 5 4 4 3 5 3 4 3 4 3 5 3 4 3 5 2 4 3 5 2 4 2 4 2 4 2 5 1 4 1 4 2 4 0 4 -41 6 0 -2 -1 -2 -1 -3 -1 -2 -1 -3 -1 -4 -2 -3 -2 -4 -2 -3 -2 -4 -2 -4 -3 -4 -2 -4 -3 -4 -3 -4 -3 -3 -3 -4 -3 -4 -3 -4 -3 -4 -3 -4 -3 -3 -3 -4 -3 -3 -4 -3 -3 -3 -3 -3 -3 -2 -3 -3 -2 -2 -3 -1 -2 -2 0 0zm0 0c-10,-6 -12,-18 -6,-26 7,-9 19,-12 29,-6l-23 32zm-89 -27l2 -38 2 0 3 0 3 1 3 0 3 1 3 0 3 1 3 1 4 1 3 1 4 0 4 1 3 1 4 1 4 1 4 1 4 2 3 1 4 1 4 1 4 1 3 2 4 1 4 1 3 1 3 2 4 1 3 1 3 2 3 1 3 1 2 2 3 1 -23 32 -1 -1 -2 0 -2 -1 -2 -1 -2 -1 -2 -1 -3 -1 -3 -1 -3 -1 -3 -2 -3 -1 -3 -1 -4 -1 -3 -1 -4 -1 -3 -1 -4 -1 -3 -1 -4 -1 -3 -1 -4 -1 -3 -1 -4 -1 -3 0 -3 -1 -3 -1 -3 0 -2 -1 -3 -1 -2 0 -2 0 -2 -1 2 1zm-2 -1c-11,-1 -19,-11 -17,-21 1,-11 12,-18 23,-16l-6 37zm-79 -40l83 3 -2 38 -82 -3 0 -38 1 0zm-1 38c-12,0 -21,-9 -20,-20 0,-10 10,-18 21,-18l-1 38zm-653 400l0 -38 -14 5 9 -7 12 -9 13 -10 15 -12 18 -12 18 -14 20 -14 22 -15 23 -15 24 -17 24 -16 26 -17 26 -18 26 -17 27 -17 27 -18 27 -17 27 -16 26 -17 26 -16 25 -15 25 -14 24 -14 23 -13 21 -11 21 -11 19 -9 17 -8 16 -6 14 -5 14 -4 12 -1 0 38 -4 1 -8 2 -12 4 -14 6 -16 7 -18 9 -20 10 -21 11 -22 13 -24 13 -24 14 -25 15 -26 16 -26 16 -27 17 -26 17 -27 17 -27 17 -26 17 -26 18 -25 16 -25 17 -23 16 -23 16 -21 15 -20 14 -19 13 -17 12 -15 11 -12 10 -11 8 -9 7 -14 5zm14 -5c-8,7 -21,7 -29,-1 -8,-7 -7,-19 1,-27l28 28zm-33 -33l19 0 0 38 -19 0 -13 -4 13 -34zm0 38c-12,0 -21,-8 -21,-19 0,-10 9,-19 21,-19l0 38zm-337 -227l23 -32 0 0 10 6 10 7 10 6 11 7 10 6 10 7 11 7 10 7 10 7 11 7 10 7 11 7 10 7 11 7 10 7 11 8 10 7 11 7 10 7 11 8 10 7 10 7 11 8 10 7 10 7 10 8 10 7 10 7 9 7 10 7 10 8 9 7 -26 29 -10 -7 -9 -7 -10 -7 -9 -7 -10 -7 -10 -7 -10 -8 -10 -7 -10 -7 -10 -7 -10 -8 -11 -7 -10 -7 -10 -7 -11 -8 -10 -7 -11 -7 -10 -7 -11 -7 -10 -7 -10 -7 -11 -7 -10 -7 -11 -7 -10 -7 -10 -7 -10 -6 -10 -7 -10 -6 -10 -7 -10 -6 -10 -6 0 0zm0 0c-10,-6 -12,-18 -6,-27 7,-9 20,-11 29,-5l-23 32zm-316 -173l0 -38 6 1 12 4 11 3 12 4 11 5 11 4 11 5 11 4 11 5 11 5 10 6 11 5 10 5 11 6 10 6 11 5 10 6 10 6 10 6 10 7 11 6 10 6 10 6 10 7 10 6 9 6 10 7 10 6 10 6 10 6 10 7 10 6 9 6 -23 32 -10 -7 -10 -6 -10 -6 -10 -7 -10 -6 -10 -6 -9 -7 -10 -6 -10 -6 -10 -6 -10 -6 -10 -7 -10 -6 -9 -6 -10 -6 -10 -5 -10 -6 -10 -6 -10 -5 -10 -6 -10 -5 -11 -5 -10 -5 -10 -5 -10 -4 -11 -5 -10 -4 -10 -4 -11 -4 -10 -4 -11 -4 -11 -3 7 1zm-7 -1c-11,-3 -17,-14 -13,-24 3,-10 15,-15 26,-12l-13 36zm-72 3l-13 -37 6 0 3 -1 3 0 2 0 3 0 3 0 2 0 3 0 2 0 3 0 2 0 3 0 3 0 2 0 3 -1 2 0 3 0 2 0 3 0 3 0 2 0 3 0 3 0 2 -1 3 0 3 0 2 0 3 0 3 0 3 0 3 0 3 0 3 0 0 38 -3 0 -3 0 -2 0 -3 0 -3 0 -2 0 -3 0 -2 0 -3 1 -3 0 -2 0 -3 0 -2 0 -3 0 -2 0 -3 0 -3 0 -2 1 -3 0 -2 0 -3 0 -3 0 -2 0 -3 0 -3 0 -3 0 -2 0 -3 1 -3 0 -3 0 -3 0 -3 0 7 -1zm-7 1c-11,0 -21,-9 -21,-19 0,-11 10,-19 21,-19l0 38z"/>
   </g>
  </g>
 </g>
</svg>
