<?xml version="1.0" encoding="UTF-8"?>
<!DOCTYPE svg PUBLIC "-//W3C//DTD SVG 1.1//EN" "http://www.w3.org/Graphics/SVG/1.1/DTD/svg11.dtd">
<!-- Creator: CorelDRAW X7 -->
<svg xmlns="http://www.w3.org/2000/svg" xml:space="preserve" width="3.38747in" height="3.387in" version="1.1" shape-rendering="geometricPrecision" text-rendering="geometricPrecision" image-rendering="optimizeQuality" fill-rule="evenodd" clip-rule="evenodd"
viewBox="0 0 3387 3387"
 xmlns:xlink="http://www.w3.org/1999/xlink">
 <g id="Layer_x0020_1">
  <metadata id="CorelCorpID_0Corel-Layer"/>
  <g id="_2430324552464">
   <polygon fill="#FEFEFE" points="0,0 3387,0 3387,3387 0,3387 "/>
   <text x="1061" y="2813"  fill="#606062" stroke="#606062" stroke-width="27.7796" font-weight="300" font-size="354.296px" font-family="Avenir Light">G</text>
   <text x="1373" y="2813"  fill="#606062" stroke="#606062" stroke-width="27.7796" font-weight="300" font-size="354.296px" font-family="Avenir Light">M</text>
   <text x="1725" y="2813"  fill="#606062" stroke="#606062" stroke-width="27.7796" font-weight="300" font-size="354.296px" font-family="Avenir Light">A</text>
   <text x="2005" y="2813"  fill="#606062" stroke="#606062" stroke-width="27.7796" font-weight="300" font-size="354.296px" font-family="Avenir Light">I</text>
   <text x="2134" y="2813"  fill="#606062" stroke="#606062" stroke-width="27.7796" font-weight="300" font-size="354.296px" font-family="Avenir Light">L</text>
   <g>
    <path fill="#606062" fill-rule="nonzero" d="M917 766l-13 -31 6 -1 1 0 1 0 1 0 1 0 1 0 0 0 1 0 0 0 0 0 1 0 0 0 0 0 0 0 -1 0 0 0 0 0 0 0 -1 0 0 0 0 0 0 0 0 0 0 0 0 0 1 0 0 0 1 0 0 -1 1 0 1 0 1 0 1 -1 13 32 -1 0 -1 0 -1 1 0 0 -1 0 0 0 -1 0 0 0 -1 0 0 1 -1 0 -1 0 -1 0 0 0 -1 0 -1 1 -1 0 -1 0 -1 0 -1 0 0 0 -1 0 -1 0 0 0 -1 0 0 0 -1 0 -1 0 0 0 -1 0 -1 0 -1 0 6 -1zm-6 1c-11,0 -21,-7 -21,-16 0,-9 9,-17 20,-17l1 33zm-76 26l-31 -23 4 -2 4 -2 3 -2 4 -2 3 -1 3 -2 4 -1 3 -2 3 -1 3 -1 2 -1 3 -2 3 -1 3 -1 2 0 3 -1 3 -1 2 -1 3 -1 3 0 2 -1 3 -1 3 0 3 -1 2 -1 3 -1 3 0 3 -1 3 -1 4 -1 3 0 3 -1 4 -1 13 31 -4 1 -3 1 -4 1 -3 1 -4 1 -3 0 -3 1 -2 1 -3 1 -3 0 -2 1 -3 0 -2 1 -2 1 -2 0 -2 1 -2 1 -3 0 -2 1 -2 1 -2 0 -2 1 -2 1 -3 1 -2 1 -3 1 -2 2 -3 1 -3 1 -3 2 -3 2 -4 1 4 -2zm-4 2c-9,5 -22,3 -29,-4 -6,-8 -3,-18 6,-23l23 27zm-65 8l38 -33 31 23 -39 33 -34 -18 4 -5zm30 23c-7,7 -21,7 -29,1 -8,-6 -9,-17 -1,-24l30 23zm-33 66l-41 0 0 0 0 -3 0 -4 0 -3 1 -3 1 -3 1 -3 1 -4 1 -3 1 -3 1 -2 2 -3 1 -3 2 -3 1 -2 2 -3 1 -3 2 -2 1 -3 2 -2 2 -2 1 -3 2 -2 2 -2 1 -3 2 -2 1 -2 2 -2 1 -2 1 -2 2 -3 1 -2 1 -2 38 13 -1 3 -2 2 -1 3 -2 3 -1 2 -2 3 -2 2 -1 2 -2 3 -2 2 -1 2 -2 3 -1 2 -2 2 -1 2 -2 2 -1 3 -1 2 -1 2 -2 2 -1 2 -1 2 -1 2 0 2 -1 2 -1 2 0 2 -1 2 0 2 0 2 -1 2 0 2 0 0zm0 0c0,10 -9,17 -20,17 -12,0 -21,-7 -21,-17l41 0zm-41 1009l0 -1009 41 0 0 1009 0 0 -41 0zm41 0c0,9 -9,17 -20,17 -12,0 -21,-8 -21,-17l41 0zm97 88l-3 33 -2 0 -6 -1 -6 -1 -7 -2 -6 -2 -6 -2 -6 -2 -5 -2 -6 -3 -6 -3 -5 -3 -6 -3 -5 -4 -5 -3 -5 -4 -5 -4 -5 -4 -5 -4 -4 -4 -4 -5 -4 -4 -4 -5 -3 -5 -4 -4 -3 -5 -3 -5 -2 -5 -2 -5 -2 -5 -1 -6 -1 -5 -1 -5 0 -6 41 0 0 3 1 4 1 3 1 4 1 3 1 4 2 3 2 4 2 3 3 4 2 4 3 3 3 4 4 3 3 3 4 4 4 3 3 3 4 3 5 3 4 2 4 3 4 2 5 3 4 2 4 1 4 2 5 1 4 2 4 1 4 0 4 1 -2 0zm2 0c11,1 19,10 17,19 -2,9 -13,15 -24,14l7 -33zm36 35l-41 -2 3 -33 41 2 5 1 -8 32zm3 -33c12,1 20,9 19,18 0,9 -10,16 -22,15l3 -33zm77 3l-13 32 6 0 -2 0 -2 0 -2 1 -2 0 -2 0 -2 0 -2 0 -3 0 -2 0 -2 0 -3 0 -2 0 -3 0 -2 0 -3 0 -2 0 -3 0 -2 0 -3 0 -2 0 -3 0 -3 0 -2 0 -3 0 -2 0 -3 -1 -3 0 -2 0 -3 -1 -3 0 -2 -1 -3 -1 13 -31 1 0 2 0 1 1 2 0 1 0 2 0 2 1 1 0 2 0 2 0 2 0 2 0 2 0 2 0 2 0 2 0 3 0 2 0 2 0 2 0 3 0 2 0 2 0 3 0 2 0 2 0 3 -1 2 0 2 0 3 0 2 0 2 0 7 1zm-7 -1c12,0 21,8 21,17 0,9 -9,16 -21,16l0 -33zm118 3l7 32 -3 1 -3 0 -3 0 -3 0 -3 0 -4 0 -4 0 -3 0 -5 0 -4 0 -4 0 -4 0 -5 0 -4 0 -5 1 -5 0 -4 0 -5 0 -5 0 -4 0 -5 0 -4 0 -4 -1 -5 0 -4 0 -4 0 -4 0 -4 -1 -3 0 -4 0 -3 -1 -4 -1 -3 0 13 -32 1 0 1 1 2 0 2 0 3 0 3 1 3 0 4 0 3 0 4 0 4 0 4 0 4 0 5 0 4 0 4 0 5 0 4 0 5 0 4 0 5 0 4 0 4 0 4 0 4 0 4 0 4 0 4 0 3 0 4 0 3 -1 3 0 -4 1zm4 -1c11,0 20,8 20,17 0,9 -9,17 -20,17l0 -34zm133 -12l42 0 0 3 -2 5 -1 5 -2 4 -3 5 -3 4 -3 4 -5 3 -4 3 -5 2 -5 2 -6 1 -5 1 -5 1 -5 0 -5 1 -5 0 -6 0 -5 -1 -5 0 -6 0 -6 0 -6 0 -6 -1 -7 0 -7 0 -7 0 -7 0 -7 1 -8 0 -8 1 -8 0 -9 1 -7 -32 10 -1 9 -1 10 -1 8 0 9 -1 8 0 7 0 8 0 7 0 7 0 6 1 6 0 5 0 6 0 4 0 5 0 4 0 3 0 3 0 3 0 1 -1 2 0 1 0 0 0 1 -1 0 0 1 -1 0 0 1 -2 1 -2 1 -2 0 -3 0 2zm0 -2c2,-9 13,-16 24,-14 12,1 19,10 18,19l-42 -5zm4 -86l40 -10 1 5 0 4 -1 3 0 3 0 3 0 3 0 3 0 3 0 3 0 3 0 3 0 2 0 3 0 3 -1 2 0 3 0 3 0 2 0 3 0 3 0 2 0 3 -1 3 0 3 0 2 0 3 0 3 0 3 0 3 0 3 0 4 0 3 0 3 -42 0 0 -3 0 -4 0 -3 0 -3 0 -3 0 -4 0 -3 1 -3 0 -2 0 -3 0 -3 0 -3 0 -3 0 -2 0 -3 0 -3 1 -2 0 -3 0 -2 0 -3 0 -3 0 -2 0 -3 0 -3 1 -3 0 -3 0 -2 0 -3 0 -3 0 -3 0 -4 0 -3 1 5zm-1 -5c0,-9 9,-16 21,-16 11,0 21,7 21,16l-42 0zm23 -522l-5 33 22 -10 1 -2 -1 4 0 7 -1 10 0 11 0 14 -1 15 0 17 0 18 -1 19 0 21 0 21 0 22 0 22 0 23 0 23 0 23 0 22 0 23 0 22 0 21 0 21 0 19 1 18 0 17 0 16 1 14 0 11 1 10 0 8 1 4 0 0 -40 10 -2 -6 0 -6 -1 -8 0 -10 -1 -13 0 -14 -1 -15 0 -17 0 -19 -1 -19 0 -21 0 -21 0 -22 0 -23 0 -22 0 -23 0 -23 0 -23 0 -23 0 -21 0 -22 1 -20 0 -19 0 -19 1 -16 0 -16 0 -13 1 -12 0 -10 1 -8 0 -6 2 -6 22 -11zm-22 11c4,-9 16,-13 27,-10 11,3 16,13 12,22l-39 -12zm42 24l-25 -2 5 -33 25 2 10 4 -15 29zm5 -33c11,1 19,10 18,19 -1,9 -11,15 -23,14l5 -33zm206 116l-25 27 0 0 -6 -3 -6 -4 -6 -3 -6 -4 -6 -3 -6 -4 -6 -3 -6 -4 -7 -3 -6 -4 -6 -3 -7 -4 -6 -3 -6 -4 -7 -3 -6 -4 -6 -4 -7 -3 -6 -4 -6 -3 -7 -4 -6 -3 -6 -4 -6 -4 -6 -3 -6 -4 -6 -3 -6 -4 -6 -4 -6 -3 -6 -4 -5 -3 25 -26 6 3 5 4 6 3 6 4 6 3 5 4 6 3 6 4 6 3 7 4 6 3 6 4 6 3 6 4 7 3 6 4 6 4 7 3 6 4 6 3 7 4 6 3 6 4 7 3 6 4 6 3 6 4 7 3 6 4 6 3 6 4 6 3 0 0zm0 0c9,6 11,16 4,24 -7,7 -20,8 -29,3l25 -27zm183 110l0 34 -13 -4 -6 -4 -5 -3 -6 -4 -6 -3 -6 -4 -6 -4 -6 -3 -6 -4 -6 -3 -6 -4 -6 -3 -6 -4 -6 -3 -6 -4 -7 -3 -6 -4 -6 -3 -6 -4 -7 -3 -6 -4 -6 -3 -7 -4 -6 -3 -6 -4 -6 -3 -7 -4 -6 -3 -6 -4 -6 -3 -6 -4 -6 -3 -6 -4 25 -27 5 4 6 3 6 4 6 3 6 3 6 4 7 3 6 4 6 3 6 4 7 3 6 4 6 3 6 4 7 3 6 4 6 3 7 4 6 4 6 3 7 4 6 3 6 4 6 4 6 3 7 4 6 4 6 3 6 4 5 4 6 3 6 4 -13 -4zm13 4c9,6 10,16 3,23 -7,8 -20,9 -29,3l26 -26zm3 30l-16 0 0 -34 16 0 6 33 -6 1zm0 -34c12,0 21,8 21,17 0,9 -9,17 -21,17l0 -34zm405 -228l1 33 3 0 0 0 -5 2 -6 3 -9 4 -10 5 -11 6 -13 7 -13 7 -15 9 -15 8 -16 9 -16 10 -17 10 -17 10 -18 10 -17 11 -18 10 -17 11 -17 10 -17 10 -16 9 -15 10 -15 8 -14 9 -13 7 -13 7 -11 7 -9 5 -9 5 -7 4 -6 2 -8 3 -12 -32 0 0 4 -2 6 -3 8 -4 9 -5 11 -6 12 -7 13 -8 14 -8 15 -9 15 -9 16 -10 17 -10 17 -10 17 -10 18 -11 17 -10 18 -11 17 -10 17 -10 16 -9 16 -10 16 -8 15 -9 13 -8 13 -7 12 -6 11 -5 10 -5 8 -4 8 -3 9 -2 3 0zm-3 0c11,-1 22,5 24,14 2,9 -5,17 -17,19l-7 -33zm41 17l-42 0 20 16 -1 0 0 0 0 0 -1 0 0 0 0 0 -1 0 0 0 0 0 -1 0 0 0 0 0 -1 0 0 0 -1 0 0 0 0 0 -1 0 0 0 -1 0 0 0 -1 0 0 0 -1 0 0 0 -1 0 -1 0 0 0 -1 0 0 0 -1 0 -1 0 -1 -33 1 0 1 0 0 0 1 0 1 0 0 0 1 0 0 0 1 0 0 0 1 0 1 0 0 0 1 0 0 0 1 0 0 0 1 0 0 0 1 0 0 0 1 0 0 0 1 0 0 0 1 0 1 0 0 0 1 0 0 0 1 0 1 0 19 17zm-19 -17c11,1 20,9 19,18 -1,9 -11,16 -22,15l3 -33zm-23 529l0 -512 42 0 0 512 0 0 -42 0zm42 0c0,9 -9,16 -21,16 -11,0 -21,-7 -21,-16l42 0zm5 96l-29 24 -6 -7 -1 -4 -1 -3 -1 -3 -1 -4 0 -3 -1 -4 -1 -3 -1 -4 0 -3 -1 -4 0 -3 -1 -4 0 -4 0 -3 -1 -4 0 -4 0 -3 0 -4 -1 -4 0 -3 0 -4 0 -4 0 -3 0 -4 0 -3 -1 -4 0 -3 0 -4 0 -3 0 -4 0 -3 0 -3 42 0 0 3 0 3 0 4 0 3 0 3 0 4 0 3 0 3 0 4 0 3 1 4 0 3 0 4 0 3 0 4 1 3 0 4 0 3 1 4 0 3 0 3 1 4 0 3 1 3 0 3 1 3 1 3 0 3 1 3 1 3 1 3 0 2 -5 -8zm5 8c3,9 -3,18 -14,20 -12,3 -23,-2 -26,-11l40 -9zm119 -7l-13 32 3 0 -1 0 -2 0 -3 0 -3 0 -3 0 -4 0 -4 0 -5 0 -4 0 -5 0 -5 0 -5 0 -6 1 -5 0 -5 0 -6 0 -5 0 -6 0 -5 0 -5 0 -6 0 -5 0 -5 0 -4 -1 -5 0 -4 0 -5 -1 -4 0 -4 -1 -5 -2 -4 -2 -5 -3 29 -24 -2 -1 -1 0 0 0 1 0 2 1 3 0 3 0 4 0 4 1 4 0 4 0 5 0 5 0 5 0 5 0 5 0 5 0 6 -1 5 0 5 0 6 0 5 0 5 0 5 0 4 0 5 0 4 0 4 0 4 0 4 0 3 0 4 0 3 1zm-3 -1c11,2 19,10 17,19 -2,10 -12,16 -24,14l7 -33zm115 3l6 32 -3 1 -3 0 -3 0 -3 0 -3 0 -4 0 -3 0 -4 0 -4 0 -4 0 -5 0 -4 0 -5 0 -4 0 -5 1 -4 0 -5 0 -5 0 -4 0 -5 0 -4 0 -5 0 -4 -1 -4 0 -5 0 -4 0 -4 0 -3 -1 -4 0 -4 0 -3 -1 -4 -1 -3 0 13 -32 1 0 1 1 2 0 2 0 3 0 3 1 3 0 4 0 3 0 4 0 4 0 4 0 5 0 4 0 4 0 5 0 4 0 5 0 4 0 4 0 5 0 4 0 4 0 5 0 4 0 4 0 3 0 4 0 4 0 3 0 3 -1 3 0 -3 1zm3 -1c11,0 21,8 21,17 0,9 -10,17 -21,17l0 -34zm98 -4l7 33 0 0 -2 0 -3 1 -3 0 -2 0 -3 0 -3 0 -3 0 -3 0 -3 0 -3 0 -3 0 -3 0 -3 1 -4 0 -3 0 -3 0 -4 0 -3 0 -4 0 -3 0 -4 0 -3 0 -4 0 -3 0 -4 0 -3 1 -4 0 -3 0 -3 0 -4 1 -3 0 -3 0 -6 -32 3 -1 4 0 4 -1 4 0 4 0 4 0 3 -1 4 0 4 0 4 0 4 0 3 0 4 0 4 0 3 -1 4 0 3 0 4 0 3 0 3 0 3 0 3 0 3 0 3 0 3 0 2 0 3 0 2 0 2 0 2 0 1 -1 1 0 0 0zm0 0c12,-1 23,5 24,14 2,9 -6,18 -17,19l-7 -33zm40 -5l26 26 -4 2 -1 0 -2 1 -2 1 -2 0 -2 1 -1 0 -2 0 -2 1 -2 0 -2 1 -1 0 -2 0 -2 1 -2 0 -2 0 -2 1 -2 0 -1 0 -2 0 -2 1 -2 0 -2 0 -1 0 -2 1 -2 0 -1 0 -2 0 -1 0 -2 1 -1 0 -2 0 -1 0 -7 -33 2 0 1 0 2 0 1 0 2 -1 1 0 2 0 1 0 2 0 1 -1 2 0 2 0 1 0 2 -1 2 0 1 0 2 0 1 -1 2 0 1 0 2 0 1 -1 2 0 1 0 1 0 1 -1 2 0 1 0 1 -1 0 0 1 0 0 0 -4 2zm4 -2c11,-4 23,-1 28,8 5,8 1,18 -10,22l-18 -30zm40 -22l27 25 -2 1 -1 1 -1 1 -2 0 -1 1 -2 1 -1 0 -1 1 -2 1 -1 1 -2 1 -1 0 -2 1 -1 1 -1 1 -2 0 -1 1 -2 1 -1 1 -2 0 -1 1 -1 1 -2 1 -1 1 -1 0 -2 1 -1 1 -1 0 -1 1 -1 1 -2 0 -1 1 -1 1 -26 -26 2 -1 1 -1 1 -1 2 0 1 -1 2 -1 1 -1 1 -1 2 -1 1 0 2 -1 1 -1 2 -1 1 -1 2 0 1 -1 2 -1 1 -1 2 -1 1 -1 2 0 1 -1 2 -1 1 -1 1 0 2 -1 1 -1 2 -1 1 0 1 -1 2 -1 1 0 -2 1zm2 -1c9,-5 22,-4 29,4 6,8 4,18 -6,23l-23 -27zm35 -58l41 5 0 0 0 3 -1 2 -1 3 0 2 -1 3 -1 3 -1 2 -1 3 -1 2 -1 3 -2 3 -1 2 -1 3 -2 3 -1 2 -2 3 -1 2 -2 3 -2 2 -2 3 -2 2 -2 3 -2 2 -2 3 -2 2 -2 2 -2 3 -3 2 -2 2 -3 2 -2 2 -3 2 -27 -25 1 -1 2 -2 2 -1 1 -1 2 -2 1 -1 2 -2 1 -2 2 -1 2 -2 1 -2 1 -2 2 -2 1 -2 2 -2 1 -2 1 -2 1 -2 1 -2 1 -2 1 -2 1 -2 1 -2 1 -3 1 -2 1 -2 1 -2 0 -2 1 -1 0 -2 1 -2 0 -2 0 0zm0 0c2,-9 12,-15 24,-14 11,2 19,10 17,19l-41 -5zm3 -978l41 -3 0 1 0 13 0 16 0 20 0 24 0 26 1 30 0 32 0 34 0 37 0 38 0 39 0 41 0 42 0 42 0 43 0 42 0 43 0 42 0 41 0 40 0 39 0 37 0 35 0 34 0 30 -1 28 0 25 0 22 -1 18 0 14 -1 11 -1 7 -41 -5 0 -4 1 -10 0 -14 1 -18 0 -21 1 -25 0 -28 0 -31 0 -33 1 -35 0 -37 0 -39 0 -40 0 -41 0 -42 0 -43 0 -42 0 -43 0 -42 0 -42 -1 -41 0 -39 0 -38 0 -37 0 -34 0 -32 0 -30 0 -26 0 -24 0 -20 0 -16 0 -13 0 2zm0 -2c0,-9 9,-16 20,-16 12,0 21,7 21,16l-41 0zm36 -50l5 49 -41 3 -6 -49 41 -4 1 1zm-42 3c-1,-9 8,-17 19,-18 11,-1 22,6 23,15l-42 3zm-76 -87l23 -28 0 0 4 2 4 3 4 2 4 3 3 3 4 3 4 3 4 3 3 4 4 3 4 3 3 4 4 4 3 4 3 3 4 4 3 4 3 4 3 4 3 4 3 4 3 3 2 4 3 4 2 4 2 4 2 3 2 4 1 3 1 4 2 3 0 4 -41 5 0 -1 -1 -2 -1 -2 -1 -3 -1 -3 -1 -2 -2 -3 -2 -3 -2 -4 -2 -3 -2 -3 -3 -3 -2 -4 -3 -3 -3 -4 -3 -3 -3 -4 -3 -3 -3 -3 -3 -4 -3 -3 -3 -3 -3 -3 -3 -3 -4 -2 -3 -3 -3 -2 -3 -3 -3 -2 -2 -1 -3 -2 -2 -1 0 0zm0 0c-10,-6 -12,-16 -6,-23 7,-8 19,-10 29,-5l-23 28zm-89 -24l2 -33 2 0 3 0 3 1 3 0 3 1 3 0 3 1 3 0 4 1 3 1 4 1 4 0 3 1 4 1 4 1 4 1 4 1 3 1 4 1 4 1 4 1 3 1 4 1 4 1 3 1 3 2 4 1 3 1 3 1 3 1 3 1 2 2 3 1 -23 28 -1 -1 -2 -1 -2 0 -2 -1 -2 -1 -2 -1 -3 -1 -3 -1 -3 -1 -3 -1 -3 -1 -3 -1 -4 -1 -3 -1 -4 0 -3 -1 -4 -1 -3 -1 -4 -1 -3 -1 -4 -1 -3 0 -4 -1 -3 -1 -3 0 -3 -1 -3 -1 -2 0 -3 0 -2 -1 -2 0 -2 0 2 0zm-2 0c-11,-2 -19,-10 -17,-19 1,-9 12,-16 23,-14l-6 33zm-79 -36l83 3 -2 33 -82 -2 0 -34 1 0zm-1 34c-12,-1 -21,-8 -20,-18 0,-9 10,-16 21,-16l-1 34zm-653 348l0 -33 -14 4 9 -7 12 -7 13 -9 15 -10 18 -11 18 -12 20 -12 22 -13 23 -14 24 -14 24 -14 26 -15 26 -15 26 -15 27 -15 27 -15 27 -15 27 -15 26 -14 26 -14 25 -13 25 -12 24 -12 23 -11 21 -10 21 -10 19 -8 17 -7 16 -5 14 -4 14 -3 12 -2 0 34 -4 0 -8 2 -12 4 -14 4 -16 7 -18 7 -20 9 -21 10 -22 11 -24 12 -24 12 -25 13 -26 14 -26 14 -27 14 -26 15 -27 15 -27 15 -26 15 -26 15 -25 14 -25 15 -23 14 -23 13 -21 13 -20 13 -19 11 -17 11 -15 9 -12 9 -11 7 -9 6 -14 5zm14 -5c-8,7 -21,6 -29,-1 -8,-6 -7,-17 1,-23l28 24zm-33 -28l19 0 0 33 -19 0 -13 -4 13 -29zm0 33c-12,0 -21,-8 -21,-17 0,-9 9,-16 21,-16l0 33zm-337 -198l23 -28 0 0 10 6 10 5 10 6 11 6 10 5 10 6 11 6 10 6 10 6 11 6 10 6 11 6 10 7 11 6 10 6 11 6 10 7 11 6 10 6 11 7 10 6 10 7 11 6 10 6 10 7 10 6 10 6 10 7 9 6 10 6 10 6 9 6 -26 26 -10 -6 -9 -6 -10 -6 -9 -7 -10 -6 -10 -6 -10 -6 -10 -7 -10 -6 -10 -6 -10 -7 -11 -6 -10 -6 -10 -6 -11 -7 -10 -6 -11 -6 -10 -7 -11 -6 -10 -6 -10 -6 -11 -6 -10 -6 -11 -6 -10 -6 -10 -6 -10 -6 -10 -5 -10 -6 -10 -5 -10 -6 -10 -5 0 0zm0 0c-10,-6 -12,-16 -6,-23 7,-8 20,-10 29,-5l-23 28zm-316 -150l0 -34 6 1 12 3 11 4 12 3 11 4 11 4 11 4 11 4 11 4 11 5 10 4 11 5 10 5 11 4 10 5 11 5 10 6 10 5 10 5 10 5 11 6 10 5 10 6 10 5 10 5 9 6 10 6 10 5 10 6 10 5 10 5 10 6 9 5 -23 28 -10 -6 -10 -5 -10 -6 -10 -5 -10 -6 -10 -5 -9 -6 -10 -5 -10 -6 -10 -5 -10 -5 -10 -6 -10 -5 -9 -5 -10 -5 -10 -5 -10 -5 -10 -5 -10 -5 -10 -5 -10 -4 -11 -5 -10 -4 -10 -4 -10 -4 -11 -4 -10 -4 -10 -4 -11 -3 -10 -3 -11 -3 -11 -3 7 1zm-7 -1c-11,-3 -17,-12 -13,-21 3,-9 15,-14 26,-11l-13 32zm-72 2l-13 -32 6 0 3 0 3 0 2 0 3 0 3 0 2 -1 3 0 2 0 3 0 2 0 3 0 3 0 2 0 3 0 2 0 3 0 2 -1 3 0 3 0 2 0 3 0 3 0 2 0 3 0 3 0 2 0 3 0 3 0 3 -1 3 0 3 0 3 0 0 34 -3 0 -3 0 -2 0 -3 0 -3 0 -2 0 -3 0 -2 0 -3 0 -3 0 -2 0 -3 0 -2 0 -3 0 -2 1 -3 0 -3 0 -2 0 -3 0 -2 0 -3 0 -3 0 -2 0 -3 0 -3 1 -3 0 -2 0 -3 0 -3 0 -3 0 -3 0 -3 0 7 -1zm-7 1c-11,0 -21,-8 -21,-17 0,-9 10,-16 21,-16l0 33z"/>
   </g>
  </g>
 </g>
</svg>
