<?xml version="1.0" encoding="UTF-8"?>
<!DOCTYPE svg PUBLIC "-//W3C//DTD SVG 1.1//EN" "http://www.w3.org/Graphics/SVG/1.1/DTD/svg11.dtd">
<!-- Creator: CorelDRAW X7 -->
<svg xmlns="http://www.w3.org/2000/svg" xml:space="preserve" width="1.96209in" height="1.96209in" version="1.1" shape-rendering="geometricPrecision" text-rendering="geometricPrecision" image-rendering="optimizeQuality" fill-rule="evenodd" clip-rule="evenodd"
viewBox="0 0 1255 1255"
 xmlns:xlink="http://www.w3.org/1999/xlink">
 <g id="Layer_x0020_1">
  <metadata id="CorelCorpID_0Corel-Layer"/>
  <g id="_2245368421232">
   <polygon fill="#FEFEFE" points="0,0 1255,0 1255,1255 0,1255 "/>
   <g>
    <g>
     <path fill="#606062" d="M600 410c3,-13 -6,-21 -12,-26 -6,-7 -13,-13 -19,-20 -5,-5 -15,-16 -21,-18 -13,-6 -22,1 -28,7 -7,7 -13,13 -20,20 -6,5 -12,13 -13,26 -4,31 17,76 35,101l17 23c8,10 10,12 18,21 6,6 12,12 15,15l39 30c26,18 83,48 116,33 9,-4 15,-12 21,-18 6,-6 15,-13 19,-21 5,-11 0,-20 -7,-28 -6,-6 -34,-34 -40,-39 -9,-7 -20,-5 -29,1 -6,6 -13,13 -19,20 -6,6 -6,8 -12,6 -4,-3 -8,-5 -12,-7 -5,-3 -8,-5 -12,-8l-17 -13c-1,-1 -1,-2 -2,-3 -9,-7 -9,-7 -15,-14l-20 -25c-1,-2 -3,-3 -4,-5 -3,-5 -5,-8 -7,-13 -5,-9 -2,-7 13,-22 4,-5 15,-13 16,-23zm-19 140l37 29c23,15 76,44 104,32 6,-3 12,-11 17,-16 5,-5 13,-12 16,-17 3,-6 0,-10 -4,-14 -7,-7 -13,-13 -20,-20 -4,-4 -7,-8 -12,-12 -2,-2 -4,-4 -7,-6 -4,-3 -8,-2 -12,1 -7,6 -13,12 -19,19 -4,4 -7,8 -13,10 -5,1 -9,0 -13,-2 -5,-2 -10,-5 -14,-7 -4,-3 -9,-6 -13,-9l-17 -14 0 0c-1,-1 -2,-1 -3,-2 -6,-5 -10,-10 -15,-16l-1 0 -20 -25 -1 -1c-1,-2 -3,-4 -4,-6 -2,-5 -5,-9 -7,-13 -10,-19 3,-25 15,-37 3,-3 12,-11 13,-16 1,-7 -4,-11 -8,-15 -7,-7 -14,-13 -20,-20 -4,-3 -13,-14 -17,-16 -6,-2 -10,1 -15,5 -6,7 -13,14 -20,20 -5,5 -8,11 -9,18 -3,28 18,71 33,93l17 22c6,8 12,14 18,21 4,5 9,9 14,14z"/>
     <path fill="#606062" fill-rule="nonzero" d="M599 410c2,-11 -5,-19 -10,-24l-8 -7c-4,-5 -9,-9 -13,-14l-2 -1c-5,-6 -13,-15 -19,-17 -6,-3 -11,-2 -15,-1 -5,2 -8,5 -11,8 -3,3 -6,6 -8,8 -4,4 -8,8 -12,12 -3,3 -6,6 -8,10 -3,4 -4,9 -5,15 -1,14 2,30 8,46 7,21 18,41 27,55l17 22c5,7 8,10 12,14 2,2 4,4 6,7 3,4 7,7 10,10 2,2 4,3 5,5l38 30c16,11 42,25 67,33 18,5 35,6 48,0 7,-3 12,-9 17,-14 1,-1 3,-3 4,-4 1,-2 3,-3 4,-4 5,-5 11,-10 14,-17 3,-5 3,-10 2,-14 -2,-4 -5,-8 -8,-12l-3 -3c-9,-9 -31,-32 -37,-36 -4,-3 -9,-4 -13,-4 -5,0 -10,2 -14,6 -6,5 -11,11 -17,16l-2 3c-1,1 -2,2 -3,3 -4,4 -5,6 -10,3l-3 -2c-4,-1 -7,-3 -10,-5 -2,-1 -4,-2 -6,-4 -2,-1 -4,-2 -6,-4 -4,-4 -12,-9 -17,-13 0,0 -1,-1 -1,-1 0,-1 -1,-1 -1,-2 -6,-5 -8,-7 -11,-10 -1,-1 -2,-2 -4,-4 -6,-7 -15,-17 -20,-25 -1,-1 -1,-1 -2,-2 -1,-1 -2,-2 -2,-4l-2 -2c-2,-3 -3,-6 -5,-10 -4,-8 -4,-9 4,-16 2,-2 5,-5 8,-8 1,-1 2,-2 3,-3 5,-5 13,-12 14,-19zm-8 -26c5,6 13,14 11,27 -2,8 -10,15 -15,20 -1,1 -2,2 -2,3 -4,3 -7,6 -9,8 -6,6 -7,6 -4,12 2,4 4,7 6,10l1 3c1,1 2,2 2,3 1,1 2,2 2,3l20 24c2,2 3,3 4,4 3,3 5,5 11,10 0,1 1,1 1,2 0,0 1,0 1,1l17 13c1,1 3,3 5,4 2,1 4,2 6,4 3,2 7,3 10,5l3 1c3,2 4,1 7,-2 1,-1 1,-2 3,-3l2 -3c6,-5 12,-12 18,-17 4,-3 9,-6 15,-6 5,0 10,1 15,5 6,4 28,27 37,36l3 3c4,4 7,8 8,13 2,5 2,11 -1,17 -3,6 -9,12 -15,17 -1,1 -3,3 -4,4 -1,1 -3,3 -4,4 -5,5 -10,11 -17,14 -14,7 -32,5 -50,0 -26,-7 -53,-22 -68,-33l-39 -30 0 0c-1,-1 -3,-3 -5,-5 -3,-3 -7,-6 -10,-10 -2,-3 -4,-5 -6,-7 -4,-4 -7,-7 -12,-14 -6,-7 -12,-15 -17,-23 -10,-14 -21,-34 -28,-55 -6,-16 -9,-33 -8,-47 1,-7 3,-12 5,-17 3,-4 6,-7 9,-10 4,-4 8,-8 12,-12 2,-2 5,-5 8,-8 3,-3 7,-6 12,-8 5,-2 11,-3 18,0 5,3 14,12 19,18l2 1c4,5 9,9 13,14l8 7zm-9 165l37 29c13,9 38,23 61,30 15,5 30,6 41,1 5,-2 9,-6 13,-11 1,-1 3,-3 4,-4 1,-1 3,-3 4,-4 5,-4 10,-9 12,-13 1,-2 1,-4 0,-6 -1,-2 -2,-4 -4,-6l-5 -5c-5,-5 -10,-10 -15,-15l-6 -6c-2,-2 -3,-4 -6,-5l-1 -2c-2,-1 -4,-3 -5,-5 -2,-1 -4,-2 -6,-1 -2,0 -4,1 -5,2 -6,5 -11,10 -16,16l-3 3c-1,1 -2,1 -2,2 -4,4 -7,7 -12,8 -3,1 -5,1 -7,0 -3,0 -5,-1 -7,-2l-3 -1c-4,-2 -7,-4 -11,-6 -2,-1 -4,-3 -6,-4 -3,-2 -5,-3 -7,-5 -4,-5 -12,-9 -17,-14 -1,0 -1,-1 -1,-1 -1,0 -1,-1 -2,-1 -5,-5 -9,-9 -13,-13 -7,-8 -19,-21 -24,-29 -1,-1 -1,-2 -2,-3 -1,-1 -1,-2 -2,-3l-1 -2c-2,-4 -5,-8 -7,-12 -8,-17 0,-23 10,-32 1,-2 4,-4 6,-6 0,-1 1,-2 2,-2 4,-4 10,-10 11,-13 1,-5 -3,-9 -7,-13l-1 -1 -7 -7c-4,-4 -9,-8 -13,-13l-2 -2c-4,-4 -12,-12 -15,-13 -2,-2 -5,-1 -6,-1 -2,1 -4,3 -7,5 -2,3 -5,6 -8,8 -4,4 -8,8 -12,12 -2,2 -4,5 -6,8 -1,3 -2,6 -3,9 -1,12 2,27 8,42 7,19 17,38 26,50l16 23c4,5 8,9 12,14 2,2 4,4 6,6 2,2 5,5 7,7 2,2 5,4 7,7zm35 31l-37 -29 0 0c-2,-3 -5,-5 -7,-7 -2,-2 -5,-5 -7,-7 -2,-2 -4,-4 -6,-6 -4,-5 -8,-10 -12,-15 -5,-5 -14,-17 -17,-22 -9,-13 -19,-32 -26,-51 -5,-15 -9,-31 -7,-43 0,-4 1,-7 3,-10 1,-4 4,-6 6,-9 5,-4 8,-8 12,-12 3,-2 6,-5 8,-8 3,-2 5,-4 7,-5 3,-1 6,-2 9,0l1 0c3,2 11,10 15,14l2 2c4,5 9,9 13,13l8 8c4,4 9,9 8,15 -1,4 -8,11 -12,15 -1,1 -2,1 -2,2 -2,2 -5,4 -7,6 -9,8 -15,14 -8,29 2,4 4,7 6,11l1 2c1,1 2,2 3,3 0,1 1,2 1,3l1 1 21 25 2 3c5,4 8,8 13,13 1,0 1,1 2,1 0,0 0,1 1,1l0 0 17 14c2,1 4,3 6,4 2,2 5,3 7,4 3,3 7,4 10,6l3 2c2,0 4,1 6,2 2,0 4,0 6,-1 5,-1 7,-4 10,-7 1,-1 2,-2 3,-2l2 -3c6,-6 11,-11 17,-16 2,-2 4,-3 7,-3 3,-1 5,0 7,2 2,1 4,3 6,5l1 1c3,2 5,4 7,6l5 6c5,5 10,10 15,15l5 5c2,2 4,4 5,7 1,2 1,5 0,8 -3,5 -8,10 -13,14 -1,2 -3,3 -4,4 -1,1 -2,3 -4,4 -4,5 -9,10 -14,12 -11,5 -27,4 -43,-1 -24,-8 -48,-22 -62,-31l0 0z"/>
     <path fill="#606062" fill-rule="nonzero" d="M628 179c82,0 156,33 210,87 54,54 87,129 87,211 0,82 -33,157 -87,211 -54,53 -128,87 -210,87 -23,0 -44,-3 -65,-7 -20,-5 -39,-11 -58,-19l-146 41 -18 5 3 -18 23 -155c-12,-21 -21,-44 -27,-68 -7,-25 -10,-51 -10,-77 0,-82 33,-157 87,-211 54,-54 128,-87 211,-87zm193 104c-49,-50 -118,-80 -193,-80 -76,0 -145,30 -194,80 -50,50 -81,118 -81,194 0,24 4,48 10,71 6,23 15,45 27,66l2 3 -1 4 -21 141 133 -37 4 -2 4 2c18,9 37,15 57,19 19,5 39,7 60,7 75,0 144,-31 193,-80 50,-50 81,-118 81,-194 0,-76 -31,-144 -81,-194z"/>
    </g>
    <path fill="#606062" d="M235 1068l13 0 29 -102 1 0 29 102 13 0 0 0 33 -115 -11 0 -28 102 -1 0 -29 -102 -13 0 -29 102 -1 0 -28 -102 -11 0 33 115zm135 0l10 0 0 -54 65 0 0 54 10 0 0 -115 -10 0 0 51 -65 0 0 -51 -10 0 0 115zm113 0l13 -30 61 0 12 30 12 0 -48 -115 -11 0 -50 115 11 0zm44 -103l26 63 -53 0 27 -63zm57 -2l39 0 0 105 11 0 0 -105 39 0 0 -10 -89 0 0 10zm139 -13c-21,0 -36,13 -36,32 0,16 8,26 25,31 23,8 34,11 34,26 0,13 -11,22 -26,22 -11,0 -20,-4 -26,-14l-10 7c9,12 22,17 37,17 21,0 36,-14 36,-32 0,-23 -16,-28 -36,-34 -17,-5 -24,-11 -24,-23 0,-13 11,-22 26,-22 10,0 17,4 23,12l9 -7c-8,-10 -19,-15 -32,-15zm54 118l13 -30 61 0 12 30 12 0 -48 -115 -11 0 -50 115 11 0zm44 -103l26 63 -53 0 27 -63zm82 103l0 -54 25 0c19,0 34,-11 34,-30 0,-20 -14,-31 -37,-31l-33 0 0 115 11 0zm0 -105l24 0c13,0 24,7 24,21 0,13 -10,20 -24,20l-24 0 0 -41zm93 105l0 -54 25 0c19,0 34,-11 34,-30 0,-20 -14,-31 -37,-31l-33 0 0 115 11 0zm0 -105l24 0c13,0 24,7 24,21 0,13 -10,20 -24,20l-24 0 0 -41z"/>
    <path fill="#606062" fill-rule="nonzero" d="M239 1063l6 0 0 -3 -3 0 -1 0 -3 0 1 3zm9 10l-13 0 -4 0 -1 -3 -33 -115 -2 -7 7 0 11 0 4 0 1 4 24 85 24 -85 1 -4 4 0 13 0 4 0 1 4 24 85 24 -85 1 -4 4 0 11 0 7 0 -2 7 -33 114 -2 3 0 0 -1 1 -2 0 -13 0 -4 0 -1 -4 -24 -85 -25 85 -1 4 -4 0zm26 -112l3 0 1 0 3 0 0 -3 -6 0 -1 3zm36 99l0 3 6 0 1 -3 -3 0 -1 0 -3 0zm24 -58l12 -44 0 0 -12 44zm-112 2l-13 -46 0 0 13 46zm153 59l0 0 0 -49 0 -5 0 0 0 -5 0 -46 0 0 0 105zm5 10l-10 0 -5 0 0 -5 0 -115 0 -5 5 0 10 0 5 0 0 5 0 46 55 0 0 -46 0 -5 5 0 10 0 5 0 0 5 0 115 0 5 -5 0 -10 0 -5 0 0 -5 0 -49 -55 0 0 49 0 5 -5 0zm70 -64l0 0 0 5 0 49 0 0 0 -105 0 0 0 46 0 5zm30 54l5 -12 -5 12 0 0zm19 -20l-11 27 -2 3 -3 0 -11 0 -8 0 3 -7 50 -115 2 -3 3 0 11 0 3 0 2 3 48 115 3 7 -8 0 -12 0 -3 0 -1 -3 -12 -27 -54 0zm61 -10l1 3 12 27 1 0 -41 -95 25 58 2 7 0 0zm-15 -10l-18 -45 -19 45 37 0zm73 -55l-34 0 -5 0 0 -5 0 -10 0 -5 5 0 89 0 5 0 0 5 0 10 0 5 -5 0 -34 0 0 100 0 5 -5 0 -11 0 -5 0 0 -5 0 -100zm10 -10l0 5 0 100 1 0 0 -100 0 -5 -1 0zm73 4c0,0 0,1 -1,1 -5,5 -8,11 -8,19 0,7 1,12 5,16 3,5 9,8 17,10l2 1c24,8 35,12 35,30 0,8 -3,15 -9,20 -2,2 -5,3 -8,5 4,-2 7,-4 9,-6 5,-5 8,-11 8,-19 0,-10 -3,-15 -8,-19 -5,-4 -14,-7 -23,-10l0 0c-10,-3 -16,-6 -21,-10 -5,-5 -7,-11 -7,-18 0,-8 4,-15 9,-20l0 0zm-7 -7c7,-6 18,-10 29,-10 7,0 14,2 20,4 6,3 11,7 16,13l3 4 -4 3 -10 7 -4 3 -3 -5c-2,-3 -4,-5 -7,-7 -3,-1 -7,-2 -11,-2 -6,0 -12,2 -15,5 -4,3 -6,7 -6,12 0,4 2,8 4,10 3,4 9,6 17,9l0 0c10,3 19,5 26,11 8,5 13,14 13,27 0,11 -5,20 -12,27 -7,6 -17,10 -29,10 -8,0 -16,-1 -23,-4 -7,-3 -13,-8 -18,-15l-4 -5 5 -3 10 -6 4 -3 3 4c3,4 6,7 9,9 4,2 8,3 13,3 6,0 12,-2 15,-5 4,-3 6,-7 6,-12 0,-11 -9,-14 -28,-20l-2 -1c-10,-3 -17,-7 -22,-13 -5,-6 -7,-14 -7,-23 0,-11 4,-20 12,-27zm13 109c-2,0 -3,-1 -5,-2 -3,-2 -7,-5 -9,-8l-2 1c3,3 7,6 11,7 2,1 3,2 5,2zm28 -107c1,0 2,1 3,2 3,1 6,3 8,6l1 -1c-2,-2 -5,-4 -8,-6 -2,0 -3,-1 -4,-1zm39 106l5 -12 -5 12 0 0zm19 -20l-11 27 -2 3 -3 0 -11 0 -8 0 3 -7 50 -115 2 -3 3 0 11 0 3 0 2 3 48 115 3 7 -8 0 -12 0 -3 0 -1 -3 -12 -27 -54 0zm61 -10l2 3 11 27 1 0 -40 -95 24 58 3 7 -1 0zm-15 -10l-18 -45 -19 45 37 0zm58 40l0 -49 0 -5 0 0 0 -5 0 -41 0 -5 0 0 0 105 0 0zm11 -44l0 49 0 5 -5 0 -11 0 -5 0 0 -5 0 -115 0 -5 5 0 33 0c12,0 23,3 30,9 8,7 12,15 12,27 0,10 -4,19 -11,25 -7,6 -17,10 -28,10l-20 0zm36 -14c2,-1 4,-2 5,-3 5,-5 8,-11 8,-18 0,-8 -3,-15 -8,-19 -2,-1 -3,-2 -5,-3 1,1 3,2 4,3 5,4 8,11 8,19 0,8 -3,14 -8,18l0 0c-1,1 -2,2 -4,3zm-17 -37l-19 0 0 31 19 0c6,0 11,-2 15,-4l0 0c2,-3 4,-6 4,-11 0,-5 -2,-9 -5,-11 -3,-3 -8,-5 -14,-5zm64 95l0 -49 0 -5 0 0 0 -5 0 -41 0 -5 -1 0 0 105 1 0zm10 -44l0 49 0 5 -5 0 -11 0 -5 0 0 -5 0 -115 0 -5 5 0 33 0c12,0 23,3 30,9 8,7 12,15 12,27 0,10 -4,19 -11,25 -7,6 -17,10 -28,10l-20 0zm36 -14c2,-1 4,-2 5,-3 5,-5 8,-11 8,-18 0,-8 -3,-15 -8,-19 -2,-1 -3,-2 -5,-3 1,1 3,2 4,3 5,4 8,11 8,19 0,8 -3,14 -8,18l0 0c-1,1 -2,2 -4,3zm-17 -37l-19 0 0 31 19 0c6,0 11,-2 15,-4l0 0c2,-3 4,-6 4,-11 0,-5 -2,-9 -5,-11 -3,-3 -8,-5 -14,-5z"/>
   </g>
  </g>
 </g>
</svg>
