<?xml version="1.0" encoding="UTF-8"?>
<!DOCTYPE svg PUBLIC "-//W3C//DTD SVG 1.1//EN" "http://www.w3.org/Graphics/SVG/1.1/DTD/svg11.dtd">
<!-- Creator: CorelDRAW X7 -->
<svg xmlns="http://www.w3.org/2000/svg" xml:space="preserve" width="2.35246in" height="2.35246in" version="1.1" shape-rendering="geometricPrecision" text-rendering="geometricPrecision" image-rendering="optimizeQuality" fill-rule="evenodd" clip-rule="evenodd"
viewBox="0 0 2356 2356"
 xmlns:xlink="http://www.w3.org/1999/xlink">
 <g id="Layer_x0020_1">
  <metadata id="CorelCorpID_0Corel-Layer"/>
  <g id="_2224777707952">
   <polygon fill="#FEFEFE" points="0,0 2356,0 2356,2356 0,2356 "/>
   <g>
    <path fill="#606062" d="M1123 737c5,-28 -14,-43 -24,-54 -14,-14 -27,-26 -40,-40 -10,-10 -30,-32 -43,-38 -26,-11 -45,3 -57,16 -14,13 -26,26 -41,39 -11,11 -24,28 -27,53 -6,63 37,155 73,207l34 46c15,20 21,24 37,42 11,13 25,24 30,30l78 62c54,37 170,98 237,67 18,-8 31,-26 43,-37 11,-12 30,-26 38,-42 10,-23 1,-42 -14,-57 -12,-12 -68,-70 -81,-80 -19,-14 -42,-11 -58,3 -14,12 -28,27 -40,40 -13,12 -13,17 -23,11 -9,-4 -18,-8 -26,-13 -9,-5 -17,-10 -25,-16l-33 -27c-2,-2 -3,-3 -5,-5 -17,-15 -17,-16 -30,-30l-41 -49c-2,-4 -5,-8 -8,-12 -5,-9 -9,-16 -14,-26 -9,-19 -4,-15 25,-45 10,-9 31,-27 35,-45zm-40 283l76 59c46,32 155,90 210,65 14,-6 26,-22 36,-32 9,-9 27,-24 32,-35 6,-12 0,-20 -8,-28 -14,-14 -27,-27 -40,-40 -8,-8 -16,-16 -24,-24 -4,-4 -10,-10 -14,-13 -9,-7 -19,-5 -27,2 -13,11 -26,25 -38,38 -8,8 -14,17 -27,20 -9,2 -18,0 -26,-4 -9,-5 -19,-9 -28,-14 -9,-6 -18,-12 -26,-18l-35 -27 0 -1c-2,-2 -3,-4 -5,-5 -12,-10 -21,-20 -32,-31l0 -1 -43 -51 0 -2c-3,-4 -6,-8 -9,-13 -5,-8 -10,-17 -15,-26 -19,-39 6,-50 30,-75 7,-7 26,-23 28,-32 3,-14 -9,-23 -17,-31 -14,-14 -28,-27 -41,-40 -7,-7 -26,-29 -34,-32 -13,-6 -20,1 -29,10 -14,13 -27,27 -41,40 -11,10 -18,22 -19,37 -6,57 36,143 68,189l33 45c12,15 24,28 36,42 9,10 20,18 29,28z"/>
    <path fill="#606062" fill-rule="nonzero" d="M1120 736c5,-23 -10,-38 -21,-48l-16 -16c-9,-9 -18,-18 -27,-27l-3 -4c-10,-10 -27,-28 -38,-33 -12,-5 -23,-5 -32,-1 -9,3 -16,10 -22,16 -5,5 -11,10 -16,16 -8,8 -16,16 -25,23 -5,6 -11,12 -16,21 -5,8 -8,18 -10,30 -3,28 4,61 16,94 14,42 36,82 56,111l34 46c10,13 17,20 24,28 4,4 8,8 13,15 7,7 14,13 20,19 4,4 8,7 10,10l78 61c32,22 85,52 136,67 36,10 71,13 98,0 13,-6 24,-17 33,-27 3,-4 6,-7 9,-9 2,-3 5,-6 9,-9 10,-9 22,-20 28,-33 5,-10 5,-20 3,-29 -3,-9 -9,-17 -16,-24l-6 -6c-18,-18 -64,-65 -75,-73 -8,-7 -18,-9 -27,-9 -10,1 -19,5 -27,11 -12,11 -24,23 -35,35l-5 5c-2,2 -4,4 -6,6 -8,9 -10,11 -21,6l-6 -3c-6,-3 -13,-7 -20,-11 -4,-2 -8,-5 -12,-8 -4,-2 -8,-5 -12,-8 -9,-9 -24,-18 -34,-27 -1,-1 -2,-1 -3,-2 0,-1 -1,-2 -2,-3 -12,-10 -16,-14 -22,-21 -2,-2 -5,-5 -8,-9 -13,-14 -30,-35 -41,-50 -1,-1 -3,-3 -4,-5 -1,-2 -3,-4 -4,-7l-3 -5c-4,-6 -8,-12 -12,-20 -8,-17 -6,-18 9,-33 5,-4 10,-9 17,-16 2,-1 4,-3 6,-5 10,-10 25,-24 28,-39zm-17 -53c12,12 28,28 23,54 -3,17 -19,32 -30,42 -2,2 -4,3 -5,5 -7,7 -13,12 -18,17 -12,11 -14,12 -7,25 4,8 7,14 11,20l3 5c1,3 3,5 4,7 1,1 2,3 4,5l40 49c4,4 6,7 9,9 5,7 9,10 21,21 1,1 2,2 3,3 0,0 1,1 2,2l33 26c4,3 8,6 12,9 4,2 8,5 12,7 6,4 13,7 20,11l6 3c6,3 8,1 14,-5 1,-2 3,-4 5,-6l5 -5c12,-12 24,-25 36,-35 9,-8 20,-12 31,-13 10,0 21,3 31,10 11,9 57,55 75,74l6 6c8,8 14,17 17,27 3,10 3,21 -3,33 -6,13 -19,25 -29,35 -4,3 -7,5 -9,8 -3,3 -6,6 -8,9 -10,10 -21,22 -36,29 -28,13 -64,10 -101,-1 -53,-15 -106,-45 -138,-67l-79 -61 0 -1c-2,-2 -6,-6 -10,-10 -6,-5 -14,-12 -20,-20 -5,-5 -9,-10 -13,-14 -8,-8 -14,-15 -24,-28 -12,-14 -24,-32 -34,-47 -21,-29 -43,-70 -58,-112 -12,-33 -19,-68 -16,-96 2,-13 6,-24 11,-33 5,-9 11,-16 17,-22 9,-8 17,-16 25,-24 5,-5 10,-10 16,-16 6,-6 14,-13 24,-17 10,-4 22,-5 36,2 12,5 30,23 40,34l4 4c9,9 18,18 26,27l16 15zm-18 334l75 60c28,18 77,47 124,61 32,10 62,13 84,3 9,-4 18,-14 26,-23 3,-3 6,-6 9,-8 2,-3 5,-5 8,-8 9,-8 20,-18 24,-27 2,-5 2,-9 0,-12 -1,-4 -5,-8 -9,-12l-10 -11c-10,-10 -19,-20 -29,-29l-12 -12c-4,-4 -8,-8 -12,-12l-3 -3c-3,-3 -7,-7 -11,-10 -4,-3 -7,-4 -11,-3 -4,0 -8,2 -12,5 -11,10 -22,21 -32,32l-6 6c-2,1 -3,3 -4,4 -7,8 -13,14 -24,17 -5,1 -10,1 -15,0 -4,0 -9,-2 -13,-4l-6 -3c-8,-4 -15,-8 -22,-12 -5,-3 -9,-6 -14,-8 -4,-3 -9,-7 -13,-10 -9,-9 -25,-18 -35,-28 -1,-1 -2,-2 -3,-2 0,-1 -1,-2 -2,-3 -10,-9 -18,-17 -27,-26 -15,-16 -39,-43 -49,-59 -1,-2 -2,-4 -4,-6 -1,-2 -3,-4 -4,-7l-3 -4c-4,-7 -8,-15 -12,-23 -17,-34 -2,-48 18,-66 4,-4 8,-8 12,-12 1,-1 3,-3 5,-5 8,-7 21,-19 22,-26 2,-10 -6,-18 -13,-25l-4 -3 -13 -13c-9,-9 -18,-18 -27,-27l-3 -4c-8,-8 -24,-25 -30,-28 -6,-2 -10,-2 -14,0 -4,2 -8,6 -12,10 -6,5 -11,11 -17,16 -8,8 -16,16 -24,24 -5,5 -10,10 -13,16 -3,6 -5,12 -5,19 -3,24 4,55 14,85 14,38 35,77 53,102l33 45c8,10 17,20 25,29 4,4 7,8 11,13 5,5 10,10 15,14 5,5 9,9 14,13zm72 65l-76 -60 0 0c-5,-5 -9,-9 -14,-13 -5,-5 -10,-10 -15,-15 -3,-4 -7,-9 -11,-13 -9,-9 -17,-19 -25,-29 -9,-11 -27,-35 -34,-46 -18,-25 -39,-64 -53,-103 -11,-31 -18,-62 -15,-88 1,-7 3,-14 6,-21 3,-6 8,-12 14,-17 8,-8 16,-16 24,-24 6,-5 11,-11 17,-16 4,-5 8,-9 14,-11 5,-3 11,-3 18,0l0 0c8,3 24,20 32,29l3 4c9,9 18,18 28,27l16 16c8,8 17,17 15,30 -2,9 -15,21 -24,30 -2,1 -3,3 -5,4 -4,4 -8,8 -12,12 -18,17 -32,29 -17,59 4,8 8,16 12,23l3 4c1,2 3,5 4,7 1,2 3,4 4,6l1 1 42 51 5 6c9,9 17,17 27,26 1,1 2,2 3,3 0,0 1,1 2,2l0 0 35 27c4,4 8,7 13,10 4,3 8,5 13,8 7,4 14,8 21,11l6 4c4,1 8,3 12,4 4,0 8,0 13,-1 9,-2 14,-8 20,-15 2,-1 3,-3 5,-4l6 -6c10,-12 21,-23 33,-33 4,-4 9,-6 15,-6 5,-1 10,1 14,4 4,3 9,8 12,11l3 3c4,4 8,8 12,12l12 12c10,9 19,19 29,29l11 11c4,4 8,8 10,13 2,6 2,11 -1,18 -4,9 -16,20 -25,28 -3,3 -6,6 -8,8 -3,2 -5,5 -8,8 -9,10 -18,20 -28,25 -24,10 -56,7 -89,-3 -48,-15 -98,-44 -125,-62l0 0z"/>
    <path fill="#606062" fill-rule="nonzero" d="M1178 266c167,0 319,68 428,178 110,109 177,261 177,428 0,167 -67,318 -177,428 -109,109 -261,177 -428,177 -45,0 -89,-5 -132,-14 -40,-9 -79,-22 -116,-39l-298 85 -36 10 6 -37 47 -316c-24,-43 -43,-89 -56,-138 -13,-50 -21,-102 -21,-156 0,-167 68,-319 178,-428 109,-110 261,-178 428,-178zm394 212c-101,-101 -240,-163 -394,-163 -154,0 -293,62 -394,163 -101,101 -163,240 -163,394 0,50 6,98 19,144 12,47 31,92 55,134l4 7 -1 8 -43 287 270 -77 8 -2 9 3c36,18 75,31 115,40 38,8 79,13 121,13 154,0 293,-63 394,-163 101,-101 163,-240 163,-394 0,-154 -62,-293 -163,-394z"/>
    <path fill="#606062" d="M407 2084l-26 0 -8 0 -2 -8 -68 -233 -4 -13 14 0 22 0 8 0 2 7 48 173 50 -173 2 -7 8 0 27 0 8 0 2 7 50 173 48 -173 2 -7 8 0 22 0 14 0 -4 13 -68 233 -2 4 -1 1 -3 3 -4 0 -26 0 -8 0 -2 -8 -49 -174 -50 174 -2 8 -8 0zm269 0l-22 0 -10 0 0 -11 0 -233 0 -10 10 0 22 0 10 0 0 10 0 93 110 0 0 -93 0 -10 10 0 22 0 10 0 0 10 0 233 0 11 -10 0 -22 0 -10 0 0 -11 0 -100 -110 0 0 100 0 11 -10 0zm241 -62l-23 55 -3 7 -7 0 -23 0 -15 0 6 -15 102 -233 3 -6 6 0 23 0 6 0 3 6 98 233 6 15 -15 0 -25 0 -6 0 -3 -7 -23 -55 -110 0zm94 -41l-38 -90 -38 90 76 0zm148 -111l-70 0 -10 0 0 -10 0 -20 0 -10 10 0 182 0 10 0 0 10 0 20 0 10 -10 0 -70 0 0 203 0 11 -10 0 -22 0 -10 0 0 -11 0 -203zm153 -26c16,-13 37,-20 61,-20 14,0 27,2 39,8 12,5 23,13 33,25l6 9 -8 6 -19 13 -9 6 -6 -8c-4,-6 -9,-11 -15,-14 -6,-3 -13,-5 -22,-5 -13,0 -24,4 -31,10 -7,6 -11,14 -11,24 0,9 3,16 8,22 7,6 17,11 34,16l0 0c21,7 40,12 54,23 15,12 24,28 24,55 0,22 -8,41 -23,54 -15,14 -36,22 -59,22 -17,0 -33,-3 -47,-9 -15,-7 -27,-17 -37,-31l-7 -9 9 -5 21 -14 9 -6 6 9c4,8 11,14 18,18 7,4 16,6 26,6 13,0 24,-3 31,-10 7,-6 11,-15 11,-25 0,-22 -18,-28 -56,-41l-5 -1c-20,-7 -34,-16 -44,-27 -10,-13 -15,-28 -15,-47 0,-22 9,-40 24,-54zm203 178l-24 55 -2 7 -7 0 -23 0 -15 0 6 -15 102 -233 2 -6 7 0 22 0 7 0 3 6 98 233 6 15 -15 0 -25 0 -7 0 -2 -7 -23 -55 -110 0zm94 -41l-38 -90 -39 90 77 0zm138 -8l0 100 0 11 -10 0 -22 0 -10 0 0 -11 0 -233 0 -10 10 0 67 0c26,0 47,6 62,19 15,12 24,30 24,53 0,22 -9,39 -22,52 -15,12 -35,19 -57,19l-42 0zm39 -103l-39 0 0 63 40 0c12,0 23,-3 29,-9l0 0c6,-5 9,-12 9,-22 0,-10 -3,-17 -9,-23 -7,-6 -18,-9 -30,-9zm150 103l0 100 0 11 -10 0 -22 0 -10 0 0 -11 0 -233 0 -10 10 0 67 0c26,0 47,6 62,19 15,12 24,30 24,53 0,22 -9,39 -22,52 -15,12 -35,19 -57,19l-42 0zm39 -103l-39 0 0 63 40 0c12,0 23,-3 29,-9l0 0c6,-5 10,-12 10,-22 0,-10 -4,-17 -10,-23 -7,-6 -18,-9 -30,-9z"/>
   </g>
  </g>
 </g>
</svg>
