<?xml version="1.0" encoding="UTF-8"?>
<!DOCTYPE svg PUBLIC "-//W3C//DTD SVG 1.1//EN" "http://www.w3.org/Graphics/SVG/1.1/DTD/svg11.dtd">
<!-- Creator: CorelDRAW X7 -->
<svg xmlns="http://www.w3.org/2000/svg" xml:space="preserve" width="3.38747in" height="2.87971in" version="1.1" shape-rendering="geometricPrecision" text-rendering="geometricPrecision" image-rendering="optimizeQuality" fill-rule="evenodd" clip-rule="evenodd"
viewBox="0 0 3387 2880"
 xmlns:xlink="http://www.w3.org/1999/xlink">
 <g id="Layer_x0020_1">
  <metadata id="CorelCorpID_0Corel-Layer"/>
  <g id="_2222840445248">
   <polygon fill="#FEFEFE" points="0,0 3387,0 3387,2880 0,2880 "/>
   <polygon fill="none" points="0,2109 3387,2109 3387,2880 0,2880 "/>
   <text x="673" y="2614"  fill="#606062" stroke="#606062" stroke-width="13.8898" font-weight="300" font-size="340.032px" font-family="Avenir Light">W</text>
   <text x="1029" y="2614"  fill="#606062" stroke="#606062" stroke-width="13.8898" font-weight="300" font-size="340.032px" font-family="Avenir Light">H</text>
   <text x="1310" y="2614"  fill="#606062" stroke="#606062" stroke-width="13.8898" font-weight="300" font-size="340.032px" font-family="Avenir Light">A</text>
   <text x="1579" y="2614"  fill="#606062" stroke="#606062" stroke-width="13.8898" font-weight="300" font-size="340.032px" font-family="Avenir Light">T</text>
   <text x="1809" y="2614"  fill="#606062" stroke="#606062" stroke-width="13.8898" font-weight="300" font-size="340.032px" font-family="Avenir Light">S</text>
   <text x="2034" y="2614"  fill="#606062" stroke="#606062" stroke-width="13.8898" font-weight="300" font-size="340.032px" font-family="Avenir Light">A</text>
   <text x="2302" y="2614"  fill="#606062" stroke="#606062" stroke-width="13.8898" font-weight="300" font-size="340.032px" font-family="Avenir Light">P</text>
   <text x="2533" y="2614"  fill="#606062" stroke="#606062" stroke-width="13.8898" font-weight="300" font-size="340.032px" font-family="Avenir Light">P</text>
   <g>
    <path fill="none" stroke="#606062" stroke-width="34.7205" stroke-linecap="square" d="M1394 948c-127,155 259,577 499,577 46,-7 171,-80 108,-156 -26,-26 -24,-25 -51,-52 -86,-71 -81,5 -139,41 -58,20 -173,-101 -209,-145 -26,-39 -78,-88 -37,-128 26,-18 77,-66 51,-101 -19,-25 -84,-86 -111,-107 -45,-11 -85,38 -111,71z"/>
    <path fill="none" stroke="#606062" stroke-width="34.7205" d="M1694 451c-396,0 -716,321 -716,716 0,162 53,310 143,430l-124 352 404 -128c89,40 189,63 293,63 395,0 716,-321 716,-717 0,-395 -321,-716 -716,-716z"/>
   </g>
  </g>
 </g>
</svg>
