<?xml version="1.0" encoding="UTF-8"?>
<!DOCTYPE svg PUBLIC "-//W3C//DTD SVG 1.1//EN" "http://www.w3.org/Graphics/SVG/1.1/DTD/svg11.dtd">
<!-- Creator: CorelDRAW X7 -->
<svg xmlns="http://www.w3.org/2000/svg" xml:space="preserve" width="3.38747in" height="3.387in" version="1.1" shape-rendering="geometricPrecision" text-rendering="geometricPrecision" image-rendering="optimizeQuality" fill-rule="evenodd" clip-rule="evenodd"
viewBox="0 0 3159 3159"
 xmlns:xlink="http://www.w3.org/1999/xlink">
 <g id="Layer_x0020_1">
  <metadata id="CorelCorpID_0Corel-Layer"/>
  <g id="_2504588682112">
   <polygon fill="#FEFEFE" points="0,0 3159,0 3159,3159 0,3159 "/>
   <path fill="#606062" fill-rule="nonzero" d="M569 2640l14 0 1 -7 -8 0 -1 0 -8 0 2 7zm23 26l-32 0 -10 0 -3 -9 -83 -285 -4 -17 17 0 27 0 10 0 3 10 59 209 59 -210 3 -9 10 0 34 0 9 0 3 9 60 210 59 -209 3 -10 9 0 28 0 17 0 -5 17 -83 284 -3 6 0 0 -4 4 -6 0 -32 0 -9 0 -3 -9 -60 -212 -60 212 -3 9 -10 0zm64 -280l8 0 1 0 9 0 -2 -5 -14 0 -2 5zm89 247l2 7 13 0 2 -7 -7 0 -1 0 -9 0zm81 -218l10 -34 -1 0 -9 34zm-321 2l-11 -36 0 0 11 36zm414 223l1 0 0 -122 0 -11 0 -2 0 -11 0 -113 -1 0 0 259zm14 26l-27 0 -13 0 0 -13 0 -285 0 -13 13 0 27 0 13 0 0 13 0 113 133 0 0 -113 0 -13 13 0 27 0 13 0 0 13 0 285 0 13 -13 0 -27 0 -13 0 0 -13 0 -122 -133 0 0 122 0 13 -13 0zm172 -161l0 2 0 11 0 122 1 0 0 -259 -1 0 0 113 0 11zm136 85l-29 68 -3 8 -9 0 -28 0 -19 0 7 -18 125 -285 3 -8 9 0 27 0 9 0 3 8 120 285 7 18 -19 0 -30 0 -8 0 -4 -8 -27 -68 -134 0zm152 -24l2 6 28 68 2 0 -60 -140 20 48 8 18 0 0zm-39 -26l-45 -110 -47 110 92 0zm194 -135l-85 0 -13 0 0 -13 0 -24 0 -13 13 0 222 0 13 0 0 13 0 24 0 13 -13 0 -85 0 0 248 0 13 -13 0 -26 0 -13 0 0 -13 0 -248zm26 -24l0 11 0 248 0 0 0 -248 0 -11 0 0zm174 -8c19,-16 45,-25 74,-25 17,0 34,3 48,9 15,7 29,17 40,32l8 10 -11 8 -22 17 -11 7 -7 -10c-6,-8 -12,-14 -20,-18l0 0c-7,-3 -15,-5 -26,-5 -15,0 -29,4 -38,12 -8,7 -13,17 -13,29 0,11 3,19 10,26 8,8 21,14 41,20l0 0c26,8 49,15 66,28 19,14 30,34 30,67 0,27 -11,51 -29,67 -18,17 -43,26 -72,26 -21,0 -40,-3 -58,-11 -17,-8 -33,-20 -45,-37l-8 -11 11 -8 25 -17 12 -7 7 12c6,10 13,17 22,22 9,5 20,7 32,7 15,0 28,-4 37,-12 9,-8 14,-18 14,-31 0,-26 -22,-34 -68,-49l-7 -2c-24,-8 -41,-19 -54,-33 -12,-15 -18,-34 -18,-57 0,-27 11,-50 30,-66zm7 31c-7,9 -11,21 -11,35 0,17 4,30 12,40 8,9 19,16 34,22 -12,-5 -21,-11 -28,-18 -12,-12 -18,-26 -18,-44 0,-14 4,-25 11,-35zm69 109c45,15 67,27 67,67 0,20 -9,38 -23,50 1,-1 2,-1 3,-2 13,-12 20,-28 20,-48 0,-23 -7,-37 -20,-47 -11,-8 -28,-14 -47,-20zm-51 127c-1,0 -2,-1 -4,-2 -9,-5 -17,-11 -24,-20l-3 2c8,8 17,14 27,19 1,0 3,1 4,1zm87 -259c7,4 14,9 19,15l2 -1c-7,-6 -13,-11 -21,-14zm149 209l-29 68 -4 8 -8 0 -28 0 -20 0 8 -18 125 -285 3 -8 9 0 27 0 8 0 4 8 120 285 7 18 -19 0 -30 0 -9 0 -3 -8 -28 -68 -133 0zm151 -24l3 6 28 68 1 0 -59 -140 20 48 8 18 -1 0zm-38 -26l-45 -110 -47 110 92 0zm157 100l0 -122 0 -11 0 -2 0 -11 0 -102 0 -11 -1 0 0 259 1 0zm26 -109l0 122 0 13 -13 0 -27 0 -13 0 0 -13 0 -285 0 -13 13 0 82 0c31,0 58,8 76,23 19,15 29,37 29,65 0,27 -10,49 -27,64 -18,15 -42,24 -70,24l-50 0zm106 -47c10,-10 15,-24 15,-41 0,-20 -7,-35 -19,-45 -1,-1 -3,-2 -4,-3 1,1 1,1 2,1 13,11 21,27 21,47 0,17 -6,31 -15,41zm-59 -79l-47 0 0 76 48 0c15,0 27,-4 36,-11 7,-6 11,-15 11,-27 0,-12 -5,-21 -12,-27 -9,-7 -21,-11 -36,-11zm170 235l0 -122 0 -11 0 -2 0 -11 0 -102 0 -11 0 0 0 259 0 0zm26 -109l0 122 0 13 -13 0 -26 0 -13 0 0 -13 0 -285 0 -13 13 0 81 0c32,0 58,8 76,23 19,15 30,37 30,65 0,27 -11,49 -28,64 -17,15 -42,24 -69,24l-51 0zm107 -47c9,-10 15,-24 15,-41 0,-20 -7,-35 -20,-45 -1,-1 -2,-2 -3,-3 0,1 1,1 1,1 13,11 21,27 21,47 0,17 -5,31 -14,41zm-59 -79l-48 0 0 76 49 0c15,0 27,-4 35,-11 7,-6 11,-15 11,-27 0,-12 -4,-21 -12,-27 -8,-7 -21,-11 -35,-11z"/>
   <path fill="#606062" d="M560 2653l32 0 72 -254 1 0 72 254 32 0 1 0 83 -285 -28 0 -70 252 -1 0 -72 -252 -34 0 -72 252 -1 0 -71 -252 -27 0 83 285zm346 0l27 0 0 -135 159 0 0 135 27 0 0 -285 -27 0 0 126 -159 0 0 -126 -27 0 0 285zm294 0l32 -76 151 0 31 76 30 0 -120 -285 -27 0 -125 285 28 0zm109 -256l65 156 -131 0 66 -156zm154 -5l98 0 0 261 26 0 0 -261 98 0 0 -24 -222 0 0 24zm359 -31c-52,0 -91,31 -91,78 0,40 20,63 63,78 57,18 84,26 84,63 0,33 -27,56 -64,56 -28,0 -51,-12 -65,-36l-26 17c22,31 55,43 93,43 51,0 88,-34 88,-80 0,-56 -37,-68 -87,-83 -44,-13 -60,-29 -60,-58 0,-33 27,-54 64,-54 25,0 42,9 56,28l23 -16c-20,-26 -47,-36 -78,-36zm146 292l32 -76 151 0 31 76 30 0 -120 -285 -27 0 -125 285 28 0zm109 -256l64 156 -130 0 66 -156zm215 256l0 -135 63 0c48,0 84,-28 84,-75 0,-48 -35,-75 -92,-75l-82 0 0 285 27 0zm0 -261l60 0c33,0 61,18 61,51 0,33 -25,51 -60,51l-61 0 0 -102zm243 261l0 -135 64 0c47,0 84,-28 84,-75 0,-48 -36,-75 -93,-75l-81 0 0 285 26 0zm0 -261l61 0c33,0 60,18 60,51 0,33 -25,51 -59,51l-62 0 0 -102z"/>
   <path fill="#606062" fill-rule="nonzero" d="M1312 1028c-13,16 -18,36 -18,59 0,48 24,107 64,166 41,61 97,121 158,171 83,68 175,115 250,116 17,-4 45,-17 68,-36 11,-8 20,-18 25,-29 6,-9 8,-18 7,-27l0 0c-2,-7 -5,-15 -11,-22 -12,-13 -18,-19 -24,-25 -5,-5 -11,-11 -23,-23 -40,-33 -50,-20 -64,-2 -11,14 -24,30 -44,42l-1 1 -3 1c-28,10 -63,-4 -97,-28 -49,-34 -99,-89 -120,-115l-1 -1 0 0c-5,-7 -9,-13 -14,-19 -29,-38 -63,-82 -19,-126l1 -1 2 -1c1,-2 3,-3 4,-4 11,-8 26,-21 34,-35l1 1c6,-11 9,-21 4,-29l0 0 0 0c-7,-10 -24,-27 -41,-44 -20,-20 -42,-39 -56,-50 -29,-4 -60,34 -81,60l-1 0zm-57 59c0,-31 8,-60 27,-83l0 0c29,-35 71,-87 125,-73l4 1 4 2c14,12 39,34 62,56 19,19 37,37 45,49 0,0 1,1 1,1l0 1c16,23 10,48 -4,70l0 0c-12,19 -30,35 -44,46 -1,1 -2,2 -4,2 -18,20 5,49 24,75 5,7 11,14 15,20 20,25 66,75 111,106 24,16 46,27 61,24 13,-9 23,-21 31,-32 29,-37 49,-62 120,-4l1 1 1 1c13,13 19,19 24,25 6,6 12,12 24,24l0 0 1 1c11,14 18,28 20,42l0 0c3,18 -2,36 -11,52 -8,15 -20,29 -34,40 -29,24 -67,41 -89,44l-1 1 -1 0c-85,0 -186,-52 -276,-125 -64,-52 -123,-116 -166,-179 -44,-66 -71,-132 -71,-188z"/>
   <path fill="#606062" fill-rule="nonzero" d="M1580 568c-181,0 -344,74 -463,192 -118,118 -191,282 -191,463 0,72 11,142 33,207 22,67 55,129 97,185l6 8 -3 10 -103 295 343 -109 7 -2 6 3c42,19 85,33 131,43 44,9 90,14 137,14 180,0 344,-73 462,-192 119,-118 192,-282 192,-462 0,-181 -73,-345 -192,-463 -118,-118 -282,-192 -462,-192zm-490 165c125,-126 298,-203 490,-203 191,0 364,77 490,203 125,125 203,298 203,490 0,191 -78,364 -203,490 -126,125 -299,203 -490,203 -50,0 -98,-6 -145,-15 -46,-10 -90,-24 -132,-43l-373 118 -37 12 13 -36 113 -322c-41,-57 -74,-120 -97,-188 -23,-69 -35,-143 -35,-219 0,-192 77,-365 203,-490z"/>
  </g>
 </g>
</svg>
