<?xml version="1.0" encoding="UTF-8"?>
<!DOCTYPE svg PUBLIC "-//W3C//DTD SVG 1.1//EN" "http://www.w3.org/Graphics/SVG/1.1/DTD/svg11.dtd">
<!-- Creator: CorelDRAW X7 -->
<svg xmlns="http://www.w3.org/2000/svg" xml:space="preserve" width="4.98168in" height="2.86832in" version="1.1" shape-rendering="geometricPrecision" text-rendering="geometricPrecision" image-rendering="optimizeQuality" fill-rule="evenodd" clip-rule="evenodd"
viewBox="0 0 5552 3196"
 xmlns:xlink="http://www.w3.org/1999/xlink">
 <g id="Layer_x0020_1">
  <metadata id="CorelCorpID_0Corel-Layer"/>
  <path fill="#312B4A" fill-rule="nonzero" d="M2155 3042l0 36 24 0c10,0 17,-2 22,-5 4,-3 6,-8 6,-13 0,-5 -2,-10 -6,-13l0 0c-5,-3 -12,-5 -22,-5l-24 0zm286 150l-108 0 -10 0 0 -11 0 -164 0 -11 10 0 104 0 11 0 0 11 0 14 0 11 -11 0 -77 0 0 36 72 0 11 0 0 11 0 14 0 11 -11 0 -72 0 0 42 81 0 11 0 0 11 0 14 0 11 -11 0zm99 -175c12,-10 28,-15 47,-15 10,0 20,1 30,5 9,4 17,11 25,19l7 10 -10 6 -13 10 -9 6 -6 -9c-3,-4 -7,-7 -11,-9l0 0c-3,-2 -8,-3 -14,-3 -9,0 -16,3 -21,7 -4,3 -6,8 -6,14 0,5 1,9 5,12 4,4 11,8 23,11l0 0c15,5 29,9 40,17 12,8 20,21 20,41 0,17 -7,31 -19,42 -11,10 -27,15 -45,15 -13,0 -25,-2 -36,-6 -11,-5 -20,-12 -28,-23l-7 -9 10 -7 15 -9 9 -6 6 9c3,5 7,9 12,12 5,2 11,4 18,4 8,0 15,-3 20,-7 4,-3 7,-9 7,-15 0,-13 -12,-16 -38,-25l-4 -1c-15,-5 -26,-11 -34,-20 -8,-9 -12,-21 -12,-35 0,-17 7,-31 19,-41zm194 -11l16 0 11 0 0 11 0 164 0 11 -11 0 -16 0 -11 0 0 -11 0 -164 0 -11 11 0zm150 150l23 0c21,0 39,-5 50,-15l0 0c11,-9 18,-23 18,-41 0,-19 -7,-33 -17,-43 -12,-10 -30,-15 -52,-15l-22 0 0 114zm-27 -150l53 0c31,0 57,9 74,25 18,17 28,41 28,69 0,22 -7,49 -29,68 -16,14 -39,24 -72,24l-54 0 -11 0 0 -11 0 -164 0 -11 11 0zm350 186l-108 0 -11 0 0 -11 0 -164 0 -11 11 0 104 0 11 0 0 11 0 14 0 11 -11 0 -77 0 0 36 72 0 11 0 0 11 0 14 0 11 -11 0 -72 0 0 42 81 0 11 0 0 11 0 14 0 11 -11 0zm124 -122l0 111 0 11 -11 0 -16 0 -11 0 0 -11 0 -164 0 -11 11 0 21 0 5 0 3 4 85 118 0 -111 0 -11 11 0 15 0 11 0 0 11 0 164 0 11 -11 0 -20 0 -6 0 -3 -4 -84 -118zm228 -41c18,-17 43,-27 71,-27 13,0 26,2 37,7 11,4 22,12 30,23l7 8 -8 7 -13 10 -9 8 -7 -10c-4,-5 -9,-10 -15,-13l0 0c-6,-3 -14,-5 -22,-5 -18,0 -33,7 -44,17 -11,11 -17,27 -17,45 0,18 6,34 17,45 11,10 26,17 44,17 8,0 17,-2 24,-6 7,-4 13,-9 17,-15l7 -10 9 7 13 10 9 6 -7 9c-9,12 -20,21 -32,27 -13,5 -26,7 -40,7 -29,0 -53,-10 -70,-27 -18,-17 -29,-42 -29,-70 0,-28 11,-53 28,-70zm334 163l-108 0 -11 0 0 -11 0 -164 0 -11 11 0 104 0 11 0 0 11 0 14 0 11 -11 0 -77 0 0 36 71 0 11 0 0 11 0 14 0 11 -11 0 -71 0 0 42 81 0 11 0 0 11 0 14 0 11 -11 0zm99 -175c12,-10 28,-15 46,-15 11,0 21,1 30,5 9,4 18,11 25,19l7 10 -9 6 -14 10 -9 6 -6 -9c-3,-4 -6,-7 -10,-9l0 0c-4,-2 -9,-3 -14,-3 -9,0 -16,3 -21,7 -4,3 -7,8 -7,14 0,5 2,9 5,12 4,4 12,8 23,11l0 0c16,5 30,9 41,17 12,8 19,21 19,41 0,17 -7,31 -19,42 -11,10 -27,15 -45,15 -12,0 -24,-2 -35,-6 -11,-5 -21,-12 -29,-23l-7 -9 10 -7 15 -9 10 -6 6 9c3,5 7,9 12,12 5,2 10,4 17,4 9,0 16,-3 21,-7 4,-3 6,-9 6,-15 0,-13 -12,-16 -38,-25l-4 -1c-15,-5 -26,-11 -33,-20 -8,-9 -12,-21 -12,-35 0,-17 7,-31 19,-41zm281 137c5,4 12,7 20,7 6,0 11,-2 16,-5 4,-2 7,-5 10,-9l-34 -35c-6,4 -10,8 -14,12l0 0c-3,4 -5,8 -5,13 0,7 2,13 7,17zm13 -97c2,3 4,7 8,11 4,-2 9,-5 12,-8 3,-3 6,-7 6,-11 0,-4 -2,-6 -4,-8 -2,-2 -5,-4 -10,-4 -4,0 -8,2 -10,4l0 0c-3,3 -4,5 -4,9 0,1 0,4 2,7zm49 -42c9,8 14,19 14,32 0,14 -4,24 -13,33 -5,5 -11,10 -18,14l21 22 18 -31 3 -5 6 0 17 0 19 0 -10 16 -27 46 33 33 18 18 -26 0 -21 0 -5 0 -3 -3 -17 -18c-6,7 -13,12 -20,16l0 0c-10,6 -21,8 -33,8 -18,0 -34,-6 -45,-16l0 0c-11,-11 -18,-25 -18,-42 0,-11 2,-21 10,-31l0 0c5,-7 12,-13 23,-21 -8,-11 -15,-21 -15,-36 0,-14 6,-26 16,-35 10,-8 23,-13 38,-13 13,0 26,5 35,13l0 0zm223 177l-16 0 -11 0 0 -11 0 -164 0 -11 11 0 16 0 11 0 0 11 0 61 73 0 0 -61 0 -11 11 0 16 0 11 0 0 11 0 164 0 11 -11 0 -16 0 -11 0 0 -11 0 -67 -73 0 0 67 0 11 -11 0zm252 -138c-10,11 -17,27 -17,45 0,18 7,34 18,45 10,10 25,17 44,17 18,0 33,-7 44,-17 11,-11 17,-27 17,-45 0,-18 -6,-34 -17,-45 -11,-10 -26,-17 -45,-17 -18,0 -33,7 -44,17zm-26 -25c17,-17 42,-27 71,-27 29,0 53,10 70,27 18,17 28,42 28,70 0,28 -10,53 -28,70 -17,17 -42,27 -70,27 -29,0 -54,-10 -71,-27 -18,-17 -28,-42 -28,-70 0,-28 10,-53 28,-70zm283 13l-47 0 -11 0 0 -11 0 -14 0 -11 11 0 132 0 11 0 0 11 0 14 0 11 -11 0 -47 0 0 139 0 11 -11 0 -16 0 -11 0 0 -11 0 -139zm282 150l-108 0 -11 0 0 -11 0 -164 0 -11 11 0 104 0 11 0 0 11 0 14 0 11 -11 0 -78 0 0 36 72 0 11 0 0 11 0 14 0 11 -11 0 -72 0 0 42 82 0 10 0 0 11 0 14 0 11 -10 0zm97 -186l15 0 11 0 0 11 0 139 69 0 11 0 0 11 0 14 0 11 -11 0 -95 0 -11 0 0 -11 0 -164 0 -11 11 0zm-5374 -574c46,-45 110,-72 185,-72 36,0 69,6 99,20 28,12 53,31 74,57l7 8 -8 7 -37 30 -9 7 -6 -10c-13,-18 -30,-32 -50,-42 -21,-10 -44,-16 -70,-16 -57,0 -104,20 -137,54 -34,34 -54,83 -54,139 0,56 20,105 54,139 33,33 80,53 137,53 26,0 53,-6 77,-18 23,-12 42,-28 55,-48l6 -10 10 7 36 27 9 6 -7 9c-24,32 -52,54 -83,68 -32,14 -66,20 -103,20 -75,0 -139,-26 -184,-71 -46,-45 -73,-109 -73,-182 0,-74 27,-137 72,-182zm878 240l-92 -214 -94 214 186 0zm-213 61l-51 116 -3 7 -7 0 -47 0 -17 0 7 -16 209 -461 3 -7 7 0 45 0 7 0 3 7 201 461 7 16 -17 0 -50 0 -7 0 -3 -7 -49 -116 -238 0zm646 -261l0 373 0 11 -11 0 -44 0 -11 0 0 -11 0 -462 0 -11 11 0 57 0 6 0 3 5 272 378 0 -372 0 -11 11 0 44 0 11 0 0 11 0 462 0 11 -11 0 -57 0 -5 0 -4 -5 -272 -379zm903 200l-92 -214 -94 214 186 0zm-213 61l-51 116 -3 7 -7 0 -47 0 -17 0 7 -16 209 -461 2 -7 7 0 46 0 7 0 3 7 201 461 7 16 -17 0 -50 0 -7 0 -3 -7 -49 -116 -238 0zm591 -361l44 0 11 0 0 11 0 412 212 0 11 0 0 11 0 39 0 11 -11 0 -267 0 -11 0 0 -11 0 -462 0 -11 11 0zm727 484l-45 0 -11 0 0 -11 0 -462 0 -11 11 0 67 0 7 0 3 7 164 365 164 -365 3 -7 7 0 63 0 11 0 0 11 0 462 0 11 -11 0 -44 0 -11 0 0 -11 0 -359 -163 363 -3 7 -7 0 -19 0 -7 0 -3 -7 -165 -364 0 360 0 11 -11 0zm993 -184l-92 -214 -94 214 186 0zm-213 61l-51 116 -3 7 -7 0 -47 0 -17 0 7 -16 208 -461 3 -7 7 0 46 0 7 0 3 7 201 461 7 16 -17 0 -50 0 -7 0 -3 -7 -49 -116 -238 0zm591 -361l44 0 11 0 0 11 0 412 212 0 11 0 0 11 0 39 0 11 -11 0 -267 0 -11 0 0 -11 0 -462 0 -11 11 0zm512 0l44 0 11 0 0 11 0 412 212 0 11 0 0 11 0 39 0 11 -11 0 -267 0 -11 0 0 -11 0 -462 0 -11 11 0zm-3119 742l0 67 0 11 -11 0 -15 0 -11 0 0 -11 0 -164 0 -11 11 0 45 0c22,0 39,4 51,13 13,9 20,23 20,41 0,15 -5,27 -15,37 -5,5 -13,10 -22,13l41 66 10 16 -19 0 -18 0 -6 0 -4 -5 -44 -73 -13 0z"/>
  <path fill="#373435" fill-rule="nonzero" d="M3276 719c-2,-2 -4,-4 -6,-7 -3,-2 -5,-5 -7,-7 -2,-2 -5,-5 -8,-8 -23,-23 -48,-43 -74,-61 -27,-18 -55,-33 -85,-45 -29,-12 -60,-22 -92,-28 -31,-6 -63,-10 -96,-10 -32,0 -65,4 -95,10 -32,6 -63,16 -92,28 -30,12 -58,27 -85,45 -27,18 -52,38 -74,61 -23,23 -44,48 -62,75 -17,26 -33,55 -45,84 -12,30 -21,60 -28,92 -6,31 -9,63 -9,96 0,33 3,65 9,96 7,32 16,62 28,92 12,29 28,58 45,84 18,27 39,52 62,75 22,23 47,43 74,61 27,18 55,33 85,45 29,12 60,22 92,28 30,6 63,10 95,10 33,0 65,-4 96,-10 32,-6 63,-16 92,-28 30,-12 58,-27 85,-45 26,-18 51,-38 74,-61 5,-4 8,-9 12,-12 4,-5 8,-9 11,-13l0 0c4,-5 8,-9 11,-13 4,-4 7,-8 11,-13l1 -2 8 -10 9 9 0 0 0 0 8 8 1 1 100 103 0 0 9 8 1 2 19 19 0 0 1 1 7 7 -7 8 -1 1c-3,5 -7,9 -11,13 -4,5 -8,9 -11,13l0 0c-4,5 -8,9 -12,12 -4,5 -8,9 -12,13 -33,33 -69,62 -108,88 -38,26 -79,48 -122,66 -43,17 -87,31 -133,40 -45,9 -91,14 -139,14 -47,0 -93,-5 -138,-14 -46,-9 -91,-23 -133,-40 -43,-18 -84,-40 -123,-66 -39,-26 -75,-55 -107,-88 -33,-33 -63,-69 -89,-108 -26,-38 -48,-79 -66,-123 -17,-42 -31,-86 -40,-132 -9,-45 -13,-92 -13,-139 0,-47 4,-94 13,-139 9,-46 23,-90 40,-132 18,-44 40,-85 66,-123 26,-39 56,-75 89,-108 32,-33 68,-62 107,-88 39,-26 80,-48 123,-66 42,-17 87,-31 133,-40 45,-9 91,-14 138,-14 48,0 94,5 139,14 46,9 90,23 133,40 43,18 84,40 122,66 39,26 75,55 108,88 2,2 4,4 8,8 2,2 5,5 7,7l5 6 81 -83c-2,-2 -4,-4 -6,-6 -4,-4 -8,-8 -13,-13 -39,-39 -81,-73 -126,-103 -44,-30 -92,-56 -142,-76 -49,-21 -101,-37 -154,-47 -53,-10 -106,-16 -162,-16 -55,0 -109,6 -161,16 -53,10 -105,26 -154,47 -50,20 -98,46 -143,76 -45,30 -87,64 -125,103 -38,38 -73,80 -103,125 -30,45 -55,92 -76,143 -20,49 -36,100 -47,154 -10,52 -15,106 -15,161 0,55 5,109 15,161 11,54 27,105 47,154 21,51 46,98 76,143 30,45 65,87 103,125 38,39 80,73 125,103 45,30 93,56 143,76 49,21 101,37 154,47 52,10 106,16 161,16 56,0 109,-6 162,-16 53,-10 105,-26 154,-47 50,-20 98,-46 142,-76 45,-30 87,-64 126,-103l0 0c3,-4 7,-7 11,-11 3,-3 6,-6 9,-9l2 -3c4,-4 7,-8 11,-12l0 0c3,-4 7,-8 11,-13l0 0 1 -1 8 -9 9 8 1 2 3 3 0 0 8 8 1 1 124 126 2 1 7 8 -8 8 -1 1 -2 2c-2,3 -6,7 -10,12 -5,4 -8,8 -11,11 -3,4 -7,7 -11,11 -4,5 -8,9 -10,11 -189,189 -450,306 -739,306 -69,0 -138,-7 -203,-20 -68,-13 -133,-33 -196,-59 -63,-26 -124,-59 -180,-97 -57,-38 -111,-82 -159,-130 -189,-189 -306,-450 -306,-738 0,-70 7,-138 20,-204 14,-67 34,-133 59,-195 27,-64 59,-124 97,-181 38,-57 82,-110 130,-158 189,-189 450,-306 738,-306 70,0 138,7 204,20 68,13 133,33 196,59 63,26 124,59 180,97 57,38 110,82 159,130 7,7 14,15 22,23 4,4 8,8 11,12 3,3 7,7 11,12l0 0 1 2 7 7 -7 8 -1 1 -19 19 -1 1 -8 9 -8 -9 -2 -2 0 0c-3,-4 -7,-8 -10,-12l0 0c-3,-3 -7,-7 -11,-12 -4,-4 -7,-7 -11,-11 -3,-3 -7,-7 -11,-11 -92,-92 -201,-166 -322,-216 -59,-24 -121,-43 -186,-56 -62,-12 -127,-19 -194,-19 -66,0 -131,7 -193,19 -65,13 -127,32 -186,56 -60,25 -118,56 -171,92 -55,36 -105,78 -151,124 -92,91 -165,200 -216,322 -24,59 -43,121 -56,185 -12,63 -19,128 -19,194 0,66 7,131 19,194 13,64 32,126 56,185 25,61 56,118 92,172 36,54 78,104 124,150 91,92 201,166 322,216 59,24 121,43 186,56 62,12 127,19 193,19 67,0 132,-7 194,-19 65,-13 127,-32 186,-56 60,-25 118,-56 171,-92 54,-36 105,-77 151,-124l0 0c2,-2 4,-4 7,-7 2,-2 4,-4 7,-6l4 -6 -81 -82 -4 5c-3,3 -5,5 -7,8 -4,3 -6,6 -8,7 -40,41 -85,77 -133,109 -47,32 -98,59 -151,81 -53,22 -108,39 -164,50 -56,11 -113,17 -172,17 -58,0 -115,-6 -171,-17 -57,-11 -112,-28 -164,-50 -53,-22 -104,-49 -151,-81 -49,-32 -93,-68 -134,-109 -40,-41 -77,-85 -109,-133 -32,-48 -59,-98 -81,-152 -22,-52 -38,-107 -50,-164 -11,-55 -16,-112 -16,-171 0,-59 5,-116 16,-171 12,-57 28,-112 50,-164 22,-54 49,-104 81,-152 32,-48 69,-92 109,-133 41,-41 85,-77 134,-109 47,-32 98,-59 151,-81 52,-22 107,-39 164,-50 56,-11 113,-17 171,-17 59,0 116,6 172,17 56,11 111,28 164,50 53,22 104,49 151,81 48,32 93,68 133,109 4,3 7,7 12,12l4 4 0 0 3 4 4 4 0 0 0 0c5,4 8,9 12,12 4,5 8,9 11,13l1 1 7 8 -8 7 -1 2 -18 18 -1 2 -8 8 0 0 -101 103 -3 2 -1 2 -8 7 0 0 -6 6 -8 -9 -1 -2 0 0c-4,-5 -7,-9 -11,-13 -4,-4 -7,-8 -11,-12 -3,-4 -7,-8 -11,-12 -3,-3 -6,-6 -9,-9l-1 -1 -2 -2c-30,-31 -64,-58 -99,-82 -36,-24 -74,-44 -114,-61 -39,-16 -80,-29 -123,-37 -42,-8 -85,-13 -129,-13 -44,0 -87,5 -128,13 -43,8 -84,21 -123,37 -40,17 -78,37 -114,61 -36,24 -69,51 -100,82 -30,31 -58,64 -82,100 -24,35 -44,73 -61,113 -16,40 -28,81 -37,123 -8,42 -12,85 -12,129 0,44 4,87 12,129 9,42 21,83 37,123 17,40 37,78 61,113 24,36 52,69 82,100 31,31 64,58 100,82 36,24 74,44 114,61 39,16 80,29 123,37 41,8 84,13 128,13 44,0 87,-5 129,-13 43,-8 84,-21 123,-37 40,-17 78,-37 114,-61 35,-24 69,-51 99,-82 4,-3 6,-6 8,-7 2,-3 4,-5 7,-7 2,-3 4,-5 5,-7l-80 -83c-2,3 -4,5 -6,7 -2,2 -5,5 -7,8 -3,3 -6,6 -8,8 -25,25 -53,47 -82,67 -30,20 -61,37 -94,50 -33,14 -67,24 -102,31 -34,7 -69,11 -106,11 -36,0 -71,-4 -106,-11 -35,-7 -69,-17 -101,-31 -33,-13 -64,-30 -94,-50 -30,-20 -57,-42 -82,-67 -25,-25 -48,-53 -68,-83 -19,-29 -36,-61 -50,-94 -13,-32 -24,-66 -31,-101 -7,-34 -10,-70 -10,-106 0,-36 3,-72 10,-106 7,-35 18,-69 31,-101 14,-33 31,-65 50,-94 20,-30 43,-58 68,-83 25,-25 52,-47 82,-67 30,-20 61,-37 94,-50 32,-14 66,-24 101,-31 35,-7 70,-11 106,-11 37,0 72,4 106,11 35,7 69,17 102,31 33,13 64,30 94,50 29,20 57,42 82,67 4,4 8,8 12,13l0 0c5,5 9,9 12,13 4,5 8,9 12,14 3,4 7,9 11,14l0 0 1 1 6 8 -3 2 1 0 -8 8 -1 1 -3 3 -106 107 0 0 -6 7 -1 1 -19 19 -1 1 -10 10 -8 -12 -1 -1 0 0c-3,-5 -6,-10 -10,-15 -3,-4 -7,-9 -10,-13 -4,-5 -7,-9 -11,-13 -4,-4 -8,-8 -12,-13 -30,-30 -65,-54 -105,-70 -19,-8 -39,-14 -60,-18 -21,-4 -42,-6 -64,-6 -21,0 -42,2 -63,6 -21,4 -41,10 -60,18 -20,8 -39,18 -56,30 -18,12 -34,25 -49,40 -15,15 -29,32 -41,49 -11,18 -21,37 -30,56 -7,20 -14,40 -18,61 -4,20 -6,41 -6,63 0,22 2,43 6,63 4,21 11,41 18,61 9,19 19,38 30,56 12,17 26,34 41,49 30,30 65,54 105,70 19,8 39,14 60,18 21,4 42,6 63,6 22,0 43,-2 64,-6 21,-4 41,-10 60,-18 20,-8 38,-18 56,-30 18,-12 34,-25 49,-40 4,-5 8,-9 12,-13 4,-4 7,-8 11,-13 3,-4 7,-9 10,-13 4,-5 7,-10 10,-14l0 -1 1 -1 8 -12 10 10 1 1 19 19 1 1 6 7 -5 7 -1 2c-3,5 -7,10 -10,15 -4,5 -8,9 -12,14 -3,5 -7,9 -12,14l0 0c-4,5 -8,9 -12,13 -68,68 -162,110 -266,110 -25,0 -49,-2 -73,-7 -24,-5 -48,-12 -70,-21 -23,-10 -45,-21 -65,-35 -21,-14 -40,-29 -57,-47 -68,-68 -110,-161 -110,-265 0,-25 2,-50 7,-73 5,-25 12,-48 21,-70 10,-23 22,-45 35,-65 14,-21 30,-40 47,-57 68,-68 162,-110 265,-110 25,0 50,2 74,7 24,5 47,12 70,21 23,10 44,21 65,35 20,14 40,29 57,47 2,2 5,5 8,8 2,2 5,5 7,8 2,3 4,5 6,6l81 -82z"/>
 </g>
</svg>
