<?xml version="1.0" encoding="UTF-8"?>
<!DOCTYPE svg PUBLIC "-//W3C//DTD SVG 1.1//EN" "http://www.w3.org/Graphics/SVG/1.1/DTD/svg11.dtd">
<!-- Creator: CorelDRAW X7 -->
<svg xmlns="http://www.w3.org/2000/svg" xml:space="preserve" width="4.68667in" height="3.054in" version="1.1" shape-rendering="geometricPrecision" text-rendering="geometricPrecision" image-rendering="optimizeQuality" fill-rule="evenodd" clip-rule="evenodd"
viewBox="0 0 3221 2099"
 xmlns:xlink="http://www.w3.org/1999/xlink">
 <g id="Layer_x0020_1">
  <metadata id="CorelCorpID_0Corel-Layer"/>
  <g id="_2078937176688">
   <g>
    <path fill="#606062" d="M175 1450c-102,0 -175,74 -175,178 0,2 0,5 0,7 0,3 0,6 0,8 0,102 71,178 175,178 50,0 93,-17 126,-62l-8 -5c3,-4 5,-7 8,-10l-26 -20c-20,32 -61,53 -100,53 -85,0 -140,-61 -143,-142 3,-82 60,-141 143,-141 38,0 72,17 91,46l26 -22c-3,-3 -6,-6 -8,-9l8 -6c-30,-38 -71,-53 -117,-53zm209 362l38 -89 179 0 37 89 36 0 -7 -15 7 0 -143 -338 -32 0 -148 338 7 0 -7 15 33 0zm129 -304l71 170 -143 0 72 -170zm277 304l0 -15 0 -281 1 0 206 296 41 0 0 -15 0 -323 0 -15 -32 0 0 15 0 281 -1 0 -206 -296 -40 0 0 15 0 323 0 15 31 0zm366 0l38 -89 180 0 36 89 36 0 -7 -15 7 0 -143 -338 -32 0 -148 338 7 0 -7 15 33 0zm130 -304l70 170 -143 0 73 -170zm245 289l0 15 189 0 0 -15 0 -13 0 -16 -157 0 0 -294 0 -15 -32 0 0 15 0 323zm397 15l31 0 0 -15 0 -283 1 0 131 298 14 0 129 -298 1 0 0 283 0 15 31 0 0 -15 0 -323 0 -15 -45 0 -123 283 -123 -283 -47 0 0 15 0 323 0 15zm453 0l38 -89 180 0 37 89 35 0 -7 -15 7 0 -143 -338 -32 0 -148 338 7 0 -7 15 33 0zm130 -304l70 170 -143 0 73 -170zm245 289l0 15 189 0 0 -15 0 -13 0 -16 -157 0 0 -294 0 -15 -32 0 0 15 0 323zm276 0l0 15 189 0 0 -15 0 -13 0 -16 -158 0 0 -294 0 -15 -31 0 0 15 0 323z"/>
    <path fill="#606062" d="M204 2095l0 -66 25 0 39 66 15 0 -41 -67c25,-4 36,-17 36,-36 0,-24 -16,-37 -49,-37l-38 0 0 140 13 0zm0 -78l0 -50 29 0c21,0 32,10 32,25 0,15 -12,25 -32,25l-29 0zm158 78l89 0 0 -12 -76 0 0 -54 68 0 0 -12 -68 0 0 -50 73 0 0 -12 -86 0 0 140zm210 -144c-26,0 -45,15 -45,39 0,19 10,31 31,38 29,9 42,13 42,31 0,17 -14,28 -32,28 -14,0 -25,-6 -32,-18l-13 9c11,15 27,21 46,21 26,0 44,-17 44,-40 0,-27 -19,-33 -43,-41 -22,-6 -30,-14 -30,-28 0,-17 13,-27 32,-27 12,0 21,5 27,14l12 -8c-10,-13 -23,-18 -39,-18zm136 4l-13 0 0 140 13 0 0 -140zm134 0l-44 0 0 140 45 0c57,0 74,-41 74,-69 0,-43 -27,-71 -75,-71zm-3 128l-28 0 0 -116 27 0c40,0 66,20 66,59 0,37 -26,57 -65,57zm161 12l89 0 0 -12 -76 0 0 -54 68 0 0 -12 -68 0 0 -50 73 0 0 -12 -86 0 0 140zm183 0l0 -123 1 0 85 123 17 0 0 -140 -13 0 0 123 0 0 -86 -123 -17 0 0 140 13 0zm258 -144c-43,0 -73,31 -73,74 0,42 30,74 73,74 20,0 39,-7 52,-26l-11 -8c-8,13 -25,22 -41,22 -37,0 -60,-27 -60,-62 0,-36 24,-62 60,-62 16,0 30,7 38,19l10 -9c-12,-16 -29,-22 -48,-22zm129 144l89 0 0 -12 -76 0 0 -54 68 0 0 -12 -68 0 0 -50 73 0 0 -12 -86 0 0 140zm210 -144c-25,0 -45,15 -45,39 0,19 10,31 32,38 28,9 41,13 41,31 0,17 -13,28 -32,28 -14,0 -25,-6 -32,-18l-12 9c11,15 27,21 45,21 26,0 44,-17 44,-40 0,-27 -19,-33 -43,-41 -22,-6 -30,-14 -30,-28 0,-17 14,-27 32,-27 12,0 21,5 27,14l12 -8c-10,-13 -23,-18 -39,-18zm250 30c0,-17 -15,-30 -32,-30 -20,0 -35,13 -35,32 0,13 8,22 17,33 -27,16 -32,27 -32,42 0,24 18,41 42,41 18,0 31,-8 44,-25l21 22 18 0 -32 -33 25 -45 -13 0 -20 36 -35 -36c20,-10 32,-19 32,-37zm-39 29c-12,-14 -15,-22 -15,-27 0,-12 10,-20 21,-20 12,0 20,8 20,19 0,14 -13,21 -26,28zm1 77c-18,0 -31,-12 -31,-29 0,-14 9,-24 26,-33l39 40c-9,14 -21,22 -34,22zm207 8l13 0 0 -66 79 0 0 66 13 0 0 -140 -13 0 0 62 -79 0 0 -62 -13 0 0 140zm260 -144c-43,0 -73,31 -73,74 0,42 30,74 73,74 43,0 73,-32 73,-74 0,-42 -29,-74 -73,-74zm-60 74c0,-35 24,-62 60,-62 36,0 59,27 59,62 0,35 -23,62 -59,62 -36,0 -60,-27 -60,-62zm198 -58l48 0 0 128 13 0 0 -128 48 0 0 -12 -109 0 0 12zm183 128l90 0 0 -12 -76 0 0 -54 68 0 0 -12 -68 0 0 -50 72 0 0 -12 -86 0 0 140zm184 -140l-13 0 0 140 79 0 0 -12 -66 0 0 -128z"/>
   </g>
   <path fill="#848688" fill-rule="nonzero" d="M1911 427l-2 -2 0 0c-1,-2 -3,-3 -4,-5 -1,-1 -3,-3 -4,-4 -2,-2 -3,-3 -5,-5 -14,-14 -29,-26 -45,-37 -16,-11 -33,-20 -51,-27 -18,-8 -36,-13 -56,-17 -18,-4 -38,-6 -57,-6 -20,0 -40,2 -58,6 -20,4 -38,9 -56,17 -18,7 -35,16 -51,27 -16,11 -31,23 -45,37 -14,14 -26,29 -37,45 -11,16 -20,33 -28,51 -7,18 -13,37 -16,56 -4,19 -6,38 -6,58 0,20 2,39 6,58 3,19 9,38 16,55 8,18 17,36 28,52 11,16 23,31 37,45 14,13 29,26 45,37 16,10 33,20 51,27 18,7 36,13 56,17 18,4 38,6 58,6 19,0 39,-2 57,-6 20,-4 38,-10 56,-17 18,-7 35,-17 51,-27 16,-11 31,-24 45,-37 3,-3 5,-5 7,-8 3,-2 5,-5 7,-7l0 0c3,-3 5,-6 7,-8 2,-3 4,-5 6,-8l1 -1 2 -3 3 2 1 1 1 2 1 0 2 2 1 1 62 64 0 0 3 2 0 1 11 11 0 0 1 1 2 2 -2 3 0 0c-3,3 -5,6 -7,8 -2,3 -5,5 -7,8l0 0c-2,2 -4,5 -7,7 -2,3 -5,5 -7,8 -19,19 -41,37 -64,52 -23,15 -47,28 -73,39 -25,10 -51,18 -78,24 -27,5 -54,8 -82,8 -29,0 -56,-3 -83,-8 -27,-6 -53,-14 -78,-24 -26,-11 -50,-24 -73,-39 -23,-15 -45,-33 -64,-52 -20,-20 -37,-41 -53,-64 -15,-23 -28,-47 -39,-73 -10,-25 -18,-52 -23,-79 -6,-26 -8,-54 -8,-82 0,-28 2,-56 8,-82 5,-28 13,-54 23,-79 11,-26 24,-50 39,-73 16,-23 33,-44 53,-64 19,-19 41,-37 64,-52 23,-16 47,-29 73,-39 25,-11 51,-19 78,-24 27,-5 54,-8 83,-8 28,0 55,3 82,8 27,5 53,13 78,24 26,10 50,23 73,39 23,15 45,33 64,52 1,1 3,3 5,5 1,1 3,3 4,4 1,1 2,3 4,4l0 0 1 2 53 -54c-2,-2 -4,-4 -5,-6 -3,-3 -6,-5 -8,-8 -23,-23 -49,-44 -76,-62 -27,-18 -55,-34 -86,-46 -29,-12 -60,-22 -92,-28 -32,-6 -64,-10 -97,-10 -34,0 -66,4 -98,10 -32,6 -63,16 -92,28 -31,12 -59,28 -86,46 -27,18 -53,39 -76,62 -23,23 -43,48 -62,75 -17,27 -33,56 -45,86 -13,30 -22,61 -29,93 -6,31 -9,64 -9,97 0,33 3,66 9,97 7,32 16,63 29,93 12,30 28,59 45,86 19,27 39,52 62,75 23,23 49,44 76,62 27,18 55,33 86,46 29,12 60,22 92,28 32,6 64,9 98,9 33,0 65,-3 97,-9 32,-6 63,-16 92,-28 31,-13 59,-28 86,-46 27,-18 53,-39 76,-62l0 0c2,-2 4,-5 6,-7 2,-2 4,-4 6,-5l1 -2c2,-2 5,-5 7,-7l0 0c2,-3 4,-5 6,-8l1 -1 2 -2 3 2 1 1 4 4 0 0 2 3 1 0 74 75 1 1 2 3 -2 2 -1 1 -1 1c-2,2 -4,4 -6,7 -3,2 -5,5 -7,7 -2,2 -4,4 -6,6 -2,3 -5,5 -6,7 -113,112 -268,182 -439,182 -42,0 -83,-4 -122,-12 -40,-8 -79,-20 -116,-35 -38,-16 -74,-35 -107,-58 -34,-22 -66,-48 -95,-77 -112,-112 -181,-268 -181,-439 0,-42 4,-82 11,-121 8,-41 20,-79 36,-117 15,-37 35,-73 57,-107 23,-34 49,-65 77,-94 113,-112 268,-182 440,-182 41,0 82,4 121,12 40,8 79,20 116,35 38,16 74,35 107,57 34,23 66,49 95,78 4,4 8,9 13,14 2,2 4,5 7,7 2,2 4,4 6,7l0 0 1 1 2 2 -2 2 -1 1 -11 11 -1 1 -2 3 -3 -3 -1 -1 0 0c-2,-2 -4,-5 -6,-7l0 0c-2,-2 -4,-5 -6,-7 -3,-3 -5,-5 -7,-7 -2,-2 -4,-4 -7,-7 -55,-55 -120,-99 -193,-129 -36,-15 -73,-27 -112,-34 -38,-8 -77,-12 -116,-12 -40,0 -79,4 -117,12 -39,7 -76,19 -112,34 -36,15 -70,33 -103,55 -32,22 -63,46 -90,74 -55,55 -100,121 -130,194 -15,35 -26,73 -34,111 -7,38 -11,77 -11,117 0,40 4,79 11,116 8,39 19,76 34,112 15,36 34,71 55,103 22,33 47,63 75,91 55,55 120,99 193,129 36,15 73,26 112,34 38,7 77,11 117,11 39,0 78,-4 116,-11 39,-8 76,-19 112,-34 36,-15 70,-33 103,-55 32,-22 63,-47 90,-74l0 0c2,-2 3,-3 4,-5 2,-1 3,-2 4,-4l4 -4 2 -1 -53 -54 -2 1c-1,2 -2,3 -4,5 -1,1 -2,2 -4,4 -2,2 -3,3 -4,4 -24,24 -51,46 -79,65 -28,19 -59,35 -90,48 -31,13 -64,23 -98,30 -33,6 -67,10 -101,10 -35,0 -69,-4 -102,-10 -34,-7 -67,-17 -98,-30 -31,-13 -62,-29 -90,-48 -28,-19 -55,-41 -79,-65 -24,-24 -46,-50 -65,-79 -19,-28 -35,-58 -48,-90 -13,-31 -23,-64 -30,-97 -6,-33 -9,-67 -9,-102 0,-35 3,-69 9,-102 7,-34 17,-66 30,-97 13,-32 29,-62 48,-90 19,-29 41,-55 65,-79 24,-25 51,-46 79,-65 28,-19 59,-35 90,-49 31,-12 64,-22 98,-29 33,-7 67,-10 102,-10 34,0 68,3 101,10 34,7 67,17 98,29 31,14 62,30 90,49 28,19 55,40 79,65 2,2 4,4 7,7 1,1 3,3 4,4l0 0 1 1 2 2 0 0 0 0c2,2 4,5 6,7 3,3 5,5 7,8l1 0 2 3 -3 2 0 1 -11 11 -1 1 -2 2 0 0 -63 64 -2 2 0 0 -3 3 0 0 0 0 -3 3 -2 -3 -1 -1 0 0c-2,-3 -5,-5 -7,-8 -2,-2 -4,-5 -6,-7 -2,-2 -5,-5 -7,-7 -2,-2 -4,-4 -6,-6l0 0 -1 -2c-18,-18 -39,-35 -60,-49 -22,-14 -45,-27 -69,-37 -23,-9 -48,-17 -74,-22 -25,-5 -51,-8 -77,-8 -27,0 -53,3 -78,8 -26,5 -51,13 -74,22 -24,10 -47,23 -69,37 -21,14 -42,31 -60,49 -18,19 -35,39 -49,61 -15,21 -27,44 -37,68 -10,24 -17,49 -22,74 -5,25 -8,51 -8,78 0,26 3,52 8,77 5,26 12,51 22,75 10,24 22,47 37,68 14,22 31,42 49,60 18,19 39,35 60,50 22,14 45,26 69,36 23,10 48,18 74,23 25,5 51,7 78,7 26,0 52,-2 77,-7 26,-5 51,-13 74,-23 24,-10 47,-22 69,-36 21,-15 42,-31 60,-50 2,-1 3,-3 4,-4 2,-1 3,-3 4,-4 2,-2 3,-4 4,-5l0 0 2 -1 -53 -55 -1 2 0 0c-2,2 -3,3 -4,4 -2,2 -3,4 -5,5 -2,2 -3,4 -4,5 -15,15 -32,28 -49,40 -18,12 -36,22 -56,30 -19,8 -39,14 -60,18 -20,4 -41,6 -62,6 -22,0 -43,-2 -63,-6 -21,-4 -41,-10 -60,-18 -20,-8 -38,-18 -56,-30 -17,-12 -34,-25 -49,-40 -14,-15 -28,-31 -40,-49 -11,-17 -21,-36 -29,-55 -8,-20 -14,-40 -18,-60 -4,-21 -7,-42 -7,-63 0,-22 3,-43 7,-63 4,-21 10,-41 18,-60 8,-19 18,-38 29,-55 12,-18 26,-34 40,-49 15,-15 32,-28 49,-40 18,-12 36,-22 56,-30 19,-8 39,-14 60,-18 20,-4 41,-6 63,-6 21,0 42,2 62,6 21,4 41,10 60,18 20,8 38,18 56,30 17,12 34,25 49,40 2,2 4,5 7,7l0 0c2,3 5,6 7,8 2,3 4,5 7,8 2,3 4,6 6,8l0 0 1 1 1 2 -1 2 0 0 -2 2 -1 1 -2 2 -65 66 0 0 -2 2 0 1 -11 11 -1 1 -3 3 -3 -4 0 -1 0 0c-2,-3 -4,-6 -6,-8 -2,-3 -4,-6 -6,-9 -3,-2 -5,-5 -7,-8 -3,-2 -5,-5 -7,-7 -19,-18 -40,-33 -64,-43 -12,-5 -24,-9 -37,-11 -12,-2 -25,-4 -38,-4 -14,0 -27,2 -39,4 -13,2 -25,6 -37,11 -12,5 -23,11 -34,18 -10,7 -20,16 -30,25 -9,9 -17,19 -24,30 -7,10 -13,22 -18,34 -5,11 -9,24 -11,36 -3,13 -4,26 -4,39 0,13 1,26 4,38 2,13 6,25 11,37 5,12 11,23 18,34 7,11 15,21 24,30 19,18 40,33 64,43 12,5 24,8 37,11 12,2 25,4 39,4 13,0 26,-2 38,-4 13,-3 25,-6 37,-11 12,-5 23,-11 34,-18 10,-8 20,-16 30,-25 2,-3 4,-5 7,-8 2,-2 4,-5 7,-8 2,-2 4,-5 6,-8 2,-3 4,-6 6,-8l0 0 0 -2 3 -3 3 3 1 1 11 11 0 1 2 2 -1 2 -1 1c-2,3 -4,6 -6,9 -2,3 -4,5 -7,8 -2,3 -4,6 -7,8l0 0c-2,3 -5,6 -7,8 -40,40 -95,65 -156,65 -15,0 -30,-1 -44,-4 -14,-3 -28,-7 -41,-13 -13,-5 -26,-12 -38,-20 -12,-8 -24,-18 -34,-28 -40,-40 -65,-95 -65,-156 0,-15 2,-29 5,-43 2,-15 7,-28 12,-42 6,-13 13,-26 21,-38 8,-12 17,-23 27,-33 40,-40 95,-65 157,-65 14,0 29,1 43,4 14,3 28,7 41,13 14,5 26,12 38,20 12,8 24,17 34,28 1,1 3,3 5,4 1,2 3,4 4,5 2,2 3,4 4,5l2 2 53 -54z"/>
  </g>
 </g>
</svg>
