<svg id="Layer_1" data-name="Layer 1" xmlns="http://www.w3.org/2000/svg" viewBox="0 0 600 250"><defs><style>.cls-1{fill:#041f3d;}</style></defs><title>ellingtonproperties</title><polygon class="cls-1" points="75 120.86 75 171.76 108.45 171.76 108.45 165.22 82.42 165.22 82.42 149.94 102.78 149.94 102.78 143.4 82.42 143.4 82.42 127.4 108.45 127.4 108.45 120.86 75 120.86"/><polygon class="cls-1" points="127.36 120.86 127.36 171.76 154.26 171.76 154.26 165.22 134.85 165.22 134.85 120.86 127.36 120.86"/><polygon class="cls-1" points="173.17 120.86 173.17 171.76 200.08 171.76 200.08 165.22 180.66 165.22 180.66 120.86 173.17 120.86"/><rect class="cls-1" x="218.99" y="120.86" width="7.48" height="50.9"/><path class="cls-1" d="M333.6,120.14c-19.42,0-25.16,15.48-25.16,26.1,0,10.91,5.74,26.19,25.16,26.19,8.14,0,13.89-2.77,18.24-7.14V147.05H333.67v6.54h10.68v8.8a18.11,18.11,0,0,1-10.75,3.27c-15.35,0-17.61-14.54-17.61-19.42s2.26-19.49,17.61-19.49a18.72,18.72,0,0,1,13,5.39l4.66-4.8c-4.37-4.81-9.1-7.2-17.67-7.2"/><polygon class="cls-1" points="366.03 120.86 366.03 127.4 380.79 127.4 380.79 171.76 388.29 171.76 388.29 127.4 403.19 127.4 403.19 120.86 366.03 120.86"/><path class="cls-1" d="M439.63,120.14c-19.42,0-25.16,15.48-25.16,26.1,0,10.91,5.74,26.19,25.16,26.19s25.16-15.28,25.16-26.19c0-10.62-5.75-26.1-25.16-26.1m0,45.66c-15.35,0-17.61-14.68-17.61-19.56s2.26-19.49,17.61-19.49,17.52,14.63,17.52,19.49S455,165.8,439.63,165.8"/><path class="cls-1" d="M288.71,172.16l.82-.39V120.86H282v33.83l-37.45-37.45v9a3.72,3.72,0,0,0,1.22,3.06l2.49,2.49v40h7.5V139.23Z"/><path class="cls-1" d="M190.78,74.22l35.69-35.69v6.2a3,3,0,0,1-1.08,2.58L212.65,60.05l12.74,12.74a3,3,0,0,1,1.08,2.58v6.2l-3.5-3.5L212.65,88.39l12.74,12.74a3,3,0,0,1,1.08,2.57v6.21Zm7.7,0L208.8,84.54l10.32-10.32L208.8,63.9Z"/><path class="cls-1" d="M524.11,172.16l.82-.39V120.86h-7.5v33.83l-33-33-.73.35v49.74h7.5V139.23Z"/><path class="cls-1" d="M257.5,194.36a5.6,5.6,0,0,0-1.89-.76,9.39,9.39,0,0,0-1.92-.21h-5.25V211h2.33v-8h3.28a7.09,7.09,0,0,0,2-.28,5.11,5.11,0,0,0,1.75-.86,4.27,4.27,0,0,0,1.22-1.5,4.7,4.7,0,0,0,.46-2.15,4.64,4.64,0,0,0-.56-2.37,4.24,4.24,0,0,0-1.44-1.5m-.32,3.87a2.52,2.52,0,0,1-.27,1.23,2.21,2.21,0,0,1-.69.79,2.85,2.85,0,0,1-1,.44,5.05,5.05,0,0,1-1.23.15h-3.2v-5.27h3.11a4.8,4.8,0,0,1,1.24.16,3.2,3.2,0,0,1,1.06.47,2.65,2.65,0,0,1,.73.83,2.45,2.45,0,0,1,.27,1.2"/><path class="cls-1" d="M286,202.57a4.55,4.55,0,0,0,1.51-.79,4.16,4.16,0,0,0,1.15-1.39,4.61,4.61,0,0,0,.46-2.19,4.71,4.71,0,0,0-.39-2,4.48,4.48,0,0,0-1-1.39,4.55,4.55,0,0,0-1.36-.84,8.76,8.76,0,0,0-1.43-.4,10.9,10.9,0,0,0-1.29-.15l-.92,0H278V211h2.33v-8h2.34l4.76,8H290l-5-8.22a9.23,9.23,0,0,0,1-.25m.66-3.52a1.93,1.93,0,0,1-.49.83,3,3,0,0,1-1.08.68,5.14,5.14,0,0,1-1.88.28h-3v-5.27h3a5.14,5.14,0,0,1,1.88.28,3.09,3.09,0,0,1,1.08.68,2,2,0,0,1,.49.83,2.62,2.62,0,0,1,0,1.69"/><path class="cls-1" d="M322.5,195.59a8.48,8.48,0,0,0-2.88-1.93,10.08,10.08,0,0,0-7.38,0,8.58,8.58,0,0,0-2.88,1.93,9.07,9.07,0,0,0-1.87,2.93,10.55,10.55,0,0,0,0,7.4,8.85,8.85,0,0,0,1.87,2.94,8.44,8.44,0,0,0,2.88,1.93,10.35,10.35,0,0,0,7.38,0,8.44,8.44,0,0,0,2.88-1.93,8.69,8.69,0,0,0,1.87-2.94,9.9,9.9,0,0,0,.67-3.7,10.1,10.1,0,0,0-.67-3.7,8.75,8.75,0,0,0-1.87-2.93m-6.57-.45a7.06,7.06,0,0,1,2.82.54,6.15,6.15,0,0,1,2.13,1.49,6.45,6.45,0,0,1,1.36,2.24,8.44,8.44,0,0,1,0,5.61,6.45,6.45,0,0,1-1.36,2.24,6.15,6.15,0,0,1-2.13,1.49,7.66,7.66,0,0,1-5.65,0,6.34,6.34,0,0,1-2.13-1.49,6.58,6.58,0,0,1-1.35-2.24,8.44,8.44,0,0,1,0-5.61,6.58,6.58,0,0,1,1.35-2.24,6.34,6.34,0,0,1,2.13-1.49,7.14,7.14,0,0,1,2.83-.54"/><path class="cls-1" d="M352.7,194.36a5.66,5.66,0,0,0-1.9-.76,9.32,9.32,0,0,0-1.92-.21h-5.25V211H346v-8h3.28a7.09,7.09,0,0,0,2-.28,5.11,5.11,0,0,0,1.75-.86,4.41,4.41,0,0,0,1.23-1.5,4.83,4.83,0,0,0,.45-2.15,4.64,4.64,0,0,0-.56-2.37,4.21,4.21,0,0,0-1.43-1.5m-.33,3.87a2.67,2.67,0,0,1-.26,1.23,2.23,2.23,0,0,1-.7.79,2.85,2.85,0,0,1-1,.44,5.05,5.05,0,0,1-1.23.15H346v-5.27h3.11a4.93,4.93,0,0,1,1.25.16,3.24,3.24,0,0,1,1.05.47,2.65,2.65,0,0,1,.73.83,2.45,2.45,0,0,1,.27,1.2"/><polygon class="cls-1" points="375.47 203.02 383.68 203.02 383.68 200.84 375.47 200.84 375.47 195.57 384.23 195.57 384.23 193.39 373.14 193.39 373.14 211.04 384.61 211.04 384.61 208.86 375.47 208.86 375.47 203.02"/><path class="cls-1" d="M411.18,202.57a4.7,4.7,0,0,0,1.52-.79,4.16,4.16,0,0,0,1.15-1.39,4.61,4.61,0,0,0,.46-2.19,4.79,4.79,0,0,0-.39-2,4.55,4.55,0,0,0-1-1.38,4.48,4.48,0,0,0-1.37-.84,9.11,9.11,0,0,0-2.71-.54l-.93,0h-4.81V211h2.32v-8h2.35l4.75,8h2.67l-5-8.21a9.88,9.88,0,0,0,1-.26m.67-3.52a2,2,0,0,1-.5.83,3.13,3.13,0,0,1-1.07.68,5.36,5.36,0,0,1-1.88.28h-3v-5.27h3a5.36,5.36,0,0,1,1.88.28,3.13,3.13,0,0,1,1.07.68,2,2,0,0,1,.5.82,3.19,3.19,0,0,1,.14.85,3.07,3.07,0,0,1-.14.85"/><polygon class="cls-1" points="431.04 195.57 436.82 195.57 436.82 211.04 439.14 211.04 439.14 195.57 444.92 195.57 444.92 193.39 431.04 193.39 431.04 195.57"/><rect class="cls-1" x="462.58" y="193.39" width="2.32" height="17.65"/><polygon class="cls-1" points="486.92 203.02 495.13 203.02 495.13 200.84 486.92 200.84 486.92 195.57 495.68 195.57 495.68 193.39 484.59 193.39 484.59 211.04 496.06 211.04 496.06 208.86 486.92 208.86 486.92 203.02"/><path class="cls-1" d="M524.28,203.66a5,5,0,0,0-1.74-1.51,10.06,10.06,0,0,0-2.17-.83,16,16,0,0,1-2.06-.68,4.12,4.12,0,0,1-1.48-1,2.4,2.4,0,0,1-.55-1.69,2.64,2.64,0,0,1,.27-1.24,2.55,2.55,0,0,1,.72-.87,3.35,3.35,0,0,1,1.09-.53,4.38,4.38,0,0,1,3.07.18,3.73,3.73,0,0,1,1.27,1.15l.22.3,2-1.42-.23-.3a5.21,5.21,0,0,0-2.2-1.76,7.45,7.45,0,0,0-4.87-.2,5.87,5.87,0,0,0-1.85.94,4.86,4.86,0,0,0-1.3,1.58A4.81,4.81,0,0,0,514,198a5.2,5.2,0,0,0,.41,2.16,4.13,4.13,0,0,0,1.08,1.47,5.51,5.51,0,0,0,1.5.94c.52.22,1.07.43,1.63.61s1.08.34,1.59.52a7.42,7.42,0,0,1,1.33.6,2.64,2.64,0,0,1,.87.82,2.35,2.35,0,0,1,.31,1.26,2.75,2.75,0,0,1-.26,1.2,2.83,2.83,0,0,1-.72.92,3.29,3.29,0,0,1-1.09.6,4,4,0,0,1-1.36.22,4.4,4.4,0,0,1-2.08-.48,3.7,3.7,0,0,1-1.46-1.45l-.2-.35-2.16,1.44.23.31a6.06,6.06,0,0,0,2.57,2.1,8.47,8.47,0,0,0,3.22.61,6.73,6.73,0,0,0,2.1-.33,5.46,5.46,0,0,0,1.81-1,4.89,4.89,0,0,0,1.25-1.62,5,5,0,0,0,.47-2.19,4.49,4.49,0,0,0-.72-2.69"/></svg>